<?xml version="1.0" encoding="utf-8"?>
<!-- Generator: Adobe Illustrator 24.3.0, SVG Export Plug-In . SVG Version: 6.00 Build 0)  -->
<svg version="1.1" id="Слой_1" xmlns="http://www.w3.org/2000/svg" xmlns:xlink="http://www.w3.org/1999/xlink" x="0px" y="0px"
	 viewBox="0 0 2000 2000" style="enable-background:new 0 0 2000 2000;" xml:space="preserve">
<style type="text/css">
	.st0{opacity:0.95;fill:url(#SVGID_1_);}
	.st1{fill:#96BFE6;}
	.st2{opacity:0.95;fill:url(#SVGID_2_);}
	.st3{fill:#4598E6;}
	.st4{fill:url(#SVGID_3_);}
	.st5{opacity:0.95;fill:url(#SVGID_4_);}
	.st6{fill:url(#SVGID_5_);}
	.st7{fill:url(#SVGID_6_);}
	.st8{fill:url(#SVGID_7_);}
	.st9{fill:url(#SVGID_8_);}
	.st10{fill:url(#SVGID_9_);}
	.st11{fill:#FFFFFF;}
	.st12{fill:url(#SVGID_10_);}
	.st13{fill:url(#SVGID_11_);}
	.st14{opacity:0.95;fill:url(#SVGID_12_);}
	.st15{fill:#E65353;}
	.st16{fill:#EEA987;}
	.st17{fill:#D98B52;}
	.st18{fill:#B84343;}
	.st19{fill:#C78D71;}
	.st20{fill:#EEA886;}
	.st21{fill:#16202E;}
	.st22{fill:#FAA146;}
	.st23{fill:#8E4F3A;}
	.st24{fill:#633029;}
	.st25{fill:#323657;}
	.st26{fill:#FCCCA2;}
	.st27{fill:#E55353;}
	.st28{fill:#A77860;}
	.st29{fill:#EBEEFF;}
	.st30{fill:#353A3D;}
	.st31{fill:#81807E;}
	.st32{fill:#2D3133;}
	.st33{fill:#DECBC4;}
	.st34{fill:#495055;}
	.st35{fill:#252E3B;}
	.st36{fill:#3C4145;}
	.st37{fill:#B3A5A0;}
	.st38{fill:#51565C;}
	.st39{fill:#F5E2D9;}
	.st40{fill:#AD9F99;}
	.st41{fill:#69737A;}
	.st42{fill:#181929;}
	.st43{fill:#22243B;}
	.st44{fill:#292C47;}
	.st45{fill:#CFBEB6;}
	.st46{fill:#3A3F47;}
	.st47{fill:#23263D;}
	.st48{fill:#D44040;}
	.st49{fill:#EDDAD3;}
	.st50{fill:#8F5C28;}
	.st51{fill:url(#SVGID_13_);}
	.st52{fill:url(#SVGID_14_);}
</style>
<g>
	<linearGradient id="SVGID_1_" gradientUnits="userSpaceOnUse" x1="1013.2451" y1="1349.0145" x2="973.9882" y2="637.475">
		<stop  offset="0" style="stop-color:#D1D7E0"/>
		<stop  offset="1" style="stop-color:#EBEBFF"/>
	</linearGradient>
	<path class="st0" d="M1170.2,949.7H784.5c-32.4,0-58.7-26.3-58.7-58.7V505.4c0-32.4,26.3-58.7,58.7-58.7h385.7
		c32.4,0,58.7,26.3,58.7,58.7v385.7C1228.8,923.5,1202.6,949.7,1170.2,949.7z"/>
	<rect x="860.9" y="835.2" class="st1" width="232.9" height="11.5"/>
	<rect x="893.9" y="871.5" class="st1" width="166.9" height="11.5"/>
	<linearGradient id="SVGID_2_" gradientUnits="userSpaceOnUse" x1="1655.7941" y1="1547.8561" x2="1655.7941" y2="814.9081">
		<stop  offset="0" style="stop-color:#D1D7E0"/>
		<stop  offset="1" style="stop-color:#EBEBFF"/>
	</linearGradient>
	<path class="st2" d="M1930.9,1429.2h-550.2c-38.2,0-69.1-30.9-69.1-69.1V690.3c0-38.2,30.9-69.1,69.1-69.1h550.2
		c38.2,0,69.1,30.9,69.1,69.1v669.8C2000,1398.3,1969.1,1429.2,1930.9,1429.2z"/>
	<g>
		<rect x="1623.7" y="1097.9" class="st3" width="54.6" height="10.1"/>
	</g>
	<g>
		<rect x="1416.4" y="1190.5" class="st1" width="317.7" height="19.6"/>
		<rect x="1416.4" y="1284.5" class="st1" width="256.9" height="19.6"/>
		<rect x="1416.4" y="1237.5" class="st1" width="150.6" height="19.6"/>
	</g>
	<g>
		<path class="st3" d="M1817.3,701.8v9.9h58.2v54.6h9.9v-64.5H1817.3z M1421.9,766.3h9.9v-54.6h58.2v-9.9h-68.1V766.3z
			 M1875.5,1048.2v54.7h-58.2v9.9h68.1v-64.5H1875.5z M1431.8,1048.2h-9.9v64.5h68.1v-9.9h-58.2V1048.2z"/>
	</g>
	<g>
		<g>
			<path class="st3" d="M1854.5,1305.5c-32.1,0-58.2-26.1-58.2-58.2c0-32.1,26.1-58.2,58.2-58.2c32.1,0,58.2,26.1,58.2,58.2
				C1912.8,1279.4,1886.6,1305.5,1854.5,1305.5z M1854.5,1200.4c-25.9,0-47,21.1-47,47c0,25.9,21.1,47,47,47c25.9,0,47-21.1,47-47
				C1901.5,1221.4,1880.4,1200.4,1854.5,1200.4z"/>
		</g>
		<g>
			<polygon class="st3" points="1850.8,1270.2 1824.4,1243.8 1832.3,1235.8 1850.8,1254.3 1876.7,1228.4 1884.7,1236.4 			"/>
		</g>
	</g>
	<linearGradient id="SVGID_3_" gradientUnits="userSpaceOnUse" x1="0" y1="1759.6306" x2="1889.558" y2="1759.6306">
		<stop  offset="5.208330e-03" style="stop-color:#1A2257"/>
		<stop  offset="1" style="stop-color:#5E60F2"/>
	</linearGradient>
	<path class="st4" d="M1889.6,1759.6c0,24.4-423,44.2-944.8,44.2C423,1803.8,0,1784.1,0,1759.6c0-24.4,423-44.2,944.8-44.2
		C1466.6,1715.4,1889.6,1735.2,1889.6,1759.6z"/>
	<linearGradient id="SVGID_4_" gradientUnits="userSpaceOnUse" x1="977.3398" y1="1095.245" x2="977.3398" y2="559.3076">
		<stop  offset="0" style="stop-color:#D1D7E0"/>
		<stop  offset="1" style="stop-color:#EBEBFF"/>
	</linearGradient>
	<rect x="807.8" y="465.5" class="st5" width="339" height="290.9"/>
	<g>
		<g>
			
				<linearGradient id="SVGID_5_" gradientUnits="userSpaceOnUse" x1="-3073.8821" y1="1402.1486" x2="-2952.4019" y2="1402.1486" gradientTransform="matrix(-1 0 0 1 -2645.543 0)">
				<stop  offset="5.208330e-03" style="stop-color:#1A2257"/>
				<stop  offset="1" style="stop-color:#5E60F2"/>
			</linearGradient>
			<path class="st6" d="M309.5,1630.7c28.2-19.8,61.3-158.2,63.2-240.6c1-42.2,13.5-59.8,24.5-75.3c10.5-14.8,19.6-27.6,14.3-57
				c-10.1-56.2,16.5-80.5,16.8-80.7l-3.1-3.5c-1.2,1-28.9,26.1-18.3,85c4.9,27.5-3.2,39-13.5,53.5c-10.8,15.3-24.3,34.3-25.4,77.9
				c-2.1,88.4-35.9,219-61.3,236.9L309.5,1630.7z"/>
		</g>
		<g>
			
				<linearGradient id="SVGID_6_" gradientUnits="userSpaceOnUse" x1="-2979.4961" y1="1502.4248" x2="-2758.6492" y2="1502.4248" gradientTransform="matrix(-1 0 0 1 -2645.543 0)">
				<stop  offset="5.208330e-03" style="stop-color:#1A2257"/>
				<stop  offset="1" style="stop-color:#5E60F2"/>
			</linearGradient>
			<path class="st7" d="M250.4,1590.4c-2.7-6-5.4-12.3-8.5-18.9c-16.1-34-30.4-39.6-54.1-48.9c-5.8-2.3-12.3-4.8-19.5-8.1
				c-33.9-15.2-27.3-37.7-21.5-57.5c0.8-2.8,1.6-5.5,2.3-8.3c3-11.6-2.7-17.5-11.4-26.3c-6.4-6.6-14.5-14.8-20.6-27.7
				c-6.8-14.1-3.3-21.7,0.8-25.6c8.6-8.2,28.4-6.6,47.2,3.6c5.8,3.2,10.6,8.2,15.7,13.5c11.9,12.5,26.8,28.1,64.4,28.2
				c21.4,0.1,33.2,3.1,39.2,9.9c6.9,7.7,5.6,19.3,3.8,35.4c-0.6,5.6-1.3,11.8-1.8,18.6c-2.6,40.6,21.4,69.8,21.6,70.1
				c14.3,17,31.9,52.4,24.3,74.2c-3.2,9.1-10.3,14.9-21.2,17.1c-4.3,0.9-8.3,1.3-11.9,1.3C272.7,1641,263.1,1619.2,250.4,1590.4z
				 M162.6,1376.8c-16.7-9.1-34.6-11-41.7-4.3c-5.4,5.1-2.8,13.8,0.2,20.2c5.8,12.2,13.2,19.8,19.8,26.4
				c9.1,9.3,16.2,16.6,12.6,30.8c-0.7,2.8-1.5,5.6-2.4,8.4c-5.8,19.7-11.2,38.4,19,51.9c7.1,3.2,13.6,5.7,19.3,8
				c23.9,9.4,39.7,15.6,56.6,51.3c3.1,6.6,5.9,12.9,8.6,19c14.6,33.1,23.4,53.1,55.3,46.6c9.2-1.8,15.1-6.6,17.7-14
				c6.7-19.2-9.3-52.7-23.5-69.6c-1-1.2-25.4-30.9-22.7-73.4c0.4-6.9,1.1-13.3,1.8-18.9c1.7-14.9,2.9-25.6-2.6-31.8
				c-5-5.7-16.1-8.2-35.8-8.3c-39.6-0.2-55.2-16.5-67.7-29.7C172.1,1384.1,167.8,1379.6,162.6,1376.8L162.6,1376.8z"/>
		</g>
		<g>
			
				<linearGradient id="SVGID_7_" gradientUnits="userSpaceOnUse" x1="-2960.6174" y1="1534.5406" x2="-2794.8569" y2="1534.5406" gradientTransform="matrix(-1 0 0 1 -2645.543 0)">
				<stop  offset="5.208330e-03" style="stop-color:#1A2257"/>
				<stop  offset="1" style="stop-color:#5E60F2"/>
			</linearGradient>
			<path class="st8" d="M310.4,1667.9l4.7-0.2c-0.2-4.4-6.1-107.6-47.6-137.8c-45.5-33.1-59.8-68.8-66.6-92.7
				c-8-28.2-49-35.7-50.7-36l-0.8,4.6c0.4,0.1,39.8,7.3,47.1,32.7c7,24.6,21.7,61.2,68.4,95.2
				C304.4,1562.5,310.4,1666.9,310.4,1667.9z"/>
		</g>
		<g>
			
				<linearGradient id="SVGID_8_" gradientUnits="userSpaceOnUse" x1="-3160.9866" y1="1366.1544" x2="-2912.0686" y2="1366.1544" gradientTransform="matrix(-1 0 0 1 -2645.543 0)">
				<stop  offset="5.208330e-03" style="stop-color:#1A2257"/>
				<stop  offset="1" style="stop-color:#5E60F2"/>
			</linearGradient>
			<path class="st9" d="M302.5,1691.1c-9.8-4.9-9.4-24.4-8.9-54c0.7-37.4,1.6-88.5-18-135.6c-20.8-50-2.2-64.6,15.7-78.7
				c20.1-15.8,39-30.8,2.6-98.2c-16.7-31-22-51.9-16.7-66c5.3-13.8,20-19.2,35.6-25c27-9.9,57.5-21,53.6-78.1
				c-1.2-17.5,0.8-28.2,6.5-33.8c6.1-6.1,15.1-5.4,25.5-4.7c15.8,1.2,33.6,2.5,49.1-17.8c1.6-5.1,16.5-50.3,34.3-58
				c3.7-1.6,7.4-1.6,10.9,0.1l0,0c12.3,5.9,19.4,12.8,21.8,21.3c4.1,14.7-6.6,31.3-19.1,50.5c-19.6,30.2-41.8,64.4-18.8,105
				c30.5,53.8,14.4,72.6-7.9,98.7c-12.8,14.9-27.2,31.8-36.9,59.4c-7.8,22.2,5.5,43.4,18.3,63.8c16.1,25.7,32.7,52.2-2.3,75.3
				c-57.9,38.1-115.1,162.4-115.6,163.7l-0.2,0.5l-0.4,0.4c-10.7,8.4-18.4,12.3-24.3,12.3C305.6,1692.2,304,1691.9,302.5,1691.1z
				 M445.4,1511.5c31.2-20.5,17.2-42.9,0.9-68.9c-12.8-20.4-27.3-43.5-18.8-67.8c10-28.4,24.7-45.7,37.7-60.9
				c21.8-25.5,36.2-42.4,7.4-93.4c-24.4-43.2-0.4-80.2,18.9-109.9c11.8-18.2,22.1-34,18.5-46.7c-2-7.1-8.3-13.1-19.3-18.3l0,0
				c-2.2-1.1-4.5-1.1-7,0c-16.5,7.2-31.6,55.1-31.8,55.5l-0.1,0.4l-0.2,0.3c-17.1,22.6-37.3,21.2-53.4,20
				c-9.7-0.7-17.3-1.3-21.9,3.3c-4.5,4.5-6.2,14.4-5.1,30.2c4.2,60.5-29.5,72.9-56.6,82.8c-15.2,5.6-28.4,10.4-32.9,22.2
				c-4.8,12.7,0.4,32.4,16.4,62.1c38.2,70.9,16.8,87.8-3.9,104.1c-17.3,13.7-33.7,26.5-14.3,73.3c19.9,48,19,99.7,18.3,137.4
				c-0.5,25.8-0.8,46.1,6.3,49.7c4.2,2.1,12.1-1.4,23.7-10.4C332.9,1666.5,387.7,1549.4,445.4,1511.5z"/>
		</g>
		<linearGradient id="SVGID_9_" gradientUnits="userSpaceOnUse" x1="367.2353" y1="1637.8682" x2="222.3074" y2="1203.0833">
			<stop  offset="5.208330e-03" style="stop-color:#1A2257"/>
			<stop  offset="1" style="stop-color:#5E60F2"/>
		</linearGradient>
		<path class="st10" d="M211.1,1149.3c29.5-10.1,23.3,46.7,35.8,88.7c12.4,42,138.5,18.3,85.6,123.5c-52.9,105.2,66.9,35.2,31.1,127
			c-35.8,91.8-3.1,190-42,165c-38.9-25-21.9-140.6-62.3-154.3c-40.5-13.7-47.1-29.8-7-67.1s-105-74.4-69.2-149.8
			C218.9,1206.8,177.1,1160.9,211.1,1149.3z"/>
		<g>
			<path class="st11" d="M308.1,1647.5c3.7-15.7,35.3-154,5.8-170.8c-26-14.7-25.4-72.1-21.3-126.2c3.6-47.9-57.9-70.3-60.6-71.2
				l-1.6,4.4c0.6,0.2,60.8,22.1,57.5,66.5c-4.2,55.6-4.6,114.6,23.7,130.6c22.4,12.7,1.8,123.9-8.1,165.6L308.1,1647.5z"/>
		</g>
		<linearGradient id="SVGID_10_" gradientUnits="userSpaceOnUse" x1="255.1051" y1="1921.8177" x2="327.5693" y2="1609.4385">
			<stop  offset="0" style="stop-color:#C9C4C1"/>
			<stop  offset="1" style="stop-color:#FFF6DE"/>
		</linearGradient>
		<polygon class="st12" points="419.2,1598.3 377.2,1757.8 283.2,1757.8 241.1,1598.3 		"/>
		
			<linearGradient id="SVGID_11_" gradientUnits="userSpaceOnUse" x1="221.5624" y1="1678.0464" x2="399.6993" y2="1678.0464" gradientTransform="matrix(1 0 0 1 19.5338 0)">
			<stop  offset="0" style="stop-color:#C9C4C1"/>
			<stop  offset="1" style="stop-color:#FFF6DE"/>
		</linearGradient>
		<path class="st13" d="M419.2,1598.3c0,0-92.6,17.4-92.6,159.6h-43.5l-42.1-159.6H419.2z"/>
	</g>
	<linearGradient id="SVGID_12_" gradientUnits="userSpaceOnUse" x1="1463.026" y1="642.153" x2="1463.026" y2="340.2527">
		<stop  offset="0" style="stop-color:#D1D7E0"/>
		<stop  offset="1" style="stop-color:#EBEBFF"/>
	</linearGradient>
	<path class="st14" d="M1599.6,593.3h-273.1c-26.6,0-48.2-21.6-48.2-48.2V308.7c0-26.6,21.6-48.2,48.2-48.2h273.1
		c26.6,0,48.2,21.6,48.2,48.2v236.4C1647.8,571.7,1626.2,593.3,1599.6,593.3z"/>
	<g>
		<rect x="1447" y="530.3" class="st3" width="29.3" height="5.4"/>
	</g>
	<g>
		<path class="st3" d="M1550.9,320.7v5.3h31.3v29.3h5.3v-34.6H1550.9z M1338.6,355.3h5.3V326h31.3v-5.3h-36.6V355.3z M1582.1,506.7
			V536h-31.3v5.3h36.6v-34.7H1582.1z M1343.9,506.7h-5.3v34.7h36.6V536h-31.3V506.7z"/>
	</g>
	<g>
		<rect x="957.8" y="779" class="st3" width="39.1" height="7.3"/>
	</g>
	<g>
		<path class="st3" d="M1094.7,499v7.1h41.7v39.2h7.1V499H1094.7z M811.2,545.2h7.1v-39.2H860V499h-48.8V545.2z M1136.4,747.4v39.2
			h-41.7v7.1h48.8v-46.3H1136.4z M818.3,747.4h-7.1v46.3H860v-7.1h-41.7V747.4z"/>
	</g>
	<g>
		<g>
			<path class="st15" d="M1863.7,1007.6h-65.3c-4.3-31.3-9.6-67-9.6-67s-2.6,29.5-5.9,67h-261.3c-2.4-33.7-5.3-59-6.3-59.5
				c-1.5-0.8-10.8,29.2-18.6,59.5H1426c18.2-78.4,52.1-204.1,71.8-211.7c27.9-10.7,141.8-45.8,141.8-45.8h65
				c0,0,115.5,33,126.2,68.8C1839.4,847.4,1858.2,941.5,1863.7,1007.6z"/>
		</g>
		<g>
			<path class="st16" d="M1675.1,539.2c0,0,60.7,9.6,51.4,104.5c-9.2,95-62.8,87.2-66.4,87.1c-3.6-0.1-53.8,1.7-57.7-114.2
				C1602.5,616.6,1600.8,530.9,1675.1,539.2z"/>
		</g>
		<g>
			<path class="st16" d="M1703.4,702.8c0,0-1.7,39.1,2.1,47.5c3.8,8.5-50.1,35.6-82.9,5.3c0,0,7.9-42.4,5.7-57.5
				C1626.1,683.2,1703.4,702.8,1703.4,702.8z"/>
		</g>
		<g>
			<path class="st16" d="M1727.5,616.9c0,0,6.6-7.1,9.1,0.1c2.4,7.2-10.3,39.3-9.5,40.7c0,0-1.2,2.8-2.8,1.3
				C1722.7,657.4,1727.5,616.9,1727.5,616.9z"/>
		</g>
		<g>
			<path class="st16" d="M1603.1,615.7c0,0-6.5-7.2-9.1-0.1s9.5,39.5,8.7,40.9c0,0,1.2,2.8,2.8,1.3
				C1607.2,656.3,1603.1,615.7,1603.1,615.7z"/>
		</g>
		<g>
			<path class="st17" d="M1727.4,631.5l-8.7,11.6c0,0,0.2-25.5-1.1-29.5c-1.4-4-3.5-16.2-4.7-19.1c-1.2-2.9-52.1-17.2-97.1,4.2
				c0,0,2,18.3-2.3,19.9c-4.3,1.6-2.2,29.8-2.2,29.8l-7.1-8.1c0,0-10.9-73.1-8.2-80.7c2.7-7.6,11.3-53.4,103.6-26.2
				c0,0,28.8-6.1,34.6,13.8C1739.9,567.2,1727.4,631.5,1727.4,631.5z"/>
		</g>
		<g>
			<path class="st16" d="M1705.5,750.3c0,0,13.7,2.9-43.6,57.8c0,0-40.6-45-39.3-52.5C1623.9,748.2,1705.5,750.3,1705.5,750.3z"/>
		</g>
		<g>
			<polygon class="st18" points="1661.9,808.2 1677.6,834.9 1723.9,756.2 1703.9,742.1 			"/>
		</g>
		<g>
			<polygon class="st18" points="1661.9,808.2 1624,747.8 1602.5,761.6 1641,834.9 			"/>
		</g>
		<g>
			<path class="st18" d="M1650.2,975.5c0.5,8.9,0.7,19.8,0.7,32.1h-2.1c0-12.2-0.2-23.1-0.7-32c-3.5-67,12.7-148.5,12.8-167.6
				l2.1,0.4C1662.8,827.5,1646.6,908.8,1650.2,975.5z"/>
		</g>
		<path class="st19" d="M1634,719.6c0,0,14.4,15.2,34.8,11.2c20.4-4.1,29.4-13.4,29.4-13.4s-8,20.2-31.6,22
			C1643,741.3,1634,719.6,1634,719.6z"/>
	</g>
	<g>
		<g>
			<g>
				<path class="st20" d="M930.8,501.7c0,0-0.1,0-0.1,0c-1.4-0.3-3.5-6.9-4-8.2c-0.1-0.4-0.3-1-0.6-1.9c-1.7-5.3-5.7-17.6-4.1-22.3
					c0.5-1.5,1.3-2.3,2.3-2.6c2.2-0.4,4.7,2.3,4.8,2.4l0.1,0.1l0,0.1c0.6,5.2,3.3,31.1,2.1,32.3C931,501.6,930.9,501.7,930.8,501.7z
					 M924.7,467.1c-0.1,0-0.3,0-0.4,0c-0.8,0.2-1.5,0.9-1.9,2.2c-1.5,4.6,2.6,17.2,4.1,22c0.3,0.9,0.5,1.6,0.6,1.9
					c1,3.1,2.8,7.7,3.6,7.9c0,0,0,0,0.1,0c0.8-1-1-20-2.3-31.8C928.2,469,926.3,467.1,924.7,467.1z"/>
			</g>
		</g>
		<g>
			<g>
				<path class="st21" d="M975.9,398.5c0,0,33.4-3.5,45.4,28.8c12,32.3,23.4,42.8,24.8,59.8c5.7,68.6,37.8,53,28.7,92.6
					c-9,39.5-15.2,45.5-15.2,45.5l-76.5-15l-77.5,0.3c0,0,30.3-15.1,23.6-47.4c-6.8-32.3-23.6-85.1-14.1-121.2
					C924.6,405.7,955.9,401.2,975.9,398.5z"/>
			</g>
		</g>
		<g>
			<g>
				<path class="st20" d="M1016.7,501.7c-0.1,0-0.3-0.1-0.4-0.2c-1.2-1.2,1.6-27.1,2.1-32.3l0-0.1l0.1-0.1c0.1-0.1,2.6-2.9,4.8-2.4
					c1,0.2,1.8,1.1,2.3,2.6c1.6,4.7-2.4,17-4.1,22.3c-0.3,0.9-0.5,1.6-0.6,1.9c-0.4,1.3-2.6,7.9-4,8.2
					C1016.8,501.7,1016.7,501.7,1016.7,501.7z M1018.9,469.4c-1.3,11.8-3,30.7-2.3,31.8c0,0,0,0,0.1,0c0.8-0.2,2.6-4.7,3.6-7.9
					c0.1-0.4,0.3-1,0.6-1.9c1.5-4.8,5.6-17.4,4.1-22c-0.4-1.3-1.1-2.1-1.9-2.2C1021.4,466.8,1019.3,469,1018.9,469.4z"/>
			</g>
		</g>
		<g>
			<g>
				<path class="st22" d="M1133,706.7h-47.7c-9.9-18-17.9-32.1-17.9-32.1s-6.4,11.7-11.4,32.1H895.4c-2.5-12.7-2.6-24.9-2.1-33.6
					c0,0-8.6,15.5-18.5,33.6h-53.9c14.3-26.8,41.1-75.6,47.2-82c7.7-8,52-38.7,83.7-48.7c31.7-10,49.7-0.3,49.7-0.3
					s32.5,5.9,62.6,17.8C1075.9,598.2,1108.5,658.5,1133,706.7z"/>
			</g>
		</g>
		<g>
			<g>
				<path class="st23" d="M980.3,417.3c0,0,44.2,6.4,37.8,71.7c-6.5,65.3-45.5,60.1-48.1,60.1c-2.6-0.1-39.2,1.4-42.3-78.3
					C927.6,470.8,926.1,411.8,980.3,417.3z"/>
			</g>
		</g>
		<g>
			<g>
				<path class="st23" d="M999.9,537.5c0,0-2.7,34,3.8,44.2c6.5,10.2-5.6,24-30.6,19.3c-25-4.7-23.6-18.9-23.6-18.9s7-21,5-37.7
					C952.5,527.5,999.9,537.5,999.9,537.5z"/>
			</g>
		</g>
		<g>
			<g>
				<path class="st21" d="M975.2,441c0,0,20.7,21.7,30.3,32.7c9.6,11,10.7,32.3,10.7,32.3s16.2-19.8,9.4-42.8
					c-6.8-23-22.8-67.8-63.3-54c-40.5,13.8-42,74.3-37.3,104.3C925.1,513.5,943.2,447.3,975.2,441z"/>
			</g>
		</g>
		<g>
			<g>
				<path class="st23" d="M1015.5,578.7c0,0-30.7,77.7-49.3,91.2c0,0-24.5-79.3-22.8-90.9C943.4,579,980.3,564.6,1015.5,578.7z"/>
			</g>
		</g>
		<g>
			<path class="st21" d="M950.6,559.9c0,0-54.7,48.7-40.5,79c12.1,25.9,55.1,10,48-17.1C951,594.6,950.6,559.9,950.6,559.9z"/>
		</g>
		<g>
			<path class="st24" d="M957.8,546.2c0,0,18.9,8.9,37.2-4.3c0,0-5.1,10.5-18.6,12C962.9,555.4,957.8,546.2,957.8,546.2z"/>
		</g>
	</g>
	<g>
		<g>
			<path class="st25" d="M1443.3,366.4c0,0-18.1,68.3-21.9,83.7c-1.1,4.6-4.8,12.6-9.4,21.8c0,0.1-0.1,0.1-0.1,0.2
				c-1,2-1.5,3.8-1.7,5.5c-0.7,5.7,1.5,10.2-2.3,16.9l-0.7,2.8h-35.9c4.2-12.4,9.5-28.3,13.8-41c3.6-10.8,6.4-19.3,7.1-21.8
				c2.2-7.4,10.4-31.4,17.3-47.3c2.4-5.5,11.7-11,20-15C1436.8,368.7,1443.3,366.4,1443.3,366.4z"/>
		</g>
		<g>
			<path class="st26" d="M1419.3,268.9c0,0-11.4-74,49.9-72.7c61.3,1.4,60.5,38,59.4,74.3c-1.1,36.3-24.6,33.6,1.9,84.2
				c26.5,50.5-23,50.5-23,50.5l-38.4-52.7L1419.3,268.9z"/>
		</g>
		<g>
			<path class="st20" d="M1462.4,203.3c0,0-41.5,6.6-43.2,65.6c-1.6,59,11.2,71.6,47.5,59.3c36.3-12.3,47.8-74,48.6-83.6
				C1516.3,235,1518.4,196.2,1462.4,203.3z"/>
		</g>
		<g>
			<path class="st27" d="M1535.4,408.6c0.1,20.3-23.2,68.9-26.8,83.9c-0.4,1.7-0.9,3.4-1.3,4.9h-113.3c-0.6-7-1.1-13-1.4-16.4
				c-0.9-11.1-12.1-35-11.8-46.1c0.4-11.3,6-21.1,13.7-33.2c2.4-3.8,5-7.6,7.5-11.3c8.3-12.1,16.5-23.1,20.5-26.9
				c3-2.8,5.8-5,8.3-6.6c0,0,0,0,0,0c5.1-3.4,8.5-4.5,8.5-4.5l35.7-5.7c0,0,22.3,8.1,35.1,11C1510,357.7,1535,361.4,1535.4,408.6z"
				/>
		</g>
		<g>
			<path class="st27" d="M1430.8,356.8l-20.7,32.6l-19.1,30.1c0-0.2,1.3-4.7,3.5-17.9c0.4-2.5,0.9-5.3,1.3-8.5
				c0.1-0.9,0.3-1.9,0.6-2.8c0,0,0,0,0,0C1404.5,371.5,1429.8,357.3,1430.8,356.8C1430.7,356.9,1430.8,356.8,1430.8,356.8z"/>
		</g>
		<g>
			<path class="st20" d="M1490.2,301.6c-3.6,6.8-7.4,49-7.4,49s-50.8,19.2-45.6,8.3c2.4-4.9,3.1-11.3,3.1-16.8
				c0-4.3-0.3-8.1-0.6-10.3c-0.1-1.1-0.2-1.7-0.2-1.7S1493.8,294.8,1490.2,301.6z"/>
		</g>
		<g>
			<path class="st26" d="M1445.5,245.6c0,0,21.3,34.7,40.7,48.4c19.4,13.7,9.6,24.6,9.6,24.6s50.6-106.6,2.5-113.9
				c-48.1-7.4-77.6-7.9-79,64.2C1419.3,268.9,1441.1,245.1,1445.5,245.6z"/>
		</g>
		<g>
			<path class="st28" d="M1468.7,327.5c-7.8,11.5-28.4,14.6-28.4,14.6s0,0,0,0c0-4.3-0.3-8.1-0.6-10.3
				C1452.9,334.4,1468.7,327.5,1468.7,327.5z"/>
		</g>
		<path class="st29" d="M1396.5,390.2L1396.5,390.2c0,0-1.1,2.3-2,11.5l7.5-11.3c0,0,13.4-19.2,17.9-24.1c4.6-5,10.9-9.3,10.9-9.3
			S1404.4,369.5,1396.5,390.2z"/>
		<path class="st27" d="M1497.5,418.7c0,0,32.6-12.8,42.2-13.5c0,0-6.6-52.4-38.6-46.8C1469.2,363.9,1497.5,418.7,1497.5,418.7z"/>
		<path class="st20" d="M1439.3,352.4c0,0-23.9,36.8-15.8,40c8.1,3.2,52-4.3,70.6-39.3C1494,353.1,1466.2,338.8,1439.3,352.4z"/>
		<path class="st25" d="M1539.8,405.2c-1.7,28.9-9.9,56.2-16.6,81.4c-1,3.6-1.9,7.2-2.8,10.8H1454c-0.2-10-0.1-18.7,0.2-26.1
			c3.3-80.1,28.7-122.2,28.7-122.2s8.1,2.7,31.4,9.3c16,4.5,22,24.9,24.2,37.2c0,0,0,0,0,0.1
			C1539.6,401.3,1539.8,405.2,1539.8,405.2z"/>
		<path class="st25" d="M1439.2,352.4c-0.3,0.5-4.6,7.8-9.9,19.8c-7.9,18-17.7,46.6-18.5,78c-0.3,10.1-2.3,26.5-5.3,47.1h-13.2
			c-1.3-17.3-4.5-31.1-7.3-41c-1.8-6.4-3.5-11.3-4.4-14.3c-4.2-14.4,9.3-33.5,13.8-40.4C1399,394.8,1409.8,363.3,1439.2,352.4z"/>
		<path class="st25" d="M1560.9,497.3h-35.6c0-2.3-0.8-6.1-2.1-10.8c-6.5-23-25.6-67.8-25.6-67.8s-28.7-46.9-1.5-58.8
			c27.2-11.9,38.9,21.4,42.5,35.7c0,0,0,0,0,0.1C1539.5,399.1,1555.7,460.8,1560.9,497.3z"/>
	</g>
	<g>
		<g>
			<path class="st20" d="M979.6,1165.6c0,0,12.5-0.2,16.9-5c4.4-4.8,12.3-9.1,14.8-10.3c3.4-1.6,12.7-10.7,13.8-6.3
				c1.2,4.4-14.8,15.6-17.8,18.6c-3,3,13.3,4.3,15.7,7.3c2.4,2.9-5.9,33.8-16.8,31.4c-10.9-2.4-19.8-13.3-21.8-13.3
				c-2.1,0-8-1.4-8-1.4L979.6,1165.6z"/>
		</g>
		<g>
			<path class="st20" d="M1020.6,1168.7c0,0,32.4,9.9,33.8,12.7c1.3,2.8,0.4,4.9-2.7,4.1c-3.1-0.8-31.7-8.5-31.7-8.5
				s35.4,19.4,37,21.3c0.9,1.1-0.6,5.2-2.3,5c-1.7-0.2-38.2-17-38.2-17s33,18.2,33.9,20.3c0.7,1.9-1.5,5.4-4.1,4.2
				s-34.4-15.9-34.4-15.9s23,15.1,22.7,17.6c-0.2,1.5-1.4,5.1-7.2,0.9c-5.8-4.1-20.7-12-20.7-12L1020.6,1168.7z"/>
		</g>
		<g>
			<path class="st30" d="M911.4,1712.6c0,0,10.4,15.6,25,18.9c14.6,3.4,29,8.7,29.1,17.9c0.1,9.2-42.2,14.7-58.9,5.4
				c-24.9-13.9-27.5-9.7-30.2-16.6c-2.8-6.9,3.3-25.4,3.1-27.6C879.3,1707.9,911.4,1712.6,911.4,1712.6z"/>
		</g>
		<g>
			<path class="st31" d="M909.8,1704.9c0,0,1.9,7.5,1.6,7.7s-32.9,4-31.9-2c0.8-4.9,1.9-10.2,1.9-10.2L909.8,1704.9z"/>
		</g>
		<g>
			<path class="st30" d="M706.7,1711.6c0,0,7.4,14.9,20.1,20c13.5,5.4,24.4,11.7,24.2,20.6c-0.2,9-33.1,18.1-57,0.8
				c-15.1-10.9-19.9-10.9-22.3-17.8c-2.4-6.9,4.2-24.7,4.1-26.8C675.6,1705.7,706.7,1711.6,706.7,1711.6z"/>
		</g>
		<g>
			<path class="st31" d="M707.1,1703.8c0,0-0.1,7.6-0.4,7.7c-0.3,0.1-31.8,2.7-31-3.2c0.6-4.7,3.1-10.4,3.1-10.4L707.1,1703.8z"/>
		</g>
		<g>
			<path class="st32" d="M822.6,1249.1c0,0,41.4,158.5,57.1,195.2c14.6,34,19.4,81.4,21.4,105.3c2.5,30,17.6,146.8,19.3,155.6
				c1.8,8.8-48.7,4.9-48.7,4.9s-34.8-202-49.2-231.5c-9.6-19.7-65.6-160.7-72-152.6c-6.4,8.1-14.3,149.5-19.1,172.9
				c-4.7,23.5-19.3,208.9-19.3,208.9s-32.5,4.8-41.2-2.6c0,0-4-158.3-0.9-202.3c1.2-16.8-19.6-201,7-275.2
				C691.2,1188.5,822.6,1249.1,822.6,1249.1z"/>
		</g>
		<g>
			<path class="st33" d="M592.1,1135.4c0,1.8,3.4,9.1,8.9,19.5c8-16,14.3-29.1,16.3-33.9c6.7-15.9,41.4-52.4,41.4-52.4s0,0,0,0.1
				c0,0,0,0,0,0c0,0,0,0,0,0c0,0.1,0,0.1,0,0.2c0,0.1,0.1,0.2,0.1,0.3c0,0.1,0,0.1,0.1,0.2c0,0.1,0,0.1,0,0.1
				c1.9,7,13.5,51,13.9,72.7c0.5,23.6,6.6,67.2,6.6,67.2l0,0l7.2,1l16,2.3l1.9,0.3l4.7,0.7l42.5,6l15.1,2.1l2,0.3l8.6,1.2l23.8,3.3
				l6.1,0.9l0.1,0l4.5,0.6l6.3,0.9c0,0,0,0,0,0c0.2-0.2,6.1-8.4,5.2-26.4c-0.6-11.7-2-33.6-1.4-53.9c0-0.1,0-0.2,0-0.3
				c0-0.3,0-0.5,0-0.8c0-0.1,0-0.2,0-0.3v0c0.4-11.2,1.4-21.8,3.4-29.8c1.4-5.4,2.3-10.8,3-15.9c0-0.2,0.1-0.5,0.1-0.7
				c0.1-0.9,0.2-1.9,0.3-2.8c1.4-14.1,0.3-24.8,0.2-25.5l0,0.1c0.4,0.9,3.5,12.3,7.6,26.4c6.9,23.7,16.5,55.1,20.6,56.6
				c6,2.2,102.6,30.8,123.4,33.7c2.4,0.3,3.8,0.3,3.9-0.1c0.1-0.3,0.2-0.6,0.3-0.9c2.5-8.4,6-22.6,6.6-24.9c0.1-0.2,0.1-0.3,0.1-0.3
				l-3.7-1.1L883,1130.6L834.9,992c-1-0.8-12.8-6.5-21.4-10.6c-8.8-4.2-19.4-10.3-29-15.6c-4.9-2.7-9.5-5.1-13.5-7l-0.6-0.3l0,0
				c-6.6-3-11-5-11-5s0,0,0,0c-0.2,0-1.2-0.1-2.9-0.3c-9.2-0.9-37.9-3.6-47.5-4.1c-0.8-0.1-1.5-0.1-2-0.1c-0.4,0-0.8,0-1,0
				c-1.2,0.1-7.1,2.1-14.9,5.1h0c-0.3,0.1-0.6,0.2-0.9,0.3c-0.4,0.1-0.7,0.3-1.1,0.4c-0.7,0.3-1.4,0.5-2.1,0.8
				c-1.4,0.5-2.8,1.1-4.3,1.7c-0.5,0.2-1,0.4-1.5,0.6c-15.5,6.2-33.4,13.8-37.6,16.8c-2.8,2-11.5,18.4-21.6,38.7
				c-13,41.7-29.5,105.4-30,121.2C592.1,1134.9,592.1,1135.2,592.1,1135.4z"/>
		</g>
		<g>
			<path class="st34" d="M818.4,1229c0,0,3.2,3.8,4.1,20c0,0-131.5-15.3-145.4-21.4c0,0-0.5-17.9,2.4-18.2
				C682.8,1209.2,818.4,1229,818.4,1229z"/>
		</g>
		<g>
			<path class="st20" d="M706.3,944.6c0.4,20.6,40.4,31.9,40.4,31.9s16.7-21,12.7-23c-1.6-0.8-2.2-3.9-2.4-7.4c-0.2-3.3,0-7,0.2-9.4
				c0.1-1.5,0.2-2.4,0.2-2.4s-5.7-6-13-13.2c-12.7-12.6-30.1-28.6-30.2-22.2c0,0.3,0,0.7,0.1,1.2
				C717.5,914.5,706.3,944.6,706.3,944.6z"/>
		</g>
		<g>
			<path class="st30" d="M709.6,1212.7c0,0-2.9,18.1-3.1,22.8l-6.1-1.2c0,0,1.7-19.2,2.7-22.4L709.6,1212.7z"/>
		</g>
		<g>
			<path class="st30" d="M807.5,1226.9c0,0,2.3,16.5,2.4,22.7l-6.4-0.8c0,0-1.3-20.6-2.1-22.7L807.5,1226.9z"/>
		</g>
		<g>
			<path class="st28" d="M721.7,914.3C721.7,914.3,721.7,914.3,721.7,914.3c0.1,0.1,1.8,2.7,4.7,6.3c6.1,7.7,17.7,20.4,30.6,25.5
				c-0.2-3.3,0-7,0.2-9.4c1.3,0,2.7-0.2,4-0.5c-3.6-6.2-8.7-12.7-8.7-12.7l-8-2.4L721.7,914.3z"/>
		</g>
		<g>
			<path class="st20" d="M714,899.2c3.5,7.5,6.7,13,7.7,15.1c0,0,0,0,0,0c0.6,1.4,2.3,3.7,4.7,6.3c6.6,7.1,18.8,16.5,30.9,16.1
				c1.3,0,2.7-0.2,4-0.5c4.9-1.1,10.6-3.3,13.8-9.5c24.9-48.8,6.9-88.7,6.9-88.7s-68.2-19.3-78.9,1.2
				C695.5,853.7,705.9,881.5,714,899.2z"/>
		</g>
		<g>
			<path class="st35" d="M781.8,838c0,0,6.3-0.4,7.9-12.4c1.5-11.9-1.6-15.1-1.6-15.1s-28.1-11.8-38.3-13.3c-10.1-1.5-35-3-40.8,3.7
				c0,0-14.2-3.3-18,20.2c-6.1,37.3,20.8,73.5,20.8,73.5s-0.2-24.4,5.1-27.6c5.4-3.2,10,4.4,10,4.4l11,2c0,0-16.7-36,3.3-37.4
				C761.4,834.7,770.4,840.1,781.8,838z"/>
		</g>
		<g>
			<path class="st20" d="M726.8,861.7c-1-10.7-20.4-14.8-19.1-3.6c1.3,11.2,10.9,22.1,15.3,21.7
				C727.3,879.4,727.6,869.9,726.8,861.7z"/>
		</g>
		<g>
			<path class="st36" d="M601,1154.9c8.5,16.1,21.8,39.9,35,62.9c-1.7,3.2-3.4,6.4-5.1,9.6c-4,7.7-7.5,15.2-10,22.2
				c-3,8.4-7.2,29.9,0.8,33.9l42.1,23.2c0,0,0.3-0.8,0.9-2.3c1.4-3.8,4.4-11.9,8.6-22.3c0.1-0.3,0.6-1.3,1.2-2.8c0.8-2,2-4.8,3.4-8
				c0.6-1.4,1.3-3,1.9-4.5c0.8-1.8,1.6-3.6,2.3-5.5c1.1-2.7,2.3-5.3,3.3-7.8c2.9-6.7,5.1-11.9,5.1-11.9c0.1-0.3,0.3-0.6,0.4-0.9
				c1.4-3,2.8-5.9,4.2-8.9c2.2-4.6,4.5-9.2,6.8-13.6c0.2-0.5,0.5-0.9,0.7-1.4c0.4-0.8,0.8-1.6,1.2-2.3c0.3-0.5,0.5-1,0.8-1.4
				c0.1-0.1,0.1-0.2,0.2-0.3c0.1-0.2,0.2-0.4,0.3-0.6c12.2-22.2,25.9-40.7,30.2-68c0.4-2.6,0.8-5.2,1.2-7.8
				c0.6-4.3,1.2-8.6,1.7-12.8c0.2-1.6,0.4-3.1,0.6-4.7c2.2-18.2,3.5-34.3,4.6-45.6c3.3-35.1-18.2-73.1-34.7-96.6
				c-8.8-12.6-16.2-21-17.6-22.5c0,0-0.1-0.1-0.1-0.1c-0.3,0.1-0.6,0.2-0.9,0.3c-0.4,0.1-0.7,0.3-1.1,0.4c-0.7,0.3-1.4,0.5-2.1,0.8
				c-1.4,0.5-2.8,1.1-4.3,1.7c-0.5,0.2-1,0.4-1.5,0.6c-16,6.3-49.6,15.5-53.9,18.6c-2.4,1.7-7.9,17.8-14.2,38
				c-13,41.7-20.7,104.5-21.1,120.2c0,0.2,0,0.5,0,0.7C592.1,1137.2,595.5,1144.5,601,1154.9z M664.9,1147.1
				c0,7.8-2.5,16.8-6.5,26.3c-0.1,0.2-0.2,0.5-0.3,0.7c-2.7-5.8-5.2-11.3-7.5-16.4c0,0,0,0,0,0c-6.3-14-10.6-24.9-10.8-29.3
				c-1.5-27.8,18.9-59.8,18.9-59.8c0,0,0,0,0,0c0,0,0,0,0,0c0,0.1,0,0.1,0,0.2c0,0.1,0.1,0.2,0.1,0.3c0,0.1,0,0.1,0.1,0.2
				c0,0.1,0,0.1,0,0.1C663.2,1086.1,664.9,1147.1,664.9,1147.1z"/>
		</g>
		<path class="st37" d="M744.8,1251.8l-119.9,53.4c-6.8,3-14.7,0-17.8-6.8l-32.8-73.8c-3-6.8,0-14.7,6.8-17.8l119.9-53.4
			c6.8-3,14.7,0,17.8,6.8l32.8,73.8C754.7,1240.8,751.6,1248.8,744.8,1251.8z"/>
		<g>
			<path class="st36" d="M770.7,959.1c0,0,5.6,18.7,12.9,65.5c0,0,0,0,0,0c0.2,1.6,0.5,3.2,0.7,4.8c0,0.2,0.1,0.4,0.1,0.6
				c0.2,1.1,0.3,2.2,0.5,3.3c0,0.1,0,0.3,0.1,0.4c0.1,0.7,0.2,1.5,0.3,2.3c0.3,1.8,0.5,3.7,0.8,5.6c3.2,22.8,7.8,61.5,12.2,100.6v0
				c3.5,30.8,11.3,62.4,13.8,86c0,0,0,0,0,0c0.5,4.6,1.7,10.8,3.3,17.7c0.2,0.8,0.4,1.6,0.6,2.4c7,29.8,20.7,71.9,20.7,71.9l4-3.7
				l11.8-10.9c2.7-2.5,3.7-6.3,2.7-9.9c-6.5-21.1-28.8-95.9-32.9-148.4c0,0,0,0,0,0c2-18.5,7.1-43.2,6.3-46.8
				c0.1,0.1,0.1,0.3,0.1,0.4c2.3,6.5,4.9,13.6,7.6,20.5v0c7,18.5,14.2,35.7,17.2,36.8c6.7,2.4,126.2,37.7,127.1,32.8
				c0.1-0.5,0.2-1,0.3-1.6c0.1-0.5,0.2-1.1,0.4-1.7c1.5-6.7,4.2-16.4,6-22.9c0.3-1,0.5-1.9,0.8-2.7c0.8-2.7,1.3-4.4,1.3-4.4
				l-101.1-33.2l-51-133.4c-1-0.8-14-7.8-22.6-11.9c-9-4.3-20.3-9.5-30.4-14.2c-4.8-2.2-9.3-4.3-13.2-6.1L770.7,959.1z"/>
		</g>
		<g>
			<path class="st38" d="M702.2,1005.4l19.4,11l-8.3,8.5l22.1,119.4c4.5-28,6.6-54.6,8.1-70.9c5.1-54.3-49.1-115.5-52.4-119.2
				c-2.6,1-5.4,2.1-8.3,3.2L702.2,1005.4z"/>
		</g>
		<g>
			<path class="st38" d="M770.4,958.6c0,0,7.3,23.7,15.7,83c3.2,22.8,7.8,61.5,12.2,100.6l4.5-111.9l-9.3-10l8.2-10.3l-17.6-45
				c-4.8-2.2-9.3-4.3-13.2-6.1L770.4,958.6z"/>
		</g>
		<g>
			<path class="st39" d="M690,954.5l16.2-10c0,0,0.5,8.8,40.4,31.9l-11.3,31.9L690,954.5z"/>
		</g>
		<g>
			<path class="st39" d="M757.3,949c0,0-0.6,9.5-10.6,27.5l22.1,28.8l1.6-46.8L757.3,949z"/>
		</g>
		<g>
			<path class="st22" d="M746.6,976.5c0,0-4.3,17.2-2.7,22c0,0,9.4,3.4,16.2-0.9C760.1,997.6,755.3,985.6,746.6,976.5z"/>
		</g>
		<g>
			<g>
				<path class="st40" d="M768.8,1223.9c2.4-12.1,0.1-48.4,0-49.9l-2.1,0.1c0,0.4,2.4,37.5,0,49.4L768.8,1223.9z"/>
			</g>
		</g>
		<g>
			<path class="st41" d="M752,1218.3c0,0,19.4,2.3,25.8,3.9l-0.8,21.7l-25.3-2.7L752,1218.3z"/>
		</g>
		<g>
			<path class="st22" d="M756.2,996.1c0,0,21.6,54.5,18.1,115.5c-3.7,63.3-9.6,86.2-9.6,86.2l-13.3,16.7l-5.9-20.5
				c0,0,17.9-80.7,6.3-159.1c-2.1-14.2-5.2-41.2-5.2-41.2L756.2,996.1z"/>
		</g>
		<g>
			<path class="st20" d="M691.3,1253.5c0,0,4.6,9.3,9.3,10.8c4.6,1.5,11.4,9.1,11.4,9.1l-32.6,17.2c0,0-8.7-17-9.1-27.8
				C669.9,1252,691.3,1253.5,691.3,1253.5z"/>
		</g>
		<g>
			<path class="st33" d="M694.4,1254.4l2.2,4.3c0,0-20.7,15.1-26.3,16.1l-1.9-5.8L694.4,1254.4z"/>
		</g>
		<g>
			<path class="st36" d="M696.6,1254.6c0,0-15.5,12.8-28.6,18.8l-58.6-102.8l37.4-20.5C646.8,1150.1,695.6,1246.8,696.6,1254.6z"/>
		</g>
		<g>
			<path class="st32" d="M828,1072.9c0.7,14.6,0.6,27.6,0.6,27.6s0,0,0,0c0,0.1,0,0.5,0.1,1.1c0-0.2,0.1-0.5,0.1-0.7
				c2.3,6.5,4.9,13.6,7.6,20.5c0.6-8,0.8-15.4,0.6-22.3c-1-41-14-62.6-14-62.6C825.9,1043.6,827.3,1059,828,1072.9z"/>
		</g>
	</g>
	<g>
		<g>
			<path class="st20" d="M1337.2,937.5c0,0-0.6-7.5,0.3-11.1c1.5-6.1-0.7-15.9,6.9-20.7c7.6-4.8,29.6,15.2,31.4,20.8
				c1.7,5.6-6.5,15.1-23.7,23.1C1334.9,957.7,1337.2,937.5,1337.2,937.5z"/>
		</g>
		<g>
			<path class="st20" d="M1342.1,907.7c0,0,7.4-11.2,17.2-22.6c8.6-10,20.7-21.2,23.2-19.1c3.9,3.2-7.1,11.3-14.9,21.8
				c-7.2,9.7-4.2,9-4.2,9s-0.9,0.1,9.1-8.8c10.7-9.7,22.6-19.6,24.7-17.9c2.6,2.1,2.8,2.6-0.5,6.7c2.4-2,3.3-1.6,4.2-0.7
				c4.8,4.8-8.7,21.5-14,28.1c4.1-5.1,7.7-8.3,8.8-3.5c1.2,5.6-18.9,28.3-25.4,37.1C1363.3,947.6,1342.1,907.7,1342.1,907.7z"/>
		</g>
		<g>
			<g>
				<g>
					<g>
						<path class="st42" d="M1085,1709.8c0,0,20.9,12.4,30.4,17c9.5,4.6,46.3,5.9,49.9,9.4c3.6,3.5,2.3,14.5-3.8,15.6
							c-6.1,1.1-50.8,5.2-65.8,1.7c-14.9-3.5-42.8,2.4-49,0.3c-6.2-2.1-2.2-35.4,0.2-42.9C1049.3,1703.3,1085,1709.8,1085,1709.8z"
							/>
					</g>
				</g>
			</g>
		</g>
		<g>
			<g>
				<g>
					<g>
						<path class="st43" d="M1086.7,1696.1l-1.7,13.6c0,0-28,5.2-36.4,0.9l2.1-14.2L1086.7,1696.1z"/>
					</g>
				</g>
			</g>
		</g>
		<g>
			<path class="st44" d="M1198.9,1230.7c-0.3,9.4-2,29.9-4,51.4c-0.4,4.8-0.9,9.6-1.4,14.4c-2.8,28.9-5.6,55.7-5.6,55.7
				c-3.5,23-10.8,63-19,93.2v0c-2.4,8.7-4.8,16.6-7.2,23.1c-2.4,6.3-4.7,11.2-7,14.1c-17.3,22.1-57.1,218.4-57.1,218.4l-54.2-0.4
				c0,0,11.9-132.9,23.9-166.6c13.4-37.6,36.6-88.3,30.8-124.6c-3.6-22.8-8.3-95.3-8.3-95.3s-4.5-81.5,16.8-141.1
				C1112,1158.2,1198.9,1230.7,1198.9,1230.7z"/>
		</g>
		<g>
			<g>
				<g>
					<g>
						<path class="st42" d="M1237.4,1714.9c0,0,20.8,12.6,30.2,17.3c9.4,4.7,46.2,6.5,49.8,10c3.6,3.5,2.1,14.5-4,15.5
							c-6.1,1.1-50.9,4.6-65.8,0.9c-14.9-3.7-42.9,1.9-49-0.3s-1.8-35.4,0.7-42.9C1201.8,1707.9,1237.4,1714.9,1237.4,1714.9z"/>
					</g>
				</g>
			</g>
		</g>
		<g>
			<g>
				<g>
					<g>
						<path class="st43" d="M1239.3,1701.3l-1.9,13.6c0,0-28,4.9-36.5,0.5l2.3-14.1L1239.3,1701.3z"/>
					</g>
				</g>
			</g>
		</g>
		<g>
			<path class="st44" d="M1174.5,1506.6c-1.4-43.4-5.2-72.3-16.4-97.3c-9.4-21.1-17.4-87.2-17.4-87.2s-25.4-77.5-20.3-140.6
				c1.3-15.8,99.6,23.9,99.6,23.9c2.2,9.2,8.7,38.1,11.1,59.6c13.3,122.6,8.3,202.5,8.3,202.5c-7.6,27.1,11.6,240.1,11.6,240.1
				h-55.3c0,0-14.5-75.8-16-122.9C1179.6,1584.6,1173.9,1514.1,1174.5,1506.6z"/>
		</g>
		<g>
			<g>
				<path class="st45" d="M1173.2,944.9c0,0,25.8,42.2,33.3,65.8c7.5,23.6,1.5,92.1,2.8,105.9c4.1,42.7,10.1,89.8,10.1,89.8
					l-86.4,55.2c0,0-15.5-36.2-29-81.3c-13.5-45.1-14.6-85.7-14.5-112.8c0.4-85.1,46.4-133.2,46.4-133.2L1173.2,944.9z"/>
			</g>
		</g>
		<g>
			<g>
				<path class="st20" d="M1205,831.6c0,0,17.7,19,12.7,23.9c-4.1,4.1,12.2,23,14.5,26.2c2.3,3.2-7.2,8.4-8.8,11.3
					c-1.6,2.8-0.6,32.6-8.8,35.6c-8.2,3.1-49.6-0.2-62.7-8.2c-13.2-8-34.4-54.3-32.8-76.6C1120.4,821.6,1173.8,798.5,1205,831.6z"/>
			</g>
		</g>
		<g>
			<g>
				<path class="st20" d="M1188.2,922.2c0,0-0.3,2.5-0.7,6.4c-0.2,1.6-0.4,3.5-0.5,5.6c-0.1,1.2-0.2,2.5-0.3,3.8
					c0,0.4-0.1,0.7-0.1,1.1c-0.1,0.6-0.1,1.2-0.2,1.8c-0.2,2.9-0.4,5.8-0.6,8.7c-0.4,7.6-0.4,14.8,0.4,18.8
					c2.2,11-45.3-35.5-45.3-35.5s4-36.1,2.1-76.6C1141,815.9,1188.2,922.2,1188.2,922.2z"/>
			</g>
		</g>
		<g>
			<g>
				<path class="st46" d="M1208.6,835.7c0,0,8.4-19.8-17.5-33.5c-30.4-16.2-62.7,24.4-67,26.8c-4.3,2.4-23.7,24.3-4.7,53.3
					c24,36.6,22.8,35.4,22.8,35.4s2.4-27,2.3-32.2c-0.3-9.5,24.7-10.7,24.7-10.7s-10.3-13.7,1.1-19.8
					C1181.7,848.9,1195.1,834.4,1208.6,835.7z"/>
			</g>
		</g>
		<g>
			<g>
				<path class="st20" d="M1156.1,871.4c-1.8-2.6-8.5-13.8-17.1-3.9c-8.6,9.9,14.4,28.4,16.3,28.3
					C1157.2,895.5,1171.4,892.9,1156.1,871.4z"/>
			</g>
		</g>
		<g>
			<path class="st47" d="M1224.2,1224.6c0,0-4.3-20.2-5.1-23.2l-126.3,21l1.3,16.3C1094,1238.7,1185,1233.3,1224.2,1224.6z"/>
		</g>
		<g>
			<path class="st22" d="M1081.5,1135.6c0,0,19.4,83.8-11,181.6c-3.7,11.9,84.1-1.9,84.1-1.9L1081.5,1135.6z"/>
		</g>
		<g>
			<g>
				<path class="st22" d="M1193.1,1309.2c0,0-62.4,13.7-79.9,7.5c0,0-25.5-92.8-34.4-186.9c-0.7-7.3-1.3-14.6-1.7-21.8c0,0,0,0,0,0
					c-5-76.6,14.5-154.3,59-173.6c1.3,0.8,63.8,56,62.6,106.5c-0.1,3.4-0.1,6.8-0.2,10.3c0,6.2,0,12.4,0.1,18.6l0,0
					c0.4,19.2,1.6,38.4,3.3,57c0.2,1.9,0.4,3.9,0.5,5.8c0.3,3.1,0.6,6.2,1,9.3c0.4,4.1,0.9,8.2,1.4,12.2
					C1214.9,1238.3,1193.1,1309.2,1193.1,1309.2z"/>
			</g>
		</g>
		<g>
			<path class="st48" d="M1190.5,981.8c0,0,11.8,46.5,16.2,105.1c3.7,49,8.8,83.6,8.8,83.6l7.5,24.3l3.1-23.4c0,0-2.8-63.2-6.4-88.9
				c-3.7-25.9-5.3-58.9-26-101.6L1190.5,981.8z"/>
		</g>
		<g>
			<path class="st48" d="M1189.2,981.8c0,0,1.4,1.4,3.4,1.7c2,0.3,4.9-2.9-5.4-16.4L1189.2,981.8z"/>
		</g>
		<g>
			<g>
				<path class="st49" d="M1141.5,927.3c0,0,29.1,27.4,46.3,33.4l3.3,26.2l-55.2-52.6L1141.5,927.3z"/>
			</g>
		</g>
		<g>
			<path class="st22" d="M1161,1033.2c-11.5-4.1-59-27.2-46.4-54.1c12.7-27,45.3-12.6,69.9-1.7c25.7,11.5,86.4,46.8,91.2,43.5
				c4.8-3.3,25.8-33.3,29.6-40c3.8-6.7,26.7-49.5,28.9-52.7c2.1-3.2,35.4,24.8,35.4,24.8s-59.8,106.1-75.8,123
				C1277.6,1092.9,1161,1033.2,1161,1033.2z"/>
		</g>
		<g>
			<path class="st42" d="M1168.9,1445.4L1168.9,1445.4c-2.4,8.7-4.8,16.6-7.2,23.1c0,0,0,0,0,0l-18.9-112.9
				C1147.6,1366.4,1168.9,1445.4,1168.9,1445.4z"/>
		</g>
		<g>
			<path class="st50" d="M1198.6,1069.7l-54.7-44.7c14.5,7.8,50.1,24,54.6,26.1C1198.4,1057.3,1198.4,1063.5,1198.6,1069.7z"/>
		</g>
		<g>
			<path class="st28" d="M1187.5,928.7c-0.2,1.6-0.4,3.5-0.5,5.6c-0.1,1.2-0.2,2.5-0.3,3.8c-18.1-1.2-32.2-15.7-33-16.5
				C1161,927.3,1187.5,928.7,1187.5,928.7z"/>
		</g>
	</g>
	<g>
		<linearGradient id="SVGID_13_" gradientUnits="userSpaceOnUse" x1="957.7479" y1="1026.592" x2="1025.1372" y2="1026.592">
			<stop  offset="0" style="stop-color:#D1D7E0"/>
			<stop  offset="1" style="stop-color:#EBEBFF"/>
		</linearGradient>
		<polygon class="st51" points="973.5,1043 1025.1,1043 1009.3,1010.2 957.7,1010.2 		"/>
		<linearGradient id="SVGID_14_" gradientUnits="userSpaceOnUse" x1="933.6047" y1="1026.592" x2="961.6918" y2="1026.592">
			<stop  offset="0" style="stop-color:#D1D7E0"/>
			<stop  offset="1" style="stop-color:#EBEBFF"/>
		</linearGradient>
		<polygon class="st52" points="949.4,1043 961.7,1043 945.9,1010.2 933.6,1010.2 		"/>
	</g>
</g>
</svg>
