<?xml version="1.0" encoding="utf-8"?>
<!-- Generator: Adobe Illustrator 24.3.0, SVG Export Plug-In . SVG Version: 6.00 Build 0)  -->
<svg version="1.1" id="Layer_1" xmlns="http://www.w3.org/2000/svg" xmlns:xlink="http://www.w3.org/1999/xlink" x="0px" y="0px"
	 viewBox="0 0 2551.2 2551.2" style="enable-background:new 0 0 2551.2 2551.2;" xml:space="preserve">
<style type="text/css">
	.st0{fill:#FCAD6D;}
	.st1{fill:#FD995B;}
	.st2{fill:#FF4155;}
	.st3{fill:#E80054;}
	.st4{fill:#2A428C;}
	.st5{fill:#1C2E7A;}
	.st6{fill:#F9BA8F;}
	.st7{fill:#FFDD40;}
	.st8{fill:#FFB332;}
	.st9{fill:#73C3F9;}
	.st10{fill:#4FABF7;}
	.st11{fill:#E9EFFF;}
	.st12{fill:#BEC8F7;}
</style>
<g>
	<g>
		<g>
			<path class="st0" d="M1589.3,1224.6c47.5,36.9,106.1,56.9,166.5,56.9c60.4,0,119-20,166.5-56.9c35.2-27.3,72.8-64.6,105.7-111.5
				c-8.8-2.5-17.7-4.9-26.7-7.2c-10.2-2.6-19.1-8.7-24.9-16.8c-26.6-37.6-34-95.7-35.5-137.9c-18.7,21.8-38.3,40-57.1,54.5
				c-75.2,58.4-180.9,58.3-256,0c-18.7-14.6-38.4-32.8-57.1-54.5c-1.5,43.1-9.2,102.9-37.3,140.3c-4.8,6.4-12.2,11.6-21.1,13.8
				c-9.7,2.4-19.3,5-28.8,7.7C1516.5,1160,1554.1,1197.3,1589.3,1224.6L1589.3,1224.6z"/>
			<path class="st1" d="M1664.3,1265.6c60.8-64.4,81.5-155.4,88.4-216.2c-44.2-0.7-88.1-15.2-124.8-43.7
				c-18.7-14.6-38.4-32.8-57.1-54.5c-1.5,43.1-9.2,102.9-37.3,140.3c-4.8,6.4-12.2,11.6-21.1,13.8c-9.7,2.4-19.3,5-28.8,7.7
				c32.9,46.9,70.5,84.1,105.7,111.5C1612.1,1242.3,1637.4,1256,1664.3,1265.6L1664.3,1265.6z"/>
		</g>
		<path class="st2" d="M2528,1434.8c-32-104.1-102.7-205.6-255.4-218.1c-23.9-2-36.6-11.2-64.7-27.1c-58.6-33.1-119.3-59.4-185.5-78
			c-32.3,46.4-69.4,83.2-104.1,110.2c-46.3,36-103.5,55.5-162.4,55.5c-58.9,0-116.1-19.5-162.4-55.5c-34.7-27-71.8-63.8-104.1-110.2
			c-65.9,18.5-127,45-185.5,78c-28.1,15.9-40.9,25.1-64.7,27.1c-152.7,12.5-223.4,114-255.4,218.1c-14.2,46.3-20.6,94.6-20.6,143.1
			v255.4H1343c65.4-184.3,241.5-316.7,448-316.7s382.5,132.4,448,316.7h208.3c56,0,101.4-45.4,101.4-101.3v-154.1
			C2548.6,1529.4,2542.2,1481.1,2528,1434.8z"/>
		<path class="st3" d="M2239,1833.3h109.7c0-68,0-167.6,0-222c0-43-27.6-71.5-55.7-89.3c-25.6-16.2-59.1,2-59.1,32.4v265.3
			C2235.6,1824.1,2237.3,1828.7,2239,1833.3L2239,1833.3z"/>
		<path class="st3" d="M1589.3,1319c31.7-14.2,57.4-33.9,78.2-56.8c-26.5-9.4-51.5-22.9-74-40.4c-34.7-27-71.8-63.8-104.1-110.2
			c-65.9,18.5-127,45-185.5,78c-28.1,15.9-40.9,25.1-64.7,27.1c-152.7,12.5-223.4,114-255.4,218.1c-14.2,46.3-20.6,94.6-20.6,143.1
			v255.4h329.2c6.4-35.1,9.9-71.7,9.9-108.6C1302.3,1397.6,1411.6,1398.4,1589.3,1319L1589.3,1319z"/>
		<g>
			<g>
				<path class="st4" d="M1694,75.6C1508.1,101,1490.4,206.3,1490.3,245c0,8.1-4.5,15.6-11.8,19.2c-96.7,47-44.6,273.7-44.6,273.7
					c9.7,0.6,24.3,9,31.9,12.7c1.9-11.5,4.9-22.9,9.2-33.9c3.3-8.4,7.3-16.8,12.4-24.8c8.8-13.9,12.9-30.2,11.7-46.6
					c-3.5-47.3-6.2-136.1,56.2-164.2c52.9-23.8,117.7-10,159.1,3.7c26.9,8.9,56,8.9,82.8,0c41.4-13.8,106.2-27.5,159.1-3.7
					c62.2,28,59.7,116.3,56.3,163.8c-1.2,16.5,2.7,33,11.6,47c5.3,8.3,9.4,17,12.7,25.6c4.1,10.7,7,21.8,8.9,33.1
					c9.6-4.6,27.6-14.1,39.3-12.4c1.4-49.6,6-103,6-103C2146.2,165.3,1894.1,48.4,1694,75.6z"/>
				<path class="st5" d="M1694,75.6C1508.1,101,1490.4,206.3,1490.3,245c0,8.1-4.5,15.6-11.8,19.2c-96.7,47-44.6,273.7-44.6,273.7
					c9.7,0.6,24.3,9,31.9,12.7c1.9-11.5,4.9-22.9,9.2-33.9c3.3-8.4,7.3-16.8,12.4-24.8c8.8-13.9,12.9-30.2,11.7-46.6
					c-3.5-47.3-6.2-136.1,56.2-164.2c52.9-23.8,117.7-10,159.1,3.7c11.3,3.8,23,5.8,34.8,6.4c-1.8-3.1-3.7-6.2-5.9-9.2
					c-79.7-112.1,31.1-193.7,52.5-208C1761.5,70.6,1727,71.1,1694,75.6L1694,75.6z"/>
			</g>
			<path class="st0" d="M2101.6,544.5c-14.5-13.3-43.3-6.5-55.8,1.6c2.7,17,2.9,34.4,0.5,51.6l-14.7,107.2c0,8.6-0.3,17.1-0.8,25.4
				c35.9,10.8,53.7-21.4,56.7-43.5c1.3-9.5,3.4-18.9,6.3-28C2103.5,629,2137.9,577.8,2101.6,544.5z"/>
			<path class="st1" d="M1410.1,544.5c14.5-13.3,43.3-6.5,55.8,1.6c-2.7,17-2.9,34.4-0.5,51.6l14.7,107.2c0,8.6,0.3,17.1,0.8,25.4
				c-35.9,10.8-53.7-21.4-56.7-43.5c-1.3-9.5-3.4-18.9-6.3-28C1408.2,629,1373.8,577.8,1410.1,544.5z"/>
			<path class="st6" d="M2041.4,513c-3.3-8.6-7.5-17.4-12.7-25.6c-8.9-14-12.8-30.5-11.6-47c3.4-47.4,1.6-140.1-60.7-168.2
				c-52.9-23.8-117.7-10-159.1,3.7c-26.9,8.9-56,8.9-82.8,0c-41.4-13.8-106.2-27.5-159.1-3.7c-62.4,28.1-64.1,121.3-60.6,168.6
				c1.2,16.4-2.8,32.7-11.7,46.6c-5.1,8-9.2,16.5-12.4,24.8c-10.6,27.2-13.7,56.6-9.7,85.5l14.7,107.2
				c0,154.1,82.3,258.8,152.2,313.2c36.5,28.4,81.6,43.8,128,43.8c46.4,0,91.5-15.4,128-43.8c70-54.3,152.2-159.1,152.2-313.2
				l14.7-107.2C2054.7,569.1,2051.7,540,2041.4,513L2041.4,513z"/>
			<g>
				<path class="st0" d="M1832.2,1018c-70-54.3-152.2-159.1-152.2-313.2l-14.7-107.2c-4-28.9-0.9-58.3,9.7-85.5
					c3.3-8.4,7.3-16.8,12.4-24.8c8.8-13.9,12.9-30.2,11.7-46.6c-3.1-42.8-2.1-123,44.3-158.8c-9.8-0.9-19.5-2.9-28.9-6
					c-41.4-13.8-106.2-27.5-159.1-3.7c-62.4,28.1-64.1,121.3-60.6,168.6c1.2,16.4-2.8,32.7-11.7,46.6c-5.1,8-9.2,16.5-12.4,24.8
					c-10.6,27.2-13.7,56.6-9.7,85.5l14.7,107.2c0,154.1,82.3,258.8,152.2,313.2c36.5,28.4,81.6,43.8,128,43.8
					c36,0,71.2-9.3,102.2-26.7C1849,1030.1,1840.4,1024.4,1832.2,1018z"/>
			</g>
		</g>
	</g>
	<g>
		<path class="st4" d="M1313.2,739.3c0.9,47.8-3.8,96.7-9,129.4c-24.1,106.3-58.9,198.8-103.5,275.1c-20.2,34.6-45.4,66-74.9,93.4
			l-3.8,3.5v23.8c0,24.7,9.6,47.5,25.9,68.5c91.4-5.5,169.1-24,230.3-45.1c73.7-25.4,106-112.8,65.7-179.5
			c-94.8-157.2-80.7-369-80.7-369L1313.2,739.3L1313.2,739.3z"/>
		<path class="st5" d="M1444.1,1108.3c-8.9-14.7-16.8-30-23.9-45.5c-110.4,64-154.5-26.7-154.5-26.7s-2.9-4.2-8.1-12
			c-16.7,43.4-35.6,83.3-56.8,119.6c-20.2,34.6-45.4,66-74.9,93.4l-3.8,3.5v23.8c0,24.7,9.6,47.5,25.9,68.5
			c91.4-5.5,169.1-24,230.3-45.1C1452.1,1262.4,1484.4,1175,1444.1,1108.3L1444.1,1108.3z"/>
		<path class="st5" d="M515.1,1287.8c61.2,21.1,138.9,39.6,230.3,45.1c16.3-21,25.9-43.8,25.9-68.5v-29.2l-3.6-3.5
			c-27-26.1-50.3-55.7-69.1-88c-44.6-76.3-79.4-168.8-103.4-275c-5.3-30.8-10-80.5-9-129.5h-56.1c0,0,14.1,211.8-80.7,369
			C409.1,1175,441.4,1262.4,515.1,1287.8L515.1,1287.8z"/>
		<path class="st0" d="M573.2,1449c66.2,113.2,166.3,201.2,289.7,254.6c55.3,23.9,118.6,23.9,173.9,0
			c123.4-53.4,223.5-141.4,289.7-254.6c2.5-4.3,5-8.7,7.5-13.1c-103.7-40-199.9-96.9-199.9-171.3c0-26,0-18.2,0-35.1
			c-45.4,40.6-123.2,92.2-187.3,93.8c-64.1-1.5-141.9-53.2-187.3-93.8c0,48.4,12.8,106.6-139.2,180.4c-17.6,8.5-36.3,16.5-55.6,24.1
			C567.6,1439.1,570.4,1444.1,573.2,1449z"/>
		<path class="st1" d="M759.5,1229.6c0,48.4,12.8,106.6-139.2,180.4c-17.6,8.5-36.3,16.5-55.6,24.1c2.8,5,5.6,10,8.5,15
			c47.5,81.2,112.5,149.4,191,201.2c124.5-94.6,164.1-240.6,176.7-327.3C878,1318.6,803.5,1268.9,759.5,1229.6L759.5,1229.6z"/>
		<path class="st7" d="M1871.8,1819.4c-10.6-48.5-24.3-91.1-41.5-125.5c-68.8-137.6-189.6-176.1-244.6-186.6
			c-14.2-3.8-148.9-29.4-267.6-77.6c-3.4,6.2-6.9,12.3-10.4,18.3c-62.9,107.6-158.1,191.3-275.4,242c-52.5,22.7-112.7,22.7-165.3,0
			c-117.3-50.7-212.5-134.4-275.4-242c-3.9-6.6-7.7-13.3-11.5-20.2c-121.6,50.1-271.8,79.3-272.4,79.4
			c-55,10.6-175.8,49-244.6,186.6c-17.2,34.4-30.9,77-41.5,125.5c-13.2,60.4-19.2,122.1-19.2,183.9V2317h1759.5
			c71.1,0,128.8-57.7,128.8-128.8v-184.8C1890.9,1941.6,1885,1879.8,1871.8,1819.4L1871.8,1819.4z"/>
		<path class="st8" d="M336.4,2052.8c0-309.7,109.6-237,362.4-362.1c29-14.3,54.5-31.2,77.1-49.7c-75.8-49.4-138.5-114.9-184.2-193
			c-3.9-6.6-7.7-13.3-11.5-20.2c-121.6,50.1-271.8,79.3-272.4,79.4c-55,10.6-175.8,49-244.6,186.6c-17.2,34.4-30.9,77-41.5,125.5
			c-13.2,60.4-19.2,122.1-19.2,183.9V2317h245.2C299.7,2251.5,336.4,2156,336.4,2052.8L336.4,2052.8z"/>
		<g>
			<path class="st4" d="M1163.8,129c-56.8-29.3-127.5-49.7-214.1-49.7S792.3,99.7,735.5,129c-124.4,64.2-201,191.6-201,329.1v169.6
				l0,0.1c19.6-0.5,41.3,6,55.3,15.3c5.2-16.9,12.2-31.5,21.7-42.2c8.6-9.7,14-21.6,14.3-34.4c1.5-49,14.3-164.7,100.5-209
				c24-12.3,53.4-2.9,66.9,20.5c51.9,90,173.1,208.7,442.5,158.1c19.1-3.6,37.1,10.6,37.7,30.1c0,0.1,0,0.2,0,0.3
				c0.4,12.8,5.8,24.8,14.3,34.4c9.5,10.7,16.6,25.3,21.7,42.2c14-9.3,35.7-15.7,55.3-15.3l0-0.1V458.1
				C1364.8,320.6,1288.2,193.2,1163.8,129z"/>
		</g>
		<path class="st5" d="M944.5,505.8c-133.5-255.1,117.4-414,117.4-414c-34-7.9-71.3-12.4-112.2-12.4c-86.7,0-157.3,20.3-214.1,49.7
			c-124.4,64.2-201,191.6-201,329.1v169.6l0,0.1c19.6-0.5,41.3,6,55.3,15.3c5.2-16.9,12.2-31.5,21.7-42.2c8.6-9.7,14-21.6,14.3-34.4
			c1.5-49,14.3-164.7,100.5-209c24-12.3,53.4-2.9,66.9,20.5c28.1,48.7,76.5,105.7,157.5,139.8C948.7,513.8,946.6,509.8,944.5,505.8z
			"/>
		<path class="st1" d="M586.4,870.5c0,0-22.5-142.5,3.4-227.4c-23.5-15.7-69-23.3-89.4-3.4c-41.9,40.9-11.2,102.7,3.5,141.8
			c4.5,12,7.4,24.1,8.7,36.3c2.9,26.4,17.2,65,76.5,64.1C588.2,878.1,587.3,874.3,586.4,870.5z"/>
		<path class="st0" d="M1399,639.7c-20.4-20-65.9-12.3-89.4,3.4c25.9,84.9,3.4,227.4,3.4,227.4c-0.9,3.9-1.8,7.6-2.7,11.4
			c59.3,0.9,73.6-37.7,76.5-64.1c1.3-12.1,4.2-24.3,8.7-36.3C1410.2,742.4,1440.9,680.6,1399,639.7z"/>
		<path class="st6" d="M1276.4,566.4c-0.2-6.2-0.6-13.8-1.3-22.2c-2.2-3.2-4.8-6-7.9-8.5c-9.3-7.5-21.4-10.5-33.1-8.3
			C977.3,575.6,856.8,470.3,801,373.5c-10.2-17.7-27.9-28.3-46.6-30.1c-15.9,4.4-30.4,11-43.6,19.8
			c-75.3,50.1-86.5,158.8-87.8,203.1c-0.3,11.7-5.1,22.9-13.6,32.6c-47.1,53.1-36.8,208.3-25.8,272.2
			c24.4,107.5,59.6,201.2,104.8,278.6c45.9,78.5,115.4,139.6,201,176.7c38.3,16.6,82.3,16.6,120.6,0c85.6-37,155.1-98.1,201-176.7
			c45.2-77.4,80.5-171.1,104.9-278.8c10.6-67.2,21.8-218.3-25.9-272C1281.5,589.3,1276.8,578,1276.4,566.4L1276.4,566.4z"/>
		<path class="st0" d="M1003.4,1149.7c-45.2-77.4-80.5-171.1-104.8-278.6c-11-63.9-21.3-219.1,25.8-272.2
			c8.6-9.6,13.3-20.9,13.6-32.6c0.4-14.6,2-36.3,6.5-60.5C874,473.5,829.2,422.4,801,373.5c-10.2-17.7-27.9-28.3-46.6-30.1
			c-15.9,4.4-30.4,11-43.6,19.8c-75.3,50.1-86.5,158.8-87.8,203.1c-0.3,11.7-5.1,22.9-13.6,32.6c-47.1,53.1-36.8,208.3-25.8,272.2
			c24.4,107.5,59.6,201.2,104.8,278.6c45.9,78.5,115.4,139.6,201,176.7c38.3,16.6,82.3,16.6,120.6,0c35.3-15.3,67.9-34.7,97.2-57.8
			C1065.5,1235.9,1030.4,1195.8,1003.4,1149.7z"/>
		<path class="st8" d="M1572.1,1907.4c-35.8-22.6-82.4,2.8-82.4,45.1V2317h160.2c0-93,0-215.6,0-285.1
			C1649.9,1971.9,1611.4,1932.2,1572.1,1907.4z"/>
	</g>
	<g>
		<ellipse class="st9" cx="1790.6" cy="1991.8" rx="487.5" ry="487.5"/>
		<path class="st10" d="M2084.2,2381.4c-239.1-41.8-221.6-240.8-221.6-240.8l-95.7-365.1c-161.3-68.5-82.2-259.5-82.1-259.6
			c-218.2,48.5-381.3,243.1-381.3,475.9c0,269.3,218.3,487.6,487.6,487.6C1901,2479.4,2002.6,2442.9,2084.2,2381.4L2084.2,2381.4z"
			/>
		<path class="st11" d="M1939.8,1920.2h-67.7c-5.2,0-9.5-4.3-9.5-9.5V1843c0-39.5-32.1-71.6-71.6-71.6c-39.5,0-71.6,32.1-71.6,71.6
			v67.7c0,5.2-4.3,9.5-9.5,9.5h-67.7c-39.5,0-71.6,32.1-71.6,71.6c0,39.5,32.1,71.6,71.6,71.6h67.7c5.2,0,9.5,4.3,9.5,9.5v67.7
			c0,39.5,32.1,71.6,71.6,71.6c39.5,0,71.6-32.1,71.6-71.6v-67.7c0-5.2,4.3-9.5,9.5-9.5h67.7c39.5,0,71.6-32.1,71.6-71.6
			C2011.4,1952.3,1979.4,1920.2,1939.8,1920.2z"/>
		<path class="st12" d="M1809.9,1991.8c0-39.5,32.1-71.6,71.6-71.6h-9.4c-5.2,0-9.5-4.3-9.5-9.5V1843c0-39.5-32.1-71.6-71.6-71.6
			s-71.6,32.1-71.6,71.6v67.7c0,5.2-4.3,9.5-9.5,9.5h-67.7c-39.5,0-71.6,32.1-71.6,71.6c0,39.5,32.1,71.6,71.6,71.6h67.7
			c5.2,0,9.5,4.3,9.5,9.5v67.7c0,39.5,32.1,71.6,71.6,71.6c39.5,0,71.6-32.1,71.6-71.6v-67.7c0-5.2,4.3-9.5,9.5-9.5h9.4
			C1841.9,2063.4,1809.9,2031.4,1809.9,1991.8z"/>
	</g>
</g>
</svg>
