<?xml version="1.0" encoding="utf-8"?>
<!-- Generator: Adobe Illustrator 24.3.0, SVG Export Plug-In . SVG Version: 6.00 Build 0)  -->
<svg version="1.1" id="Layer_5" xmlns="http://www.w3.org/2000/svg" xmlns:xlink="http://www.w3.org/1999/xlink" x="0px" y="0px"
	 viewBox="0 0 900 900" style="enable-background:new 0 0 900 900;" xml:space="preserve">
<style type="text/css">
	.st0{fill:#FFC729;}
	.st1{fill:#E0589A;}
	.st2{fill:#E2E2E2;}
	.st3{fill:#F2CD16;}
	.st4{fill:#009B3F;}
	.st5{fill:#CCD1D9;}
	.st6{fill:#0B68AF;}
	.st7{fill:#F0D0B4;}
</style>
<g>
	<circle class="st0" cx="125.4" cy="855.7" r="29.5"/>
	<path class="st1" d="M686.1,796.7v-118c0-16.2,13.3-29.5,29.5-29.5h147.5c16.2,0,29.5,13.3,29.5,29.5v118
		c0,16.2-13.3,29.5-29.5,29.5H715.6C699.3,826.2,686.1,813,686.1,796.7z"/>
	<path class="st2" d="M273,88.5v118c0,16.2-13.3,29.5-29.5,29.5h-118v40.8c0,10.1-8.1,18.3-18.3,18.3c-6.8,0-13.1-3.9-16.2-10
		l-24.5-49.1H36.9c-16.2,0-29.5-13.3-29.5-29.5v-118C7.4,72.3,20.7,59,36.9,59h206.6C259.7,59,273,72.3,273,88.5z"/>
	<circle class="st3" cx="745.1" cy="147.5" r="147.5"/>
	<path class="st4" d="M332,426.8c-4.1,4.2-7.4,9.4-9.6,15.1l-14.9,39.8c-7,18.8-20.5,34.9-38.7,43.2c-26.4,11.8-56.1,6.6-76.5-11.1
		L97.7,433c-7-6.1-12.9-14-15.1-23.1c-3.9-14.6-0.4-29.5,9.2-40.4c8.3-10,20.7-15.5,33.6-15.5c10.7,0,20.8,3.9,28.8,10.7l77.6,66.6
		l4.1-10.9c20.5-54.8,71.2-91.8,129.1-95.5c7.4,53.7,22.5,106,44.6,155.5c7.6,17.3,16.2,34.3,25.6,50.7h-29.5l-10,40
		c-1.5,0.6-3,1.1-4.4,1.8l-35-21.2l-24.3,24V426.8z"/>
	<path class="st4" d="M568,427.7v148.1l-24.2-24.2l-35,21.2c-1.5-0.7-3-1.1-4.4-1.8l-10.1-39.8h-29.5c9.6-16.8,18.3-33.9,26.2-51.5
		c21.8-49.2,36.7-101.4,44.1-154.7c57.9,3.5,108.6,40.8,129.1,95.5l4.1,10.9l77.6-66.6c7.9-6.8,18.3-10.7,28.8-10.7
		c12.9,0,25.3,5.5,33.6,15.5c9.4,10.9,12.9,25.8,9.2,40.4c-2.4,9-8.1,17-15.1,23.1L708,513.8c-20.5,17.7-50.2,22.9-76.5,11.1
		c-18.3-8.3-31.7-24.3-38.7-43.2l-15.1-39.8c-1.8-5.3-4.8-10-8.5-14.2L568,427.7z"/>
	<path class="st3" d="M464.8,531.1h29.5l10,40c1.5,0.6,3,1.1,4.4,1.8l35-21.2l24.2,24.2l38.5,38.5l-21.2,35c0.7,1.5,1.1,3,1.8,4.4
		l40,10v88.5l-40,10c-0.6,1.5-1.1,3-1.8,4.4l21.2,35l-62.7,62.7l-35-21.2c-1.5,0.7-3,1.1-4.4,1.8l-10,40h-88.5l-10-40
		c-1.5-0.6-3-1.1-4.4-1.8l-35,21.2l-62.7-62.7l21.2-35c-0.7-1.5-1.1-3-1.8-4.4l-40-10v-88.5l40-10c0.6-1.5,1.1-3,1.8-4.4l-21.2-35
		l38.5-38.5l24.2-24.2l35,21.2c1.5-0.7,3-1.1,4.4-1.8l10-40h29.5H464.8z M538.5,708.2c0-48.9-39.7-88.5-88.5-88.5
		s-88.5,39.7-88.5,88.5c0,48.9,39.7,88.5,88.5,88.5S538.5,757.1,538.5,708.2z"/>
	<path class="st5" d="M526,324.6c3,0,6.1,0.2,9,0.4c-7.4,53.5-22.3,105.5-44.1,154.7l-23.6-155.1H526z"/>
	<path class="st5" d="M432.7,324.6l-23.1,155.8C387.5,431,372.4,378.6,365,325c3-0.2,6.1-0.4,9-0.4H432.7z"/>
	<path class="st6" d="M467.3,324.6l23.4,155.1c-7.7,17.5-16.6,34.7-26.2,51.5h-29.5c-9.4-16.6-18.1-33.6-25.6-50.7l23.1-155.8h17.3
		H467.3z"/>
	<circle class="st7" cx="450" cy="221.3" r="103.3"/>
	<path class="st1" d="M730.3,191.8c-8.1,0-14.8-6.6-14.8-14.8h-29.5c0,24.3,19.9,44.3,44.3,44.3v29.5h29.5v-29.5h44.3V177
		c0-24.3-19.9-44.3-44.3-44.3h-29.5c-8.1,0-14.8-6.6-14.8-14.8v-14.8h44.3c8.1,0,14.8,6.6,14.8,14.8h29.5
		c0-24.3-19.9-44.3-44.3-44.3V44.3h-29.5v29.5h-44.3V118c0,24.3,19.9,44.3,44.3,44.3h29.5c8.1,0,14.8,6.6,14.8,14.8v14.8H730.3z"/>
	<path class="st4" d="M51.6,103.3h177v29.5h-177V103.3z"/>
	<path class="st4" d="M51.6,162.3h118v29.5h-118V162.3z"/>
	<path class="st4" d="M199.2,162.3h29.5v29.5h-29.5V162.3z"/>
	<path class="st0" d="M804.1,731.6l-29.5-29.5l-54.8,54.8l20.8,20.8l33.8-33.7l29.5,29.5l54.8-54.8l-20.8-20.8L804.1,731.6z"/>
	<path class="st1" d="M128,619.7h-5.2c-31.2,0-56.4,25.3-56.4,56.4v17.3h29.5v-17.3c0-14.9,12.2-26.9,26.9-26.9h5.2
		c14.9,0,26.9,12.2,26.9,26.9c0,7-3,14-7.9,19l-36.3,36.5V782h29.5v-38.2l27.7-27.7c10.7-10.7,16.6-24.9,16.6-40
		C184.4,644.9,159.2,619.7,128,619.7z"/>
	<path class="st1" d="M125.4,811.5c-24.3,0-44.3,19.9-44.3,44.3c0,24.3,19.9,44.3,44.3,44.3s44.3-19.9,44.3-44.3
		C169.7,831.4,149.8,811.5,125.4,811.5z M125.4,876.8c-11.6,0-21-9.4-21-21c0-11.6,9.4-21,21-21s21,9.4,21,21
		C146.4,867.4,137,876.8,125.4,876.8z"/>
</g>
</svg>
