<?xml version="1.0" encoding="utf-8"?>
<!-- Generator: Adobe Illustrator 24.3.0, SVG Export Plug-In . SVG Version: 6.00 Build 0)  -->
<svg version="1.1" xmlns="http://www.w3.org/2000/svg" xmlns:xlink="http://www.w3.org/1999/xlink" x="0px" y="0px"
	 viewBox="0 0 2000 2000" style="enable-background:new 0 0 2000 2000;" xml:space="preserve">
<style type="text/css">
	.st0{fill:#ADCDFF;}
	.st1{fill:#D3E4FF;}
	.st2{fill:#2D3847;}
	.st3{fill:#76A6F5;}
	.st4{fill:#98BBF5;}
	.st5{fill:#FFFFFF;}
	.st6{fill:#BD99FF;}
	.st7{fill:#FFDF40;}
	.st8{fill:#3B495E;}
	.st9{fill:#F7C9B5;}
	.st10{fill:#F7A37E;}
	.st11{fill:#CADEFF;}
	.st12{fill:#5E6B82;}
	.st13{fill:#334566;}
	.st14{fill:#729FE8;}
</style>
<g id="BACKGROUND">
</g>
<g id="OBJECTS">
	<g>
		<g>
			<g>
				
					<ellipse transform="matrix(0.7071 -0.7071 0.7071 0.7071 -603.4397 1793.3533)" class="st0" cx="1863" cy="1625.1" rx="137" ry="137"/>
			</g>
			<g>
				<path class="st1" d="M1900.4,742.4c-3.5-15.4-7.1-31-10.8-47c-41.6-182.9-176.2-344.2-352.1-411.7
					c-206.2-79.1-457.1-24.3-611.5,133.7c-62.9,64.3-109.6,142.6-169.3,209.8c-55.5,62.5-105.2,128.5-187.6,157.1
					c-61.3,21.2-126.8,28-188.8,47.3C234.8,877,114,995.2,65.6,1139.8c-42,125.4-30.5,265.1,16.1,388.9
					c37.4,99.4,96.5,189.4,165.5,269.8c5.9,6.9,11.9,12.9,18.1,18.3h1095.3c29.2-19.4,56.4-43,80.9-63.1
					c161.9-132.2,302.7-298.1,392.8-487.6c44.8-94.3,76.7-195.3,87.7-299.4C1930.6,885.4,1917.4,816.8,1900.4,742.4z"/>
			</g>
			<g>
				<path class="st0" d="M42.5,1247.7c-9.8,94.4,5.6,191.8,39.2,281c37.4,99.4,96.5,189.4,165.5,269.8c5.9,6.9,11.9,12.9,18.1,18.3
					h1095.3c29.2-19.4,56.4-43,80.9-63.1c161.9-132.2,302.7-298.1,392.8-487.6c2.9-6.1,5.8-12.3,8.6-18.4H42.5z"/>
			</g>
			<g>
				<path class="st2" d="M1437.3,1821.2H219.9c-1.1,0-1.9-0.9-1.9-1.9s0.9-1.9,1.9-1.9h1217.4c1.1,0,1.9,0.9,1.9,1.9
					S1438.4,1821.2,1437.3,1821.2z"/>
			</g>
			<g>
				
					<ellipse transform="matrix(0.7071 -0.7071 0.7071 0.7071 -217.7795 486.2266)" class="st1" cx="478" cy="506" rx="239.7" ry="239.7"/>
			</g>
		</g>
		<g>
			<g>
				<g>
					<rect x="1182.9" y="948.7" class="st3" width="84.7" height="299.8"/>
				</g>
				<g>
					<path class="st4" d="M1393.7,1248.4h-337v-18.3c0-2.7,2.2-5,5-5h327.1c2.7,0,5,2.2,5,5V1248.4z"/>
				</g>
				<g>
					<rect x="995.9" y="935.6" class="st4" width="458.7" height="266.4"/>
				</g>
				<g>
					<rect x="1010.9" y="948.7" class="st5" width="428.7" height="240.2"/>
				</g>
				<g>
					<path class="st6" d="M1165.9,1003.9h12.1l-19.2,56.5h-13.1l-19.2-56.5h12.1l10.6,33.6c0.6,2,1.2,4.3,1.8,6.9
						c0.6,2.6,1,4.5,1.2,5.5c0.3-2.4,1.2-6.5,2.9-12.4L1165.9,1003.9z"/>
					<path class="st6" d="M1217.6,1060.3h-32.5v-56.5h32.5v9.8H1197v12.4h19.1v9.8H1197v14.6h20.6V1060.3z"/>
					<path class="st6" d="M1241.4,1038.7v21.7h-12v-56.5h16.5c7.7,0,13.4,1.4,17,4.2c3.7,2.8,5.5,7,5.5,12.7c0,3.3-0.9,6.3-2.7,8.9
						c-1.8,2.6-4.4,4.6-7.8,6.1c8.5,12.7,14,20.9,16.6,24.6h-13.3l-13.5-21.7H1241.4z M1241.4,1028.9h3.9c3.8,0,6.6-0.6,8.4-1.9
						c1.8-1.3,2.7-3.2,2.7-5.9c0-2.7-0.9-4.6-2.8-5.7c-1.8-1.1-4.7-1.7-8.6-1.7h-3.6V1028.9z"/>
					<path class="st6" d="M1299.2,1027.1l11.8-23.3h12.9l-18.7,34.5v22h-11.9v-21.6l-18.7-34.9h13L1299.2,1027.1z"/>
					<path class="st6" d="M1132.9,1105.5h22.4v29.3c-3.6,1.2-7,2-10.3,2.5c-3.2,0.5-6.5,0.7-9.8,0.7c-8.5,0-15-2.5-19.5-7.5
						c-4.5-5-6.7-12.2-6.7-21.6c0-9.1,2.6-16.2,7.8-21.3c5.2-5.1,12.4-7.6,21.7-7.6c5.8,0,11.4,1.2,16.8,3.5l-4,9.6
						c-4.1-2.1-8.4-3.1-12.9-3.1c-5.2,0-9.3,1.7-12.4,5.2s-4.7,8.2-4.7,14c0,6.1,1.3,10.8,3.8,14c2.5,3.2,6.2,4.8,11,4.8
						c2.5,0,5-0.3,7.6-0.8v-11.8h-10.7V1105.5z"/>
					<path class="st6" d="M1220,1108.9c0,9.4-2.3,16.5-7,21.6c-4.6,5-11.3,7.5-19.9,7.5c-8.7,0-15.3-2.5-19.9-7.5
						c-4.6-5-7-12.2-7-21.6c0-9.4,2.3-16.6,7-21.5c4.6-5,11.3-7.4,20-7.4c8.7,0,15.3,2.5,19.9,7.5
						C1217.7,1092.3,1220,1099.5,1220,1108.9z M1178.8,1108.9c0,6.3,1.2,11.1,3.6,14.3c2.4,3.2,6,4.8,10.7,4.8
						c9.6,0,14.3-6.3,14.3-19c0-12.7-4.8-19.1-14.3-19.1c-4.8,0-8.4,1.6-10.8,4.8C1180,1097.8,1178.8,1102.6,1178.8,1108.9z"/>
					<path class="st6" d="M1283,1108.9c0,9.4-2.3,16.5-7,21.6c-4.6,5-11.3,7.5-19.9,7.5c-8.7,0-15.3-2.5-19.9-7.5
						c-4.6-5-7-12.2-7-21.6c0-9.4,2.3-16.6,7-21.5c4.6-5,11.3-7.4,20-7.4c8.7,0,15.3,2.5,19.9,7.5
						C1280.7,1092.3,1283,1099.5,1283,1108.9z M1241.7,1108.9c0,6.3,1.2,11.1,3.6,14.3c2.4,3.2,6,4.8,10.7,4.8
						c9.6,0,14.3-6.3,14.3-19c0-12.7-4.8-19.1-14.3-19.1c-4.8,0-8.4,1.6-10.8,4.8C1242.9,1097.8,1241.7,1102.6,1241.7,1108.9z"/>
					<path class="st6" d="M1341.5,1108.4c0,9.3-2.6,16.4-7.9,21.4s-12.9,7.4-22.9,7.4h-16v-56.5h17.7c9.2,0,16.4,2.4,21.5,7.3
						C1339,1092.9,1341.5,1099.7,1341.5,1108.4z M1329.1,1108.7c0-12.1-5.4-18.2-16.1-18.2h-6.4v36.8h5.1
						C1323.3,1127.3,1329.1,1121.1,1329.1,1108.7z"/>
				</g>
			</g>
			<g>
				<path class="st3" d="M1500.8,1216.2h-54.3c-3.4,0-6.2,2.8-6.2,6.2v26.1h66.6v-26.1C1507,1219,1504.2,1216.2,1500.8,1216.2z"/>
			</g>
			<g>
				<rect x="40.2" y="1246.5" class="st2" width="1804.8" height="3.8"/>
			</g>
		</g>
		<g>
			<g>
				<g>
					<path class="st5" d="M1744.4,811.4H911.7c-5.6,0-10.2-4.6-10.2-10.2v-275c0-5.6,4.6-10.2,10.2-10.2h832.7
						c5.6,0,10.2,4.6,10.2,10.2v275C1754.6,806.8,1750,811.4,1744.4,811.4z"/>
				</g>
				<g>
					<g>
						
							<ellipse transform="matrix(0.7071 -0.7071 0.7071 0.7071 -159.0699 943.3239)" class="st6" cx="1059.2" cy="663.7" rx="90.3" ry="90.3"/>
					</g>
					<g>
						<g>
							<polygon class="st7" points="1226.6,557.7 1240.4,600 1284.8,600 1248.9,626.1 1262.6,668.5 1226.6,642.3 1190.6,668.5 
								1204.4,626.1 1168.4,600 1212.9,600 							"/>
						</g>
						<g>
							<polygon class="st7" points="1360.7,557.7 1374.5,600 1419,600 1383,626.1 1396.7,668.5 1360.7,642.3 1324.7,668.5 
								1338.5,626.1 1302.5,600 1347,600 							"/>
						</g>
						<g>
							<polygon class="st7" points="1494.8,557.7 1508.6,600 1553.1,600 1517.1,626.1 1530.8,668.5 1494.8,642.3 1458.8,668.5 
								1472.6,626.1 1436.6,600 1481.1,600 							"/>
						</g>
						<g>
							<polygon class="st1" points="1629,557.7 1642.7,600 1687.2,600 1651.2,626.1 1664.9,668.5 1629,642.3 1593,668.5 
								1606.7,626.1 1570.7,600 1615.2,600 							"/>
						</g>
						<g>
							<rect x="1183.3" y="683.4" class="st6" width="502" height="13"/>
						</g>
						<g>
							<rect x="1183.3" y="717.1" class="st6" width="502" height="13"/>
						</g>
						<g>
							<path class="st6" d="M1295.3,764.9c-37.7,0-75.4-0.4-112.1-1.2l0.3-13c73.1,1.5,150.5,1.5,223.6,0l0.3,13
								C1370.6,764.5,1333,764.9,1295.3,764.9z"/>
						</g>
					</g>
				</g>
				<g>
					<polygon class="st5" points="973.3,792.3 973.3,858.2 1045,786.5 					"/>
				</g>
			</g>
			<g>
				<g>
					<path class="st5" d="M1942.4,1590.9h-546.8c-3.7,0-6.7-3-6.7-6.7v-180.6c0-3.7,3-6.7,6.7-6.7h546.8c3.7,0,6.7,3,6.7,6.7v180.6
						C1949,1587.9,1946,1590.9,1942.4,1590.9z"/>
				</g>
				<g>
					<g>
						
							<ellipse transform="matrix(0.1595 -0.9872 0.9872 0.1595 -220.3914 2728.946)" class="st6" cx="1492.4" cy="1493.9" rx="59.3" ry="59.3"/>
					</g>
					<g>
						<g>
							<polygon class="st7" points="1602.4,1424.3 1611.4,1452.1 1640.6,1452.1 1617,1469.3 1626,1497 1602.4,1479.9 1578.8,1497 
								1587.8,1469.3 1564.1,1452.1 1593.4,1452.1 							"/>
						</g>
						<g>
							<polygon class="st7" points="1690.4,1424.3 1699.5,1452.1 1728.7,1452.1 1705.1,1469.3 1714.1,1497 1690.4,1479.9 
								1666.8,1497 1675.8,1469.3 1652.2,1452.1 1681.4,1452.1 							"/>
						</g>
						<g>
							<polygon class="st7" points="1778.5,1424.3 1787.5,1452.1 1816.7,1452.1 1793.1,1469.3 1802.1,1497 1778.5,1479.9 
								1754.9,1497 1763.9,1469.3 1740.3,1452.1 1769.5,1452.1 							"/>
						</g>
						<g>
							<polygon class="st7" points="1866.6,1424.3 1875.6,1452.1 1904.8,1452.1 1881.2,1469.3 1890.2,1497 1866.6,1479.9 
								1842.9,1497 1852,1469.3 1828.3,1452.1 1857.5,1452.1 							"/>
						</g>
						<g>
							<rect x="1574" y="1506.8" class="st6" width="329.6" height="8.5"/>
						</g>
						<g>
							<rect x="1574" y="1529" class="st6" width="329.6" height="8.5"/>
						</g>
						<g>
							<path class="st6" d="M1647.5,1560.4c-24.8,0-49.5-0.3-73.6-0.8l0.2-8.5c48,1,98.8,1,146.8,0l0.2,8.5
								C1697,1560.1,1672.2,1560.4,1647.5,1560.4z"/>
						</g>
					</g>
				</g>
				<g>
					<polygon class="st5" points="1436.1,1406.5 1436.1,1359.4 1483.2,1406.5 					"/>
				</g>
			</g>
			<g>
				<g>
					<rect x="295.1" y="245.5" class="st3" width="334.2" height="445.5"/>
				</g>
				<g>
					<rect x="313.2" y="281.7" class="st5" width="297.8" height="388.9"/>
				</g>
				<g>
					<rect x="374" y="225.1" class="st8" width="176.3" height="84.8"/>
				</g>
				<g>
					<g>
						<rect x="354" y="350.9" class="st1" width="29.7" height="29.7"/>
					</g>
					<g>
						<rect x="397.8" y="354.6" class="st1" width="172.5" height="4"/>
					</g>
					<g>
						<rect x="397.8" y="367.3" class="st1" width="172.5" height="4"/>
					</g>
				</g>
				<g>
					<g>
						<rect x="354" y="401.6" class="st1" width="29.7" height="29.7"/>
					</g>
					<g>
						<rect x="397.8" y="405.2" class="st1" width="172.5" height="4"/>
					</g>
					<g>
						<rect x="397.8" y="418" class="st1" width="172.5" height="4"/>
					</g>
				</g>
				<g>
					<g>
						<rect x="354" y="452.2" class="st1" width="29.7" height="29.7"/>
					</g>
					<g>
						<rect x="397.8" y="455.8" class="st1" width="172.5" height="4"/>
					</g>
					<g>
						<rect x="397.8" y="468.6" class="st1" width="172.5" height="4"/>
					</g>
				</g>
				<g>
					<g>
						<rect x="354" y="502.8" class="st1" width="29.7" height="29.7"/>
					</g>
					<g>
						<rect x="397.8" y="506.5" class="st1" width="172.5" height="4"/>
					</g>
					<g>
						<rect x="397.8" y="519.2" class="st1" width="172.5" height="4"/>
					</g>
				</g>
				<g>
					<g>
						<rect x="354" y="553.4" class="st1" width="29.7" height="29.7"/>
					</g>
					<g>
						<rect x="397.8" y="557.1" class="st1" width="172.5" height="4"/>
					</g>
					<g>
						<rect x="397.8" y="569.8" class="st1" width="172.5" height="4"/>
					</g>
				</g>
				<g>
					<g>
						<rect x="354" y="604" class="st1" width="29.7" height="29.7"/>
					</g>
					<g>
						<rect x="397.8" y="607.7" class="st1" width="172.5" height="4"/>
					</g>
					<g>
						<rect x="397.8" y="620.4" class="st1" width="172.5" height="4"/>
					</g>
				</g>
				<g>
					<path class="st6" d="M363.7,382.3c-1.4,0-2.8-0.7-3.6-1.9l-10-14.5c-1.4-2-0.9-4.7,1.1-6.1c2-1.4,4.7-0.8,6.1,1.1l4.9,7.1
						c4.9-12.5,13.7-23.3,25.1-30.6c2-1.3,4.7-0.7,6,1.3c1.3,2,0.7,4.7-1.3,6c-12.1,7.7-20.8,20.1-24,34.1c-0.4,1.7-1.7,3-3.4,3.3
						C364.3,382.2,364,382.3,363.7,382.3z"/>
				</g>
				<g>
					<path class="st6" d="M363.7,432.9c-1.4,0-2.8-0.7-3.6-1.9l-10-14.5c-1.4-2-0.9-4.7,1.1-6.1c2-1.4,4.7-0.8,6.1,1.1l4.9,7.1
						c4.9-12.5,13.7-23.3,25.1-30.6c2-1.3,4.7-0.7,6,1.3c1.3,2,0.7,4.7-1.3,6c-12.1,7.7-20.8,20.1-24,34.1c-0.4,1.7-1.7,3-3.4,3.3
						C364.3,432.9,364,432.9,363.7,432.9z"/>
				</g>
				<g>
					<path class="st6" d="M363.7,483.6c-1.4,0-2.8-0.7-3.6-1.9l-10-14.5c-1.4-2-0.9-4.7,1.1-6.1c2-1.4,4.7-0.8,6.1,1.1l4.9,7.1
						c4.9-12.5,13.7-23.3,25.1-30.6c2-1.3,4.7-0.7,6,1.3c1.3,2,0.7,4.7-1.3,6c-12.1,7.7-20.8,20.1-24,34.1c-0.4,1.7-1.7,3-3.4,3.3
						C364.3,483.6,364,483.6,363.7,483.6z"/>
				</g>
				<g>
					<path class="st6" d="M363.7,534.3c-1.4,0-2.8-0.7-3.6-1.9l-10-14.5c-1.4-2-0.9-4.7,1.1-6.1c2-1.4,4.7-0.9,6.1,1.1l4.9,7.1
						c4.9-12.5,13.7-23.3,25.1-30.6c2-1.3,4.7-0.7,6,1.3c1.3,2,0.7,4.7-1.3,6c-12.1,7.7-20.8,20.1-24,34.1c-0.4,1.7-1.7,3-3.4,3.3
						C364.3,534.3,364,534.3,363.7,534.3z"/>
				</g>
				<g>
					<path class="st6" d="M363.7,585c-1.4,0-2.8-0.7-3.6-1.9l-10-14.5c-1.4-2-0.9-4.7,1.1-6.1c2-1.4,4.7-0.8,6.1,1.1l4.9,7.1
						c4.9-12.5,13.7-23.3,25.1-30.6c2-1.3,4.7-0.7,6,1.3c1.3,2,0.7,4.7-1.3,6c-12.1,7.7-20.8,20.1-24,34.1c-0.4,1.7-1.7,3-3.4,3.3
						C364.3,585,364,585,363.7,585z"/>
				</g>
			</g>
			<g>
				<g>
					
						<ellipse transform="matrix(0.232 -0.9727 0.9727 0.232 378.092 2515.6057)" class="st6" cx="1782.1" cy="1018.4" rx="98.4" ry="98.4"/>
				</g>
				<g>
					<path class="st5" d="M1811.6,981.3c-16.3,0-29.5,13.3-29.5,29.6c0-16.3-13.2-29.6-29.5-29.6c-16.3,0-29.6,13.3-29.6,29.6
						c0,36.9,59.1,67.8,59.1,67.8s59.1-30.9,59.1-67.8C1841.2,994.5,1828,981.3,1811.6,981.3z"/>
				</g>
			</g>
			<g>
				<g>
					<circle class="st6" cx="957.8" cy="282.9" r="98.4"/>
				</g>
				<g>
					<path class="st5" d="M987.3,245.8c-16.3,0-29.5,13.3-29.5,29.6c0-16.3-13.2-29.6-29.5-29.6c-16.3,0-29.6,13.3-29.6,29.6
						c0,36.9,59.1,67.8,59.1,67.8s59.1-30.9,59.1-67.8C1016.9,259.1,1003.6,245.8,987.3,245.8z"/>
				</g>
			</g>
			<g>
				<polygon class="st6" points="1771.2,172.2 1803.5,271.9 1908.4,271.9 1823.6,333.5 1856,433.2 1771.2,371.6 1686.4,433.2 
					1718.7,333.5 1633.9,271.9 1738.8,271.9 				"/>
			</g>
			<g>
				<polygon class="st6" points="137.2,916.3 169.6,1016 274.4,1016 189.6,1077.6 222,1177.3 137.2,1115.7 52.4,1177.3 84.8,1077.6 
					0,1016 104.8,1016 				"/>
			</g>
		</g>
		<g>
			<g>
				<g>
					<g>
						<path class="st5" d="M480.5,1239.8h-97.4c-20.8,0-37.7-16.9-37.7-37.7l0,0c0-20.8,16.9-37.7,37.7-37.7h97.4
							c20.8,0,37.7,16.9,37.7,37.7l0,0C518.2,1223,501.3,1239.8,480.5,1239.8z"/>
					</g>
					<g>
						<path class="st2" d="M466.2,1244.2H364.5c-23.2,0-42.1-18.8-42.1-42.1l0,0c0-23.2,18.8-42.1,42.1-42.1h101.7
							c23.2,0,42.1,18.8,42.1,42.1l0,0C508.3,1225.4,489.4,1244.2,466.2,1244.2z"/>
					</g>
				</g>
				<g>
					<path class="st2" d="M340.9,1160.3c23.4-27.6,89.9-113.3,89.9-113.3c6.4-8,18.8-7.3,24.1,1.5l52.8,86.3
						c1.5,2.5,0.2,5.7-2.5,6.4l-129.2,94.5c-18.5,6.1-38.8-1.3-48.9-17.9l0,0C315,1198.2,323.2,1181.2,340.9,1160.3z"/>
				</g>
			</g>
			<g>
				<g>
					<g>
						<g>
							<path class="st2" d="M614.1,1736l-8.2,67.6h169h0c-17.3-16.9-39.3-28.2-63.1-32.4l0,0c-12.5-2.2-37.1-8.1-37.1-8.1
								l-13.3-31.7L614.1,1736z"/>
						</g>
						<g>
							<path class="st8" d="M774.8,1812.2H604.7c-0.7,0-1.3-0.6-1.3-1.3v-10.1c0-0.7,0.6-1.3,1.3-1.3h170.1c0.7,0,1.3,0.6,1.3,1.3
								v10.1C776.1,1811.7,775.5,1812.2,774.8,1812.2z"/>
						</g>
					</g>
					<g>
						<path class="st2" d="M721.6,1450.9l-35.2,312h-81v-393.8h46.6C695.3,1369.2,728.5,1408.1,721.6,1450.9z"/>
					</g>
				</g>
				<g>
					<g>
						<g>
							<path class="st2" d="M831.5,1751.5l-8.2,67.6h169l0,0c-17.3-16.9-39.3-28.2-63.1-32.4l0,0c-12.5-2.2-37.1-8.1-37.1-8.1
								l-13.3-31.7L831.5,1751.5z"/>
						</g>
						<g>
							<path class="st8" d="M992.3,1827.8H822.1c-0.7,0-1.3-0.6-1.3-1.3v-10.1c0-0.7,0.6-1.3,1.3-1.3h170.1c0.7,0,1.3,0.6,1.3,1.3
								v10.1C993.6,1827.2,993,1827.8,992.3,1827.8z"/>
						</g>
					</g>
					<g>
						<path class="st8" d="M926.7,1534.6l-277.5-29.9l8.8-121.7l217.5,23.4c42.7,4.6,71.4,46,60.8,87.6L926.7,1534.6z"/>
					</g>
					<g>
						<path class="st8" d="M937.4,1490.4l-41.6,287.4h-74.7v-369.2h46.6C911.2,1408.7,944.3,1447.6,937.4,1490.4z"/>
					</g>
				</g>
				<g>
					<g>
						<path class="st8" d="M711.2,1498.8H509.8c-8,0-14.5-6.5-14.5-14.5v-127.6h230.4v127.6C725.7,1492.3,719.2,1498.8,711.2,1498.8
							z"/>
					</g>
					<g>
						<rect x="495.3" y="1356.7" class="st2" width="230.4" height="41.6"/>
					</g>
				</g>
			</g>
			<g>
				<g>
					<g>
						<path class="st9" d="M491.7,832.6v197.7l104.1,0.3v-31.2l25.6-0.3c22.1,0,26.8-11.8,26.8-33.9V832.6H491.7z"/>
					</g>
					<g>
						<path class="st9" d="M643.5,900.2l18.7,33.6c1.6,3.7-0.4,7.9-4.3,9l-14.5,4.3V900.2z"/>
					</g>
					<g>
						<rect x="491.7" y="832.6" class="st10" width="156.6" height="13.3"/>
					</g>
					<g>
						<rect x="491.7" y="832.6" class="st10" width="104.1" height="197.7"/>
					</g>
				</g>
				<g>
					<g>
						<path class="st2" d="M685.8,759.6c-2.5,5.4-8.1,8.9-13.9,10.2c-5.8,1.3-11.8,0.7-17.7-0.1c-40.3-5.8-99.2-36.4-136.6-6.8
							c-10.9,8.6-18,22.1-19.2,35.9c-0.3,2.9,1,7.5,0.2,10.1c-1.2,4-2.7,3.3-7.4,4.4c-57.5,13.9-23,83.2-10.3,118.2
							c3.5,9.6,5.2,20.2,4.1,30.4c-0.9,8.5,0.4,10.1,7,9.9c2.6-0.1,5.3-0.2,7.9-0.2h69.6c22.3,0,40.3-18,40.3-40.3
							c0-40.9,0-98.2,0-98.2c30.6,0-30.8,0-0.2,0c24.7,0,48.4-4.4,64.3-25.5c2.9-3.8,5.3-8,7.3-12.4
							C686.1,784.1,687.8,771.6,685.8,759.6z"/>
					</g>
					<g>
						<g>
							<path class="st2" d="M594.1,833.3c19.2,1.8,38.4,3,57.7,3.5c15.3,0.5,31.5,1.1,43.8-9.5c5.6-4.8-2.5-12.9-8.1-8.1
								c-10.7,9.1-28.5,6.4-41.4,5.9c-17.4-0.6-34.7-1.8-52-3.3C586.7,821.2,586.8,832.7,594.1,833.3L594.1,833.3z"/>
						</g>
					</g>
					<g>
						<g>
							<path class="st2" d="M639,831.8c14.3,2.1,29-1.1,40.6-10c10.5-8.1,17.8-20.2,19.8-33.4c0.5-3.1-0.8-6.2-4-7.1
								c-2.7-0.7-6.6,0.9-7.1,4c-1.6,10.6-6.8,20.4-15.3,27.1c-8.5,6.8-20.2,9.9-30.9,8.3c-3.1-0.5-6.2,0.8-7.1,4
								C634.2,827.4,635.9,831.3,639,831.8L639,831.8z"/>
						</g>
					</g>
					<g>
						<g>
							<path class="st2" d="M510.2,804.8c-0.7-0.1-0.9,0-0.4,0.1c-0.4-0.1-0.8-0.2-1.2-0.3c0.3,0.1-1.2-0.6-1.5-0.9
								c-0.6-0.5-1.4-1.5-1.9-2.4c-1.5-2.7-2.1-6.3-2.4-9.4c-0.9-8-0.4-15.9,1.5-23.7c0.7-3-1-6.2-4-7.1c-2.9-0.8-6.3,1-7.1,4
								c-2.5,10.4-3,21-1.3,31.6c1.5,9.5,7.3,19.8,18.3,19.7C517.6,816.2,517.6,804.7,510.2,804.8L510.2,804.8z"/>
						</g>
					</g>
					<g>
						<g>
							<path class="st2" d="M478.5,812.7c1.2,0,2.3,0.1,3.5,0.2c0.4,0,0.9,0.1,1.3,0.1c0.7,0.1,0.6,0.1-0.2,0c0.3,0,0.6,0.1,0.9,0.1
								c2.1,0.3,4.1,0.8,6.1,1.4c1,0.3,2.1,0.7,3.1,1c0.2,0.1,1.1,0.3,1.2,0.5c-0.7-0.3-0.8-0.3-0.2-0.1c0.3,0.1,0.5,0.2,0.8,0.4
								c2,0.9,3.9,2,5.7,3.2c2.5,1.6,6.5,0.6,7.9-2.1c1.5-2.9,0.6-6.1-2.1-7.9c-8.3-5.3-18.1-8.2-28-8.3c-3,0-5.9,2.7-5.7,5.7
								C472.9,810.1,475.3,812.7,478.5,812.7L478.5,812.7z"/>
						</g>
					</g>
				</g>
				<g>
					<g>
						<g>
							<path class="st9" d="M620,946.7c-0.3,0.6-0.7,1.1-1.2,1.4c-24.7,17.3-63.5-56-28.3-70.5c8.5-3.5,19.9,1.8,25.1,8.9
								c6.2,8.4,4.8,21.4,4.8,31.2C620.5,923,623.2,940.9,620,946.7z"/>
						</g>
					</g>
					<g>
						<path class="st10" d="M609.6,933.6c-0.1,0-0.3,0-0.4,0c-3-0.3-5.8-2-7.7-4.6c-1.9-2.6-2.5-5.8-1.8-8.8c0.7-2.9,2.8-5.5,5.6-7
							c0.9-0.5,1.9-0.8,2.9-1c-1-4.3-2.8-8.6-5.4-12.9c-0.9-1.6-2.7-3.2-4.5-3.2c0,0,0,0-0.1,0c-0.9,0-1.9,0.5-2.4,1.2
							c-0.6,0.7-0.8,1.8-0.6,2.7c0.5,2.1-0.8,4.1-2.9,4.6c-2.1,0.5-4.1-0.8-4.6-2.9c-0.7-3.1,0-6.5,2-9.1c2-2.6,5.1-4.1,8.3-4.2
							c4.4-0.2,8.7,2.6,11.3,7c3.9,6.8,6.4,13.6,7.2,20.4c0.2,1.3-0.4,2.7-1.5,3.5c-1.1,0.8-2.5,1-3.7,0.5c-0.7-0.3-1.7-0.2-2.6,0.3
							c-0.9,0.5-1.5,1.2-1.7,2c-0.2,0.8,0,1.7,0.6,2.5c0.6,0.8,1.4,1.3,2.2,1.4c2.1,0.2,3.6,2.1,3.4,4.2
							C613.2,932.1,611.5,933.6,609.6,933.6z"/>
					</g>
				</g>
				<g>
					<g>
						<g>
							<path class="st2" d="M634.6,885.7c3.4,0,6.8,0,10.2,0c0.5,0,1,0,1.4,0c1.4,0.1,2.7-0.2,3.9-0.9c1.3-0.4,2.4-1.1,3.3-2.1
								c1-0.9,1.7-2,2.1-3.3c0.6-1.2,0.9-2.5,0.9-3.9c-0.1-2.6-1-5.4-3-7.2c-2-1.8-4.4-3-7.2-3c-3.4,0-6.8,0-10.2,0
								c-0.5,0-1,0-1.4,0c-1.4-0.1-2.7,0.2-3.9,0.9c-1.3,0.4-2.4,1.1-3.3,2.1c-1,0.9-1.7,2-2.1,3.3c-0.6,1.2-0.9,2.5-0.9,3.9
								c0.1,2.6,1,5.4,3,7.2C629.4,884.6,631.9,885.7,634.6,885.7L634.6,885.7z"/>
						</g>
					</g>
					<g>
						<path class="st2" d="M644.8,892.5c-0.9-1.9-2.1-3.1-3.4-3.1h-0.2c-1.2,0-2.5,1.2-3.4,3.1c-0.8,1.9-1.5,4.9-1.4,7.6
							c0.1,2.8,0.5,5.7,1.4,7.6c0.9,1.9,2.1,3.1,3.4,3.1h0.2c1.2,0,2.5-1.2,3.4-3.1c0.8-1.9,1.5-4.9,1.4-7.6
							C646.1,897.3,645.7,894.5,644.8,892.5z"/>
					</g>
					<g>
						<path class="st2" d="M648.3,953.7c-3.8,0.1-8.4-0.5-12.4-1.9c0,0-1.4,17,12.4,16.7C648.3,968.5,648.3,953.7,648.3,953.7z"/>
					</g>
				</g>
			</g>
			<g>
				<g>
					<rect x="477.1" y="1008.3" class="st5" width="161.4" height="30.1"/>
				</g>
				<g>
					<path class="st8" d="M739.9,1385H481.4l14.2-88.4c0,0-59.5-171.2-71-203.6c-1.5-4.2-2.5-8.5-2.6-12.9
						c-0.8-27.5,18.1-48.8,38.6-48.8h179.8c21.7,0,47.4,2.6,47.4,56.5l23.2,208.9L739.9,1385z"/>
				</g>
				<g>
					<polygon class="st2" points="688.5,1117.8 627.8,1117.8 710.9,1296.6 					"/>
				</g>
			</g>
			<g>
				<g>
					<polygon class="st7" points="863.9,938.8 922.2,971.9 971.7,926.8 958.2,992.4 1016.4,1025.6 949.8,1033 936.3,1098.6 
						908.6,1037.6 842,1045 891.5,999.8 					"/>
				</g>
				<g>
					<g>
						<path class="st9" d="M882.8,1110.9c-1.1,0-2.2-0.2-3.3-0.6c-5-1.8-7.5-7.3-5.7-12.3c5.6-15.1,16.6-27.9,31.2-36
							c14.3-7.9,31.7-11,48.8-8.8c5.2,0.7,8.9,5.5,8.2,10.7c-0.7,5.2-5.5,8.9-10.7,8.2c-13.1-1.7-26.2,0.6-37,6.6
							c-10.5,5.8-18.5,15-22.5,25.8C890.4,1108.5,886.7,1110.9,882.8,1110.9z"/>
					</g>
					<g>
						<path class="st9" d="M887.1,1090.3c-2,0-4.1-0.6-5.8-2c-4.2-3.2-5-9.2-1.8-13.4c11.3-14.9,35.6-40.9,71.3-48.3
							c5.1-1.1,10.2,2.3,11.3,7.4c1.1,5.2-2.3,10.2-7.4,11.3c-21.6,4.5-43.4,19.4-59.9,41.1C892.9,1089,890,1090.3,887.1,1090.3z"/>
					</g>
					<g>
						<path class="st9" d="M901.8,1076.2c-5.3,0-9.5-4.3-9.6-9.5c-0.1-24.3,14.8-49,40.8-67.7c4.3-3.1,10.3-2.1,13.4,2.2
							c3.1,4.3,2.1,10.3-2.2,13.4c-9.9,7.1-33,26.5-32.8,52C911.4,1071.9,907.2,1076.2,901.8,1076.2
							C901.9,1076.2,901.8,1076.2,901.8,1076.2z"/>
					</g>
					<g>
						<path class="st9" d="M886.2,1081c-5.2,0-9.5-4.2-9.6-9.5c-0.2-20.1,14.2-54.9,22.7-73.8c2.2-4.8,7.9-6.9,12.7-4.8
							c4.8,2.2,6.9,7.9,4.8,12.7c-13.3,29.3-21.2,53.8-21,65.6c0.1,5.3-4.2,9.6-9.5,9.7C886.3,1081,886.3,1081,886.2,1081z"/>
					</g>
					<g>
						<path class="st9" d="M898.4,1040.1l30.2,17c6,3.4,7.5,11.9,3.2,18.9l-26.6,45.4c-4,6.8-12.6,9.1-19.5,5.3l-29.5-16.4
							c-6-3.4-7.5-11.9-3.2-18.9l26.8-44.6C884.1,1039.7,892.4,1036.7,898.4,1040.1z"/>
					</g>
				</g>
				<g>
					<g>
						<path class="st5" d="M916.3,1121.1l-46.9,85.4c-10,18.2-32.9,24.9-51.2,14.9l0,0c-18.2-10-24.9-32.9-14.9-51.2l46.9-85.4
							c10-18.2,32.9-24.9,51.2-14.9l0,0C919.7,1080,926.3,1102.9,916.3,1121.1z"/>
					</g>
					<g>
						<path class="st8" d="M914.3,1136.4l-48.9,89.1c-11.2,20.4-36.8,27.8-57.2,16.6l0,0c-20.4-11.2-27.8-36.8-16.6-57.2l48.9-89.1
							c11.2-20.4,36.8-27.8,57.2-16.6l0,0C918.1,1090.4,925.5,1116,914.3,1136.4z"/>
					</g>
				</g>
				<g>
					<path class="st8" d="M806.3,1242.4l-205.5-100l50.5-108.3c1.4-2.5,14.3,0.2,16.3,2.2l187.1,138.5c14.4,13.1,17.9,34.4,8.4,51.4
						l0,0C851.9,1246.4,826.4,1253.7,806.3,1242.4z"/>
				</g>
			</g>
			<g>
				<g>
					<g>
						<rect x="590.8" y="1522.2" class="st5" width="38.7" height="267.9"/>
					</g>
					<g>
						<rect x="590.8" y="1522.2" class="st11" width="38.7" height="122.2"/>
					</g>
				</g>
				<g>
					<g>
						<rect x="573.4" y="1522.2" class="st12" width="73.4" height="97.4"/>
					</g>
					<g>
						<rect x="573.4" y="1522.2" class="st13" width="73.4" height="59.5"/>
					</g>
				</g>
				<g>
					<g>
						<g>
							<path class="st5" d="M508.3,1532l-48.7-254.2c-2.4-12.5,5.8-24.5,18.2-26.9l0,0c12.5-2.4,24.5,5.8,26.9,18.2l48.7,254.2
								L508.3,1532z"/>
						</g>
					</g>
					<g>
						<g>
							<path class="st11" d="M476.9,1368.3h46.8l-19-99.2c-2.4-12.5-14.4-20.6-26.9-18.2c-12.5,2.4-20.6,14.4-18.2,26.9
								L476.9,1368.3z"/>
						</g>
					</g>
				</g>
				<g>
					<path class="st14" d="M767.9,1551H452.3c-14.6,0-26.4-11.8-26.4-26.4l0,0c0-14.6,11.8-26.4,26.4-26.4h315.6
						c14.6,0,26.4,11.8,26.4,26.4l0,0C794.3,1539.2,782.4,1551,767.9,1551z"/>
				</g>
				<g>
					<g>
						<circle class="st12" cx="514.5" cy="1801.4" r="23.3"/>
					</g>
					<g>
						<path class="st12" d="M727.6,1801.4c0,12.9-10.4,23.3-23.3,23.3c-12.9,0-23.3-10.4-23.3-23.3c0-12.9,10.4-23.3,23.3-23.3
							C717.2,1778.1,727.6,1788.6,727.6,1801.4z"/>
					</g>
					<g>
						<path class="st5" d="M477.8,1793.4L477.8,1793.4c0-19.6,15.9-35.6,35.6-35.6h196.8c19.6,0,35.6,15.9,35.6,35.6l0,0H477.8z"/>
					</g>
				</g>
				<g>
					<path class="st14" d="M613.7,1338.5H360.5c-5.9,0-10.6-4.7-10.6-10.6v-195.6c0-5.9,4.7-10.6,10.6-10.6h253.3
						c5.9,0,10.6,4.7,10.6,10.6v195.6C624.3,1333.8,619.6,1338.5,613.7,1338.5z"/>
				</g>
			</g>
		</g>
		<g>
			<g>
				<circle class="st6" cx="1456.4" cy="1061.6" r="73.5"/>
			</g>
			<g>
				<polygon class="st5" points="1419.1,1025.4 1419.1,1050.9 1470.7,1062.7 1419.1,1074.6 1419.1,1100 1514.6,1062.7 				"/>
			</g>
		</g>
	</g>
</g>
</svg>
