<?xml version="1.0" encoding="utf-8"?>
<!-- Generator: Adobe Illustrator 24.3.0, SVG Export Plug-In . SVG Version: 6.00 Build 0)  -->
<svg version="1.1" id="Layer_1" xmlns="http://www.w3.org/2000/svg" xmlns:xlink="http://www.w3.org/1999/xlink" x="0px" y="0px"
	 viewBox="0 0 900 900" style="enable-background:new 0 0 900 900;" xml:space="preserve">
<style type="text/css">
	.st0{fill:#030C2D;}
	.st1{fill:#3397E8;}
	.st2{fill:#FFAA00;}
	.st3{fill:#2978B8;}
	.st4{fill:#DADCDE;}
	.st5{fill:#001B68;}
	.st6{fill:#FFE1A4;}
	.st7{fill:#FFBE57;}
	.st8{fill:#F4F8FC;}
	.st9{fill:#4CA987;}
	.st10{fill:#5FCDA4;}
	.st11{fill:#49876E;}
	.st12{fill:#315B49;}
	.st13{fill:#996200;}
</style>
<g>
	<path class="st0" d="M119.9,358h622.9V179.2L119.9,358z"/>
	<g>
		<path class="st1" d="M461.2,457.2V20c0-11.1-8.5-20-19-20H156.3c-10.5,0-19,8.9-19,20v457.2h304.9
			C452.7,477.3,461.2,468.3,461.2,457.2z"/>
		<path class="st2" d="M266.9,45.5h-43.2v68.2h43.2V45.5z"/>
		<g>
			<path class="st3" d="M418,79.5c5.9,0,10.8-5.1,10.8-11.4V45.5c0-6.3-4.9-11.4-10.8-11.4s-10.8,5.1-10.8,11.4v22.7
				C407.2,74.4,412.1,79.5,418,79.5z"/>
			<path class="st3" d="M418,238.6c5.9,0,10.8-5.1,10.8-11.4V113.6c0-6.3-4.9-11.4-10.8-11.4s-10.8,5.1-10.8,11.4v113.6
				C407.2,233.5,412.1,238.6,418,238.6z"/>
			<path class="st3" d="M310.1,102.3c5.9,0,10.8-5.1,10.8-11.4V45.5c0-6.3-4.9-11.4-10.8-11.4s-10.8,5.1-10.8,11.4v45.5
				C299.3,97.2,304.1,102.3,310.1,102.3z"/>
			<path class="st3" d="M310.1,193.2c5.9,0,10.8-5.1,10.8-11.4v-45.5c0-6.3-4.9-11.4-10.8-11.4s-10.8,5.1-10.8,11.4v45.5
				C299.3,188.1,304.1,193.2,310.1,193.2z"/>
			<path class="st3" d="M310.1,284.1c5.9,0,10.8-5.1,10.8-11.4v-45.5c0-6.3-4.9-11.4-10.8-11.4s-10.8,5.1-10.8,11.4v45.5
				C299.3,279,304.1,284.1,310.1,284.1z"/>
			<path class="st3" d="M310.1,375c5.9,0,10.8-5.1,10.8-11.4v-45.5c0-6.3-4.9-11.4-10.8-11.4s-10.8,5.1-10.8,11.4v45.5
				C299.3,369.9,304.1,375,310.1,375z"/>
			<path class="st3" d="M180.5,125c5.9,0,10.8-5.1,10.8-11.4V45.5c0-6.3-4.9-11.4-10.8-11.4c-5.9,0-10.8,5.1-10.8,11.4v68.2
				C169.7,119.9,174.5,125,180.5,125z"/>
			<path class="st3" d="M180.5,443.2c5.9,0,10.8-5.1,10.8-11.4v-68.2c0-6.3-4.9-11.4-10.8-11.4c-5.9,0-10.8,5.1-10.8,11.4v68.2
				C169.7,438.1,174.5,443.2,180.5,443.2z"/>
		</g>
		<path class="st4" d="M407.2,443.2c11.9,0,21.6-10.2,21.6-22.7V375c0-12.5-9.7-22.7-21.6-22.7c-11.9,0-21.6,10.2-21.6,22.7v45.5
			C385.6,433,395.4,443.2,407.2,443.2z"/>
	</g>
	<path class="st5" d="M773.6,358H119.9v245.1l158.5,245.1h495.2c29.8,0,54-24.8,54-54.6V412.4C827.6,382.5,803.5,358.2,773.6,358z"
		/>
	<path class="st1" d="M832.1,511h-116c-29.9-0.1-54.2,24-54.4,53.9v76.3c0.2,29.9,24.4,54.1,54.4,54.1h116
		c29.9,0,54.3-24.2,54.5-54.1v-76.3C886.3,535,862,510.9,832.1,511z"/>
	<path class="st3" d="M754.5,576c14.9,0,27,12.1,27,27c0,14.9-12.1,27-27,27l0,0h-10.4c-14.9,0-27-12.1-27-27c0-14.9,12.1-27,27-27
		l0,0H754.5z"/>
	<path class="st0" d="M175.2,358h-55.3v245.1l55.3,85.5V358z"/>
	<path class="st2" d="M170.1,586.7c86.5,0,156.7,70.1,156.7,156.7S256.6,900,170.1,900S13.4,829.9,13.4,743.3
		C13.4,656.8,83.5,586.7,170.1,586.7C170.1,586.7,170.1,586.7,170.1,586.7z"/>
	<path class="st6" d="M170.1,631.5c61.7,0,111.8,50.1,111.8,111.8s-50.1,111.8-111.8,111.8S58.3,805.1,58.3,743.3
		C58.3,681.6,108.3,631.5,170.1,631.5C170.1,631.5,170.1,631.5,170.1,631.5z"/>
	<path class="st7" d="M197.7,635C137.9,619.8,77,655.9,61.8,715.8s20.9,120.7,80.8,135.9c18.1,4.6,37,4.6,55.1,0
		c-59.8-15.3-96-76.2-80.7-136C127.2,676,158.1,645.1,197.7,635z"/>
	<path class="st8" d="M163.4,427.4h-5.5c-6.1,0-11.1-5-11.1-11.1s5-11.1,11.1-11.1h5.5c6.1,0,11.1,5,11.1,11.1
		S169.5,427.4,163.4,427.4z"/>
	<path class="st8" d="M358.7,427.4H198.9c-6.1,0-11.1-5-11.1-11.1s5-11.1,11.1-11.1h159.7c6.1,0,11.1,5,11.1,11.1
		S364.8,427.4,358.7,427.4z"/>
	<path class="st1" d="M170.1,703.4c7.8,0,14.1,6.3,14.1,14.1c0,6.1,5,11.1,11.1,11.1c6,0,10.9-4.9,10.9-10.9c0,0,0-0.1,0-0.1
		c0-15.8-10.3-29.8-25.4-34.5v-4.5c0-6.1-5-11.1-11.1-11.1c-6.1,0-11.1,5-11.1,11.1v4.5c-15,4.8-25.1,18.8-25,34.5
		c0.1,20,16.3,36.2,36.4,36.3c7.8,0.1,14,6.6,13.9,14.4c-0.1,7.5-6.1,13.6-13.6,13.9c-0.1,0-0.1,0-0.2,0s-0.1,0-0.2,0
		c-7.7-0.1-13.9-6.4-14-14.1c0-6.1-5-11.1-11.1-11.1c-6.1,0-11.2,4.9-11.3,11.1c-0.1,15.7,10,29.7,25,34.5v5.7
		c0,6.1,5,11.1,11.1,11.1c6.1,0,11.1-5,11.1-11.1v-5.7c19.1-6,29.7-26.3,23.8-45.4c-4.7-15.1-18.7-25.4-34.5-25.4
		c-7.8-0.1-14-6.5-13.9-14.3C156.1,709.7,162.4,703.5,170.1,703.4L170.1,703.4z"/>
	<g>
		<path class="st9" d="M383,0c-20.8,0.3-38.3,18-38.3,38.8V358h352V34.8C696.6,13.6,680.3,0,658.1,0C658,0,383,0,383,0z"/>
		<path class="st10" d="M617.6,35.5h-195l-39.2,40.1V358h274.6V76.9L617.6,35.5z"/>
		<path class="st9" d="M520.8,65.7c21.4,0,38.8,17.4,38.8,38.8c0,21.4-17.4,38.8-38.8,38.8c-21.4,0-38.8-17.4-38.8-38.8
			C482,83.1,499.3,65.7,520.8,65.7C520.8,65.7,520.8,65.7,520.8,65.7z"/>
		<path class="st9" d="M633.2,299.2c0,20.9-5.8,41.5-16.9,59.3H425.2c-32.7-52.8-16.5-122.1,36.3-154.8s122.1-16.5,154.8,36.3
			C627.4,257.8,633.2,278.3,633.2,299.2L633.2,299.2z"/>
		<path class="st11" d="M548.4,190.2C488.2,175,427,211.4,411.8,271.7c-2.3,8.9-3.4,18.1-3.4,27.3c-0.1,20.9,5.7,41.4,16.9,59h55.3
			c-11.1-17.7-17-38.1-16.9-59C463.6,247.6,498.6,202.8,548.4,190.2z"/>
		<path class="st12" d="M584.6,288h-4.3c-4.7-14.8-18.5-24.9-34.1-24.7c-19.8,0-35.8,16.1-35.9,35.9c0.1,7.6-6,13.8-13.6,13.8
			c-7.6,0.1-13.8-6-13.8-13.6c0-0.1,0-0.1,0-0.2c0-0.1,0-0.1,0-0.2c0.1-7.5,6.2-13.5,13.7-13.6c6.1,0,11.1-5,11.1-11.1
			s-5-11.1-11.1-11.1c-15.6-0.2-29.4,9.9-34.1,24.7H457c-6.1,0-11.1,5-11.1,11.1s5,11.1,11.1,11.1h5.5c6,18.8,26.2,29.2,45.1,23.2
			c14.8-4.8,24.9-18.5,24.9-34.1c0-7.6,6.2-13.7,13.8-13.7c7.6,0,13.7,6.2,13.7,13.8c0,7.6-6.2,13.7-13.7,13.7
			c-6.1-0.1-11.1,4.8-11.2,10.9c-0.1,6.1,4.8,11.1,10.9,11.2c0.1,0,0.2,0,0.3,0c15.6,0.1,29.4-10,34.1-24.9h4.3
			c6.1,0,11.1-5,11.1-11.1C595.6,292.9,590.7,288,584.6,288L584.6,288z"/>
	</g>
	<g>
		<path class="st13" d="M169.7,872.5c-6.1,0-11.1,5-11.1,11.1v16c3.7,0.3,7.3,0.4,11.1,0.4c3.7,0,7.4-0.2,11.1-0.4v-16
			C180.7,877.5,175.8,872.5,169.7,872.5L169.7,872.5L169.7,872.5z"/>
		<path class="st13" d="M158.6,587.1v16c0,6.1,5,11.1,11.1,11.1c6.1,0,11.1-5,11.1-11.1v-16c-3.7-0.3-7.3-0.4-11.1-0.4
			C165.9,586.7,162.3,586.8,158.6,587.1z"/>
		<path class="st13" d="M326.3,732.1h-16c-6.1,0-11.1,5-11.1,11.1s5,11.1,11.1,11.1h16c0.3-3.7,0.4-7.3,0.4-11.1
			S326.5,735.8,326.3,732.1z"/>
		<path class="st13" d="M29.8,732.1h-16c-0.3,3.7-0.4,7.3-0.4,11.1s0.2,7.4,0.4,11.1h16c6.1,0,11.1-5,11.1-11.1
			S35.9,732.1,29.8,732.1z"/>
		<path class="st13" d="M269.2,655.2c2.9,0,5.7-1.2,7.8-3.2l11.3-11.3c-4.8-5.6-10.1-10.8-15.6-15.6l-11.3,11.3
			c-4.3,4.3-4.3,11.3,0,15.6C263.5,654.1,266.3,655.2,269.2,655.2L269.2,655.2z"/>
		<path class="st13" d="M63.1,834.7L51.8,846c4.8,5.6,10.1,10.8,15.6,15.6l11.3-11.3c4.4-4.3,4.5-11.3,0.2-15.6
			c-4.3-4.4-11.3-4.5-15.6-0.2C63.2,834.5,63.1,834.6,63.1,834.7z"/>
		<path class="st13" d="M70.9,655.2c6.1,0,11.1-5,11.1-11.1c0-2.9-1.2-5.7-3.2-7.8L67.4,625c-5.6,4.8-10.8,10.1-15.6,15.6L63.1,652
			C65.1,654.1,68,655.2,70.9,655.2L70.9,655.2z"/>
		<path class="st13" d="M261.4,834.7c-4.3,4.3-4.3,11.3,0,15.6l11.3,11.3c5.6-4.8,10.8-10.1,15.6-15.6l-11.3-11.3
			C272.7,830.4,265.7,830.4,261.4,834.7L261.4,834.7z"/>
	</g>
</g>
</svg>
