<?xml version="1.0" encoding="utf-8"?>
<!-- Generator: Adobe Illustrator 24.3.0, SVG Export Plug-In . SVG Version: 6.00 Build 0)  -->
<svg version="1.1" id="MAIN_OBJECTS" xmlns="http://www.w3.org/2000/svg" xmlns:xlink="http://www.w3.org/1999/xlink" x="0px"
	 y="0px" viewBox="0 0 2000 2000" style="enable-background:new 0 0 2000 2000;" xml:space="preserve">
<style type="text/css">
	.st0{opacity:0.29;fill:#FFFFFF;}
	.st1{fill:#E3E4E6;}
	.st2{opacity:0.1;fill:#6C63FF;enable-background:new    ;}
	.st3{fill:#FFFFFF;}
	.st4{fill:#249680;}
	.st5{fill:url(#SVGID_1_);}
	.st6{fill:url(#SVGID_2_);}
	.st7{fill:url(#SVGID_3_);}
	.st8{fill:url(#SVGID_4_);}
	.st9{fill:url(#SVGID_5_);}
	.st10{fill:url(#SVGID_6_);}
	.st11{fill:url(#SVGID_7_);}
	.st12{fill:url(#SVGID_8_);}
	.st13{fill:url(#SVGID_9_);}
	.st14{fill:url(#SVGID_10_);}
	.st15{fill:url(#SVGID_11_);}
	.st16{fill:url(#SVGID_12_);}
	.st17{fill:#E2C054;}
	.st18{fill:#D1944B;}
	.st19{fill:none;stroke:url(#SVGID_13_);stroke-width:0.5;stroke-miterlimit:10;}
	.st20{fill:none;stroke:url(#SVGID_14_);stroke-width:0.5;stroke-miterlimit:10;}
	.st21{fill:none;stroke:url(#SVGID_15_);stroke-width:0.5;stroke-miterlimit:10;}
	.st22{fill:none;stroke:url(#SVGID_16_);stroke-width:0.5;stroke-miterlimit:10;}
	.st23{fill:none;stroke:url(#SVGID_17_);stroke-width:0.5;stroke-miterlimit:10;}
	.st24{fill:none;stroke:url(#SVGID_18_);stroke-width:0.5;stroke-miterlimit:10;}
	.st25{fill:none;stroke:url(#SVGID_19_);stroke-width:0.5;stroke-miterlimit:10;}
	.st26{fill:none;stroke:url(#SVGID_20_);stroke-width:0.5;stroke-miterlimit:10;}
	.st27{fill:none;stroke:url(#SVGID_21_);stroke-width:0.5;stroke-miterlimit:10;}
	.st28{fill:none;stroke:url(#SVGID_22_);stroke-width:0.5;stroke-miterlimit:10;}
	.st29{fill:none;stroke:url(#SVGID_23_);stroke-width:0.5;stroke-miterlimit:10;}
	.st30{fill:none;stroke:url(#SVGID_24_);stroke-width:0.5;stroke-miterlimit:10;}
	.st31{fill:none;stroke:url(#SVGID_25_);stroke-width:0.5;stroke-miterlimit:10;}
	.st32{fill:none;stroke:url(#SVGID_26_);stroke-width:0.5;stroke-miterlimit:10;}
	.st33{fill:none;stroke:url(#SVGID_27_);stroke-width:0.5;stroke-miterlimit:10;}
	.st34{fill:none;stroke:url(#SVGID_28_);stroke-width:0.5;stroke-miterlimit:10;}
	.st35{fill:none;stroke:url(#SVGID_29_);stroke-width:0.5;stroke-miterlimit:10;}
	.st36{fill:none;stroke:url(#SVGID_30_);stroke-width:0.5;stroke-miterlimit:10;}
	.st37{fill:none;stroke:url(#SVGID_31_);stroke-width:0.5;stroke-miterlimit:10;}
	.st38{fill:none;stroke:url(#SVGID_32_);stroke-width:0.5;stroke-miterlimit:10;}
	.st39{fill:none;stroke:url(#SVGID_33_);stroke-width:0.5;stroke-miterlimit:10;}
	.st40{fill:none;stroke:url(#SVGID_34_);stroke-width:0.5;stroke-miterlimit:10;}
	.st41{fill:none;stroke:url(#SVGID_35_);stroke-width:0.5;stroke-miterlimit:10;}
	.st42{fill:none;stroke:url(#SVGID_36_);stroke-width:0.5;stroke-miterlimit:10;}
	.st43{fill:none;stroke:url(#SVGID_37_);stroke-width:0.5;stroke-miterlimit:10;}
	.st44{fill:none;stroke:url(#SVGID_38_);stroke-width:0.5;stroke-miterlimit:10;}
	.st45{fill:none;stroke:url(#SVGID_39_);stroke-width:0.5;stroke-miterlimit:10;}
	.st46{fill:none;stroke:url(#SVGID_40_);stroke-width:0.5;stroke-miterlimit:10;}
	.st47{fill:none;stroke:url(#SVGID_41_);stroke-width:0.5;stroke-miterlimit:10;}
	.st48{fill:none;stroke:url(#SVGID_42_);stroke-width:0.5;stroke-miterlimit:10;}
	.st49{fill:none;stroke:url(#SVGID_43_);stroke-width:0.5;stroke-miterlimit:10;}
	.st50{fill:none;stroke:#75E2DC;stroke-width:2;stroke-miterlimit:10;stroke-dasharray:6,5;}
	.st51{fill:none;stroke:#FDE772;stroke-width:2;stroke-miterlimit:10;}
	.st52{fill:none;stroke:#75E2DC;stroke-width:2;stroke-miterlimit:10;}
	.st53{fill:none;stroke:#FC8175;stroke-width:2;stroke-miterlimit:10;}
	.st54{fill:none;stroke:#FC8175;stroke-width:2;stroke-miterlimit:10;stroke-dasharray:6,5;}
	.st55{fill:none;stroke:#FDE772;stroke-width:2;stroke-miterlimit:10;stroke-dasharray:6,5;}
	.st56{fill:#E7F5F7;}
	.st57{fill:url(#SVGID_44_);}
	.st58{fill:#6D6D6D;}
	.st59{fill:#5B5B5B;}
	.st60{fill:#D6D6E5;}
	.st61{fill:#B6B6DD;}
	.st62{fill:#F967A2;}
	.st63{fill:#4AE57E;}
	.st64{fill:#FDE772;}
	.st65{fill:#E2AA79;}
	.st66{fill:#EDBB8A;}
	.st67{fill:#F4EFC3;}
	.st68{fill:#805B3F;}
	.st69{fill:#515151;}
	.st70{fill:#5F5F60;}
	.st71{opacity:0.46;fill:#FFFFFF;enable-background:new    ;}
	.st72{fill:#A5A5D3;}
	.st73{fill:#636363;}
	.st74{fill:#FCC0AA;}
	.st75{fill:url(#SVGID_45_);}
	.st76{fill:#EF527F;}
	.st77{fill:#57547F;}
	.st78{fill:#EFAA9E;}
	.st79{fill:#925454;}
	.st80{fill:#707070;}
	.st81{fill:#7F7F7F;}
	.st82{fill:#444444;}
	.st83{fill:#E29D8D;}
	.st84{fill:#EAB4A9;}
	.st85{fill:#EFAD9A;}
	.st86{fill:#AD7373;}
	.st87{opacity:0.1;fill:#FFFFFF;}
	.st88{fill:#C68275;}
	.st89{fill:#D89487;}
	.st90{fill:url(#SVGID_46_);}
	.st91{fill:url(#SVGID_47_);}
	.st92{fill:#FF7FA0;}
	.st93{clip-path:url(#SVGID_49_);}
	.st94{fill:#FFC359;}
	.st95{fill:#FCDBD2;}
	.st96{fill:#84426A;}
	.st97{fill:#965076;}
	.st98{fill:#F4C9BE;}
	.st99{fill:#783D8A;}
	.st100{fill:#D84178;}
	.st101{fill:#F4B856;}
	.st102{fill:#C14075;}
	.st103{fill:#ED7497;}
	.st104{opacity:0.46;fill:#5F5FF9;enable-background:new    ;}
	.st105{clip-path:url(#SVGID_51_);}
	.st106{fill:#8A6DCC;}
	.st107{fill:url(#SVGID_52_);}
	.st108{fill:#686868;}
	.st109{fill:#3F327A;}
	.st110{clip-path:url(#SVGID_51_);fill:#FCC0AA;}
	.st111{fill:url(#SVGID_53_);}
	.st112{fill:url(#SVGID_54_);}
	.st113{fill:url(#SVGID_55_);}
	.st114{fill:url(#SVGID_56_);}
	.st115{fill:url(#SVGID_57_);}
	.st116{fill:url(#SVGID_58_);}
	.st117{fill:url(#SVGID_59_);}
	.st118{fill:#FFE3B6;}
	.st119{fill:url(#SVGID_60_);}
	.st120{fill:url(#SVGID_61_);}
	.st121{fill:url(#SVGID_62_);}
	.st122{fill:url(#SVGID_63_);}
	.st123{fill:url(#SVGID_64_);}
	.st124{fill:url(#SVGID_65_);}
	.st125{fill:url(#SVGID_66_);}
	.st126{fill:url(#SVGID_67_);}
	.st127{fill:url(#SVGID_68_);}
	.st128{fill:url(#SVGID_69_);}
	.st129{fill:url(#SVGID_70_);}
	.st130{fill:url(#SVGID_71_);}
	.st131{fill:url(#SVGID_72_);}
	.st132{fill:url(#SVGID_73_);}
	.st133{fill:none;stroke:#FFFFFF;stroke-width:3;stroke-miterlimit:10;}
	.st134{fill:#E8E8E8;}
	.st135{fill:#F2F2F2;}
	.st136{fill:#F7F7F7;}
	.st137{opacity:0.13;fill:none;stroke:#262626;stroke-width:2;stroke-miterlimit:10;}
	.st138{fill:url(#SVGID_74_);}
	.st139{opacity:0.13;fill:#262626;}
	.st140{fill:#7F395D;}
	.st141{fill:#F8ECE0;}
	.st142{opacity:0.39;fill:#FFFFFF;}
</style>
<g>
	<rect x="1771.3" y="901.3" class="st0" width="31.5" height="59.8"/>
	<path class="st1" d="M1896.9,1685.8H117.3c-12.7,0-23-10.3-23-23l0,0c0-12.7,10.3-23,23-23h1779.5c12.7,0,23,10.3,23,23l0,0
		C1919.8,1675.5,1909.6,1685.8,1896.9,1685.8z"/>
	<g>
		<polygon class="st2" points="1088,678.1 1088,1277.8 913.2,1277.8 913.2,1636.9 1911.8,1636.9 1911.8,1011 1884.3,1011 
			1884.3,979.2 1728.2,979.2 1728.2,1011 1688.2,1011 1688.2,1261.8 1668.7,1261.8 1668.7,972.8 1668.9,895 1668.9,886.1 
			1697.1,886.1 1697.1,741.6 1684.2,741.6 1684.2,721.3 1619.6,721.3 1619.6,629.6 1599.1,629.6 1572.3,393.3 1544.1,629.6 
			1521.6,629.6 1521.6,721.3 1465.6,721.3 1465.6,741.6 1436.9,741.6 1436.9,886.1 1470.9,886.1 1470.9,1384 1304.7,1384 
			1304.7,642.1 1171.3,642.1 1171.3,678.1 		"/>
		<g>
			<rect x="1748.1" y="1030" class="st3" width="150.8" height="15.3"/>
			<rect x="1748.1" y="1061.5" class="st3" width="150.8" height="15.3"/>
			<rect x="1748.1" y="1093.1" class="st3" width="150.8" height="15.3"/>
			<rect x="1748.1" y="1124.7" class="st3" width="150.8" height="15.3"/>
			<rect x="1748.1" y="1156.2" class="st3" width="150.8" height="15.3"/>
			<rect x="1748.1" y="1187.8" class="st3" width="150.8" height="15.3"/>
			<rect x="1748.1" y="1219.4" class="st3" width="150.8" height="15.3"/>
			<rect x="1748.1" y="1251" class="st3" width="150.8" height="15.3"/>
			<rect x="1748.1" y="1282.5" class="st3" width="150.8" height="15.3"/>
			<rect x="1748.1" y="1314.1" class="st3" width="150.8" height="15.3"/>
			<rect x="1748.1" y="1345.7" class="st3" width="150.8" height="15.3"/>
			<rect x="1748.1" y="1377.3" class="st3" width="150.8" height="15.3"/>
			<rect x="1748.1" y="1408.8" class="st3" width="150.8" height="15.3"/>
			<rect x="1748.1" y="1440.4" class="st3" width="150.8" height="15.3"/>
			<rect x="1748.1" y="1472" class="st3" width="150.8" height="15.3"/>
			<rect x="1748.1" y="1503.6" class="st3" width="150.8" height="15.3"/>
			<rect x="1748.1" y="1535.1" class="st3" width="150.8" height="15.3"/>
			<rect x="1748.1" y="1566.7" class="st3" width="150.8" height="15.3"/>
		</g>
		<g>
			<g>
				
					<rect x="1618.4" y="786.6" transform="matrix(-1 -1.224647e-16 1.224647e-16 -1 3247.9316 1653.7225)" class="st3" width="11.1" height="80.6"/>
				
					<rect x="1592.5" y="786.6" transform="matrix(-1 -1.224647e-16 1.224647e-16 -1 3196.0593 1653.7225)" class="st3" width="11.1" height="80.6"/>
				
					<rect x="1568.4" y="786.6" transform="matrix(-1 -1.224647e-16 1.224647e-16 -1 3147.8923 1653.7225)" class="st3" width="11.1" height="80.6"/>
				
					<rect x="1542.5" y="786.6" transform="matrix(-1 -1.224647e-16 1.224647e-16 -1 3096.0203 1653.7225)" class="st3" width="11.1" height="80.6"/>
				
					<rect x="1517" y="786.6" transform="matrix(-1 -1.224647e-16 1.224647e-16 -1 3045.0742 1653.7225)" class="st3" width="11.1" height="80.6"/>
			</g>
			<g>
				<rect x="1618.4" y="904.3" class="st3" width="11.1" height="80.6"/>
				<rect x="1592.5" y="904.3" class="st3" width="11.1" height="80.6"/>
				<rect x="1568.4" y="904.3" class="st3" width="11.1" height="80.6"/>
				<rect x="1542.5" y="904.3" class="st3" width="11.1" height="80.6"/>
				<rect x="1517" y="904.3" class="st3" width="11.1" height="80.6"/>
			</g>
			<g>
				<rect x="1618.4" y="1022.1" class="st3" width="11.1" height="80.6"/>
				<rect x="1592.5" y="1022.1" class="st3" width="11.1" height="80.6"/>
				<rect x="1568.4" y="1022.1" class="st3" width="11.1" height="80.6"/>
				<rect x="1542.5" y="1022.1" class="st3" width="11.1" height="80.6"/>
				<rect x="1517" y="1022.1" class="st3" width="11.1" height="80.6"/>
			</g>
			<g>
				<rect x="1618.4" y="1139.8" class="st3" width="11.1" height="80.6"/>
				<rect x="1592.5" y="1139.8" class="st3" width="11.1" height="80.6"/>
				<rect x="1568.4" y="1139.8" class="st3" width="11.1" height="80.6"/>
				<rect x="1542.5" y="1139.8" class="st3" width="11.1" height="80.6"/>
				<rect x="1517" y="1139.8" class="st3" width="11.1" height="80.6"/>
			</g>
			<g>
				<rect x="1618.4" y="1257.6" class="st3" width="11.1" height="80.6"/>
				<rect x="1592.5" y="1257.6" class="st3" width="11.1" height="80.6"/>
				<rect x="1568.4" y="1257.6" class="st3" width="11.1" height="80.6"/>
				<rect x="1542.5" y="1257.6" class="st3" width="11.1" height="80.6"/>
				<rect x="1517" y="1257.6" class="st3" width="11.1" height="80.6"/>
			</g>
			<g>
				<rect x="1618.4" y="1375.3" class="st3" width="11.1" height="80.6"/>
				<rect x="1592.5" y="1375.3" class="st3" width="11.1" height="80.6"/>
				<rect x="1568.4" y="1375.3" class="st3" width="11.1" height="80.6"/>
				<rect x="1542.5" y="1375.3" class="st3" width="11.1" height="80.6"/>
				<rect x="1517" y="1375.3" class="st3" width="11.1" height="80.6"/>
			</g>
			<g>
				
					<rect x="1618.4" y="1493.1" transform="matrix(-1 -1.224647e-16 1.224647e-16 -1 3247.9316 3066.7766)" class="st3" width="11.1" height="80.6"/>
				
					<rect x="1592.5" y="1493.1" transform="matrix(-1 -1.224647e-16 1.224647e-16 -1 3196.0593 3066.7766)" class="st3" width="11.1" height="80.6"/>
				
					<rect x="1568.4" y="1493.1" transform="matrix(-1 -1.224647e-16 1.224647e-16 -1 3147.8923 3066.7766)" class="st3" width="11.1" height="80.6"/>
				
					<rect x="1542.5" y="1493.1" transform="matrix(-1 -1.224647e-16 1.224647e-16 -1 3096.0203 3066.7766)" class="st3" width="11.1" height="80.6"/>
				
					<rect x="1517" y="1493.1" transform="matrix(-1 -1.224647e-16 1.224647e-16 -1 3045.0742 3066.7766)" class="st3" width="11.1" height="80.6"/>
			</g>
		</g>
		
			<rect x="1585.5" y="656.9" transform="matrix(-1 -1.224647e-16 1.224647e-16 -1 3175.6809 1365.6466)" class="st3" width="4.6" height="51.9"/>
		
			<rect x="1574.4" y="656.9" transform="matrix(-1 -1.224647e-16 1.224647e-16 -1 3153.45 1365.6466)" class="st3" width="4.6" height="51.9"/>
		
			<rect x="1561.4" y="656.9" transform="matrix(-1 -1.224647e-16 1.224647e-16 -1 3127.5139 1365.6466)" class="st3" width="4.6" height="51.9"/>
		
			<rect x="1550.3" y="656.9" transform="matrix(-1 -1.224647e-16 1.224647e-16 -1 3105.283 1365.6466)" class="st3" width="4.6" height="51.9"/>
		<g>
			<g>
				
					<rect x="1121.5" y="722.7" transform="matrix(-1 -1.224647e-16 1.224647e-16 -1 2299.8748 1502.274)" class="st3" width="57" height="57"/>
				
					<rect x="1206.2" y="722.7" transform="matrix(-1 -1.224647e-16 1.224647e-16 -1 2469.3855 1502.274)" class="st3" width="57" height="57"/>
			</g>
			<g>
				<rect x="1121.5" y="852.9" class="st3" width="57" height="57"/>
				<rect x="1206.2" y="852.9" class="st3" width="57" height="57"/>
			</g>
			<g>
				<rect x="1121.5" y="983.2" class="st3" width="57" height="57"/>
				<rect x="1206.2" y="983.2" class="st3" width="57" height="57"/>
			</g>
			<g>
				<rect x="1121.5" y="1113.4" class="st3" width="57" height="57"/>
				<rect x="1206.2" y="1113.4" class="st3" width="57" height="57"/>
			</g>
			<g>
				<rect x="1121.5" y="1243.7" class="st3" width="57" height="57"/>
				<rect x="1206.2" y="1243.7" class="st3" width="57" height="57"/>
			</g>
			<g>
				<rect x="1121.5" y="1374" class="st3" width="57" height="57"/>
				<rect x="1206.2" y="1374" class="st3" width="57" height="57"/>
			</g>
			<g>
				
					<rect x="1121.5" y="1504.2" transform="matrix(-1 -1.224647e-16 1.224647e-16 -1 2299.8748 3065.3872)" class="st3" width="57" height="57"/>
				
					<rect x="1206.2" y="1504.2" transform="matrix(-1 -1.224647e-16 1.224647e-16 -1 2469.3855 3065.3872)" class="st3" width="57" height="57"/>
			</g>
		</g>
	</g>
	<g>
		<g>
			<path class="st4" d="M1658.4,1645.5l-3.8-0.3c0-0.6,5.1-61.7,37-139.7c29.5-72,88.6-173.7,202.7-249.2l2.1,3.2
				c-113.3,75-172,175.9-201.2,247.4C1663.5,1584.3,1658.5,1644.9,1658.4,1645.5z"/>
		</g>
		
			<linearGradient id="SVGID_1_" gradientUnits="userSpaceOnUse" x1="-892.7766" y1="-625.0453" x2="-822.0586" y2="-868.8995" gradientTransform="matrix(0.9894 -0.1452 0.1452 0.9894 2888.4895 1905.2952)">
			<stop  offset="0" style="stop-color:#22DEBD"/>
			<stop  offset="1" style="stop-color:#FFC359"/>
		</linearGradient>
		<path class="st5" d="M1884,1241.4c1.5,33.1,55.8,69.4,116-49.1C2000,1192.4,1882.3,1204.7,1884,1241.4z"/>
		<g>
			<path class="st4" d="M1905.4,1338.3c-45.8-7.8-110.8,7.7-111.5,7.8l-0.9-3.7c0.7-0.2,66.4-15.8,113-7.9L1905.4,1338.3z"/>
		</g>
		<g>
			<path class="st4" d="M1825.9,1315.5l-3.7-0.6c0.1-0.5,8-50.6-0.5-84.9l3.7-0.9C1834,1264.1,1826.2,1313.5,1825.9,1315.5z"/>
		</g>
		<g>
			<path class="st4" d="M1766.7,1380.9l-3.7-0.6c0.1-0.5,8-50.6-0.5-84.9l3.7-0.9C1774.8,1329.5,1767,1378.8,1766.7,1380.9z"/>
		</g>
		<g>
			<path class="st4" d="M1741.8,1417.9l-1.9-3.3c1.8-1.1,45.1-26,80.9-30.3l0.5,3.8C1786.2,1392.4,1742.2,1417.7,1741.8,1417.9z"/>
		</g>
		
			<linearGradient id="SVGID_2_" gradientUnits="userSpaceOnUse" x1="-896.8698" y1="-654.9113" x2="-827.3714" y2="-726.2388" gradientTransform="matrix(0.9894 -0.1452 0.1452 0.9894 2888.4895 1905.2952)">
			<stop  offset="0" style="stop-color:#22DEBD"/>
			<stop  offset="1" style="stop-color:#FFC359"/>
		</linearGradient>
		<path class="st6" d="M1898.7,1325.6c-13.1,20.4,4,65.1,90.2,19.7C1988.9,1345.3,1913.2,1302.9,1898.7,1325.6z"/>
		
			<linearGradient id="SVGID_3_" gradientUnits="userSpaceOnUse" x1="-966.3484" y1="-755.3144" x2="-953.5462" y2="-894.3096" gradientTransform="matrix(0.9894 -0.1452 0.1452 0.9894 2888.4895 1905.2952)">
			<stop  offset="0" style="stop-color:#22DEBD"/>
			<stop  offset="0.6564" style="stop-color:#B3CC7B"/>
			<stop  offset="1" style="stop-color:#FFC359"/>
		</linearGradient>
		<path class="st7" d="M1832.1,1234.3c-14.8,11.1-49.7,0.7-20.1-67.3C1811.9,1167,1848.5,1222,1832.1,1234.3z"/>
		
			<linearGradient id="SVGID_4_" gradientUnits="userSpaceOnUse" x1="-1071.1395" y1="-628.1035" x2="-1000.4228" y2="-871.9535" gradientTransform="matrix(0.9894 -0.1452 0.1452 0.9894 2888.4895 1905.2952)">
			<stop  offset="0" style="stop-color:#22DEBD"/>
			<stop  offset="1" style="stop-color:#FFC359"/>
		</linearGradient>
		<path class="st8" d="M1772.9,1299.7c-14.8,11.1-49.7,0.7-20.1-67.3C1752.7,1232.3,1789.3,1287.3,1772.9,1299.7z"/>
		
			<linearGradient id="SVGID_5_" gradientUnits="userSpaceOnUse" x1="-1009.1013" y1="-622.2304" x2="-926.8007" y2="-697.2153" gradientTransform="matrix(0.9894 -0.1452 0.1452 0.9894 2888.4895 1905.2952)">
			<stop  offset="0" style="stop-color:#22DEBD"/>
			<stop  offset="1" style="stop-color:#FFC359"/>
		</linearGradient>
		<path class="st9" d="M1813.5,1379.8c-5.1,17.8,17.1,46.7,70.1-5.2C1883.6,1374.6,1819.2,1360.1,1813.5,1379.8z"/>
	</g>
	<g>
		<linearGradient id="SVGID_6_" gradientUnits="userSpaceOnUse" x1="1649.5392" y1="1772.6814" x2="1721.8082" y2="1535.4902">
			<stop  offset="0" style="stop-color:#22AFBD"/>
			<stop  offset="1" style="stop-color:#FFC359"/>
		</linearGradient>
		<path class="st10" d="M1904,1657.9l-437.9-3.3c10.1-29.4,34.4-64.6,48.9-82.8l18.2,27.2l-6.4-39.3c23.2-19.9,48.3-30.3,71-35.3
			l9.3,33.5l-1.5-35c11.7-2,22.5-2.6,32-2.4l1.8,36.3l16-34.8c0.8,0.1,1.5,0.2,2.2,0.4c19.3,3.3,40.7,11.7,58.6,27.3l-5.6,30.4
			l18-17.6c12.3,15,21.6,34.6,25.1,59.8c0,0,6.9-17,22.7-29.4l8,19.4l-2.3-23.4c7.2-4.5,15.9-7.8,26.3-8.5l3.4,25.2l5.6-25.1
			c5,0.3,10.3,1.3,16,2.9c6,1.7,11.4,3.9,16.5,6.4l-2.4,19.1l5.6-17.4c8.7,4.8,16.1,10.6,22.2,16.7l-11.2,28.5l17.1-22
			C1898.9,1635.6,1904,1657.9,1904,1657.9z"/>
	</g>
	<g>
		<polygon class="st2" points="650.6,1655.6 650.6,642.1 517.2,642.1 517.2,678.1 433.8,678.1 433.8,1113.1 156.3,1306.3 
			156.3,1665.3 		"/>
		<g>
			<g>
				
					<rect x="467.3" y="722.7" transform="matrix(-1 -1.224647e-16 1.224647e-16 -1 991.5938 1502.274)" class="st3" width="57" height="57"/>
				
					<rect x="552.1" y="722.7" transform="matrix(-1 -1.224647e-16 1.224647e-16 -1 1161.1049 1502.274)" class="st3" width="57" height="57"/>
			</g>
			<g>
				<rect x="467.3" y="852.9" class="st3" width="57" height="57"/>
				<rect x="552.1" y="852.9" class="st3" width="57" height="57"/>
			</g>
			<g>
				<rect x="467.3" y="983.2" class="st3" width="57" height="57"/>
				<rect x="552.1" y="983.2" class="st3" width="57" height="57"/>
			</g>
			<g>
				<rect x="467.3" y="1113.4" class="st3" width="57" height="57"/>
				<rect x="552.1" y="1113.4" class="st3" width="57" height="57"/>
			</g>
			<g>
				<rect x="467.3" y="1243.7" class="st3" width="57" height="57"/>
				<rect x="552.1" y="1243.7" class="st3" width="57" height="57"/>
			</g>
			<g>
				<rect x="467.3" y="1374" class="st3" width="57" height="57"/>
				<rect x="552.1" y="1374" class="st3" width="57" height="57"/>
			</g>
			<g>
				
					<rect x="467.3" y="1504.2" transform="matrix(-1 -1.224647e-16 1.224647e-16 -1 991.5938 3065.3872)" class="st3" width="57" height="57"/>
				
					<rect x="552.1" y="1504.2" transform="matrix(-1 -1.224647e-16 1.224647e-16 -1 1161.1049 3065.3872)" class="st3" width="57" height="57"/>
			</g>
		</g>
	</g>
	<g>
		<g>
			
				<linearGradient id="SVGID_7_" gradientUnits="userSpaceOnUse" x1="-15749.293" y1="1521.7167" x2="-15641.29" y2="1193.9818" gradientTransform="matrix(1 0 0 1 15959.5928 0)">
				<stop  offset="0" style="stop-color:#22DEBD"/>
				<stop  offset="1" style="stop-color:#FFC359"/>
			</linearGradient>
			<path class="st11" d="M308.9,1350.2c5.4,19,8,39.7-13.7,60.1c-40.9,38.4-5.8,106.1-43.9,126.7c-10,5.4-17.7,5.7-23.6,2.9h0
				c-16.6-7.9-19.8-39.9-23.8-52.2c0,0-10.4-28.8-5-62.5c2.2-13.7,7-28.1,16.2-41.8c31.9-47.4,43.8-62.6,30.1-102.5
				c-2.2-6.3-2.9-13.5-2.3-21l19.5,0.7l-18.1-10.4c7.7-37,42.3-74.9,74.5-47.5c41.6,35.5-3.6,75.7-16,102.5
				c-5.3,11.5,0.1,25.3,4.7,40.4l-6.7-1.7L308.9,1350.2L308.9,1350.2z"/>
			<g>
				
					<linearGradient id="SVGID_8_" gradientUnits="userSpaceOnUse" x1="-15753.2393" y1="1409.0183" x2="-15654.1094" y2="1409.0183" gradientTransform="matrix(1 0 0 1 15959.5928 0)">
					<stop  offset="0" style="stop-color:#FFFFFF"/>
					<stop  offset="1" style="stop-color:#DCEFFE"/>
				</linearGradient>
				<path class="st12" d="M217.4,1581.9c-1,0.4-2.2-0.2-2.5-1.2c-7.6-23-10.2-47.1-7.5-69.9c2.5-20.7,9.3-39.5,19.2-53.1
					c17.7-24.3,47.4-65,43.4-106.5c-0.2-2.3-0.4-4.4-0.6-6.6c-3.7-37.3-5.5-56.1,32.4-107.6c0.7-0.9,1.9-1.1,2.8-0.4l0,0
					c0.9,0.7,1.1,1.9,0.4,2.8c-37,50.2-35.3,67.5-31.7,104.9c0.2,2.1,0.4,4.3,0.6,6.6c4.1,43-26.1,84.5-44.2,109.3
					c-17.5,24-27.6,70.1-11.2,119.4C219,1580.4,218.5,1581.5,217.4,1581.9L217.4,1581.9z"/>
			</g>
			<g>
				
					<linearGradient id="SVGID_9_" gradientUnits="userSpaceOnUse" x1="-15765.2646" y1="1492.5027" x2="-15887.2344" y2="1193.6306" gradientTransform="matrix(1 0 0 1 15959.5928 0)">
					<stop  offset="0" style="stop-color:#22BBBD"/>
					<stop  offset="0.9266" style="stop-color:#EFC560"/>
					<stop  offset="1" style="stop-color:#FFC359"/>
				</linearGradient>
				<path class="st13" d="M258.1,1517.8c-2.5,14.7-15.5,21.4-30.4,22.1h0c-4.5,0.2-9.2-0.1-13.8-0.9c-13.4-2.4-26.2-8.9-32.3-18
					c-5.9-8.8-8.4-22.1-11.4-35.5c-4.7-20.9-10.9-42.1-33.9-47.4c-35-8.2-56.2-37.1-62.4-80.3l20.2-3.9l-20.8-1
					c-0.2-1.7-0.4-3.5-0.5-5.3c-4.2-48.8-50.5-68.9-30.2-103.3c16.7-28.3,65-13.7,81.6,20l-11.1,9.1l13.4-3.9
					c2.2,5.9,3.4,12.2,3.4,18.9c0,49.7,24.8,79.6,43.2,115.2c5,9.7,14.8,15.9,26,21.6C228.9,1440.4,269.2,1452.1,258.1,1517.8z"/>
				<g>
					
						<linearGradient id="SVGID_10_" gradientUnits="userSpaceOnUse" x1="-15888.1631" y1="1419.0024" x2="-15733.9287" y2="1419.0024" gradientTransform="matrix(1 0 0 1 15959.5928 0)">
						<stop  offset="0" style="stop-color:#FFFFFF"/>
						<stop  offset="1" style="stop-color:#DCEFFE"/>
					</linearGradient>
					<path class="st14" d="M219.8,1575.9L219.8,1575.9c-1.1-0.2-1.8-1.3-1.6-2.3c16.2-84.8-27.8-126.8-63.2-160.7
						c-11.9-11.4-23.1-22.1-30.8-33.2c-13.3-19.1-16.4-38.7-19.2-56c-3.7-23.3-7-43.5-32.5-57.8c-0.9-0.5-1.3-1.7-0.8-2.7l0,0
						c0.5-1,1.8-1.4,2.7-0.8c27.2,15.3,30.7,37.4,34.5,60.7c2.8,17.7,5.8,36,18.6,54.4c7.5,10.8,18.6,21.4,30.3,32.6
						c36.1,34.5,80.9,77.4,64.3,164.3C221.9,1575.4,220.8,1576.1,219.8,1575.9z"/>
				</g>
			</g>
			<g>
				
					<linearGradient id="SVGID_11_" gradientUnits="userSpaceOnUse" x1="-15731.3691" y1="1576.813" x2="-15992.0654" y2="1351.4972" gradientTransform="matrix(1 0 0 1 15959.5928 0)">
					<stop  offset="0" style="stop-color:#22DEBD"/>
					<stop  offset="0.3897" style="stop-color:#78D396"/>
					<stop  offset="1" style="stop-color:#FFC359"/>
				</linearGradient>
				<path class="st15" d="M213.9,1539c-2.4,19.9-38.3,26.1-52.9,14.6c-15.7-12.4-22.2-50.2-50.6-47.7c-21.7,1.9-40.1-8.3-53.8-28
					l10.3-8.9l-12,6.4c-3.5-5.4-6.7-11.5-9.6-18.2c-10.2-24-32.4-32.5-41.4-46.3l17.8-2l-21.3-6.6c-0.6-3.1-0.5-6.6,0.3-10.6
					c6.4-28.7,59.7-23.7,71.1,11c10.3,31.5,31,47,50.5,65l-2.8,6.2l4.9-4.3c1.3,1.2,2.6,2.5,3.9,3.8c9.5,9.4,25.9,9,42,12
					c19.4,3.6,38.2,12.1,43.6,48.5C214.1,1535.7,214.1,1537.4,213.9,1539z"/>
				<g>
					
						<linearGradient id="SVGID_12_" gradientUnits="userSpaceOnUse" x1="-15934.2236" y1="1489.9742" x2="-15757.6191" y2="1489.9742" gradientTransform="matrix(1 0 0 1 15959.5928 0)">
						<stop  offset="0" style="stop-color:#FFFFFF"/>
						<stop  offset="1" style="stop-color:#DCEFFE"/>
					</linearGradient>
					<path class="st16" d="M200.2,1583.4c-1.1,0.1-2.1-0.6-2.2-1.7c-8.1-62.3-48.2-81.6-80.4-97.1c-10.9-5.3-21.2-10.2-29.2-16.3
						c-13.7-10.4-20.4-23.5-26.3-35c-7.8-15.2-14.6-28.4-35-32.7c-1.1-0.2-1.8-1.2-1.6-2.3l0,0c0.2-1.1,1.3-1.8,2.4-1.6
						c22.4,4.7,29.9,19.3,37.8,34.8c6,11.7,12.2,23.8,25.2,33.6c7.7,5.8,17.8,10.7,28.6,15.9c33.1,15.9,74.3,35.7,82.6,100.2
						C202.1,1582.2,201.3,1583.2,200.2,1583.4L200.2,1583.4z"/>
				</g>
			</g>
			<path class="st17" d="M217.1,1661.9L217.1,1661.9c-30.9,0-55.9-25-55.9-55.9v-32.1c0-5.8,4.7-10.5,10.5-10.5h91
				c5.8,0,10.5,4.7,10.5,10.5v32.1C273,1636.8,247.9,1661.9,217.1,1661.9z"/>
			<path class="st18" d="M273,1597.1v8.9c0,30.9-25,55.9-55.9,55.9s-55.9-25-55.9-55.9v-32.1c0-0.7,0.1-1.3,0.2-1.9v20.6
				c0,30.9,25,55.9,55.9,55.9C246.6,1648.5,270.7,1625.9,273,1597.1z"/>
		</g>
		<g>
			
				<linearGradient id="SVGID_13_" gradientUnits="userSpaceOnUse" x1="17933.5137" y1="1264.2448" x2="17956.041" y2="1264.2448" gradientTransform="matrix(-1 0 0 1 18241.8809 0)">
				<stop  offset="0" style="stop-color:#FFFFFF"/>
				<stop  offset="1" style="stop-color:#DCEFFE"/>
			</linearGradient>
			<line class="st19" x1="308.3" y1="1263.1" x2="285.9" y2="1265.4"/>
			
				<linearGradient id="SVGID_14_" gradientUnits="userSpaceOnUse" x1="17964.6465" y1="1270.8984" x2="17971.3359" y2="1270.8984" gradientTransform="matrix(-1 0 0 1 18241.8809 0)">
				<stop  offset="0" style="stop-color:#FFFFFF"/>
				<stop  offset="1" style="stop-color:#DCEFFE"/>
			</linearGradient>
			<line class="st20" x1="277" y1="1281.4" x2="270.8" y2="1260.4"/>
			
				<linearGradient id="SVGID_15_" gradientUnits="userSpaceOnUse" x1="17953.2695" y1="1303.575" x2="17971.7715" y2="1303.575" gradientTransform="matrix(-1 0 0 1 18241.8809 0)">
				<stop  offset="0" style="stop-color:#FFFFFF"/>
				<stop  offset="1" style="stop-color:#DCEFFE"/>
			</linearGradient>
			<line class="st21" x1="270.2" y1="1306.8" x2="288.5" y2="1300.3"/>
			
				<linearGradient id="SVGID_16_" gradientUnits="userSpaceOnUse" x1="17971.2031" y1="1331.668" x2="17981.9297" y2="1331.668" gradientTransform="matrix(-1 0 0 1 18241.8809 0)">
				<stop  offset="0" style="stop-color:#FFFFFF"/>
				<stop  offset="1" style="stop-color:#DCEFFE"/>
			</linearGradient>
			<line class="st22" x1="270.5" y1="1337.6" x2="260.1" y2="1325.8"/>
			
				<linearGradient id="SVGID_17_" gradientUnits="userSpaceOnUse" x1="17954.3613" y1="1352.6637" x2="17969.793" y2="1352.6637" gradientTransform="matrix(-1 0 0 1 18241.8809 0)">
				<stop  offset="0" style="stop-color:#FFFFFF"/>
				<stop  offset="1" style="stop-color:#DCEFFE"/>
			</linearGradient>
			<line class="st23" x1="287.3" y1="1345.3" x2="272.3" y2="1360.1"/>
			
				<linearGradient id="SVGID_18_" gradientUnits="userSpaceOnUse" x1="17973.2598" y1="1377.5039" x2="17984.9004" y2="1377.5039" gradientTransform="matrix(-1 0 0 1 18241.8809 0)">
				<stop  offset="0" style="stop-color:#FFFFFF"/>
				<stop  offset="1" style="stop-color:#DCEFFE"/>
			</linearGradient>
			<line class="st24" x1="268.4" y1="1385.2" x2="257.2" y2="1369.8"/>
			
				<linearGradient id="SVGID_19_" gradientUnits="userSpaceOnUse" x1="17961.2461" y1="1401.4567" x2="17979.7617" y2="1401.4567" gradientTransform="matrix(-1 0 0 1 18241.8809 0)">
				<stop  offset="0" style="stop-color:#FFFFFF"/>
				<stop  offset="1" style="stop-color:#DCEFFE"/>
			</linearGradient>
			<line class="st25" x1="262.2" y1="1405" x2="280.5" y2="1397.9"/>
			
				<linearGradient id="SVGID_20_" gradientUnits="userSpaceOnUse" x1="17992.4609" y1="1417.1296" x2="18002.959" y2="1417.1296" gradientTransform="matrix(-1 0 0 1 18241.8809 0)">
				<stop  offset="0" style="stop-color:#FFFFFF"/>
				<stop  offset="1" style="stop-color:#DCEFFE"/>
			</linearGradient>
			<line class="st26" x1="249.2" y1="1426.9" x2="239.1" y2="1407.4"/>
			
				<linearGradient id="SVGID_21_" gradientUnits="userSpaceOnUse" x1="18143.8398" y1="1277.4534" x2="18146.3105" y2="1277.4534" gradientTransform="matrix(-1 0 0 1 18241.8809 0)">
				<stop  offset="0" style="stop-color:#FFFFFF"/>
				<stop  offset="1" style="stop-color:#DCEFFE"/>
			</linearGradient>
			<line class="st27" x1="95.8" y1="1267.2" x2="97.8" y2="1287.7"/>
			
				<linearGradient id="SVGID_22_" gradientUnits="userSpaceOnUse" x1="18136.0547" y1="1309.3906" x2="18155.2793" y2="1309.3906" gradientTransform="matrix(-1 0 0 1 18241.8809 0)">
				<stop  offset="0" style="stop-color:#FFFFFF"/>
				<stop  offset="1" style="stop-color:#DCEFFE"/>
			</linearGradient>
			<line class="st28" x1="105.7" y1="1316.5" x2="86.8" y2="1302.3"/>
			
				<linearGradient id="SVGID_23_" gradientUnits="userSpaceOnUse" x1="18124.1348" y1="1324.965" x2="18132.1074" y2="1324.965" gradientTransform="matrix(-1 0 0 1 18241.8809 0)">
				<stop  offset="0" style="stop-color:#FFFFFF"/>
				<stop  offset="1" style="stop-color:#DCEFFE"/>
			</linearGradient>
			<line class="st29" x1="110" y1="1338.2" x2="117.5" y2="1311.8"/>
			
				<linearGradient id="SVGID_24_" gradientUnits="userSpaceOnUse" x1="18124.2969" y1="1363.9995" x2="18142.1973" y2="1363.9995" gradientTransform="matrix(-1 0 0 1 18241.8809 0)">
				<stop  offset="0" style="stop-color:#FFFFFF"/>
				<stop  offset="1" style="stop-color:#DCEFFE"/>
			</linearGradient>
			<line class="st30" x1="117.5" y1="1367" x2="99.8" y2="1361"/>
			
				<linearGradient id="SVGID_25_" gradientUnits="userSpaceOnUse" x1="18110.7246" y1="1369.213" x2="18114.6816" y2="1369.213" gradientTransform="matrix(-1 0 0 1 18241.8809 0)">
				<stop  offset="0" style="stop-color:#FFFFFF"/>
				<stop  offset="1" style="stop-color:#DCEFFE"/>
			</linearGradient>
			<line class="st31" x1="127.4" y1="1377.4" x2="130.9" y2="1361"/>
			
				<linearGradient id="SVGID_26_" gradientUnits="userSpaceOnUse" x1="18101.4629" y1="1392.7823" x2="18125.6016" y2="1392.7823" gradientTransform="matrix(-1 0 0 1 18241.8809 0)">
				<stop  offset="0" style="stop-color:#FFFFFF"/>
				<stop  offset="1" style="stop-color:#DCEFFE"/>
			</linearGradient>
			<line class="st32" x1="140.4" y1="1395" x2="116.3" y2="1390.6"/>
			
				<linearGradient id="SVGID_27_" gradientUnits="userSpaceOnUse" x1="18089.8223" y1="1398.1053" x2="18090.7168" y2="1398.1053" gradientTransform="matrix(-1 0 0 1 18241.8809 0)">
				<stop  offset="0" style="stop-color:#FFFFFF"/>
				<stop  offset="1" style="stop-color:#DCEFFE"/>
			</linearGradient>
			<line class="st33" x1="151.4" y1="1406.4" x2="151.8" y2="1389.8"/>
			
				<linearGradient id="SVGID_28_" gradientUnits="userSpaceOnUse" x1="18076.2617" y1="1419.0026" x2="18094.0254" y2="1419.0026" gradientTransform="matrix(-1 0 0 1 18241.8809 0)">
				<stop  offset="0" style="stop-color:#FFFFFF"/>
				<stop  offset="1" style="stop-color:#DCEFFE"/>
			</linearGradient>
			<line class="st34" x1="165.6" y1="1419.4" x2="147.9" y2="1418.6"/>
			
				<linearGradient id="SVGID_29_" gradientUnits="userSpaceOnUse" x1="18063.4102" y1="1424.9169" x2="18066.6602" y2="1424.9169" gradientTransform="matrix(-1 0 0 1 18241.8809 0)">
				<stop  offset="0" style="stop-color:#FFFFFF"/>
				<stop  offset="1" style="stop-color:#DCEFFE"/>
			</linearGradient>
			<line class="st35" x1="178.2" y1="1432" x2="175.5" y2="1417.8"/>
			
				<linearGradient id="SVGID_30_" gradientUnits="userSpaceOnUse" x1="18051.4062" y1="1446.4055" x2="18070.3828" y2="1446.4055" gradientTransform="matrix(-1 0 0 1 18241.8809 0)">
				<stop  offset="0" style="stop-color:#FFFFFF"/>
				<stop  offset="1" style="stop-color:#DCEFFE"/>
			</linearGradient>
			<line class="st36" x1="190.4" y1="1447.4" x2="171.5" y2="1445.4"/>
			
				<linearGradient id="SVGID_31_" gradientUnits="userSpaceOnUse" x1="18036.5938" y1="1456.0656" x2="18038.6699" y2="1456.0656" gradientTransform="matrix(-1 0 0 1 18241.8809 0)">
				<stop  offset="0" style="stop-color:#FFFFFF"/>
				<stop  offset="1" style="stop-color:#DCEFFE"/>
			</linearGradient>
			<line class="st37" x1="203.5" y1="1464.7" x2="205" y2="1447.4"/>
			
				<linearGradient id="SVGID_32_" gradientUnits="userSpaceOnUse" x1="18028.4922" y1="1484.0601" x2="18049.9258" y2="1484.0601" gradientTransform="matrix(-1 0 0 1 18241.8809 0)">
				<stop  offset="0" style="stop-color:#FFFFFF"/>
				<stop  offset="1" style="stop-color:#DCEFFE"/>
			</linearGradient>
			<line class="st38" x1="213.3" y1="1487.2" x2="192" y2="1480.9"/>
			
				<linearGradient id="SVGID_33_" gradientUnits="userSpaceOnUse" x1="18014.9219" y1="1493.5228" x2="18022.8828" y2="1493.5228" gradientTransform="matrix(-1 0 0 1 18241.8809 0)">
				<stop  offset="0" style="stop-color:#FFFFFF"/>
				<stop  offset="1" style="stop-color:#DCEFFE"/>
			</linearGradient>
			<line class="st39" x1="219.2" y1="1503.8" x2="226.7" y2="1483.3"/>
			
				<linearGradient id="SVGID_34_" gradientUnits="userSpaceOnUse" x1="18198.2578" y1="1397.3168" x2="18202.8828" y2="1397.3168" gradientTransform="matrix(-1 0 0 1 18241.8809 0)">
				<stop  offset="0" style="stop-color:#FFFFFF"/>
				<stop  offset="1" style="stop-color:#DCEFFE"/>
			</linearGradient>
			<line class="st40" x1="43.4" y1="1405.6" x2="39.2" y2="1389"/>
			
				<linearGradient id="SVGID_35_" gradientUnits="userSpaceOnUse" x1="18183.6602" y1="1421.8611" x2="18202.4004" y2="1421.8611" gradientTransform="matrix(-1 0 0 1 18241.8809 0)">
				<stop  offset="0" style="stop-color:#FFFFFF"/>
				<stop  offset="1" style="stop-color:#DCEFFE"/>
			</linearGradient>
			<line class="st41" x1="58.2" y1="1423.9" x2="39.5" y2="1419.8"/>
			
				<linearGradient id="SVGID_36_" gradientUnits="userSpaceOnUse" x1="18171.9336" y1="1433.0984" x2="18173.3203" y2="1433.0984" gradientTransform="matrix(-1 0 0 1 18241.8809 0)">
				<stop  offset="0" style="stop-color:#FFFFFF"/>
				<stop  offset="1" style="stop-color:#DCEFFE"/>
			</linearGradient>
			<line class="st42" x1="69.7" y1="1443.7" x2="68.8" y2="1422.5"/>
			
				<linearGradient id="SVGID_37_" gradientUnits="userSpaceOnUse" x1="18159.4297" y1="1458.9735" x2="18181.3867" y2="1458.9735" gradientTransform="matrix(-1 0 0 1 18241.8809 0)">
				<stop  offset="0" style="stop-color:#FFFFFF"/>
				<stop  offset="1" style="stop-color:#DCEFFE"/>
			</linearGradient>
			<line class="st43" x1="82.4" y1="1460.6" x2="60.5" y2="1457.3"/>
			
				<linearGradient id="SVGID_38_" gradientUnits="userSpaceOnUse" x1="18141.7773" y1="1462.8177" x2="18147.2871" y2="1462.8177" gradientTransform="matrix(-1 0 0 1 18241.8809 0)">
				<stop  offset="0" style="stop-color:#FFFFFF"/>
				<stop  offset="1" style="stop-color:#DCEFFE"/>
			</linearGradient>
			<line class="st44" x1="99.9" y1="1472.1" x2="94.8" y2="1453.5"/>
			
				<linearGradient id="SVGID_39_" gradientUnits="userSpaceOnUse" x1="18120.7207" y1="1483.6658" x2="18141.1387" y2="1483.6658" gradientTransform="matrix(-1 0 0 1 18241.8809 0)">
				<stop  offset="0" style="stop-color:#FFFFFF"/>
				<stop  offset="1" style="stop-color:#DCEFFE"/>
			</linearGradient>
			<line class="st45" x1="121.2" y1="1483.4" x2="100.7" y2="1484"/>
			
				<linearGradient id="SVGID_40_" gradientUnits="userSpaceOnUse" x1="18103.9414" y1="1486.3271" x2="18109.4219" y2="1486.3271" gradientTransform="matrix(-1 0 0 1 18241.8809 0)">
				<stop  offset="0" style="stop-color:#FFFFFF"/>
				<stop  offset="1" style="stop-color:#DCEFFE"/>
			</linearGradient>
			<line class="st46" x1="137.7" y1="1491.7" x2="132.7" y2="1481"/>
			
				<linearGradient id="SVGID_41_" gradientUnits="userSpaceOnUse" x1="18083.7422" y1="1503.9222" x2="18107.4434" y2="1503.9222" gradientTransform="matrix(-1 0 0 1 18241.8809 0)">
				<stop  offset="0" style="stop-color:#FFFFFF"/>
				<stop  offset="1" style="stop-color:#DCEFFE"/>
			</linearGradient>
			<line class="st47" x1="158.1" y1="1505" x2="134.5" y2="1502.9"/>
			
				<linearGradient id="SVGID_42_" gradientUnits="userSpaceOnUse" x1="18066.6641" y1="1509.5408" x2="18072.4746" y2="1509.5408" gradientTransform="matrix(-1 0 0 1 18241.8809 0)">
				<stop  offset="0" style="stop-color:#FFFFFF"/>
				<stop  offset="1" style="stop-color:#DCEFFE"/>
			</linearGradient>
			<line class="st48" x1="175" y1="1521.2" x2="169.7" y2="1497.9"/>
			
				<linearGradient id="SVGID_43_" gradientUnits="userSpaceOnUse" x1="18056.4941" y1="1532.6066" x2="18079.9844" y2="1532.6066" gradientTransform="matrix(-1 0 0 1 18241.8809 0)">
				<stop  offset="0" style="stop-color:#FFFFFF"/>
				<stop  offset="1" style="stop-color:#DCEFFE"/>
			</linearGradient>
			<line class="st49" x1="185.3" y1="1535.7" x2="162" y2="1529.5"/>
		</g>
	</g>
	<g>
		<path class="st50" d="M1388.7,1417.1c355.7,251.6,201.5-608.5,499.7-738.2"/>
		
			<ellipse transform="matrix(0.6458 -0.7635 0.7635 0.6458 212.8363 1164.9453)" class="st51" cx="1361.9" cy="353.1" rx="38.9" ry="38.9"/>
		
			<ellipse transform="matrix(0.5254 -0.8509 0.8509 0.5254 352.8869 1943.8817)" class="st52" cx="1918.9" cy="655.6" rx="38.9" ry="38.9"/>
		
			<ellipse transform="matrix(8.253767e-02 -0.9966 0.9966 8.253767e-02 -673.0001 743.1245)" class="st53" cx="67.1" cy="737.1" rx="38.9" ry="38.9"/>
		<path class="st54" d="M485,1146.4c-120.4,163.8-314.4,75.2-302.4-72c20.1-246.4-25-250.9-90.1-311.5"/>
		<path class="st55" d="M824.7,1004.7c107,14.5,69.7-113.6,88.1-243c41.4-292.1,299.8-198.3,427.7-378.4"/>
	</g>
	<path class="st56" d="M688.1,655.3l-69.7-7.5c-2-0.2-3.7-1.6-4.2-3.5c-3.3-10.9-7.7-21.4-13-31.3c-0.9-1.8-0.8-3.9,0.5-5.5l44-54.6
		c1.6-2,1.4-4.8-0.4-6.6l-48.5-48.5c-1.8-1.8-4.7-2-6.6-0.4l-54.6,44c-1.6,1.3-3.7,1.4-5.5,0.5c-9.9-5.3-20.4-9.7-31.3-13
		c-1.9-0.6-3.3-2.2-3.5-4.2l-7.5-69.7c-0.3-2.5-2.4-4.4-5-4.4H414c-2.5,0-4.7,1.9-5,4.4l-7.5,69.7c-0.2,2-1.6,3.7-3.5,4.2
		c-10.9,3.3-21.4,7.7-31.3,13c-1.8,0.9-3.9,0.8-5.5-0.5l-54.6-44c-2-1.6-4.8-1.4-6.6,0.4l-48.5,48.5c-1.8,1.8-2,4.7-0.4,6.6l44,54.6
		c1.3,1.6,1.4,3.7,0.5,5.5c-5.3,9.9-9.7,20.4-13,31.3c-0.6,1.9-2.2,3.3-4.2,3.5l-69.7,7.5c-2.5,0.3-4.4,2.4-4.4,5v68.6
		c0,2.5,1.9,4.7,4.4,5l69.7,7.5c2,0.2,3.7,1.6,4.2,3.5c3.3,10.9,7.7,21.4,13,31.3c0.9,1.8,0.8,3.9-0.5,5.5l-44,54.6
		c-1.6,2-1.4,4.8,0.4,6.6l48.5,48.5c1.8,1.8,4.7,2,6.6,0.4l54.6-44c1.6-1.3,3.7-1.4,5.5-0.5c9.9,5.3,20.4,9.7,31.3,13
		c1.9,0.6,3.3,2.2,3.5,4.2l7.5,69.7c0.3,2.5,2.4,4.4,5,4.4h68.6c2.5,0,4.7-1.9,5-4.4l7.5-69.7c0.2-2,1.6-3.7,3.5-4.2
		c10.9-3.3,21.4-7.7,31.3-13c1.8-0.9,3.9-0.8,5.5,0.5l54.6,44c2,1.6,4.8,1.4,6.6-0.4l48.5-48.5c1.8-1.8,2-4.7,0.4-6.6l-44-54.6
		c-1.3-1.6-1.4-3.7-0.5-5.5c5.3-9.9,9.7-20.4,13-31.3c0.6-1.9,2.2-3.3,4.2-3.5l69.7-7.5c2.5-0.3,4.4-2.4,4.4-5v-68.6
		C692.6,657.7,690.7,655.5,688.1,655.3z M448.4,783.4c-49.1,0-88.9-39.8-88.9-88.9c0-49.1,39.8-88.9,88.9-88.9
		c49.1,0,88.9,39.8,88.9,88.9C537.2,743.6,497.5,783.4,448.4,783.4z"/>
	<linearGradient id="SVGID_44_" gradientUnits="userSpaceOnUse" x1="729.4796" y1="1648.2532" x2="866.5073" y2="1648.2532">
		<stop  offset="0" style="stop-color:#1FB89A"/>
		<stop  offset="2.106428e-03" style="stop-color:#1FB89A"/>
		<stop  offset="0.179" style="stop-color:#3FB58D"/>
		<stop  offset="0.3619" style="stop-color:#58B382"/>
		<stop  offset="0.5538" style="stop-color:#69B27B"/>
		<stop  offset="0.759" style="stop-color:#74B176"/>
		<stop  offset="1" style="stop-color:#77B175"/>
	</linearGradient>
	<path class="st57" d="M734.7,1671.4c-18.1-24.8,15.6-37.2,29.7-23.8c14.1,13.4,34.2-30.7,58.2-21c25.8,10.4,16.1,32.4,16.1,32.4
		s22.8-4.7,27.8,12.4H734.7z"/>
	<g>
		<g>
			<path class="st58" d="M881.1,1635.1v28.9h432.4v-28.9c0-20.6-16.7-37.3-37.3-37.3h-27.9c-36.7,0-66.4-29.7-66.4-66.4V1426h-169.5
				v105.3c0,36.7-29.7,66.4-66.4,66.4h-27.6C897.8,1597.8,881.1,1614.5,881.1,1635.1z"/>
			<rect x="1012.6" y="1442.5" class="st59" width="169.5" height="62.4"/>
			<path class="st58" d="M1800.5,450.3H394.2c-9,0-16.3,7.4-16.3,16.3v968.6c0,9,7.4,16.3,16.3,16.3h1406.3c9,0,16.3-7.4,16.3-16.3
				V466.7C1816.8,457.7,1809.5,450.3,1800.5,450.3z"/>
			
				<rect x="417.4" y="490.2" transform="matrix(-1 -1.224647e-16 1.224647e-16 -1 2194.6655 1805.0968)" class="st60" width="1359.8" height="824.7"/>
			<polygon class="st2" points="1225.5,748.4 1225.5,1072.2 1131.2,1072.2 1131.2,1266.1 1670.4,1266.1 1670.4,928.1 1655.5,928.1 
				1655.5,911 1571.2,911 1571.2,928.1 1549.6,928.1 1549.6,1063.6 1539.1,1063.6 1539.1,907.5 1539.2,865.5 1539.2,860.7 
				1554.5,860.7 1554.5,782.7 1547.5,782.7 1547.5,771.7 1512.6,771.7 1512.6,722.2 1501.5,722.2 1487.1,594.7 1471.8,722.2 
				1459.7,722.2 1459.7,771.7 1429.4,771.7 1429.4,782.7 1413.9,782.7 1413.9,860.7 1432.3,860.7 1432.3,1129.6 1342.6,1129.6 
				1342.6,729 1270.6,729 1270.6,748.4 			"/>
			<rect x="417.4" y="1170.8" class="st61" width="1359.8" height="144.1"/>
			<g>
				<rect x="417.4" y="490.2" class="st3" width="1359.8" height="61.8"/>
				<path class="st62" d="M1622.6,522c0,7.5-6.1,13.5-13.5,13.5c-7.5,0-13.5-6.1-13.5-13.5c0-7.5,6.1-13.5,13.5-13.5
					C1616.6,508.5,1622.6,514.6,1622.6,522z"/>
				<path class="st63" d="M1720,522c0,7.5-6.1,13.5-13.5,13.5c-7.5,0-13.5-6.1-13.5-13.5c0-7.5,6.1-13.5,13.5-13.5
					C1713.9,508.5,1720,514.6,1720,522z"/>
				<path class="st64" d="M1672.5,522c0,7.5-6.1,13.5-13.5,13.5c-7.5,0-13.5-6.1-13.5-13.5c0-7.5,6.1-13.5,13.5-13.5
					C1666.4,508.5,1672.5,514.6,1672.5,522z"/>
			</g>
			<circle class="st59" cx="1097.3" cy="1376.8" r="29.8"/>
		</g>
	</g>
	<g>
		<rect x="784.2" y="1384" class="st65" width="290.2" height="290.2"/>
		<rect x="715.3" y="1384" class="st66" width="290.2" height="290.2"/>
		<rect x="844.9" y="1384" class="st67" width="31" height="290.2"/>
		<path class="st68" d="M980.9,1651.5h-48.7c-1.6,0-2.9-1.3-2.9-2.9v-19.8c0-1.6,1.3-2.9,2.9-2.9h48.7c1.6,0,2.9,1.3,2.9,2.9v19.8
			C983.8,1650.2,982.5,1651.5,980.9,1651.5z"/>
	</g>
	<g>
		<path class="st69" d="M1966.9,1027.3v624.1c0,17-14.7,30.2-31.6,28.4l-220.5-23.5c-14.5-1.5-25.5-13.8-25.5-28.4v-582.1
			c0-14.8,11.4-27.2,26.2-28.5l220.5-18.5C1952.6,997.4,1966.9,1010.5,1966.9,1027.3L1966.9,1027.3z"/>
		<path class="st70" d="M1953.9,1027.3v624.1c0,17-14.7,30.2-31.6,28.4l-220.5-23.5c-14.5-1.5-25.5-13.8-25.5-28.4v-582.1
			c0-14.8,11.4-27.2,26.2-28.5l220.5-18.5C1939.6,997.4,1953.9,1010.5,1953.9,1027.3L1953.9,1027.3z"/>
		<polygon class="st61" points="1931.1,1058.6 1931.1,1594.3 1682.2,1572.5 1682.2,1051.5 1931.1,1030 		"/>
		<path class="st71" d="M1777.1,1212.2l-66.5,4.6c-4.3,0.3-7.9-3.1-7.9-7.3v-66.5c0-3.9,3-7.1,6.9-7.3l66.5-4.6
			c4.3-0.3,7.9,3.1,7.9,7.3v66.5C1784,1208.7,1781,1211.9,1777.1,1212.2z"/>
		<path class="st69" d="M1768.8,1625.1c0,9.6,6.1,17.5,13.7,17.5c7.5,0,13.7-7.8,13.7-17.5s-6.1-17.5-13.7-17.5
			C1774.9,1607.7,1768.8,1615.5,1768.8,1625.1z"/>
	</g>
	<ellipse class="st72" cx="805.9" cy="1269.2" rx="276.6" ry="22.2"/>
	<g>
		<path class="st73" d="M932.4,833.3l10.8,1.7l66.7,21l-5.2-29.6l-37.1-32.5c-2-1.6-4.4-2.7-7-3.2l-8.4-1.5L932.4,833.3z"/>
		<path class="st74" d="M1120.5,812.6l14.8-4.7l22.4,0.9c0,0,12,4.1,15.4,4.6c3.4,0.5,0,5.2-6.7,2.3c-6.6-2.9-9.9-1.9-9.9-1.9
			l-5.2,2l0.2,11.5l-6.8,4.7l-12.2-1l-1.1-2.4l2.7-0.7c0,0-9.8-2.2-13.3-4.4C1117.4,821.2,1120.5,812.6,1120.5,812.6z"/>
		<polygon class="st73" points="1004.7,826.4 1123.5,809.2 1122.6,830.5 1009.9,856 971,826.2 		"/>
		<path class="st73" d="M925.7,782.6l-43-2.6l4.9,122.9c0.1,2.4,2,4.3,4.4,4.3l74.5-1.5c1.2,0,2.2-1,2.1-2.2l-8.2-113l-26.9-6.4
			L925.7,782.6z"/>
		
			<linearGradient id="SVGID_45_" gradientUnits="userSpaceOnUse" x1="16760.2441" y1="682.2633" x2="16802.0039" y2="682.2633" gradientTransform="matrix(-0.9998 1.980000e-02 1.980000e-02 0.9998 17691.8965 -193.6262)">
			<stop  offset="0" style="stop-color:#F8F3ED"/>
			<stop  offset="1" style="stop-color:#ECDAC7"/>
		</linearGradient>
		<path class="st75" d="M906,781.4l23,78.6c3.5,7.8,18.9-73,18.9-73l-20.2-5.6H906z"/>
		<path class="st76" d="M940.1,824.4c-4.4,19.9-9.4,39.6-11.2,35.5l-7.3-25v0l4-30.3l6.3-0.9L940.1,824.4z"/>
		<polygon class="st74" points="897.6,1221 896.9,1233.5 908.6,1234.8 911.8,1218.2 		"/>
		<path class="st77" d="M895.9,1229.8l13.5,0.5c0,0,0.6,5.8,10.8,7.8c10.2,2.1,21.9,3.3,21.3,18.9l-35.7-1.4l-1.5-4.2l-1.8,4
			l-7.7-0.3L895.9,1229.8z"/>
		<polygon class="st74" points="984.7,1221 983.9,1233.5 995.7,1234.8 998.8,1218.2 		"/>
		<path class="st77" d="M982.9,1229.8l13.5,0.5c0,0,0.6,5.8,10.8,7.8c10.2,2.1,21.9,3.3,21.3,18.9l-35.7-1.4l-1.5-4.2l-1.8,4
			l-7.7-0.3L982.9,1229.8z"/>
		<polygon class="st76" points="922.7,792.6 920.5,797.6 925.9,805.3 928.9,806.5 931.9,803.9 935.6,796.1 933.1,792.6 		"/>
		<path class="st78" d="M935.3,772l0.3,14.9c0.1,4.2-3.3,7.8-7.5,7.8l0,0c-4.2,0.1-7.8-3.3-7.8-7.5l-0.5-27.2L935.3,772z"/>
		<path class="st74" d="M950.9,752.2c-0.8,8.4-4.1,27.7-17.5,28.8c-16.9,1.3-23.2-15.5-24.2-22.3c-0.8-4.9-6.9-23.6,4.4-24.2
			c11.4-0.6,36,1.3,36.8,6.2C951.2,745.5,951.2,749.3,950.9,752.2z"/>
		<path class="st79" d="M913.8,747.8c12.8,11.1,40.7,0.5,45.6-10.6c4.9-11.1-0.7-26.6-12.6-23.7c-11.9,2.9-13.9,8.2-13.9,8.2
			s-10.5-1.3-12.5,1.9c0,0-12.8,1.7-15.7,12.3c-2.9,10.5,0.4,19.6,6.3,29.4L913.8,747.8z"/>
		<path class="st74" d="M913.7,751.7c-1-1.6-3.4-5.5-5.6-2.6c-2.2,2.8,1.7,13.2,4.5,12.9L913.7,751.7z"/>
		<path class="st79" d="M917.6,748.2l-3.3,10.1c0,0-0.4-7.6-3.2-11.5C908.3,742.8,917.6,748.2,917.6,748.2z"/>
		<path class="st80" d="M906.5,909.4l35.6,133.1l40.9,183l18.8-0.1l-16.5-180.7l-11.7-124.6c-0.3-3.3-2.5-6.2-5.6-7.4l0,0
			L906.5,909.4z"/>
		<path class="st81" d="M939.4,910.4l0.4,126.8l-28.3,189.4l-16.9-1.2l2.6-182.1l-11.1-120.4c-0.3-3.3,1.3-6.5,4.1-8.3l0,0
			L939.4,910.4z"/>
		<path class="st74" d="M839.5,845.9l-74.1-40.2l4.2-10.6l77.6,31.1l8.6-1.2l4.8,21.8l-14.6,0.5C843.7,847.5,841.5,847,839.5,845.9z
			"/>
		
			<rect x="890.1" y="906.5" transform="matrix(0.9998 -1.974956e-02 1.974956e-02 0.9998 -17.7935 18.5157)" class="st82" width="76.8" height="7.2"/>
		<path class="st73" d="M888.6,828.1l-28.1,18.6c-3.7,2.4-7.9,3.9-12.3,4.3l0,0c-5.2,0.4-10.4-0.7-15-3.2l-68-37.8l8.2-16.9
			l69.1,29.2l25.9-34.9c3.4-4.6,8.9-7.4,14.7-7.4L888.6,828.1z"/>
		<path class="st73" d="M671.7,863h-67.3c-0.8,0-1.5-0.7-1.5-1.5v-16.3c0-0.8,0.7-1.5,1.5-1.5h67.3c0.8,0,1.5,0.7,1.5,1.5v16.3
			C673.2,862.3,672.5,863,671.7,863z"/>
		<path class="st73" d="M667.1,853.3h-58.2c-0.6,0-1.1-0.5-1.1-1.1V841c0-0.6,0.5-1.1,1.1-1.1h58.2c0.6,0,1.1,0.5,1.1,1.1v11.2
			C668.2,852.8,667.7,853.3,667.1,853.3z"/>
		<path class="st83" d="M893.5,1273.4H569c-2.7,0-4.9-2.2-4.9-4.9v-407c0-2.7,2.2-4.9,4.9-4.9h321c2.7,0,4.9,2.2,4.9,4.9V1272
			C894.8,1272.8,894.2,1273.4,893.5,1273.4z"/>
		<path class="st84" d="M905.1,873.2h-350c-1.2,0-2.2-1-2.2-2.2v-12c0-1.2,1-2.2,2.2-2.2h350c1.2,0,2.2,1,2.2,2.2v12
			C907.4,872.2,906.4,873.2,905.1,873.2z"/>
		<path class="st74" d="M769.6,795.1l-6.2-9.5h-21.5c-2.7,0-4.9,2.4-4.6,5.1l2,18.1c0.3,2.5,2.6,4.4,5.1,4.1l16.5-2l4.5-5.1"/>
		<g>
			<path class="st79" d="M768.8,838.7L768.8,838.7c-1.9,0.8-4.1-0.1-4.8-2l-43-104.9l6.9-2.8l43,104.9
				C771.6,835.7,770.7,837.9,768.8,838.7z"/>
			
				<rect x="697.3" y="726.8" transform="matrix(0.9253 -0.3793 0.3793 0.9253 -226.5601 331.7803)" class="st79" width="62.7" height="28"/>
			<path class="st85" d="M753.5,747.4l-37.9,15.5c-0.7,0.3-1.5,0-1.8-0.8l-10.7-26.1c-0.3-0.7,0-1.5,0.8-1.8l37.9-15.5
				c0.7-0.3,1.5,0,1.8,0.8l10.7,26.1C754.5,746.3,754.2,747.1,753.5,747.4z"/>
			
				<rect x="709.8" y="725.3" transform="matrix(0.9253 -0.3793 0.3793 0.9253 -226.5603 331.7809)" class="st86" width="37.6" height="31"/>
			<path class="st85" d="M766.5,738.2l-5.4,2.2c-0.9,0.4-2-0.1-2.4-1l-7.7-18.7c-0.4-0.9,0.1-2,1-2.4l5.4-2.2c0.9-0.4,2,0.1,2.4,1
				l7.7,18.7C767.9,736.7,767.5,737.8,766.5,738.2z"/>
			<path class="st86" d="M766.3,742.1l-5.4,2.2c-0.9,0.4-2-0.1-2.4-1l-10.4-25.3c-0.4-0.9,0.1-2,1-2.4l5.4-2.2c0.9-0.4,2,0.1,2.4,1
				l10.4,25.3C767.7,740.7,767.2,741.8,766.3,742.1z"/>
			<path class="st85" d="M705.1,763.4l-5.4,2.2c-0.9,0.4-2-0.1-2.4-1l-7.7-18.7c-0.4-0.9,0.1-2,1-2.4l5.4-2.2c0.9-0.4,2,0.1,2.4,1
				l7.7,18.7C706.4,761.9,706,763,705.1,763.4z"/>
			<path class="st86" d="M708.2,765.9l-5.4,2.2c-0.9,0.4-2-0.1-2.4-1l-10.4-25.3c-0.4-0.9,0.1-2,1-2.4l5.4-2.2c0.9-0.4,2,0.1,2.4,1
				l10.4,25.3C709.6,764.5,709.1,765.6,708.2,765.9z"/>
			<path class="st87" d="M763.4,725.6c-0.6-1-1.6-1.7-2.6-1.9l-0.1-0.3c-0.8-2-3.2-3-5.2-2.2l-1.4,0.6c-1.1,0.5-1.9,1.4-2.3,2.6
				l-5.6,2.3c-0.8-0.6-1.9-0.8-3-0.4h0l-34.8,14.3l0,0c-1,0.4-1.7,1.3-1.8,2.4l-5.6,2.3c-1-0.6-2.3-0.7-3.4-0.2l-1.4,0.6
				c-2,0.8-3,3.2-2.2,5.2l0.1,0.2c-0.8,1.1-1.1,2.5-0.5,3.9l-0.9-2.1c-0.6-1.3-0.3-2.8,0.5-3.9l0-0.2c-0.8-2,0.1-4.3,2.2-5.2
				l1.4-0.6c1.2-0.5,2.4-0.3,3.4,0.2l5.6-2.3c0.1-1,0.8-1.9,1.8-2.4h0l34.8-14.3l0,0c1-0.4,2.1-0.2,3,0.4l5.6-2.3
				c0.3-1.1,1.1-2.1,2.3-2.6l1.4-0.6c2-0.8,4.3,0.1,5.2,2.2l0.1,0.3c1.3,0.3,2.3,1.1,2.9,2.4L763.4,725.6z"/>
		</g>
		<path class="st74" d="M741.9,785.6c0,0,11.8-1.2,15.1,4.2c3.3,5.4,2.4,18.2-5.4,19.6C743.8,810.8,741.9,785.6,741.9,785.6z"/>
		<ellipse class="st72" cx="1406.1" cy="1269.2" rx="211.2" ry="22.2"/>
		<g>
			<polygon class="st83" points="1650.5,974.9 1151.1,974.9 1217.3,943.4 1584.3,943.4 			"/>
			<polygon class="st88" points="1298.6,1269.1 1287.3,1269.1 1264.7,983.9 1298.6,983.9 			"/>
			<polygon class="st89" points="1257.9,1269.1 1245.9,1269.1 1211.1,983.9 1257.9,983.9 			"/>
			<polygon class="st89" points="1553.9,1269.1 1565.8,1269.1 1600.7,983.9 1553.9,983.9 			"/>
			<polygon class="st88" points="1513.2,1269.1 1522.4,1269.1 1547.1,983.9 1513.2,983.9 			"/>
			<rect x="1211.5" y="991.5" class="st83" width="389.2" height="30"/>
			<rect x="1151.1" y="974.9" class="st79" width="499.3" height="17.9"/>
		</g>
		<linearGradient id="SVGID_46_" gradientUnits="userSpaceOnUse" x1="1233.0728" y1="1006.5211" x2="1240.5232" y2="1006.5211">
			<stop  offset="0" style="stop-color:#F8F3ED"/>
			<stop  offset="1" style="stop-color:#ECDAC7"/>
		</linearGradient>
		<path class="st90" d="M1240.5,1006.5c0,2.1-1.7,3.7-3.7,3.7s-3.7-1.7-3.7-3.7c0-2.1,1.7-3.7,3.7-3.7S1240.5,1004.5,1240.5,1006.5z
			"/>
		<linearGradient id="SVGID_47_" gradientUnits="userSpaceOnUse" x1="1569.5262" y1="1006.5211" x2="1576.9766" y2="1006.5211">
			<stop  offset="0" style="stop-color:#F8F3ED"/>
			<stop  offset="1" style="stop-color:#ECDAC7"/>
		</linearGradient>
		<path class="st91" d="M1577,1006.5c0,2.1-1.7,3.7-3.7,3.7c-2.1,0-3.7-1.7-3.7-3.7c0-2.1,1.7-3.7,3.7-3.7
			C1575.3,1002.8,1577,1004.5,1577,1006.5z"/>
	</g>
	<rect x="593.1" y="926.1" class="st79" width="272.7" height="79.9"/>
	<path class="st92" d="M891.2,661.4H624.2c-8.5,0-15.4-6.9-15.4-15.4v-35.8c0-8.5,6.9-15.4,15.4-15.4h267.1
		c8.5,0,15.4,6.9,15.4,15.4v35.8C906.7,654.5,899.7,661.4,891.2,661.4z"/>
	<g>
		<defs>
			<polygon id="SVGID_48_" points="1949.7,953 1931.1,1594.3 1495.2,1559.1 1539.1,954.9 1949.7,919.4 			"/>
		</defs>
		<clipPath id="SVGID_49_">
			<use xlink:href="#SVGID_48_"  style="overflow:visible;"/>
		</clipPath>
		<g class="st93">
			<path class="st94" d="M1789.9,1196.3c0,0,2.3,14.8-9.3,30.8c-12.8,17.7-11-36-11-36L1789.9,1196.3z"/>
			<polygon class="st95" points="1895.2,1472.5 1904.7,1467.8 1899.6,1457.3 1885,1462.3 			"/>
			<polygon class="st95" points="1718.2,1635.1 1718.2,1645.7 1729.9,1645.7 1731.9,1630.4 			"/>
			<path class="st77" d="M1731,1643.2h-14.4c0,0-0.9,6.1-11.8,7.9s-23.4,2.6-23.4,19.2h37.9l1.7-4.4l1.7,4.4h8.2V1643.2z"/>
			<path class="st96" d="M1750.9,1359.4L1750.9,1359.4c-10.8,15.5-18.1,33-21.5,51.6l-19,103c-0.6,3.2-0.8,6.6-0.6,9.9l6.6,111.2
				l16.8,0l6.6-113l40.5-118.2l-12.8-64L1750.9,1359.4z"/>
			<path class="st97" d="M1777.2,1510.1l112.3-52.2l8,14.3l-95.2,62.9c-3.2,2.1-7,2.9-10.8,2.3l0,0c-6.5-1.1-11.6-6.3-12.4-12.9
				L1777.2,1510.1z"/>
			<path class="st97" d="M1799.2,1359.4L1799.2,1359.4c10.7,21.6,15.6,45.6,14.3,69.7l-4.7,82.2l-31.6-0.7l-11.6-156.5
				L1799.2,1359.4z"/>
			<path class="st77" d="M1896.8,1457.5l6.4,12.9c0,0,5.9-1.9,12.3,7.1s12.7,19.9,27.6,12.5l-16.8-34l-4.7,0.4l3.1-3.5l-3.6-7.3
				L1896.8,1457.5z"/>
			<path class="st98" d="M1764.3,1223.2v15.8c0,4.5,3.7,8.2,8.2,8.2l0,0c4.5,0,8.2-3.7,8.2-8.2v-28.9L1764.3,1223.2z"/>
			<rect x="1750.9" y="1354.2" class="st99" width="48.3" height="5.3"/>
			<path class="st100" d="M1807.2,1260.1L1807.2,1260.1c4.5,3,7.7,7.5,9,12.7l14.1,55.8l-17.5,3.6l-20.9-42.9L1807.2,1260.1z"/>
			<path class="st95" d="M1741.6,1204.8c0,0,6,26.7,20.2,28.6c14.2,1.9,21.8-14.7,23.2-19.8c1.5-5,8.8-27.4-3.3-27.7
				c-12.1-0.4-38.7,4-39.5,9.2C1741.6,1200.3,1741.6,1204.8,1741.6,1204.8z"/>
			<path class="st101" d="M1786.3,1179.2c10.9-10.1,28.2,1.3,24.8,16c-3.5,14.7,1.6,14.6,9.7,13.4c0,0-18.4,20.1-32.8-7.2
				C1771.9,1170.6,1786.3,1179.2,1786.3,1179.2z"/>
			<path class="st100" d="M1782.1,1178.6c6.7-1.9,14.6,11,8.6,21.5C1782.5,1214.5,1782.1,1178.6,1782.1,1178.6z"/>
			<path class="st94" d="M1768.4,1190.5c0,0,1.7,8,9.2,9.8l3.6,11.5l1-7.3l6.4-2l0.3,4.9c0,0,3.5-14.1-2.2-25.2
				c-5.7-11.1-18.5-11.5-21.8-11.3c-6.7,0.5-29.4,3-23.3,34.9C1741.6,1205.7,1755.9,1205.6,1768.4,1190.5z"/>
			<path class="st95" d="M1782.1,1204.3c1-1.7,3.5-5.9,5.9-3c2.5,3-1.5,14.1-4.4,13.8L1782.1,1204.3z"/>
			<polygon class="st95" points="1709.8,1274 1661.7,1229.9 1656.4,1238.7 1701.6,1291.8 1714.5,1291.9 1723,1284 1713,1271 			"/>
			<path class="st95" d="M1662.7,1228.2l-1.5-7c-0.1-0.6-0.5-1.2-0.9-1.6l-3.1-2.9c-1-0.9-2.4-1.1-3.6-0.5l-1.7,0.9l-5.1-2.9
				c-0.9-0.5-2.1-0.3-2.7,0.5l-0.4,0.4c-0.6,0.7-0.7,1.7-0.2,2.4l0,0c0.5,0.9,0.6,2,0.3,3l-2.1,6.9c-0.3,1,0,2.1,0.8,2.8l4.7,4
				l9.3,4.3l6.8-5.5L1662.7,1228.2z"/>
			<polygon class="st102" points="1762.1,1248.7 1709.7,1268.7 1723,1288.3 1751.8,1283.1 			"/>
			<path class="st100" d="M1780.6,1239.2l27.5,21.8l-7.9,94.2l-50.5,0.5l-5.1-52.5c0,0-5.1-7-4.9-20.3c0.2-13.3,13.4-22,18.7-28.7
				c2.6-3.2,7.5-14.8,7.5-14.8L1780.6,1239.2z"/>
			<polygon class="st102" points="1802.3,1306.1 1802.1,1283.3 1806.4,1313.4 			"/>
			<path class="st102" d="M1804.5,1302.1c-3.3,16-30.1,12.9-30.1,12.9s23,6,28.7,3.2C1803.2,1318.1,1804.5,1302.1,1804.5,1302.1z"/>
			<path class="st95" d="M1814.4,1321.5l-30.6-40.9l-6.9,7.7l32.1,55.8c1.7,2.9,4.7,4.8,8.1,4.9l0,0c5.5,0.3,10.1-4.1,10.3-9.6
				l0.2-10.6L1814.4,1321.5z"/>
			<path class="st95" d="M1785.1,1279.1l-0.2-7.2c0-0.6-0.2-1.3-0.6-1.8l-2.5-3.4c-0.8-1.1-2.2-1.5-3.4-1.1l-1.8,0.6l-4.5-3.8
				c-0.8-0.7-2-0.7-2.8,0l-0.4,0.4c-0.7,0.6-1,1.5-0.7,2.4l0,0c0.3,1,0.2,2.1-0.3,3l-3.3,6.4c-0.5,0.9-0.4,2.1,0.3,2.9l3.9,4.8
				l8.4,5.9l7.7-4.2L1785.1,1279.1z"/>
			<polygon class="st98" points="1814.4,1321.5 1827.6,1335.6 1827.7,1328.8 			"/>
			<g>
				
					<rect x="1646.8" y="1195.9" transform="matrix(0.965 0.2624 -0.2624 0.965 379.0884 -390.7005)" class="st103" width="10.9" height="55.9"/>
				<circle class="st92" cx="1671.9" cy="1151.6" r="53.3"/>
				
					<ellipse transform="matrix(0.2773 -0.9608 0.9608 0.2773 101.77 2438.5806)" class="st3" cx="1671.9" cy="1151.6" rx="41.3" ry="41.3"/>
			</g>
			<path class="st95" d="M1648.9,1215.5l4.1,2.5c1.5,1,2.4,2.7,2.1,4.5c-0.5,3.4-1.6,8.5-2.8,9.5c-1.9,1.5-7.7-0.6-7.7-0.6l-1.1-3.7
				L1648.9,1215.5z"/>
		</g>
	</g>
	<path class="st104" d="M1710.3,1076.3l187.3-15.8c4.8-0.4,8.9,3.4,8.9,8.2v19.5c0,4.3-3.4,7.9-7.7,8.2l-187.3,12.6
		c-4.8,0.3-8.8-3.5-8.8-8.2v-16.3C1702.7,1080.3,1706,1076.7,1710.3,1076.3z"/>
	<path class="st71" d="M1892.8,1205.2l-66.5,4.6c-4.3,0.3-7.9-3.1-7.9-7.3V1136c0-3.9,3-7.1,6.9-7.3l66.5-4.6
		c4.3-0.3,7.9,3.1,7.9,7.3v66.5C1899.6,1201.8,1896.6,1205,1892.8,1205.2z"/>
	<g>
		<path class="st69" d="M323.2,1027.3v624.1c0,17,14.7,30.2,31.6,28.4l220.5-23.5c14.5-1.5,25.5-13.8,25.5-28.4v-582.1
			c0-14.8-11.4-27.2-26.2-28.5l-220.5-18.5C337.5,997.4,323.2,1010.5,323.2,1027.3L323.2,1027.3z"/>
		<path class="st70" d="M336.2,1027.3v624.1c0,17,14.7,30.2,31.6,28.4l220.5-23.5c14.5-1.5,25.5-13.8,25.5-28.4v-582.1
			c0-14.8-11.4-27.2-26.2-28.5l-220.5-18.5C350.4,997.4,336.2,1010.5,336.2,1027.3L336.2,1027.3z"/>
		<polygon class="st61" points="359,1058.6 359,1594.3 607.9,1572.5 607.9,1051.5 359,1030 		"/>
		<path class="st71" d="M513,1212.2l66.5,4.6c4.3,0.3,7.9-3.1,7.9-7.3v-66.5c0-3.9-3-7.1-6.9-7.3L514,1131c-4.3-0.3-7.9,3.1-7.9,7.3
			v66.5C506.1,1208.7,509.1,1211.9,513,1212.2z"/>
		<path class="st69" d="M521.3,1625.1c0,9.6-6.1,17.5-13.7,17.5s-13.7-7.8-13.7-17.5s6.1-17.5,13.7-17.5S521.3,1615.5,521.3,1625.1z
			"/>
	</g>
	<path class="st104" d="M579.8,1076.3l-187.3-15.8c-4.8-0.4-8.9,3.4-8.9,8.2v19.5c0,4.3,3.4,7.9,7.7,8.2l187.3,12.6
		c4.8,0.3,8.8-3.5,8.8-8.2v-16.3C587.4,1080.3,584.1,1076.7,579.8,1076.3z"/>
	<path class="st71" d="M397.3,1205.2l66.5,4.6c4.3,0.3,7.9-3.1,7.9-7.3V1136c0-3.9-3-7.1-6.9-7.3l-66.5-4.6
		c-4.3-0.3-7.9,3.1-7.9,7.3v66.5C390.5,1201.8,393.5,1205,397.3,1205.2z"/>
	<g>
		<defs>
			<polygon id="SVGID_50_" points="359,1058.6 359,1594.3 656.9,1568.2 846.8,959.1 359,1030 			"/>
		</defs>
		<clipPath id="SVGID_51_">
			<use xlink:href="#SVGID_50_"  style="overflow:visible;"/>
		</clipPath>
		<g class="st105">
			<g>
				<g>
					<path class="st74" d="M640.4,1177.3l-18,23.3c-10.1,13-21.2,25.1-33.3,36.2l-10.7,9.8l-13.3-7.8l24-28.7l43.4-40.6
						c0,0-1.4-4.9-0.1-11.8c0.9-4.9-5.2-12.7-1.9-16c3.2-3.2,8.7,6.7,8.7,6.7s12.4-7,16.3-4c2.4,1.9,3.1,3.6,1.1,6
						c0,0,11,13.7,5,19.1C655.6,1174.7,652.5,1174.7,640.4,1177.3z"/>
					<path class="st74" d="M580.8,1245l57-64.4l-7.8-8.7l-63.5,57l-8.6,1.9l-0.3,22.2l17.5-4.2C577.4,1248,579.3,1246.7,580.8,1245z
						"/>
					<polygon class="st106" points="559.6,1229.1 560.9,1255.9 477.1,1295.5 495.2,1243.8 					"/>
					<path class="st106" d="M636.6,1188.2l-52.2,56.6c-3.5,3.8-8,6.6-12.9,8l-10.5,3.1l-1.4-26.8c4.7-1.2,9-3.5,12.5-6.8l50.7-47.3
						L636.6,1188.2z"/>
					<path class="st106" d="M465.1,1235.6l-21.1-3.5L425,1281v37l-2.6,38.2c0,2.5,2,4.4,4.4,4.4h76c1.2,0,2.2-1,2.2-2.2l0.5-115.4
						l-27.3-7.1L465.1,1235.6z"/>
					
						<linearGradient id="SVGID_52_" gradientUnits="userSpaceOnUse" x1="25397.8047" y1="1221.4799" x2="25390.8574" y2="1278.0992" gradientTransform="matrix(-1 0 0 1 25872.4473 0)">
						<stop  offset="0" style="stop-color:#F8F3ED"/>
						<stop  offset="1" style="stop-color:#ECDAC7"/>
					</linearGradient>
					<path class="st107" d="M461.2,1235l12.6,27.7c2.3,5.1,9.8,4.5,11.3-0.9l6.6-24C491.7,1237.8,473.1,1232.8,461.2,1235z"/>
					<polygon class="st74" points="610,1636.3 613.9,1648.4 602.6,1652.8 595.3,1637.2 					"/>
					<path class="st77" d="M599.7,1648.9l13.2-4c0,0,2.5,5.4,13,3.9c10.5-1.4,22.3-4.1,26.9,11.1l-34.9,10.6l-2.8-3.5l-0.4,4.5
						l-7.5,2.3L599.7,1648.9z"/>
					<polygon class="st74" points="274.5,1538.7 261.8,1540.2 262.6,1552.3 279.8,1552.4 					"/>
					<path class="st77" d="M265.3,1538.6l1.9,13.7c0,0-5.7,1.6-5.9,12.2c-0.2,10.6,0.6,22.6-15.2,24.8l-5-36.1l3.9-2.2l-4.4-1.1
						l-1.1-7.8L265.3,1538.6z"/>
					<path class="st78" d="M487.4,1225.5v15.2c0,4.3-3.5,7.8-7.8,7.8l0,0c-4.3,0-7.8-3.5-7.8-7.8V1213L487.4,1225.5z"/>
					<path class="st74" d="M508.2,1203.2c-1,8.5-4.9,28.2-18.7,28.9c-17.3,0.9-23.2-16.4-24.1-23.4c-0.6-5-6.4-24.3,5.2-24.6
						c11.6-0.4,36.7,2.3,37.4,7.3C508.7,1196.4,508.6,1200.3,508.2,1203.2z"/>
					<path class="st79" d="M470.5,1197.7c12.8,11.7,41.5,1.6,46.8-9.6c5.3-11.2,0-27.2-12.2-24.5c-12.2,2.7-14.4,8-14.4,8
						s-10.6-1.6-12.8,1.6c0,0-13.1,1.4-16.3,12.1c-3.2,10.6-0.2,20,5.7,30.1L470.5,1197.7z"/>
					<path class="st74" d="M470.3,1201.7c-0.9-1.7-3.3-5.7-5.7-2.8s1.4,13.5,4.3,13.3L470.3,1201.7z"/>
					<path class="st99" d="M474.3,1198.2l-3.6,10.2c0,0-0.2-7.7-3-11.8S474.3,1198.2,474.3,1198.2z"/>
					<path class="st108" d="M481,1378.4L481,1378.4c3,3.2,3.6,8,5.2,10.8l-64.9,137.4c-4.1,8.7-12.5,14.7-22.1,15.8l-123.1,14
						l-3.6-18l119-30.3l25.5-129.8c1.1-5.6,5.6-9.8,11.2-10.7l22.3-3.4L481,1378.4z"/>
					<path class="st81" d="M498.9,1367.2L498.9,1367.2c1.1-0.2,2.2-0.3,3.2-0.2c5.1,0.3,9.8,3.1,12.6,7.4l79.8,121.6
						c2.3,3.6,3.8,7.6,4.2,11.9l12,129.2l-16.2,6.1L563.7,1511l-52-41.8c-34.1-27.5-56.4-63.6-78.7-101.3l-1.4-2.3L498.9,1367.2z"/>
					<path class="st74" d="M313.8,1398.9c-0.1,1.8,4.9,5,7.9,5.9c0,0,0.1,0,0.1,0.1c0.5,1,1.2,1.8,2.3,1.9l1.7,0.3
						c0.7,0.1,1.3,0,1.9-0.3l3.4-2c0,0-0.7-0.2,0.6-3.6c0,0,0,0,0-0.1c1-1.8,1.8-4.2,2.5-7.2c1.2-5.3,1.2-9.8,1.2-9.8l28-52.4
						l13.5-35l-15.1-3.1l-6.9,12.7c-7.9,14.4-14.5,29.5-19.8,45l-9.6,27.9C325.5,1379.2,314.7,1386.5,313.8,1398.9z"/>
					<path class="st74" d="M360,1295.9l-33.2,79.4l10.2,5.7l41.7-74.4l7.6-4.5l-6.9-21.1l-15.2,9.6
						C362.3,1292,360.9,1293.8,360,1295.9z"/>
					<rect x="424.9" y="1360.8" class="st109" width="78.4" height="7.4"/>
					<path class="st106" d="M446.5,1281.2l-58.5,25v0c-4.8,2.9-8.7,7-11.4,11.8l-35.6,63l-16.3-8c6.6-19.8,25.1-58.8,32.8-74.5
						c2.2-4.5,5.4-8.4,9.3-11.5l11.5-9l0,0l51.6-41.9c4.4-3.5,10.1-4.9,15.6-3.7h0L446.5,1281.2z"/>
					<path class="st74" d="M630.6,1178.5"/>
				</g>
				<path class="st74" d="M335.5,1384.2c2.8,6.9,0.1,14.6,3.3,15.6c3.2,1,2.4,3.5,0.7,3c-1.7-0.5-5-1.5-6.6-4.4
					C331.3,1395.6,335.5,1384.2,335.5,1384.2z"/>
			</g>
		</g>
		<g class="st105">
			
				<rect x="635.7" y="1133.2" transform="matrix(0.9859 0.1674 -0.1674 0.9859 203.4755 -90.953)" class="st103" width="10.9" height="55.9"/>
			
				<ellipse transform="matrix(0.897 -0.442 0.442 0.897 -413.2692 400.835)" class="st92" cx="653.6" cy="1087.4" rx="53.3" ry="53.3"/>
			
				<ellipse transform="matrix(0.8155 -0.5787 0.5787 0.8155 -508.7017 578.8546)" class="st3" cx="653.6" cy="1087.4" rx="41.3" ry="41.3"/>
		</g>
		<path class="st110" d="M634.5,1147.2c-10.2,4.6-13,13.5-9.4,20.6c3.6,7.1,4.5,8.5,12.6,4.6
			C645.8,1168.7,634.5,1147.2,634.5,1147.2z"/>
	</g>
	<g>
		<linearGradient id="SVGID_53_" gradientUnits="userSpaceOnUse" x1="1401.8044" y1="700.0523" x2="1414.6012" y2="1275.9205">
			<stop  offset="0" style="stop-color:#FFF15A"/>
			<stop  offset="0.154" style="stop-color:#FFE25A"/>
			<stop  offset="0.408" style="stop-color:#FFD159"/>
			<stop  offset="0.6802" style="stop-color:#FFC659"/>
			<stop  offset="1" style="stop-color:#FFC359"/>
		</linearGradient>
		<path class="st111" d="M1472.9,700.3v102c0,23.5-11.6,44.4-29.5,57c-14.4,10.2-22.7,27.1-22.7,44.8v48.7h-35.5v-48.7
			c0-17.7-8.3-34.6-22.7-44.8c-17.8-12.7-29.5-33.5-29.5-57v-102H1472.9z"/>
		<linearGradient id="SVGID_54_" gradientUnits="userSpaceOnUse" x1="1403.0382" y1="715.9457" x2="1402.5726" y2="684.7523">
			<stop  offset="0" style="stop-color:#FFE15A"/>
			<stop  offset="1.065952e-02" style="stop-color:#FFDF5A"/>
			<stop  offset="0.1858" style="stop-color:#FFBF5A"/>
			<stop  offset="0.3681" style="stop-color:#FFA659"/>
			<stop  offset="0.5582" style="stop-color:#FF9559"/>
			<stop  offset="0.7614" style="stop-color:#FF8A59"/>
			<stop  offset="1" style="stop-color:#FF8759"/>
		</linearGradient>
		<rect x="1333" y="706.1" class="st112" width="139.8" height="8.2"/>
		<linearGradient id="SVGID_55_" gradientUnits="userSpaceOnUse" x1="1403.4111" y1="941.6761" x2="1400.6238" y2="984.8807">
			<stop  offset="0" style="stop-color:#FFC459"/>
			<stop  offset="3.662437e-02" style="stop-color:#FFBF59"/>
			<stop  offset="0.2513" style="stop-color:#FFA659"/>
			<stop  offset="0.4765" style="stop-color:#FF9559"/>
			<stop  offset="0.7172" style="stop-color:#FF8A59"/>
			<stop  offset="1" style="stop-color:#FF8759"/>
		</linearGradient>
		<polygon class="st113" points="1385.1,944.7 1420.8,944.7 1420.8,952.9 1385.1,952.9 		"/>
		<path class="st0" d="M1467.5,700.3v102c0,23.6-11.6,44.4-29.5,57c-14.4,10.2-22.7,27.1-22.7,44.8v48.7H1403v-48.7
			c0-17.7,8.2-34.6,22.7-44.8c17.8-12.7,29.5-33.5,29.5-57v-102H1467.5z"/>
		<linearGradient id="SVGID_56_" gradientUnits="userSpaceOnUse" x1="1403.4928" y1="940.5835" x2="1402.222" y2="983.1511">
			<stop  offset="0" style="stop-color:#FFF15A"/>
			<stop  offset="0.154" style="stop-color:#FFE25A"/>
			<stop  offset="0.408" style="stop-color:#FFD159"/>
			<stop  offset="0.6802" style="stop-color:#FFC659"/>
			<stop  offset="1" style="stop-color:#FFC359"/>
		</linearGradient>
		<path class="st114" d="M1440,964.5h-74.1c-3.2,0-5.8-2.6-5.8-5.8l0,0c0-3.2,2.6-5.8,5.8-5.8h74.1c3.2,0,5.8,2.6,5.8,5.8l0,0
			C1445.8,961.9,1443.2,964.5,1440,964.5z"/>
		<path class="st0" d="M1425.2,958.7c0,1.6-0.6,3-1.7,4.1c-1,1.1-2.5,1.7-4.1,1.7h-12c1.6,0,3-0.6,4.1-1.7c1-1,1.7-2.5,1.7-4.1
			c0-3.2-2.6-5.8-5.8-5.8h12C1422.6,952.9,1425.2,955.5,1425.2,958.7z"/>
		<linearGradient id="SVGID_57_" gradientUnits="userSpaceOnUse" x1="1402.4525" y1="672.556" x2="1403.829" y2="748.9504">
			<stop  offset="0" style="stop-color:#FFF15A"/>
			<stop  offset="0.154" style="stop-color:#FFE25A"/>
			<stop  offset="0.408" style="stop-color:#FFD159"/>
			<stop  offset="0.6802" style="stop-color:#FFC659"/>
			<stop  offset="1" style="stop-color:#FFC359"/>
		</linearGradient>
		<path class="st115" d="M1471,706.1h-136c-3.2,0-5.8-2.6-5.8-5.8l0,0c0-3.2,2.6-5.8,5.8-5.8h136c3.2,0,5.8,2.6,5.8,5.8l0,0
			C1476.7,703.5,1474.2,706.1,1471,706.1z"/>
		<path class="st0" d="M1473.4,698v4.6c0,1.9-1.6,3.5-3.5,3.5h-11.4c1.9,0,3.5-1.6,3.5-3.5V698c0-1.9-1.6-3.5-3.5-3.5h11.4
			C1471.9,694.5,1473.4,696.1,1473.4,698z"/>
		<circle class="st0" cx="1403" cy="793.4" r="38.4"/>
		<linearGradient id="SVGID_58_" gradientUnits="userSpaceOnUse" x1="1404.1675" y1="762.5953" x2="1394.3901" y2="968.6151">
			<stop  offset="0" style="stop-color:#FFA65A"/>
			<stop  offset="8.706391e-02" style="stop-color:#FF995A"/>
			<stop  offset="0.2905" style="stop-color:#FF8059"/>
			<stop  offset="0.504" style="stop-color:#FF6F59"/>
			<stop  offset="0.732" style="stop-color:#FF6459"/>
			<stop  offset="1" style="stop-color:#FF6159"/>
		</linearGradient>
		<circle class="st116" cx="1403" cy="788.2" r="38.4"/>
		<linearGradient id="SVGID_59_" gradientUnits="userSpaceOnUse" x1="1404.776" y1="749.8267" x2="1402.745" y2="792.6245">
			<stop  offset="0" style="stop-color:#FFA65A"/>
			<stop  offset="8.706391e-02" style="stop-color:#FF995A"/>
			<stop  offset="0.2905" style="stop-color:#FF8059"/>
			<stop  offset="0.504" style="stop-color:#FF6F59"/>
			<stop  offset="0.732" style="stop-color:#FF6459"/>
			<stop  offset="1" style="stop-color:#FF6159"/>
		</linearGradient>
		<path class="st117" d="M1441.4,788.2c0,0.9,0,1.7-0.1,2.6c-1.3-20-18-35.8-38.3-35.8c-20.3,0-37,15.8-38.3,35.8
			c-0.1-0.9-0.1-1.7-0.1-2.6c0-21.2,17.2-38.4,38.4-38.4C1424.2,749.8,1441.4,767,1441.4,788.2z"/>
		<polygon class="st118" points="1395.2,779 1403,763.3 1410.7,779 1428,781.6 1415.4,793.7 1418.3,811 1402.9,802.8 1387.4,810.9 
			1390.4,793.7 1377.9,781.4 		"/>
	</g>
	<g>
		<linearGradient id="SVGID_60_" gradientUnits="userSpaceOnUse" x1="1548.3473" y1="757.0552" x2="1558.3853" y2="1208.7755">
			<stop  offset="0" style="stop-color:#FFF15A"/>
			<stop  offset="0.154" style="stop-color:#FFE25A"/>
			<stop  offset="0.408" style="stop-color:#FFD159"/>
			<stop  offset="0.6802" style="stop-color:#FFC659"/>
			<stop  offset="1" style="stop-color:#FFC359"/>
		</linearGradient>
		<path class="st119" d="M1604.1,757.3v80c0,18.5-9.1,34.8-23.1,44.7c-11.3,8-17.8,21.3-17.8,35.1v38.2h-27.9v-38.2
			c0-13.9-6.5-27.1-17.8-35.1c-14-9.9-23.1-26.3-23.1-44.7v-80H1604.1z"/>
		<linearGradient id="SVGID_61_" gradientUnits="userSpaceOnUse" x1="1549.3152" y1="769.5223" x2="1548.95" y2="745.0536">
			<stop  offset="0" style="stop-color:#FFE15A"/>
			<stop  offset="1.065952e-02" style="stop-color:#FFDF5A"/>
			<stop  offset="0.1858" style="stop-color:#FFBF5A"/>
			<stop  offset="0.3681" style="stop-color:#FFA659"/>
			<stop  offset="0.5582" style="stop-color:#FF9559"/>
			<stop  offset="0.7614" style="stop-color:#FF8A59"/>
			<stop  offset="1" style="stop-color:#FF8759"/>
		</linearGradient>
		<rect x="1494.4" y="761.8" class="st120" width="109.7" height="6.5"/>
		<linearGradient id="SVGID_62_" gradientUnits="userSpaceOnUse" x1="1549.6078" y1="946.5887" x2="1547.4213" y2="980.4795">
			<stop  offset="0" style="stop-color:#FFC459"/>
			<stop  offset="3.662437e-02" style="stop-color:#FFBF59"/>
			<stop  offset="0.2513" style="stop-color:#FFA659"/>
			<stop  offset="0.4765" style="stop-color:#FF9559"/>
			<stop  offset="0.7172" style="stop-color:#FF8A59"/>
			<stop  offset="1" style="stop-color:#FF8759"/>
		</linearGradient>
		<polygon class="st121" points="1535.3,948.9 1563.2,948.9 1563.2,955.4 1535.3,955.4 		"/>
		<path class="st0" d="M1599.9,757.3v80c0,18.5-9.1,34.8-23.1,44.7c-11.3,8-17.8,21.3-17.8,35.1v38.2h-9.7v-38.2
			c0-13.9,6.5-27.1,17.8-35.1c14-9.9,23.1-26.3,23.1-44.7v-80H1599.9z"/>
		<linearGradient id="SVGID_63_" gradientUnits="userSpaceOnUse" x1="1549.6718" y1="945.7318" x2="1548.675" y2="979.1225">
			<stop  offset="0" style="stop-color:#FFF15A"/>
			<stop  offset="0.154" style="stop-color:#FFE25A"/>
			<stop  offset="0.408" style="stop-color:#FFD159"/>
			<stop  offset="0.6802" style="stop-color:#FFC659"/>
			<stop  offset="1" style="stop-color:#FFC359"/>
		</linearGradient>
		<path class="st122" d="M1578.3,964.5h-58.2c-2.5,0-4.5-2-4.5-4.5l0,0c0-2.5,2-4.5,4.5-4.5h58.2c2.5,0,4.5,2,4.5,4.5l0,0
			C1582.9,962.4,1580.8,964.5,1578.3,964.5z"/>
		<path class="st0" d="M1566.7,959.9c0,1.3-0.5,2.4-1.3,3.2c-0.8,0.8-2,1.3-3.2,1.3h-9.5c1.3,0,2.4-0.5,3.2-1.3
			c0.8-0.8,1.3-2,1.3-3.2c0-2.5-2-4.5-4.5-4.5h9.5C1564.7,955.4,1566.7,957.4,1566.7,959.9z"/>
		<linearGradient id="SVGID_64_" gradientUnits="userSpaceOnUse" x1="1548.8557" y1="735.487" x2="1549.9354" y2="795.4113">
			<stop  offset="0" style="stop-color:#FFF15A"/>
			<stop  offset="0.154" style="stop-color:#FFE25A"/>
			<stop  offset="0.408" style="stop-color:#FFD159"/>
			<stop  offset="0.6802" style="stop-color:#FFC659"/>
			<stop  offset="1" style="stop-color:#FFC359"/>
		</linearGradient>
		<path class="st123" d="M1602.6,761.8h-106.7c-2.5,0-4.5-2-4.5-4.5l0,0c0-2.5,2-4.5,4.5-4.5h106.7c2.5,0,4.5,2,4.5,4.5l0,0
			C1607.1,759.8,1605.1,761.8,1602.6,761.8z"/>
		<path class="st0" d="M1604.5,755.4v3.6c0,1.5-1.2,2.7-2.7,2.7h-8.9c1.5,0,2.7-1.2,2.7-2.7v-3.6c0-1.5-1.2-2.7-2.7-2.7h8.9
			C1603.3,752.7,1604.5,753.9,1604.5,755.4z"/>
		
			<ellipse transform="matrix(0.7071 -0.7071 0.7071 0.7071 -133.3498 1338.6744)" class="st0" cx="1549.2" cy="830.3" rx="30.1" ry="30.1"/>
		<linearGradient id="SVGID_65_" gradientUnits="userSpaceOnUse" x1="1550.201" y1="806.115" x2="1542.5316" y2="967.72">
			<stop  offset="0" style="stop-color:#FFA65A"/>
			<stop  offset="8.706391e-02" style="stop-color:#FF995A"/>
			<stop  offset="0.2905" style="stop-color:#FF8059"/>
			<stop  offset="0.504" style="stop-color:#FF6F59"/>
			<stop  offset="0.732" style="stop-color:#FF6459"/>
			<stop  offset="1" style="stop-color:#FF6159"/>
		</linearGradient>
		<circle class="st124" cx="1549.2" cy="826.2" r="30.1"/>
		<linearGradient id="SVGID_66_" gradientUnits="userSpaceOnUse" x1="1550.6785" y1="796.0991" x2="1549.0852" y2="829.6703">
			<stop  offset="0" style="stop-color:#FFA65A"/>
			<stop  offset="8.706391e-02" style="stop-color:#FF995A"/>
			<stop  offset="0.2905" style="stop-color:#FF8059"/>
			<stop  offset="0.504" style="stop-color:#FF6F59"/>
			<stop  offset="0.732" style="stop-color:#FF6459"/>
			<stop  offset="1" style="stop-color:#FF6159"/>
		</linearGradient>
		<path class="st125" d="M1579.4,826.2c0,0.7,0,1.4-0.1,2.1c-1.1-15.7-14.1-28.1-30.1-28.1c-16,0-29,12.4-30.1,28.1
			c0-0.7-0.1-1.4-0.1-2.1c0-16.6,13.5-30.1,30.1-30.1C1565.9,796.1,1579.4,809.6,1579.4,826.2z"/>
		<polygon class="st118" points="1543.2,819 1549.3,806.7 1555.3,819 1568.9,821 1559,830.5 1561.3,844.1 1549.2,837.6 1537.1,844 
			1539.4,830.5 1529.6,820.9 		"/>
	</g>
	<g>
		<linearGradient id="SVGID_67_" gradientUnits="userSpaceOnUse" x1="1261.6412" y1="757.0552" x2="1271.6792" y2="1208.7755">
			<stop  offset="0" style="stop-color:#FFF15A"/>
			<stop  offset="0.154" style="stop-color:#FFE25A"/>
			<stop  offset="0.408" style="stop-color:#FFD159"/>
			<stop  offset="0.6802" style="stop-color:#FFC659"/>
			<stop  offset="1" style="stop-color:#FFC359"/>
		</linearGradient>
		<path class="st126" d="M1317.4,757.3v80c0,18.5-9.1,34.8-23.1,44.7c-11.3,8-17.8,21.3-17.8,35.1v38.2h-27.9v-38.2
			c0-13.9-6.5-27.1-17.8-35.1c-14-9.9-23.1-26.3-23.1-44.7v-80H1317.4z"/>
		<linearGradient id="SVGID_68_" gradientUnits="userSpaceOnUse" x1="1262.6091" y1="769.5223" x2="1262.2439" y2="745.0536">
			<stop  offset="0" style="stop-color:#FFE15A"/>
			<stop  offset="1.065952e-02" style="stop-color:#FFDF5A"/>
			<stop  offset="0.1858" style="stop-color:#FFBF5A"/>
			<stop  offset="0.3681" style="stop-color:#FFA659"/>
			<stop  offset="0.5582" style="stop-color:#FF9559"/>
			<stop  offset="0.7614" style="stop-color:#FF8A59"/>
			<stop  offset="1" style="stop-color:#FF8759"/>
		</linearGradient>
		<rect x="1207.7" y="761.8" class="st127" width="109.7" height="6.5"/>
		<linearGradient id="SVGID_69_" gradientUnits="userSpaceOnUse" x1="1262.9017" y1="946.5887" x2="1260.7152" y2="980.4795">
			<stop  offset="0" style="stop-color:#FFC459"/>
			<stop  offset="3.662437e-02" style="stop-color:#FFBF59"/>
			<stop  offset="0.2513" style="stop-color:#FFA659"/>
			<stop  offset="0.4765" style="stop-color:#FF9559"/>
			<stop  offset="0.7172" style="stop-color:#FF8A59"/>
			<stop  offset="1" style="stop-color:#FF8759"/>
		</linearGradient>
		<polygon class="st128" points="1248.6,948.9 1276.5,948.9 1276.5,955.4 1248.6,955.4 		"/>
		<path class="st0" d="M1313.2,757.3v80c0,18.5-9.1,34.8-23.1,44.7c-11.3,8-17.8,21.3-17.8,35.1v38.2h-9.7v-38.2
			c0-13.9,6.5-27.1,17.8-35.1c14-9.9,23.1-26.3,23.1-44.7v-80H1313.2z"/>
		<linearGradient id="SVGID_70_" gradientUnits="userSpaceOnUse" x1="1262.9657" y1="945.7318" x2="1261.969" y2="979.1225">
			<stop  offset="0" style="stop-color:#FFF15A"/>
			<stop  offset="0.154" style="stop-color:#FFE25A"/>
			<stop  offset="0.408" style="stop-color:#FFD159"/>
			<stop  offset="0.6802" style="stop-color:#FFC659"/>
			<stop  offset="1" style="stop-color:#FFC359"/>
		</linearGradient>
		<path class="st129" d="M1291.6,964.5h-58.2c-2.5,0-4.5-2-4.5-4.5l0,0c0-2.5,2-4.5,4.5-4.5h58.2c2.5,0,4.5,2,4.5,4.5l0,0
			C1296.2,962.4,1294.1,964.5,1291.6,964.5z"/>
		<path class="st0" d="M1280,959.9c0,1.3-0.5,2.4-1.3,3.2c-0.8,0.8-2,1.3-3.2,1.3h-9.5c1.3,0,2.4-0.5,3.2-1.3c0.8-0.8,1.3-2,1.3-3.2
			c0-2.5-2-4.5-4.5-4.5h9.5C1278,955.4,1280,957.4,1280,959.9z"/>
		<linearGradient id="SVGID_71_" gradientUnits="userSpaceOnUse" x1="1262.1497" y1="735.487" x2="1263.2294" y2="795.4113">
			<stop  offset="0" style="stop-color:#FFF15A"/>
			<stop  offset="0.154" style="stop-color:#FFE25A"/>
			<stop  offset="0.408" style="stop-color:#FFD159"/>
			<stop  offset="0.6802" style="stop-color:#FFC659"/>
			<stop  offset="1" style="stop-color:#FFC359"/>
		</linearGradient>
		<path class="st130" d="M1315.9,761.8h-106.7c-2.5,0-4.5-2-4.5-4.5l0,0c0-2.5,2-4.5,4.5-4.5h106.7c2.5,0,4.5,2,4.5,4.5l0,0
			C1320.4,759.8,1318.4,761.8,1315.9,761.8z"/>
		<path class="st0" d="M1317.8,755.4v3.6c0,1.5-1.2,2.7-2.7,2.7h-8.9c1.5,0,2.7-1.2,2.7-2.7v-3.6c0-1.5-1.2-2.7-2.7-2.7h8.9
			C1316.6,752.7,1317.8,753.9,1317.8,755.4z"/>
		
			<ellipse transform="matrix(0.7071 -0.7071 0.7071 0.7071 -217.3241 1135.9426)" class="st0" cx="1262.5" cy="830.3" rx="30.1" ry="30.1"/>
		<linearGradient id="SVGID_72_" gradientUnits="userSpaceOnUse" x1="1263.4949" y1="806.115" x2="1255.8254" y2="967.72">
			<stop  offset="0" style="stop-color:#FFA65A"/>
			<stop  offset="8.706391e-02" style="stop-color:#FF995A"/>
			<stop  offset="0.2905" style="stop-color:#FF8059"/>
			<stop  offset="0.504" style="stop-color:#FF6F59"/>
			<stop  offset="0.732" style="stop-color:#FF6459"/>
			<stop  offset="1" style="stop-color:#FF6159"/>
		</linearGradient>
		<circle class="st131" cx="1262.5" cy="826.2" r="30.1"/>
		<linearGradient id="SVGID_73_" gradientUnits="userSpaceOnUse" x1="1263.9723" y1="796.0991" x2="1262.3792" y2="829.6703">
			<stop  offset="0" style="stop-color:#FFA65A"/>
			<stop  offset="8.706391e-02" style="stop-color:#FF995A"/>
			<stop  offset="0.2905" style="stop-color:#FF8059"/>
			<stop  offset="0.504" style="stop-color:#FF6F59"/>
			<stop  offset="0.732" style="stop-color:#FF6459"/>
			<stop  offset="1" style="stop-color:#FF6159"/>
		</linearGradient>
		<path class="st132" d="M1292.7,826.2c0,0.7,0,1.4-0.1,2.1c-1.1-15.7-14.1-28.1-30.1-28.1c-16,0-29,12.4-30.1,28.1
			c0-0.7-0.1-1.4-0.1-2.1c0-16.6,13.5-30.1,30.1-30.1C1279.2,796.1,1292.7,809.6,1292.7,826.2z"/>
		<polygon class="st118" points="1256.5,819 1262.6,806.7 1268.6,819 1282.2,821 1272.3,830.5 1274.6,844.1 1262.5,837.6 
			1250.4,844 1252.7,830.5 1242.9,820.9 		"/>
	</g>
	<g>
		<circle class="st133" cx="1370" cy="1180.7" r="65.5"/>
		<rect x="1361.7" y="1185.7" class="st134" width="16.6" height="65"/>
		<path class="st135" d="M1398.1,1233.5h-55.4c-0.9,0-1.6-0.7-1.6-1.6v-48.4c0-3.1,2.5-5.7,5.7-5.7h47.2c3.1,0,5.7,2.5,5.7,5.7v48.4
			C1399.7,1232.8,1399,1233.5,1398.1,1233.5z"/>
		<rect x="1380.2" y="1177.9" class="st3" width="7" height="55.6"/>
		<g>
			
				<rect x="1486.5" y="1230.4" transform="matrix(0.8501 0.5266 -0.5266 0.8501 889.1596 -597.8903)" class="st134" width="16.6" height="65"/>
			<path class="st135" d="M1510.6,1290.8l-47.1-29.2c-0.7-0.5-1-1.4-0.5-2.2l25.5-41.1c1.7-2.7,5.2-3.5,7.8-1.8l40.1,24.8
				c2.7,1.7,3.5,5.2,1.8,7.8l-25.5,41.1C1512.3,1291,1511.3,1291.3,1510.6,1290.8z"/>
			
				<rect x="1509.5" y="1231.8" transform="matrix(0.8501 0.5266 -0.5266 0.8501 890.1049 -607.9573)" class="st3" width="7" height="55.6"/>
		</g>
		<g>
			
				<rect x="1232.5" y="1230.4" transform="matrix(-0.8501 0.5266 -0.5266 -0.8501 2960.6699 1683.1221)" class="st134" width="16.6" height="65"/>
			<path class="st135" d="M1225,1290.8l47.1-29.2c0.7-0.5,1-1.4,0.5-2.2l-25.5-41.1c-1.7-2.7-5.2-3.5-7.8-1.8l-40.1,24.8
				c-2.7,1.7-3.5,5.2-1.8,7.8l25.5,41.1C1223.3,1291,1224.3,1291.3,1225,1290.8z"/>
			
				<rect x="1219.1" y="1231.8" transform="matrix(-0.8501 0.5266 -0.5266 -0.8501 2925.291 1686.48)" class="st3" width="7" height="55.6"/>
		</g>
		<circle class="st136" cx="1368.6" cy="1462.7" r="212"/>
		<circle class="st137" cx="1368.6" cy="1462.7" r="187.5"/>
		<linearGradient id="SVGID_74_" gradientUnits="userSpaceOnUse" x1="1375.3026" y1="1239.2849" x2="1361.6854" y2="1694.691">
			<stop  offset="0" style="stop-color:#F8F3ED"/>
			<stop  offset="1" style="stop-color:#ECDAC7"/>
		</linearGradient>
		<circle class="st138" cx="1368.6" cy="1464" r="175.9"/>
		<path class="st139" d="M1544.5,1464c0,2.1,0,4.1-0.1,6.2c-3.3-94.3-80.7-169.7-175.8-169.7c-95.1,0-172.5,75.4-175.8,169.7
			c-0.1-2-0.1-4.1-0.1-6.2c0-97.1,78.7-175.9,175.9-175.9C1465.7,1288.1,1544.5,1366.8,1544.5,1464z"/>
		<rect x="1365.1" y="1344.5" class="st100" width="7.1" height="119.5"/>
		
			<rect x="1388.2" y="1332.2" transform="matrix(0.9568 0.2908 -0.2908 0.9568 467.1941 -343.6713)" class="st140" width="3.2" height="135.7"/>
		
			<rect x="1323.8" y="1445.9" transform="matrix(0.7071 0.7071 -0.7071 0.7071 1453.4698 -497.5734)" class="st140" width="7.1" height="119.5"/>
		<path class="st140" d="M1383.7,1464c0,8.4-6.8,15.1-15.1,15.1s-15.1-6.8-15.1-15.1s6.8-15.1,15.1-15.1S1383.7,1455.6,1383.7,1464z
			"/>
		<path class="st141" d="M1375,1464c0,3.6-2.9,6.4-6.4,6.4s-6.4-2.9-6.4-6.4c0-3.6,2.9-6.4,6.4-6.4S1375,1460.4,1375,1464z"/>
		<g>
			<g>
				<path class="st140" d="M1368.6,1318L1368.6,1318c-1.5,0-2.6-1.2-2.6-2.6v-12.2c0-1.5,1.2-2.6,2.6-2.6l0,0c1.5,0,2.6,1.2,2.6,2.6
					v12.2C1371.2,1316.8,1370,1318,1368.6,1318z"/>
				<path class="st140" d="M1368.6,1627.5L1368.6,1627.5c-1.5,0-2.6-1.2-2.6-2.6v-12.2c0-1.5,1.2-2.6,2.6-2.6l0,0
					c1.5,0,2.6,1.2,2.6,2.6v12.2C1371.2,1626.3,1370,1627.5,1368.6,1627.5z"/>
				<path class="st140" d="M1514.6,1464L1514.6,1464c0-1.5,1.2-2.6,2.6-2.6h12.2c1.5,0,2.6,1.2,2.6,2.6l0,0c0,1.5-1.2,2.6-2.6,2.6
					h-12.2C1515.8,1466.6,1514.6,1465.4,1514.6,1464z"/>
				<path class="st140" d="M1205.1,1464L1205.1,1464c0-1.5,1.2-2.6,2.6-2.6h12.2c1.5,0,2.6,1.2,2.6,2.6l0,0c0,1.5-1.2,2.6-2.6,2.6
					h-12.2C1206.2,1466.6,1205.1,1465.4,1205.1,1464z"/>
				<path class="st140" d="M1495.7,1535.7L1495.7,1535.7c0.7-1.3,2.3-1.7,3.6-1l10.7,6c1.3,0.7,1.7,2.3,1,3.6l0,0
					c-0.7,1.3-2.3,1.7-3.6,1l-10.7-6C1495.5,1538.6,1495,1537,1495.7,1535.7z"/>
				<path class="st140" d="M1226.2,1383.6L1226.2,1383.6c0.7-1.3,2.3-1.7,3.6-1l10.7,6c1.3,0.7,1.7,2.3,1,3.6l0,0
					c-0.7,1.3-2.3,1.7-3.6,1l-10.7-6C1225.9,1386.5,1225.4,1384.9,1226.2,1383.6z"/>
				<path class="st140" d="M1296.8,1591.2L1296.8,1591.2c1.3,0.7,1.7,2.3,1,3.6l-6,10.7c-0.7,1.3-2.3,1.7-3.6,1l0,0
					c-1.3-0.7-1.7-2.3-1-3.6l6-10.7C1294,1590.9,1295.6,1590.4,1296.8,1591.2z"/>
				<path class="st140" d="M1448.9,1321.6L1448.9,1321.6c1.3,0.7,1.7,2.3,1,3.6l-6,10.7c-0.7,1.3-2.3,1.7-3.6,1l0,0
					c-1.3-0.7-1.7-2.3-1-3.6l6-10.7C1446,1321.3,1447.7,1320.8,1448.9,1321.6z"/>
				<path class="st140" d="M1441.5,1590.5L1441.5,1590.5c1.3-0.7,2.9-0.3,3.6,1l6.1,10.6c0.7,1.3,0.3,2.9-1,3.6l0,0
					c-1.3,0.7-2.9,0.3-3.6-1l-6.1-10.6C1439.8,1592.9,1440.2,1591.2,1441.5,1590.5z"/>
				<path class="st140" d="M1287,1322.3L1287,1322.3c1.3-0.7,2.9-0.3,3.6,1l6.1,10.6c0.7,1.3,0.3,2.9-1,3.6l0,0
					c-1.3,0.7-2.9,0.3-3.6-1l-6.1-10.6C1285.3,1324.6,1285.7,1323,1287,1322.3z"/>
				<path class="st140" d="M1242.1,1536.9L1242.1,1536.9c0.7,1.3,0.3,2.9-1,3.6l-10.6,6.1c-1.3,0.7-2.9,0.3-3.6-1l0,0
					c-0.7-1.3-0.3-2.9,1-3.6l10.6-6.1C1239.7,1535.2,1241.3,1535.6,1242.1,1536.9z"/>
				<path class="st140" d="M1510.3,1382.4L1510.3,1382.4c0.7,1.3,0.3,2.9-1,3.6l-10.6,6.1c-1.3,0.7-2.9,0.3-3.6-1l0,0
					c-0.7-1.3-0.3-2.9,1-3.6l10.6-6.1C1507.9,1380.7,1509.6,1381.1,1510.3,1382.4z"/>
			</g>
		</g>
		<path class="st142" d="M1523.3,1464c0,2.6-0.1,5.2-0.2,7.8c-4.2-73.8-75.3-104.5-158.1-104.5c-82.8,0-146.9,30.7-151,104.5
			c-0.1-2.6-0.2-5.2-0.2-7.8c0-85.5,69.3-154.8,154.8-154.8C1454.1,1309.2,1523.3,1378.5,1523.3,1464z"/>
	</g>
</g>
</svg>
