<?xml version="1.0" encoding="utf-8"?>
<!-- Generator: Adobe Illustrator 24.3.0, SVG Export Plug-In . SVG Version: 6.00 Build 0)  -->
<svg version="1.1" id="Layer_1" xmlns="http://www.w3.org/2000/svg" xmlns:xlink="http://www.w3.org/1999/xlink" x="0px" y="0px"
	 viewBox="0 0 900 900" style="enable-background:new 0 0 900 900;" xml:space="preserve">
<style type="text/css">
	.st0{fill:#FCCD9D;}
	.st1{fill:#FFF04A;}
	.st2{fill:#FFB454;}
	.st3{fill:#00337A;}
	.st4{fill:#002659;}
	.st5{fill:#E2DFF4;}
	.st6{fill:#D5D3EA;}
	.st7{fill:#F9F9F9;}
</style>
<g>
	<path class="st0" d="M701.8,900l119.8-206.1c39.6-68.1,60.5-145.6,60.5-224.4V233.7c0-28.8-23.3-52.1-52.1-52.1
		c-28.8,0-52.1,23.3-52.1,52.1v168.9c0,55-20.8,108-58.2,148.3l-94.3,105.9L719.7,551c19.7-22.1,15.7-56.4-8.5-73.4
		c-19.6-13.8-46.2-11.6-63.2,5.2l-95.3,93.8c-31.1,30.6-48.6,72.3-48.6,115.9v206.2L701.8,900z"/>
	<path class="st0" d="M198.2,900L78.4,693.9c-39.6-68.1-60.5-145.6-60.5-224.4V233.7c0-28.8,23.3-52.1,52.1-52.1
		c28.8,0,52.1,23.3,52.1,52.1v168.9c0,55,20.8,108,58.2,148.3l94.3,105.9L180.3,551c-19.7-22.1-15.7-56.4,8.5-73.4
		c19.6-13.8,46.2-11.6,63.2,5.2l95.3,93.8c31.1,30.6,48.6,72.3,48.6,115.9v206.2"/>
	<g>
		<circle class="st1" cx="450" cy="231" r="231"/>
		<path class="st2" d="M450,0c-0.4,0-0.8,0-1.3,0v461.9c0.4,0,0.8,0,1.3,0c127.6,0,231-103.4,231-231S577.6,0,450,0z"/>
		<g>
			<g>
				<path class="st3" d="M415.3,149.2c4.8,5.8,4,14.3-1.8,19.1c-5.8,4.8-14.3,4-19.1-1.8c-9.4-11.4-21.8-17.7-34.7-17.7
					s-25.3,6.3-34.7,17.7c-4.8,5.8-13.3,6.6-19.1,1.8c-5.8-4.8-6.6-13.3-1.8-19.1c14.7-17.7,34.4-27.5,55.5-27.5
					C380.9,121.8,400.6,131.5,415.3,149.2L415.3,149.2z"/>
				<path class="st4" d="M595.7,149.2c4.8,5.8,4,14.3-1.8,19.1c-5.8,4.8-14.3,4-19.1-1.8c-9.4-11.4-21.7-17.7-34.7-17.7
					s-25.3,6.3-34.7,17.7c-4.8,5.8-13.3,6.6-19.1,1.8c-5.8-4.8-6.6-13.3-1.8-19.1c14.7-17.7,34.4-27.5,55.5-27.5
					S581.1,131.5,595.7,149.2z"/>
			</g>
			<path class="st5" d="M355.3,349.3c8.3,6.9,17.4,12.9,27.1,17.8l27.1,10.7c8.7,2.5,17.8,4.2,27.1,5h27.1c9.3-0.8,18.3-2.5,27.1-5
				l27.1-10.7c9.7-5,18.8-11,27.1-17.8l27.1-29.3c17-24.2,27.1-53.7,27.1-85.5c0-7.5-6.1-13.5-13.5-13.5h-13.5l-12.6,9l-14.4-9
				h-27.1l-12.6,9l-14.4-9h-27.1l-14.4,9l-12.6-9h-27.1l-12.6,9l-14.4-9h-27.1l-13.5,9l-13.5-9h-13.5c-7.5,0-13.5,6.1-13.5,13.5
				c0,31.8,10,61.3,27.1,85.5L355.3,349.3z"/>
			<path class="st6" d="M585.3,221h-13.5l-12.6,9l-14.4-9h-27.1l-12.6,9l-14.4-9h-27.1l-13.5,8.5v153.3h13.5
				c9.3-0.8,18.3-2.5,27.1-5l27.1-10.7c9.7-5,18.8-11,27.1-17.8l27.1-29.3c17-24.2,27.1-53.7,27.1-85.5
				C598.9,227.1,592.8,221,585.3,221z"/>
			<path class="st7" d="M490.6,221v156.8c9.4-2.7,18.5-6.3,27.1-10.7V221H490.6z"/>
			<path class="st7" d="M436.5,221v161.8c4.5,0.4,9,0.6,13.5,0.6c4.6,0,9.1-0.2,13.5-0.6V221H436.5z"/>
			<path class="st7" d="M571.8,320.1v-99h-27.1v128.3C555,340.8,564.1,331,571.8,320.1z"/>
			<path class="st7" d="M382.3,221v146.1c8.6,4.4,17.6,8,27.1,10.7V221H382.3z"/>
			<path class="st7" d="M328.2,221v99c7.7,10.9,16.8,20.8,27.1,29.3V221H328.2z"/>
			<path class="st7" d="M450,221v162.4c4.6,0,9.1-0.2,13.5-0.6V221H450z"/>
		</g>
	</g>
</g>
</svg>
