<?xml version="1.0" encoding="utf-8"?>
<!-- Generator: Adobe Illustrator 24.3.0, SVG Export Plug-In . SVG Version: 6.00 Build 0)  -->
<svg version="1.1" id="Capa_1" xmlns="http://www.w3.org/2000/svg" xmlns:xlink="http://www.w3.org/1999/xlink" x="0px" y="0px"
	 viewBox="0 0 2551.2 2551.2" style="enable-background:new 0 0 2551.2 2551.2;" xml:space="preserve">
<style type="text/css">
	.st0{fill:#A7D9FC;}
	.st1{fill-rule:evenodd;clip-rule:evenodd;fill:#EFF6FF;}
	.st2{fill-rule:evenodd;clip-rule:evenodd;fill:#375E7D;}
	.st3{fill-rule:evenodd;clip-rule:evenodd;fill:#2B4D66;}
	.st4{fill-rule:evenodd;clip-rule:evenodd;fill:#EB5468;}
	.st5{fill-rule:evenodd;clip-rule:evenodd;fill:#E5384F;}
	.st6{fill-rule:evenodd;clip-rule:evenodd;fill:#A7D9FC;}
	.st7{fill:#375E7D;}
	.st8{fill:#FFC250;}
	.st9{fill-rule:evenodd;clip-rule:evenodd;fill:#FFE07D;}
</style>
<g>
	<g>
		<path class="st0" d="M1278.2,716.5H761.9c-21,0-38-17-38-38s17-38,38-38h516.3c21,0,38,17,38,38S1299.1,716.5,1278.2,716.5z
			 M508.9,716.5H37c-21,0-38-17-38-38s17-38,38-38h472c21,0,38,17,38,38S529.9,716.5,508.9,716.5z"/>
	</g>
	<g>
		<path class="st0" d="M545.5,982.2H188.7c-21,0-38-17-38-38c0-21,17-38,38-38h356.8c21,0,38,17,38,38
			C583.5,965.2,566.5,982.2,545.5,982.2z"/>
	</g>
	<g>
		<path class="st0" d="M303.9,1513.4H37c-21,0-38-17-38-38c0-21,17-38,38-38h267c21,0,38,17,38,38
			C341.9,1496.4,324.9,1513.4,303.9,1513.4z"/>
	</g>
	<g>
		<path class="st0" d="M597.3,1779.1H159.6c-21,0-38-17-38-38c0-21,17-38,38-38h437.7c21,0,38,17,38,38
			C635.3,1762.1,618.3,1779.1,597.3,1779.1z"/>
	</g>
	<g>
		<path class="st0" d="M455.7,2044.8H269.8c-21,0-38-17-38-38c0-21,17-38,38-38h185.9c21,0,38,17,38,38
			C493.7,2027.8,476.7,2044.8,455.7,2044.8z"/>
	</g>
	<g>
		<path class="st0" d="M1054.6,2310.5H493.7c-21,0-38-17-38-38c0-21,17-38,38-38h560.8c21,0,38,17,38,38
			C1092.5,2293.5,1075.5,2310.5,1054.6,2310.5z"/>
	</g>
	<g>
		<path class="st0" d="M643.6,1247.9h-295c-21,0-38-17-38-38c0-21,17-38,38-38h295c21,0,38,17,38,38
			C681.6,1230.9,664.6,1247.9,643.6,1247.9z"/>
	</g>
	<g>
		<path class="st1" d="M1793.2,263.9l-120.5,342.9c62.3,7.7,124.7,21.7,186.5,42s120.4,46.3,175,77L2154.7,383L1793.2,263.9z"/>
	</g>
	<g>
		<path class="st2" d="M1692.2,80.6L1647.6,216c-9.6,29.3,6.3,61.1,35.6,70.7l85.8,28.1l361.4,119.1l85.6,28.3
			c29.3,9.6,61.1-6.5,70.7-35.7l44.6-135.4c9.6-29.3-6.5-61.1-35.7-70.7L1762.9,44.8C1733.7,35.2,1701.8,51.3,1692.2,80.6z"/>
	</g>
	<g>
		<path class="st3" d="M2216,462.2c29.3,9.6,61.1-6.5,70.7-35.7l44.6-135.4c9.6-29.3-6.5-61.1-35.7-70.7l-132-43.5
			c29.3,9.6,45.3,41.5,35.7,70.7L2154.7,383c-9.6,29.3-41.5,45.3-70.7,35.7h0.3l46.1,15.2L2216,462.2z"/>
	</g>
	<g>
		<path class="st2" d="M1262.8,2459.6c515.2,169.6,1070.2-110.5,1239.8-625.5c149.3-453.2-49.6-937.4-450.5-1162.8
			c-54.7-30.7-113.2-56.7-175-77c-61.8-20.4-124.2-34.3-186.5-42c-217.3-27.1-432.7,20.2-614.9,126.2
			c-200.1,116.5-360.2,304-438.3,541.3C467.8,1734.8,747.8,2290,1262.8,2459.6L1262.8,2459.6z"/>
	</g>
	<g>
		<path class="st1" d="M1809.4,800.2c-401.4-132.3-833.9,86.1-966.2,487.5c-132.1,401.4,86.1,834,487.5,966.1
			c401.4,132.3,833.9-85.9,966.2-487.4l0.4-1.4C2428.6,1364,2210.4,932.2,1809.4,800.2L1809.4,800.2z"/>
	</g>
	<g>
		<path class="st4" d="M1809.4,800.2L1610,1405.6c-23.1,70,21.4,136,80.5,159.5l606.8,199.8C2428.6,1364,2210.4,932.2,1809.4,800.2
			L1809.4,800.2z"/>
	</g>
	<g>
		<path class="st5" d="M2297.3,1765c115.1-351.5-38.4-726.6-348-902.8c54.4,162.3,84.4,340.7,84.4,528.1c0,96.1-7.9,189.9-23,280.3
			L2297.3,1765z"/>
	</g>
	<g>
		<path class="st3" d="M2502.6,1834.1c149.3-453.2-49.6-937.4-450.5-1162.8c-40.2-22.7-82.5-42.6-126.7-59.7
			c-15.9-6.2-32-11.9-48.3-17.4c-19.2-6.3-38.4-12.1-57.8-17.1c51.9,87.2,95.8,182.9,130,284.9c309.6,176.2,463.1,551.3,348,902.8
			c-0.1,0.4-0.3,0.9-0.4,1.4c-82.2,249.3-280.2,428-514.6,495.8c-63,94.4-135.9,177.6-216.8,246.9
			C1979.7,2511.1,2366,2248.9,2502.6,1834.1L2502.6,1834.1z"/>
	</g>
	<g>
		<path class="st6" d="M1782.3,2262.2c234.4-67.9,432.4-246.5,514.6-495.8l0.4-1.4l-286.6-94.4c-26.7,160.5-75.7,310.5-142.9,444.3
			C1841.8,2166.5,1813.3,2215.7,1782.3,2262.2z"/>
	</g>
	<g>
		<path class="st6" d="M2052.1,671.3l78.2-237.4l-46.3-15.2l-85.6-28.3l-72.9,221.2C1969.7,628.7,2012,648.7,2052.1,671.3
			L2052.1,671.3z"/>
	</g>
	<g>
		<path class="st7" d="M1331.5,2289.1c-3.9,0-7.9-0.6-11.9-1.9c-19.9-6.6-30.7-28-24.2-47.9l40.9-124.1c6.6-19.9,28-30.7,47.9-24.2
			c19.9,6.6,30.7,28,24.2,47.9l-40.9,124.1C1362.3,2279,1347.5,2289.1,1331.5,2289.1L1331.5,2289.1z"/>
	</g>
	<g>
		<path class="st7" d="M969,1365.5c-3.9,0-7.9-0.6-11.9-1.9l-123.9-40.9c-19.9-6.6-30.7-28-24.2-47.9c6.6-19.9,28-30.7,47.9-24.2
			l123.9,40.9c19.9,6.6,30.7,28,24.2,47.9C999.8,1355.4,985,1365.5,969,1365.5z"/>
	</g>
	<g>
		<path class="st7" d="M1285.4,998.2c-13.9,0-27.2-7.6-33.9-20.8l-59-116.6c-9.5-18.7-2-41.5,16.8-51c18.7-9.4,41.5-2,51,16.8
			l59,116.6c9.5,18.7,2,41.5-16.8,51C1297,996.9,1291.1,998.2,1285.4,998.2z"/>
	</g>
	<g>
		<path class="st7" d="M1914.6,2245.5c-13.9,0-27.2-7.6-33.9-20.9l-58.8-116.6c-9.4-18.7-1.9-41.5,16.8-51
			c18.7-9.4,41.5-1.9,51,16.8l58.8,116.6c9.4,18.7,1.9,41.5-16.8,51C1926.2,2244.2,1920.3,2245.5,1914.6,2245.5L1914.6,2245.5z"/>
	</g>
	<g>
		<path class="st7" d="M888.6,1907.7c-13.9,0-27.2-7.6-33.9-20.9c-9.4-18.7-1.9-41.5,16.8-51l116.6-58.8c18.7-9.5,41.5-1.9,51,16.8
			c9.4,18.7,1.9,41.5-16.8,51l-116.6,58.8C900.1,1906.4,894.3,1907.7,888.6,1907.7L888.6,1907.7z"/>
	</g>
	<g>
		<path class="st7" d="M1467,1481.9c-9.1,0-18.3-3.3-25.6-9.9l-275.6-251.2c-15.5-14.1-16.6-38.1-2.5-53.6
			c14.1-15.5,38.1-16.6,53.6-2.5l275.6,251.2c15.5,14.1,16.6,38.1,2.5,53.6C1487.5,1477.7,1477.3,1481.9,1467,1481.9z"/>
	</g>
	<g>
		<path class="st7" d="M1602.8,1832.8c-19,0-35.4-14.2-37.6-33.6l-16.6-142.5c-2.4-20.8,12.5-39.7,33.3-42.1
			c20.7-2.4,39.7,12.5,42.1,33.3l16.6,142.5c2.4,20.8-12.5,39.7-33.3,42.1C1605.7,1832.7,1604.2,1832.8,1602.8,1832.8z"/>
	</g>
	<g>
		<path class="st8" d="M1571,2330.6c-84.6,0-169.5-13.5-252.2-40.8c-420.6-138.4-650.1-593.3-511.7-1014
			c67.2-203.8,209.6-369.3,401.1-465.9c191.6-96.7,409.3-112.9,613-45.8c419.8,138.2,649.5,592.2,512.3,1012.2l-0.3,1
			c-0.1,0.3-0.2,0.6-0.3,1c-67.1,203.8-209.6,369.2-401.1,465.8C1818,2301.5,1694.9,2330.6,1571,2330.6L1571,2330.6z M1569.3,799.3
			c-112.2,0-223.7,26.3-326.8,78.3c-173.4,87.5-302.4,237.3-363.2,421.9c-125.4,380.9,82.5,792.8,463.3,918.2
			c184.5,60.8,381.6,46.1,555.1-41.4c173.3-87.4,302.2-237,363.1-421.3l0.3-0.9c0.1-0.3,0.2-0.6,0.3-0.9
			c124.5-380.4-83.5-791.8-463.7-916.9c0,0,0,0,0,0C1722.7,811.6,1645.8,799.3,1569.3,799.3L1569.3,799.3z M2296.9,1766.4
			L2296.9,1766.4L2296.9,1766.4z"/>
	</g>
	<g>
		<path class="st9" d="M1610,1405.6c-66.3-21.8-137.7,14.2-159.5,80.5c-21.8,66.3,14.2,137.7,80.5,159.5
			c66.3,21.8,137.7-14.2,159.5-80.5C1712.3,1498.8,1676.3,1427.4,1610,1405.6L1610,1405.6z"/>
	</g>
	<g>
		<path class="st9" d="M1690.5,1565.1c21.8-66.3-14.2-137.7-80.5-159.5c-34.6-11.3-70.6-7-100.3,9.2c61.3,24.7,93.7,93.1,72.7,156.8
			c-10.5,31.6-32.1,56.4-59.2,71.3c2.6,1,5.2,1.9,7.7,2.7C1597.2,1667.4,1668.7,1631.4,1690.5,1565.1L1690.5,1565.1z"/>
	</g>
</g>
</svg>
