<?xml version="1.0" encoding="utf-8"?>
<!-- Generator: Adobe Illustrator 24.3.0, SVG Export Plug-In . SVG Version: 6.00 Build 0)  -->
<svg version="1.1" id="Layer_3" xmlns="http://www.w3.org/2000/svg" xmlns:xlink="http://www.w3.org/1999/xlink" x="0px" y="0px"
	 viewBox="0 0 900 900" style="enable-background:new 0 0 900 900;" xml:space="preserve">
<style type="text/css">
	.st0{fill:#FCD97A;}
	.st1{fill:#97D342;}
	.st2{fill:#FF826E;}
</style>
<g>
	<path class="st0" d="M210.1,198.6l68.6,51.4c-26.1,34.7-67.6,57.1-114.3,57.1c-78.8,0-142.8-64-142.8-142.8s64-142.8,142.8-142.8
		v85.7c-31.6,0-57.1,25.6-57.1,57.1s25.6,57.1,57.1,57.1C183.1,221.5,199.6,212.5,210.1,198.6z"/>
	<path class="st1" d="M307.2,164.4c0,32.1-10.7,61.8-28.6,85.7l-68.6-51.4c7.1-9.6,11.4-21.4,11.4-34.3c0-31.6-25.6-57.1-57.1-57.1
		V21.5C243.2,21.5,307.2,85.5,307.2,164.4z"/>
	<path class="st2" d="M210.1,198.6c-10.4,13.9-27,22.9-45.7,22.9c-31.6,0-57.1-25.6-57.1-57.1s25.6-57.1,57.1-57.1
		s57.1,25.6,57.1,57.1C221.5,177.2,217.2,189.1,210.1,198.6z"/>
	<path class="st0" d="M450,221.5c-43.4,0-82.7,17.6-111.1,46s-46,67.7-46,111.1v100c0,31.6,25.6,57.1,57.1,57.1h14.3v71.4v228.5
		c0,11.9,4.9,22.6,12.6,30.3c7.7,7.7,18.4,12.6,30.3,12.6c23.7,0,42.8-19.1,42.8-42.8c0,23.7,19.1,42.8,42.8,42.8
		c11.9,0,22.6-4.9,30.3-12.6c7.7-7.7,12.6-18.4,12.6-30.3V535.7H550c31.6,0,57.1-25.6,57.1-57.1v-100
		C607.1,291.8,536.8,221.5,450,221.5z"/>
	<circle class="st0" cx="450" cy="121.5" r="100"/>
	<g>
		<g>
			<path class="st1" d="M628.5,214.3V93c0-35.4,28.8-64.3,64.3-64.3h128.5c35.4,0,64.3,28.8,64.3,64.3v57.1
				c0,35.4-28.8,64.3-64.3,64.3H628.5z"/>
			<path d="M821.3,35.8c31.6,0,57.1,25.6,57.1,57.1v57.1c0,31.6-25.6,57.1-57.1,57.1H635.7V93c0-31.6,25.6-57.1,57.1-57.1H821.3
				 M821.3,21.5H692.8c-39.4,0-71.4,32-71.4,71.4v114.3v14.3h14.3h185.7c39.4,0,71.4-32,71.4-71.4V93
				C892.7,53.6,860.7,21.5,821.3,21.5L821.3,21.5z"/>
		</g>
		<path class="st0" d="M678.5,78.7h157.1v28.6H678.5V78.7z"/>
		<path class="st0" d="M807,135.8h28.6v28.6H807V135.8z"/>
		<path class="st0" d="M678.5,135.8h100v28.6h-100V135.8z"/>
	</g>
	<g>
		<g>
			<path class="st1" d="M78.7,869.8c-35.4,0-64.3-28.8-64.3-64.3v-57.1c0-35.4,28.8-64.3,64.3-64.3h192.8v121.4
				c0,35.4-28.8,64.3-64.3,64.3H78.7z"/>
			<path d="M264.3,691.3v114.3c0,31.6-25.6,57.1-57.1,57.1H78.7c-31.6,0-57.1-25.6-57.1-57.1v-57.1c0-31.6,25.6-57.1,57.1-57.1
				H264.3 M278.6,677h-14.3H78.7c-39.4,0-71.4,32-71.4,71.4v57.1c0,39.4,32,71.4,71.4,71.4h128.5c39.4,0,71.4-32,71.4-71.4V691.3
				V677L278.6,677z"/>
		</g>
		<path class="st0" d="M64.4,791.3h157.1v28.6H64.4V791.3z"/>
		<path class="st0" d="M64.4,734.1H93v28.6H64.4V734.1z"/>
		<path class="st0" d="M121.5,734.1h100v28.6h-100V734.1z"/>
	</g>
	<path class="st1" d="M864.2,535.7h-28.6v242.8H807V564.3h-28.6v214.2h-28.6V649.9h-28.6v128.5h-28.6V607.1h-28.6v171.4h-28.6V635.7
		h-28.6v142.8h-28.6V807h314.2v-28.6h-28.6V535.7z"/>
	<path class="st1" d="M864.2,835.6h28.6v28.6h-28.6V835.6z"/>
	<path class="st1" d="M578.5,835.6h257.1v28.6H578.5V835.6z"/>
</g>
</svg>
