<?xml version="1.0" encoding="utf-8"?>
<!-- Generator: Adobe Illustrator 24.3.0, SVG Export Plug-In . SVG Version: 6.00 Build 0)  -->
<svg version="1.1" id="Layer_1" xmlns="http://www.w3.org/2000/svg" xmlns:xlink="http://www.w3.org/1999/xlink" x="0px" y="0px"
	 viewBox="0 0 900 900" style="enable-background:new 0 0 900 900;" xml:space="preserve">
<style type="text/css">
	.st0{fill:#FFD217;}
	.st1{fill:#E0510A;}
	.st2{fill:#57A4FF;}
</style>
<g>
	<path class="st0" d="M881.8,81.7l-56.3,40.9l21.3,66l-56.3-40.9l-56.3,40.9l21.3-66l-56.3-40.9h69.5l21.3-66l21.3,66H881.8z"/>
	<path class="st1" d="M823.5,719c28.3,29.3,27.6,76.2-1.7,104.5c-28.7,27.6-74.1,27.6-102.7,0L614.5,719c-4.5-4.5-8-9.4-11.5-14.7
		c41.6-24.8,76.2-59.4,101-101c5.2,3.1,10.5,7,14.7,11.5L823.5,719z"/>
	<path class="st1" d="M746.6,451c0,163.2-132.4,295.6-295.6,295.6S155.4,614.2,155.4,451S287.8,155.4,451,155.4
		C612.8,154,745.2,284,746.6,445.8C746.6,447.5,746.6,449.2,746.6,451z"/>
	<circle class="st2" cx="451" cy="451" r="236.5"/>
	<g>
		<path class="st0" d="M451.7,332.9H451c-65.3-0.3-118.4,52.4-118.4,117.7S385,569.1,450.3,569.1h0.7
			c65.3,0.3,118.4-52.4,118.4-117.7C569.8,386,517,332.9,451.7,332.9z"/>
		<path class="st0" d="M202.2,81.7L146,122.2l21.3,66L111,147.7l-55.9,40.9l21.3-66L20.2,81.7h69.5l21.3-66l21.3,66H202.2z"/>
		<path class="st0" d="M202.2,775.9L146,816.8l21.3,66L111,842l-56.3,40.9l21.3-66l-56.3-40.9h69.5l21.3-66l21.3,66L202.2,775.9
			L202.2,775.9z"/>
	</g>
	<path class="st1" d="M465.7,362.2H436v14.7c-16.4,0-29.7,13.3-29.7,29.7v29.7c0,16.4,13.3,29.7,29.7,29.7h29.7v29.7h-59v29.7h29.7
		v14.7H466v-14.7c16.4,0,29.7-13.3,29.7-29.7V466c0-16.4-13.3-29.7-29.7-29.7h-29.7v-29.7h59v-29.7h-29.7L465.7,362.2L465.7,362.2z"
		/>
	<path class="st2" d="M864.7,436.3h29.7V466h-29.7V436.3z"/>
	<path class="st2" d="M805.6,436.3h29.7V466h-29.7V436.3z"/>
	<path class="st2" d="M835.3,406.6H865v29.7h-29.7V406.6z"/>
	<path class="st2" d="M835.3,465.7H865v29.7h-29.7V465.7z"/>
	<path class="st2" d="M7.6,436.3h29.7V466H7.6V436.3z"/>
	<path class="st2" d="M66.6,436.3h29.7V466H66.6V436.3z"/>
	<path class="st2" d="M37.3,406.6H67v29.7H37.3V406.6z"/>
	<path class="st2" d="M37.3,465.7H67v29.7H37.3V465.7z"/>
	<path class="st2" d="M465.7,37.3h29.7V67h-29.7V37.3z"/>
	<path class="st2" d="M406.6,37.3h29.7V67h-29.7V37.3z"/>
	<path class="st2" d="M436.3,7.6H466v29.7h-29.7V7.6z"/>
	<path class="st2" d="M436.3,66.6H466v29.7h-29.7V66.6z"/>
	<path class="st2" d="M465.7,835.3h29.7V865h-29.7V835.3z"/>
	<path class="st2" d="M406.6,835.3h29.7V865h-29.7V835.3z"/>
	<path class="st2" d="M436.3,864.7H466v29.7h-29.7V864.7z"/>
	<path class="st2" d="M436.3,805.6H466v29.7h-29.7V805.6z"/>
</g>
</svg>
