<?xml version="1.0" encoding="utf-8"?>
<!-- Generator: Adobe Illustrator 24.3.0, SVG Export Plug-In . SVG Version: 6.00 Build 0)  -->
<svg version="1.1" id="OBJECTS" xmlns="http://www.w3.org/2000/svg" xmlns:xlink="http://www.w3.org/1999/xlink" x="0px" y="0px"
	 viewBox="0 0 2000 2000" style="enable-background:new 0 0 2000 2000;" xml:space="preserve">
<style type="text/css">
	.st0{fill:#123144;}
	.st1{fill:#D3DCE2;}
	.st2{opacity:0.5;fill:#79B5E2;}
	.st3{fill:#79B5E2;}
	.st4{opacity:0.5;}
	.st5{fill:#27496D;}
	.st6{fill:url(#SVGID_1_);}
	.st7{fill:#78C6F7;}
	.st8{fill:#FFFFFF;}
	.st9{fill-rule:evenodd;clip-rule:evenodd;fill:#CFD4FA;}
	.st10{fill:none;stroke:#FFFFFF;stroke-width:2;stroke-linecap:round;stroke-linejoin:round;stroke-miterlimit:10;}
	.st11{fill:#3B8AD9;}
	.st12{fill:url(#SVGID_2_);}
	.st13{fill:url(#SVGID_3_);}
	.st14{fill:url(#SVGID_4_);}
	.st15{fill:url(#SVGID_5_);}
	.st16{fill:#FDA702;}
	.st17{fill:#FBD415;}
	.st18{fill:#F27D0C;}
	.st19{fill:#142850;}
	.st20{fill:#F4C6BA;}
	.st21{fill:#EF9C9C;}
	.st22{fill:#ED8783;}
	.st23{fill:#6C341E;}
	.st24{fill:#FF738F;}
	.st25{fill:#F6B51D;}
	.st26{fill:#E2ACA1;}
	.st27{fill:#C45E12;}
	.st28{display:none;}
	.st29{display:inline;fill:#F4A97D;}
	.st30{display:inline;opacity:0.3;fill:#F16449;}
	.st31{fill:#FBA929;}
	.st32{display:none;opacity:0.3;fill:#F16449;}
	.st33{fill:#F7883C;}
</style>
<g>
	<path class="st0" d="M1923,1645.5H466.8c-4.4,0-7.9-3.5-7.9-7.9l0,0c0-4.4,3.5-7.9,7.9-7.9H1923c4.4,0,7.9,3.5,7.9,7.9l0,0
		C1930.9,1642,1927.3,1645.5,1923,1645.5z"/>
	<g>
		<g>
			<path class="st1" d="M829.4,990.6L244,1212.2L68.9,749.7C7.8,588.3,89.4,407.3,250.8,346.2c161.4-61.1,342.4,20.5,403.5,181.9
				L829.4,990.6z M336.3,1007.4l288.3-109.1L505.8,584.3c-30.1-79.5-119.2-119.7-198.7-89.6c-79.5,30.1-119.7,119.2-89.6,198.7
				L336.3,1007.4z"/>
		</g>
		<path class="st2" d="M498.7,357.8c-71.1-29.6-153.2-33.2-230.7-3.9C106.6,415,24.9,596,86,757.4l170.4,450.1l573-216.9
			L654.4,528.1C625,450.6,567.9,391.5,498.7,357.8z M353.4,1015.1l-4.7-12.4l-12.4,4.7L217.5,693.5
			c-30.1-79.5,10.1-168.6,89.6-198.7c42.9-16.2,88.6-12,126.3,7.9c39.8,15.1,73.3,46.6,89.5,89.4L641.7,906L353.4,1015.1z"/>
		<g>
			<path class="st3" d="M978.8,1422.2l-560.9,212.3c-85.4,32.3-180.8-10.7-213.2-96.1L6.8,1015.7c-14.4-38.1,4.8-80.8,42.9-95.2
				l732.1-277.1c38.1-14.4,80.8,4.8,95.2,42.9l197.8,522.7C1107.2,1294.5,1064.2,1389.9,978.8,1422.2z"/>
			<path class="st2" d="M898.5,743L223.1,998.7c-38.1,14.4-57.4,57.1-42.9,95.2L378,1616.6c3.4,9.1,7.6,17.6,12.4,25.7
				c9.2-1.8,18.4-4.3,27.5-7.7l560.9-212.3c85.4-32.3,128.4-127.8,96.1-213.2L898.5,743z"/>
			<g class="st4">
				<path class="st3" d="M154.5,1010.4c6.3,16.6-2.1,35.2-18.7,41.4c-16.6,6.3-35.2-2.1-41.4-18.7c-6.3-16.6,2.1-35.2,18.7-41.4
					C129.6,985.4,148.2,993.8,154.5,1010.4z"/>
				<path class="st3" d="M847.8,747.9c6.3,16.6-2.1,35.2-18.7,41.4c-16.6,6.3-35.2-2.1-41.4-18.7c-6.3-16.6,2.1-35.2,18.7-41.4
					C823,723,841.5,731.3,847.8,747.9z"/>
			</g>
			<path class="st2" d="M360.7,1555.1c6.3,16.6-2.1,35.2-18.7,41.4c-16.6,6.3-35.2-2.1-41.4-18.7c-6.3-16.6,2.1-35.2,18.7-41.4
				C335.8,1530.2,354.4,1538.5,360.7,1555.1z"/>
			<path class="st2" d="M228.2,1549L30.4,1026.4c-14.4-38.1,4.8-80.8,42.9-95.2l732.1-277.1c14.7-5.6,30.1-6.1,44.2-2.5
				c-19.2-13.1-44.3-17-67.8-8.1L49.8,920.5C11.6,935-7.6,977.6,6.8,1015.7l197.8,522.7c17.8,47,54.8,81.2,98.7,97
				C270,1617.2,242.7,1587.4,228.2,1549z"/>
			<g>
				<g>
					<path class="st1" d="M137.4,1002.6c6.3,16.6-2.1,35.2-18.7,41.4c-16.6,6.3-35.2-2.1-41.4-18.7c-6.3-16.6,2.1-35.2,18.7-41.4
						C112.5,977.7,131.1,986,137.4,1002.6z"/>
					<circle class="st1" cx="800.6" cy="751.6" r="32.1"/>
				</g>
				<g>
					<path class="st1" d="M343.6,1547.4c6.3,16.6-2.1,35.2-18.7,41.4c-16.6,6.3-35.2-2.1-41.4-18.7c-6.3-16.6,2.1-35.2,18.7-41.4
						C318.7,1522.4,337.3,1530.8,343.6,1547.4z"/>
					
						<ellipse transform="matrix(0.411 -0.9116 0.9116 0.411 -588.7971 1681.3904)" class="st1" cx="1006.8" cy="1296.4" rx="32.1" ry="32.1"/>
				</g>
			</g>
		</g>
		<g>
			<path class="st0" d="M660.1,1294.4l-88.1,33.4c-21.7,8.2-45.7-4.7-50.9-27.4l-43.4-191.8l107.9-40.8l94.5,172.4
				C691.3,1260.6,681.9,1286.1,660.1,1294.4z"/>
			
				<ellipse transform="matrix(0.411 -0.9116 0.9116 0.411 -661.483 1102.071)" class="st0" cx="522.1" cy="1063" rx="125.6" ry="125.6"/>
		</g>
	</g>
	<g>
		<g>
			<path class="st5" d="M1590.7,1532.9c0,53.4-42.2,96.8-94.3,96.8H863.3c-52.1,0-94.3-43.3-94.3-96.8V177.8
				c0-53.4,42.2-96.8,94.3-96.8h633.2c52.1,0,94.3,43.3,94.3,96.8V1532.9z"/>
			<linearGradient id="SVGID_1_" gradientUnits="userSpaceOnUse" x1="1178.7542" y1="-204.1135" x2="1105.5526" y2="1979.7448">
				<stop  offset="5.376340e-02" style="stop-color:#1F8DEC"/>
				<stop  offset="0.9946" style="stop-color:#240075"/>
			</linearGradient>
			<path class="st6" d="M1554.1,1532.9c0,53.4-42.2,96.8-94.3,96.8H826.7c-52.1,0-94.3-43.3-94.3-96.8V177.8
				c0-53.4,42.2-96.8,94.3-96.8h633.2c52.1,0,94.3,43.3,94.3,96.8V1532.9z"/>
			<rect x="772.7" y="180" class="st7" width="741.1" height="1350.8"/>
			<rect x="772.7" y="280.3" class="st8" width="741.1" height="1214.3"/>
			<g>
				<g>
					<path class="st9" d="M1157.2,920.3c-7.5-6-7.9-10.4-1.1-17.6c36.6-38.7,61.6-83.7,73.5-135.8c4.8-21.1,7.2-42.6,7-64.3
						c-0.2-16.8,0.8-33.7-1.2-50.3c-5.3-43.3-44.5-75.3-88.1-73.3c-46.3,2.1-81.9,39.1-82.4,85.4c-0.2,15.5,0.2,31.1-0.9,46.6
						c-1.6,23.3-10.7,43.9-25.8,61.7c-8.5,10.1-17.5,19.8-26.4,29.6c-4.5,4.9-9.5,5.5-13.6,1.8c-4-3.6-3.9-8.8,0.4-13.7
						c7.5-8.4,15-16.7,22.6-25.1c17-18.8,25.7-40.8,25.8-66.2c0-15.5-0.3-31.1,1-46.6c3.8-45.2,43.2-85.1,88.3-90.3
						c57.8-6.8,106.6,29.3,116.9,86.4c0.5,3,0.8,6,1,9c3.3,64.5-2.6,127.3-33.6,185.7c-14.3,26.9-32,51.1-52.9,73.1
						c-1.4,1.5-3.3,2.6-5,3.9C1160.7,920.3,1158.9,920.3,1157.2,920.3z"/>
					<path class="st9" d="M1105.7,920.3c-7.3-6-7.6-10.1-1.3-17.3c15.2-17.3,31.4-33.8,45.3-52.1c33.1-43.7,48.7-93.6,49-148.3
						c0.1-14.5,0.7-29-0.7-43.3c-2.7-26.1-24.7-43.8-50.9-42.3c-24.2,1.4-43.8,22.1-44.4,47.3c-0.3,13,0.1,26.1-0.2,39.1
						c-0.8,35.6-12.8,67-35.7,94.2c-9.4,11.2-19.5,21.9-29.3,32.7c-4.7,5.1-9.9,5.9-14,2.3c-4.1-3.7-3.8-8.9,0.8-14.1
						c8-8.9,15.9-17.9,24-26.7c24.4-26.6,36.5-57.9,36.6-93.9c0-11.6-0.2-23.2,0.1-34.8c1-32.6,25.8-59.9,57.3-63.3
						c33.7-3.7,63.6,16.6,72,49.1c0.7,2.6,1.5,5.2,1.5,7.9c1.2,43.1,1.9,86-11.9,127.8c-12.2,37-31.2,69.9-57.4,98.7
						c-9.7,10.7-19.4,21.4-29.2,32.1c-1.6,1.8-3.5,3.4-5.3,5.1C1110,920.3,1107.8,920.3,1105.7,920.3z"/>
					<path class="st9" d="M1168.9,371.5c10.4,1.4,20.8,2.7,31.2,4.3c6,0.9,11.9,2.2,17.8,3.5c6.2,1.4,9.1,5.9,7.8,11.3
						c-1.2,4.9-5.9,7.3-11.9,6c-62.4-13.9-122.6-8-180.7,19c-6.3,2.9-11.4,1.6-13.7-3.3c-2.4-5.3-0.1-9.8,6.6-13
						c32.4-15.3,66.5-24.4,102.3-27c1.4-0.1,2.7-0.6,4.1-0.9C1144.7,371.5,1156.8,371.5,1168.9,371.5z"/>
					<path class="st9" d="M1178.6,693.2c1.2,31.9-4,66.4-18.1,99.3c-9.2,21.5-21.2,41.3-36.6,58.9c-13.7,15.6-27.7,30.8-41.7,46.1
						c-4.1,4.5-9.4,4.9-13.3,1.5c-3.9-3.5-3.9-8.7,0.1-13.3c0.6-0.7,1.2-1.3,1.8-2c12-13.2,24.1-26.3,36-39.7
						c35.1-39.5,53.2-85.7,53.8-138.6c0.2-12.9,0.1-25.7,0-38.6c0-7.5-3.9-12-9.9-12c-6,0-9.9,4.6-10,12
						c-0.2,14.6,0.2,29.3-0.6,43.9c-2.2,42.4-17.4,79.9-45,112.2c-13.2,15.5-27.1,30.4-40.8,45.5c-4.8,5.3-9.8,5.9-14,2.1
						c-4.1-3.8-3.8-8.8,1-14.1c15.3-17.3,31.3-33.9,45.6-51.9c23.5-29.4,34.8-63.6,35.8-101.1c0.3-12.5,0-25,0.1-37.5
						c0.1-16.4,11.9-28.6,27.6-28.7c16-0.1,27.9,12.1,28.1,28.8C1178.6,673.8,1178.6,681.7,1178.6,693.2z"/>
					<path class="st9" d="M933.9,648.8c6.5-94.9,75.6-173.4,164.6-195.1c27-6.6,54.3-8.1,81.8-4.2c6.5,0.9,9.8,4.8,9,10.2
						c-0.7,5.1-4.7,8-11.2,7.2c-25.6-3.2-50.9-2.1-76,4.2c-79.1,19.8-139,86.9-149.5,167.2c-0.6,5-1,9.9-1.3,14.9
						c-0.5,7.3-4,11.3-9.7,10.9c-5.7-0.4-8.7-5-8.1-12.1C933.6,651,933.8,649.9,933.9,648.8z"/>
					<path class="st9" d="M1330.2,672.8c0,12,0.1,20.6,0,29.1c-0.1,6.8-3.2,10.5-8.7,10.6c-5.7,0.1-8.9-3.8-9-10.8
						c-0.3-17.1,0.3-34.3-1-51.4c-5-68-56.6-127.5-122.9-142.8c-14.7-3.4-29.6-4.8-44.6-4.4c-2.6,0.1-6.1,0-7.5-1.6
						c-2.1-2.3-3.8-6.1-3.7-9.1c0.1-4.1,3.6-6.7,7.7-6.8c10.2,0,20.5-0.6,30.5,0.9c70.8,10.1,120.1,48.5,147.4,114.6
						C1328.3,625.1,1331.1,650.5,1330.2,672.8z"/>
					<path class="st9" d="M1151.2,409.2c70.7,1.2,131.6,26.7,181.9,77.1c4.9,4.9,5.4,10.1,1.5,14.1c-4,4-9,3.6-14-1.5
						c-33.9-34.4-74.2-56.9-121.6-66.7c-33.7-7-67.4-6.7-100.9,0.9c-4.5,1-8.6,1-11.5-3.2c-3.7-5.2-1.1-12.3,5.8-13.6
						c12.8-2.5,25.6-4.4,38.5-6.1C1137.4,409.4,1144.1,409.6,1151.2,409.2z"/>
					<path class="st9" d="M1036.6,547.2c-2.1,3.5-3.3,6.3-5.2,8.4c-22.6,24.9-36.9,53.9-40.8,87.3c-2,16.8-2.4,33.9-1.4,50.8
						c1.1,19.5-9.3,32.2-21.9,44.3c-3.4,3.3-8.3,2.9-11.6-0.3c-3.2-3.1-3.8-8-1-11.7c3.1-3.9,6.5-7.6,9.9-11.2
						c4.5-4.6,6.4-10,6.4-16.4c0-15.5-0.3-31.1,0.7-46.6c2.8-41.9,19.1-78.2,47.5-109.2c2.9-3.2,6.6-5,10.5-2.7
						C1032.4,541.4,1034.1,544.4,1036.6,547.2z"/>
					<path class="st9" d="M1293.3,695c-1.3,18-2.6,35.9-4.1,53.8c-0.5,6.2-4.6,9.8-9.5,9.3c-5.4-0.5-8.7-4.7-7.9-11.2
						c3.6-29.7,3.5-59.5,2.3-89.3c-1.3-31.8-14.4-58.8-36.8-81.4c-1.1-1.1-2.4-2.2-3.5-3.3c-4-4.2-4.4-9.1-0.9-12.9
						c3.6-3.9,8.7-3.9,13.3,0.2c11.1,10,20.3,21.5,27.6,34.6c12,21.4,18.4,44.4,18.5,69c0.1,10.4,0,20.7,0,31.1
						C1292.6,695,1292.9,695,1293.3,695z"/>
					<path class="st9" d="M1009.1,659.1c1.5-63.7,51.2-121.7,114.4-133.2c2.5-0.5,4.9-1,7.4-1.1c5.1-0.3,8.8,2.8,9.5,7.5
						c0.7,4.8-2,8.6-7,9.8c-7.1,1.8-14.3,2.9-21.2,5.2c-49.9,16.6-82.4,60-85.3,113.7c-0.1,1.4-0.1,2.9-0.2,4.3
						c-0.6,5.3-4.3,8.7-9.1,8.5c-4.9-0.2-8.2-3.9-8.4-9.3C1009.1,662.6,1009.1,660.9,1009.1,659.1z"/>
					<path class="st9" d="M956.4,523.6c-3.3-2.7-6.9-4.3-7.6-6.7c-0.9-2.9-0.4-7.6,1.5-9.7c10.3-11.6,20.6-23.4,31.9-33.8
						c20.4-18.8,43.8-33.2,69.5-43.6c2.9-1.2,7.7-0.8,10.2,0.9c2.1,1.4,3.5,6.3,2.7,8.7c-0.9,2.8-4.3,5.6-7.3,6.9
						c-19.9,8.8-38.8,19.3-55.1,33.6c-13,11.4-24.6,24.3-36.9,36.5C962.8,518.7,959.8,520.8,956.4,523.6z"/>
					<path class="st9" d="M1303.8,513.8c3.1,2,5.9,3,7.7,5c20.3,22.1,35.3,47.5,45.1,75.9c2,5.7-0.2,10.5-5.2,12.3
						c-4.8,1.7-9.6-0.7-11.6-6.5c-7.7-22.1-18.8-42.4-33.5-60.6c-2.9-3.6-6.5-6.8-8.8-10.7c-1.4-2.4-1.7-6.4-0.7-8.9
						C1297.7,517.7,1301,516.1,1303.8,513.8z"/>
					<path class="st9" d="M1026.4,707.7c-0.8,12.5-6.1,27-16.4,39.5c-7.7,9.3-16,18.2-24.2,27.2c-4,4.4-9.5,4.8-13.2,1.3
						c-3.9-3.6-3.9-8.6,0.2-13.3c6.8-7.7,13.8-15.4,20.7-23.1c9.3-10.3,15-22.4,15.2-36.2c0.1-8.1,4.7-12,9.3-11.9
						C1024,691.2,1026.9,695.8,1026.4,707.7z"/>
					<path class="st9" d="M1218.8,458.5c1,0.3,2.7,0.7,4.4,1.3c20,7.1,38.5,16.9,55.6,29.4c5.3,3.9,6.6,8.9,3.7,13.3
						c-3.1,4.6-8.4,5.2-14,1.1c-16-11.6-33.2-20.8-51.9-27.3c-5.6-2-7.9-5.6-7.1-10.4C1210.1,461.7,1213.8,458.5,1218.8,458.5z"/>
					<path class="st9" d="M1054.5,533.5c-5-0.1-8-2.1-9.4-6c-1.5-4.2-0.2-8,3.6-10.2c11.1-6.3,22.3-12.6,33.7-18.3
						c5.8-2.9,12.3-4.6,18.6-6.6c5.5-1.7,10,0.5,11.7,5.3c1.7,4.7-0.6,9.7-6,11.3c-17.3,5.3-33.5,12.8-48.5,23
						C1057,532.9,1055.3,533.2,1054.5,533.5z"/>
					<path class="st9" d="M1281.4,789.2c-0.5,1.8-1.1,4.4-1.9,6.9c-3.5,10.6-6.9,21.3-10.7,31.9c-2.2,6.1-7,8.4-12.1,6.3
						c-4.7-1.9-6.3-6.7-4.3-12.6c3.9-11.8,7.7-23.7,11.6-35.5c1.7-5.1,5.6-7.6,10-6.8C1278.4,780.1,1281.6,783.9,1281.4,789.2z"/>
					<path class="st9" d="M1170.9,524.7c13.8,1.9,28,5.9,41.3,12.8c4.2,2.2,5.3,7.1,3.4,11.2c-1.9,4.1-6.3,6-10.8,4.6
						c-12.4-3.8-24.8-7.5-37.3-11.3c-4.5-1.4-7.2-5.3-6.5-9.7C1161.6,527.8,1165.1,524.8,1170.9,524.7z"/>
					<path class="st9" d="M1256.1,391.6c1,0.3,2.6,0.5,4.1,1.2c8.8,4,17.6,7.9,26.2,12.1c5.6,2.7,7.3,7.6,4.9,12.3
						c-2.4,4.7-7.3,6.1-12.9,3.5c-8.6-4-17.2-7.9-25.7-11.9c-4.4-2-6.6-5.5-5.6-10.3C1248,394.1,1251.1,391.9,1256.1,391.6z"/>
				</g>
			</g>
		</g>
		<line class="st10" x1="1036.7" y1="127.3" x2="1230.1" y2="127.3"/>
	</g>
	<g>
		<path class="st11" d="M1517.8,709.5v679.3c-2.4,0.2-4.7,0.3-7.2,0.3H649.3c-44.2,0-80.1-34.9-80.1-78V787.1
			c0-43.1,35.8-78,80.1-78h861.4C1513.1,709.1,1515.5,709.2,1517.8,709.5z"/>
		<g>
			<linearGradient id="SVGID_2_" gradientUnits="userSpaceOnUse" x1="906.9512" y1="672.9359" x2="1040.6102" y2="1195.4226">
				<stop  offset="5.376340e-02" style="stop-color:#8BC6F7"/>
				<stop  offset="1" style="stop-color:#8BC6F7;stop-opacity:0"/>
			</linearGradient>
			<path class="st12" d="M1305.2,725.6h-638c-39.2,0-70.9,30.9-70.9,69.1v369.1c138.8-2.2,293.7-18.3,455.3-50
				c122.1-23.9,268.8-54.6,381.3-89.9C1372.2,935.9,1327.6,828,1305.2,725.6z"/>
		</g>
		<linearGradient id="SVGID_3_" gradientUnits="userSpaceOnUse" x1="711.0851" y1="896.8038" x2="899.5838" y2="896.8038">
			<stop  offset="9.677420e-02" style="stop-color:#FFBF24"/>
			<stop  offset="0.7796" style="stop-color:#FFA624"/>
		</linearGradient>
		<path class="st13" d="M899.6,941c0,10.8-8.8,19.5-19.5,19.5H730.6c-10.8,0-19.5-8.7-19.5-19.5v-88.4c0-10.8,8.7-19.5,19.5-19.5
			H880c10.8,0,19.5,8.7,19.5,19.5V941z"/>
		<g>
			<path class="st8" d="M880,1110.6H723.9c-5.6,0-10.2-4.6-10.2-10.2c0-5.6,4.6-10.2,10.2-10.2H880c5.6,0,10.2,4.6,10.2,10.2
				C890.2,1106,885.6,1110.6,880,1110.6z"/>
			<path class="st8" d="M1382.1,1110.6H981.8c-5.6,0-10.2-4.6-10.2-10.2c0-5.6,4.6-10.2,10.2-10.2h400.4c5.6,0,10.2,4.6,10.2,10.2
				C1392.3,1106,1387.7,1110.6,1382.1,1110.6z"/>
		</g>
		<linearGradient id="SVGID_4_" gradientUnits="userSpaceOnUse" x1="569.1996" y1="1246.277" x2="1517.8441" y2="1246.277">
			<stop  offset="5.376340e-02" style="stop-color:#1F8DEC"/>
			<stop  offset="0.9946" style="stop-color:#240075"/>
		</linearGradient>
		<rect x="569.2" y="1203" class="st14" width="948.6" height="86.5"/>
		<linearGradient id="SVGID_5_" gradientUnits="userSpaceOnUse" x1="727.2335" y1="896.2421" x2="972.3223" y2="896.2421">
			<stop  offset="9.677420e-02" style="stop-color:#FFBF24"/>
			<stop  offset="0.7796" style="stop-color:#FFA624"/>
		</linearGradient>
		<path class="st15" d="M882,883.2V834h-6.6v42.5h-45v-4h-27v-40.1h-6.6v40.1h-26.2v7.5H734V833h-6.8v53.4h43.5v24.4h-34.8v49.3h6.5
			v-42.5h28.3v16h26.2v26.5h6.6v-26.5h27v-20.3h37v46.9h6.8v-53.4h-43.8v-23.5H882z M823.7,927.1h-46.2V879h46.2V927.1z"/>
	</g>
	<g>
		<g>
			<rect x="371" y="1192.8" class="st16" width="387.4" height="88"/>
			<rect x="669.3" y="1192.8" class="st17" width="46.2" height="88"/>
			<rect x="371" y="1269.1" class="st18" width="387.4" height="11.7"/>
			<rect x="415.1" y="1192.8" class="st18" width="105.6" height="88"/>
		</g>
		<g>
			<rect x="416.3" y="1281" class="st16" width="387.4" height="88"/>
			<rect x="714.5" y="1281" class="st17" width="46.2" height="88"/>
			<rect x="416.3" y="1357.3" class="st18" width="387.4" height="11.7"/>
			<rect x="460.3" y="1281" class="st18" width="105.6" height="88"/>
		</g>
		<g>
			<rect x="354.1" y="1369.2" class="st16" width="387.4" height="88"/>
			<rect x="652.3" y="1369.2" class="st17" width="46.2" height="88"/>
			<rect x="354.1" y="1445.5" class="st18" width="387.4" height="11.7"/>
			<rect x="398.1" y="1369.2" class="st18" width="105.6" height="88"/>
		</g>
		<g>
			<rect x="354.1" y="1457.5" class="st16" width="387.4" height="88"/>
			<rect x="652.3" y="1457.5" class="st17" width="46.2" height="88"/>
			<rect x="354.1" y="1533.8" class="st18" width="387.4" height="11.7"/>
			<rect x="398.1" y="1457.5" class="st18" width="105.6" height="88"/>
		</g>
		<g>
			<rect x="415.2" y="1545.7" class="st16" width="387.4" height="88"/>
			<rect x="713.4" y="1545.7" class="st17" width="46.2" height="88"/>
			<rect x="415.2" y="1622" class="st18" width="387.4" height="11.7"/>
			<rect x="459.2" y="1545.7" class="st18" width="105.6" height="88"/>
		</g>
	</g>
	<g>
		<g>
			<g>
				<g>
					<g>
						<path class="st19" d="M1409.7,1250.2l142.7,4.2c0,0,11,247.2-9.8,301.4C1521.8,1610,1411.8,1631.7,1409.7,1250.2z"/>
						<path class="st19" d="M1471.8,1854.6c0,0-2.2-2.3-4.2,6.5c-2,8.8-2,28.8,4.3,35.8c6.3,7,159.7,26.4,164.9,11.7
							c4.7-13.2-116.6-65.6-116.6-65.6L1471.8,1854.6z"/>
						<path class="st20" d="M1516.6,1826.2l3.1,25.5c0,0-19,16.6-47.3,5.8l-3.3-29.5L1516.6,1826.2z"/>
						<path class="st19" d="M1553,1468.8c0,0-6.5,137.9-12.9,230.6c-6.4,92.4-11.2,126.3-11.2,126.3l-65.7,2.6
							c0,0-32.2-341.8-37.9-377.7C1419.6,1414.7,1553,1468.8,1553,1468.8z"/>
					</g>
					<g>
						<path class="st19" d="M1418,1264.7l-141.5-4.5c0,0-23.5,248.4-5.3,303.6C1289.4,1618.8,1398.3,1645.6,1418,1264.7z"/>
						<path class="st19" d="M1328.1,1865.5c0,0,2.3-2.2,3.9,6.7c1.6,8.9,0.7,28.9-6,35.6c-6.7,6.7-160.8,19-165.2,4.1
							c-4-13.4,119.5-60.2,119.5-60.2L1328.1,1865.5z"/>
						<path class="st20" d="M1284.6,1835.1l-4.3,25.3c0,0,18.2,17.4,47,8l4.7-29.3L1284.6,1835.1z"/>
						<path class="st19" d="M1264.8,1476.4c0,0,0.2,138,2.3,231c2.1,92.6,5.3,126.7,5.3,126.7l65.5,5.6c0,0,48-339.9,55.3-375.5
							C1400.6,1428.5,1264.8,1476.4,1264.8,1476.4z"/>
					</g>
					<g>
						<path class="st21" d="M1389.9,818.7c-0.9,11.6-6.2,28.3-6.2,28.3c1.7,1.9,13.3,14.5,32.2,14.1c18.1-0.3,29-12.2,30.8-14.1
							c-0.6-1.6-1.3-3.6-2-5.8c-0.7-2.1-1.3-4.3-1.9-6.8c-1.2-5-2.1-10.7-2.5-17c-0.9-14.4,1.4-26.6,4-35.4c0.8-2.6,1.6-4.8,2.3-6.8
							h-63.1c1,2.8,2.1,6.1,3.1,10c1.7,6.8,3.2,15.3,3.3,24.9C1390.2,812.9,1390.1,815.7,1389.9,818.7z"/>
						<path class="st22" d="M1386.9,785.2c1.8,6.8,3.2,15.3,3.3,24.9c14.6,9.3,33.6,19.4,52.8,24.3c-1.2-5.1-2.1-10.8-2.5-17.1
							c-0.9-14.4,1.4-26.6,4.1-35.4c-1.7-2.8-3.3-5.1-4.3-6.8c-1.1-1.7-1.8-2.7-1.8-2.7l-10.9,2.7L1386.9,785.2z"/>
						<g>
							<g>
								<path class="st20" d="M1344.2,795.9c40.2,24.1,113.3,17.7,144.4-17.3c35.2-39.7,46.2-166.9,0.7-194.1
									c-40.2-24.1-170.8-4-202,31.1C1252.1,655.2,1298.6,768.6,1344.2,795.9z"/>
								<path class="st20" d="M1513.5,654c2-7,21.5-11.9,34.6-5.3c13.1,6.6,6.1,45.2-5.7,52.1c-9.8,5.7-20.5,8-25.1,3.9
									C1512.6,700.5,1509.8,667,1513.5,654z"/>
								<path class="st20" d="M1287.7,688.8c-4-6-24.1-4.9-34.6,5.3c-10.5,10.2,7.7,44.9,21,47.9c11.1,2.5,21.9,1.5,25.2-3.9
									C1302.5,732.9,1295,700,1287.7,688.8z"/>
							</g>
							<g>
								<path class="st23" d="M1419.1,730.9c0.9,0,1.9-0.2,2.7-0.8c7.8-4.8,20.8-18.3,13.6-35.7c-2-4.9-5.6-8.4-10.3-10.3
									c-7-2.8-15.1-1.2-20.3,0.3c-0.5-1.5-1.1-3.6-1.9-6.3c-0.8-2.8-3.7-4.5-6.5-3.7c-2.8,0.8-4.5,3.7-3.7,6.5
									c2.4,8.6,3.7,11.4,4.4,12.7c1.3,2.5,4.3,3.5,6.8,2.3c2.9-1.3,11.7-4.2,17.3-2c2,0.8,3.4,2.2,4.3,4.5
									c5.5,13.2-8.8,22.2-9.4,22.6c-2.5,1.5-3.3,4.8-1.7,7.3C1415.6,730,1417.3,730.9,1419.1,730.9z"/>
								<path class="st23" d="M1472.1,646.9c0.8,0,1.7-0.2,2.4-0.6c2.6-1.4,3.6-4.6,2.2-7.1c-3.3-6.3-14-16.6-31-10.8
									c-2.8,0.9-4.2,4-3.3,6.7c0.9,2.8,3.9,4.3,6.7,3.3c12.8-4.3,18,5.3,18.2,5.7C1468.4,645.9,1470.2,646.9,1472.1,646.9z"/>
								<path class="st23" d="M1317.2,668.9c2.5,0,4.7-1.8,5.2-4.3c0.2-1.2,2.8-11.6,15.6-11c2.7,0,5.3-2.2,5.4-5.2
									c0.1-2.9-2.2-5.3-5.2-5.4c-0.3,0-0.6,0-0.8,0c-17.3,0-24.2,12.8-25.5,19.7c-0.5,2.9,1.4,5.6,4.3,6.1
									C1316.6,668.9,1316.9,668.9,1317.2,668.9z"/>
								<path class="st23" d="M1452.5,666.1c1,6.6,4.4,11.6,7.5,11.1c3.2-0.5,4.9-6.3,3.9-12.9c-1-6.6-4.4-11.6-7.6-11.1
									C1453.2,653.7,1451.5,659.5,1452.5,666.1z"/>
								<path class="st23" d="M1333.5,684.4c1,6.6,4.4,11.6,7.5,11.1c3.1-0.5,4.9-6.3,3.8-12.9c-1-6.6-4.4-11.6-7.5-11.1
									C1334.2,672,1332.5,677.8,1333.5,684.4z"/>
							</g>
							<path class="st23" d="M1531.4,668c-0.8,7.9,1.2,14.6,4.5,14.9c3.3,0.4,1.6-6.5,2.4-14.4c0.9-7.9,4-13.8,0.7-14.2
								C1535.6,654,1532.2,660.2,1531.4,668z"/>
							<path class="st23" d="M1276.1,707.3c3.2,7.3,3.3,14.3,0.2,15.6c-3.1,1.3-3.4-5.8-6.6-13c-3.2-7.3-8-11.9-4.9-13.3
								C1267.8,695.2,1272.9,700,1276.1,707.3z"/>
							<path class="st24" d="M1452.6,708.7c0.6,3.9,11.2,5.5,23.8,3.6c12.5-1.9,22.2-6.7,21.6-10.6c-0.6-3.9-11.3-5.5-23.8-3.6
								C1461.7,700.1,1452,704.8,1452.6,708.7z"/>
							<path class="st24" d="M1312.3,730.3c0.6,3.9,11.3,5.5,23.8,3.6c12.6-1.9,22.2-6.7,21.6-10.6c-0.6-3.9-11.3-5.5-23.8-3.6
								C1321.4,721.7,1311.7,726.4,1312.3,730.3z"/>
							<g>
								<path class="st8" d="M1388.2,756.2c1,3.7,3.4,9.8,8.3,14.3c3.9,3.7,9.5,6.3,17.2,5.8c9-0.6,15.1-3.5,19.2-7.3
									c5.6-5.1,7.4-11.7,8-15.5c0.2-1.7-1-3.1-2.7-3l-47.6,2.4C1388.9,752.9,1387.7,754.5,1388.2,756.2z"/>
							</g>
						</g>
						<path class="st19" d="M1494.4,619.7c0,0-31.8-63.5-101.1-11.5c-50.4,37.8-85.6,11.6-85.6,11.6s-9.5,16-17.4,25.1
							c-10,11.5-8.9,33.1,7,75.1c0.5,1.3-1.1,2.4-2.1,1.5c-4.5-4.1-11.2-10.5-13-13.4c-2.8-4.5-8.4-22.8-8.4-22.8
							s-21.4-61.4-17.8-76.7c5.3-22,29.2-17.6,29.2-17.6s-3.3-14.4,6.7-29.1c22.6-33.3,134.9-63.5,197.3-16.7
							c45.2,33.9,33.7,102.2,33.7,102.2l-1.9,41.3c-0.1,1.5-0.8,3-1.9,4l-5.2,4.5c-1.2,1-3.1,0.2-3-1.4
							C1511.4,682.3,1510.2,656.2,1494.4,619.7z"/>
					</g>
					<path class="st25" d="M1553.8,1109.3c1.6,26.1-6.7,98.3,2.8,166.8l-283.1-2.9c13.6-96.2,12.7-213.3,10.6-245
						c-7.2-111.3-48.9-173.3,58.2-178.3c16.2-3.9,35.5-6.4,58.6-7.4c30.4-1.4,61.1,1.1,88,8.8c26.6,7.6,41.3-0.4,56.6,18.8
						C1576.3,908.8,1550.8,1059.5,1553.8,1109.3z"/>
					<rect x="1398.3" y="851.9" class="st19" width="31.8" height="89.5"/>
					<polyline class="st19" points="1441.9,825.8 1427.8,856.1 1459.2,879.9 1477.6,849.6 1441.9,825.8 					"/>
					<polyline class="st19" points="1388.8,824.7 1402.9,855 1371.5,878.9 1353,848.5 1388.8,824.7 					"/>
					<g>
						<path class="st25" d="M1524,856.7c0,0,36,6.7,56.6,17c20.6,10.4,64.5,159.8,67.1,168.7c2.6,9-30.2,22.1-47.7,26.2
							c-17.5,4.2-27.9,9.9-37.2-23.6c-9.3-33.4-25.9-89.1-25.9-89.1L1524,856.7z"/>
						<polygon class="st19" points="1634.7,985.7 1560.1,1035.4 1567.3,1059.9 1646.2,1019 						"/>
						<path class="st20" d="M1565.9,1058.2c0,0,27.5,57.7,53.2,52.4c47.4-9.8,189.4-122.9,189.4-122.9c0-7.7-18.2-33.6-23.8-38.3
							c-68.8,31.8-150,76.5-218.8,108.3L1565.9,1058.2z"/>
						<path class="st26" d="M1791.6,957.4c3.1,5.4,5.3,10.3,5.3,12.9c0,0-142,113.1-189.4,122.9c-12.2,2.5-24.8-9.2-34.7-22.2
							c9.8,16.7,28.4,43.2,46.2,39.5c47.4-9.8,189.4-122.9,189.4-122.9C1808.5,982.2,1799,967.1,1791.6,957.4z"/>
					</g>
					<path class="st25" d="M1304,856.7c0,0-36,6.7-56.6,17c-20.6,10.4-74.6,195-77.1,204c-2.6,9,39.6,14.6,57.1,18.8
						c17.5,4.1,28.5-18,37.8-51.4c9.3-33.4,25.9-89.1,25.9-89.1L1304,856.7z"/>
					<g>
						<polygon class="st19" points="1195.6,1000.2 1269.3,1047.9 1262.1,1072.4 1184.1,1033.4 						"/>
						<path class="st20" d="M1489.3,1134.8c-5-0.5-17.5,9.4-41.4,8.5c0,0,23.6-5.9,32.9-16.6c9.3-10.7,4.1-17.1-3.1-16.1
							c-7.1,1.1-2.8,7.4-55.7,9.4l-0.2,0.2c-1.6-0.1-3.1-0.1-4.1-0.2c-7.4-0.2-4.5-4.2,2.8-8.3c7.2-4.1,15.1-20.2,13.4-25.7
							c-1.7-5.6-10.8-3.1-18.1,7c-7.3,10.1-34.4,21.6-40.3,26.3c-3.5,2.8-12.2,9.2-18.8,14c-45.3-31.1-90.2-63-140.8-83.9
							c-5.9-2.4-29.3-21.2-33.3-16.1c-20.2,26-25.1,69.7-6.4,88.2c34.4,34,185.1,72.4,225,74.8c0,0,0-0.1,0-0.1
							c12.5,2.5,28.3,4.7,35.2,1.2c12.1-6.2,6-12.9,6-12.9s21.2-2,26.1-6.4c10.1-9.2,6.8-15.1,6.8-15.1s8.3-1.4,14.6-12.1
							C1496.2,1140.3,1494.2,1135.3,1489.3,1134.8z"/>
						<g>
							<path class="st26" d="M1455.4,1167.3c0,0,6.1,6.7-6,12.9c-6.8,3.5-22.7,1.3-35.2-1.2c0,0,0,0,0,0.1
								c-39.9-2.4-190.6-40.9-225-74.8c-15.1-14.9-14.8-46.3-3.4-71.6c-1.4-0.2-2.5-0.1-3.1,0.7c-20.2,26-25.1,69.7-6.4,88.2
								c34.4,34,185.1,72.4,225,74.8c0,0,0-0.1,0-0.1c12.5,2.5,28.3,4.7,35.2,1.2c12.1-6.2,6-12.9,6-12.9s21.2-2,26.1-6.4
								c8.4-7.6,7.5-12.9,7-14.5C1467.5,1166.2,1455.4,1167.3,1455.4,1167.3z"/>
							<path class="st26" d="M1488.3,1145.8c0,0,2.6,4.8-4.2,12.4c1.9-1.7,3.9-4,5.8-7.2c1.6-2.8,2.7-5.2,3.3-7.2
								C1490.4,1145.5,1488.3,1145.8,1488.3,1145.8z"/>
						</g>
						<path class="st20" d="M1778.8,1002.4l-14-40.9c0,0,18.8-18.2,24-23.7c5.1-5.5,30.3-20.8,36-31.9c5.8-11,14.4-14.8,16.9-9.5
							c2.5,5.3-3,22.3-9.6,27.4c-6.5,5.1-8.8,9.5-1.5,8.6c1-0.1,2.4-0.3,4.1-0.4l0.2-0.2c52-9.6,46.8-15.3,53.8-17.4
							c7-2.1,13,3.5,5.4,15.5c-7.7,11.9-30.1,21.2-30.1,21.2c23.8-2.6,34.7-14.2,39.7-14.5c5-0.2,7.6,4.4,3,15.9
							c-4.6,11.5-12.7,14.1-12.7,14.1s4.2,5.4-4.5,15.9c-4.2,5.1-24.9,10.1-24.9,10.1s7,5.8-4,13.6c-9.3,6.6-40.2,3.8-49.8,2.8
							C1796.9,1007.6,1778.8,1002.4,1778.8,1002.4z"/>
						<g>
							<path class="st26" d="M1903.6,936.6c-0.6,0-1.4,0.3-2.3,0.7c-4.7,9.7-11.7,12-11.7,12s4.1,5.4-4.5,15.9
								c-4.2,5.1-24.9,10.1-24.9,10.1s7,5.8-4,13.6c-9.3,6.6-40.2,3.8-49.8,2.8c-13.7-1.4-31.8-6.6-31.8-6.6l4.3,17.3
								c0,0,18.1,5.2,31.8,6.5c9.6,1,40.5,3.9,49.8-2.8c11-7.8,4-13.6,4-13.6s20.7-5,24.9-10.1c8.7-10.5,4.5-15.9,4.5-15.9
								s8.1-2.5,12.7-14.1C1911.2,941,1908.6,936.3,1903.6,936.6z"/>
						</g>
					</g>
				</g>
			</g>
			<path class="st19" d="M1413.5,579.2c0,0,23.1-17.3,57.8-5.8C1506,585,1506,585,1506,585s20.2,2.9,23.1-28.9
				c4.2-46.4-26-54.9-54.9-57.8c-32.1-3.2-66.5,18-78,26c-18.3,12.7-83.8,20.2-83.8,20.2L1413.5,579.2z"/>
		</g>
		<g>
			<g>
				<path class="st27" d="M1813.1,1209.1l30.7-72.9c0.7-1.6-0.1-3.4-1.6-4l-51.5-21.7l-33.1,78.5l51.5,21.7
					C1810.7,1211.4,1812.5,1210.7,1813.1,1209.1z"/>
				<path class="st27" d="M1857.5,1103.7L1857.5,1103.7c3.8-9-0.4-19.4-9.4-23.2l-38-16l-13.7,32.6l38,16
					C1843.4,1117,1853.8,1112.7,1857.5,1103.7z"/>
			</g>
			<g class="st28">
				<path class="st29" d="M1854.1,969.7l-9.4-39.4c-1.6-6.5-8.1-10.5-14.6-9l0,0c-6.5,1.6-10.5,8.1-9,14.6l9.4,39.4
					c1.6,6.5,8.1,10.5,14.6,9l0,0C1851.7,982.8,1855.7,976.2,1854.1,969.7z"/>
				<path class="st30" d="M1854.1,969.7l-9.4-39.4c-1.6-6.5-8.1-10.5-14.6-9l0,0c-6.5,1.6-10.5,8.1-9,14.6l9.4,39.4
					c1.6,6.5,8.1,10.5,14.6,9l0,0C1851.7,982.8,1855.7,976.2,1854.1,969.7z"/>
				<path class="st29" d="M1834.9,975.4l-9.4-39.4c-1.6-6.5,2.5-13.1,9-14.6c0.3-0.1,0.5-0.1,0.8-0.1c-1.6-0.3-3.4-0.3-5.1,0.1
					c-6.5,1.6-10.5,8.1-9,14.6l9.4,39.4c1.5,6.3,7.6,10.2,13.9,9.1C1839.9,983.6,1836,980.2,1834.9,975.4z"/>
				<path class="st29" d="M1874.3,937.8l-19.9,7.2c-6.3,2.2-9.7,9.1-7.5,15.4l0,0c2.2,6.3,9.1,9.7,15.4,7.5l19.9-7.2
					c6.3-2.2,9.7-9.1,7.5-15.4l0,0C1887.5,939,1880.6,935.6,1874.3,937.8z"/>
				<path class="st30" d="M1874.3,937.8l-19.9,7.2c-6.3,2.2-9.7,9.1-7.5,15.4l0,0c2.2,6.3,9.1,9.7,15.4,7.5l19.9-7.2
					c6.3-2.2,9.7-9.1,7.5-15.4l0,0C1887.5,939,1880.6,935.6,1874.3,937.8z"/>
			</g>
			<g>
				<path class="st27" d="M1932.9,784.9c2-8.3-2.3-16.9-10.4-20.3c-8.9-3.6-19.1,0.6-22.8,9.6l-166,407c-3.5,8.6,0.3,18.3,8.6,22.3
					l0,0c9.1,4.3,19.9,0.2,23.7-9.1l166-407C1932.5,786.6,1932.7,785.7,1932.9,784.9z"/>
				<path class="st31" d="M1749.6,1203.5c-8.3-4-12.1-13.8-8.6-22.3l166-407c2.3-5.6,7.1-9.3,12.5-10.5c-8.1-1.7-16.5,2.5-19.7,10.5
					l-166,407c-3.5,8.5,0.3,18.3,8.6,22.3c3.6,1.7,7.5,2.1,11.1,1.3C1752.2,1204.5,1750.9,1204.1,1749.6,1203.5z"/>
			</g>
			<g class="st28">
				<path class="st29" d="M1902.3,911l-13.1-16.7c-4.1-5.3-11.7-6.4-17-2.3l0,0c-5.3,4.1-6.4,11.7-2.3,17l13.1,16.7
					c4.1,5.3,11.7,6.4,17,2.3l0,0C1905.3,923.9,1906.4,916.3,1902.3,911z"/>
				<path class="st29" d="M1908.9,895.8l-13.1-16.7c-4.1-5.3-11.7-6.4-17-2.3l0,0c-5.3,4.1-6.4,11.7-2.3,17l13.1,16.7
					c4.1,5.3,11.7,6.4,17,2.3l0,0C1911.9,908.8,1912.9,901.2,1908.9,895.8z"/>
				<path class="st29" d="M1894.4,925.8l-13.1-16.7c-4.1-5.3-11.7-6.4-17-2.3l0,0c-5.3,4.1-6.4,11.7-2.3,17l13.1,16.7
					c4.1,5.3,11.7,6.4,17,2.3l0,0C1897.4,938.7,1898.4,931.1,1894.4,925.8z"/>
				<path class="st29" d="M1887.1,942.4l-13.1-16.7c-4.1-5.3-11.7-6.4-17-2.3l0,0c-5.3,4.1-6.4,11.7-2.3,17l13.1,16.7
					c4.1,5.3,11.7,6.4,17,2.3l0,0C1890.2,955.3,1891.2,947.7,1887.1,942.4z"/>
				<path class="st29" d="M1791.6,869.9L1791.6,869.9c11.6-27.6,45.9-37.2,70.1-19.4c18.4,13.5,35.8,26.5,37.2,30.1
					c8.8,22.1-30.2,66.1-43.1,65.9c-6.1-0.1-24.6-8.5-42.3-17.3C1791.8,918.2,1782.2,892.3,1791.6,869.9z"/>
			</g>
			<path class="st32" d="M1908.9,895.8l-9-11.5c-0.2-1.3-0.5-2.6-1-3.9c-1.4-3.6-18.9-16.5-37.2-30.1c-24.1-17.7-58.5-8.2-70.1,19.4
				c-9.4,22.5,0.2,48.4,22,59.2c17.7,8.8,36.2,17.3,42.3,17.3c0.9,0,2-0.2,3.2-0.7l8.8,11.3c4.1,5.3,11.7,6.4,17,2.3
				c4.6-3.5,6-9.7,3.7-14.8c1.2-0.4,2.5-1,3.6-1.8c4.1-3.1,5.6-8.3,4.3-12.9c1.3-0.4,2.5-1,3.6-1.8c4.3-3.3,5.8-8.9,4-13.7
				c0.9-0.4,1.7-0.8,2.5-1.4C1911.9,908.8,1912.9,901.2,1908.9,895.8z"/>
			
				<ellipse transform="matrix(0.9835 -0.1811 0.1811 0.9835 -109.5715 360.6317)" class="st27" cx="1919.6" cy="780.2" rx="78.4" ry="78.4"/>
			<path class="st31" d="M1851.8,789.3c-5-43,25.7-81.9,68.7-87c1.5-0.2,3-0.2,4.6-0.3c-4.8-0.3-9.7-0.3-14.6,0.3
				c-43,5-73.8,44-68.7,87c4.9,41.5,41.3,71.5,82.4,69C1887.3,855.8,1856.3,827.4,1851.8,789.3z"/>
			<g>
				<path class="st31" d="M1890.8,754c4.7-7,9.7-12.5,14.5-15.7l11.6,7.3c-5.6,3.9-11.1,9.5-15.1,15.4l17,10.7l1.1-0.9
					c11.9-10.9,19.7-12.5,29.3-6.4c10,6.3,12.2,16.8,5.8,30.2l7.7,4.8l-6.1,9.6l-7.5-4.7c-4.1,5.7-8.4,10.3-11.7,12.9l-11.6-7.3
					c4.5-3.5,8.7-7.8,12.1-12.7l-16.2-10.2c-13.2,11.8-21.8,11.7-30.6,6.2c-9.3-5.8-12.1-15.9-6.2-29.3l-7.9-5l6.1-9.6L1890.8,754z
					 M1943.5,787.2c1.5-4.1,0.9-7.3-2.6-9.5c-3.3-2.1-5.8-1.8-10.2,1.5L1943.5,787.2z M1899.8,779.8c3.3,2.1,6.1,2,9.9-0.4
					l-13.2-8.3C1895.3,774.8,1896.2,777.5,1899.8,779.8z"/>
			</g>
		</g>
		<g>
			<g>
				<path class="st3" d="M1631.7,1438l-149.1,101.3l-156-90.3c-38.9-22.5-63.4-63.4-65-108.2l-4-111.8l-7.5-207.7l212-52.4l215.3,37
					l7.5,207.7l4,111.8C1690.4,1370.2,1668.9,1412.8,1631.7,1438z"/>
				<path class="st2" d="M1462.1,968.8l-212,52.4l7.5,207.7l4,111.8c1.6,44.9,26.2,85.7,65,108.2l156,90.3l149.1-101.3
					c37.1-25.2,58.7-67.8,57.1-112.6l-4-111.8l-7.5-207.7L1462.1,968.8z M1678.1,1323.6c1.4,38.3-16.7,74.1-48.5,95.6l-138.9,94.3
					l-145.3-84.1c-33.2-19.2-53.8-53.5-55.2-91.9l-10.9-303.5l192.5-47.5l195.4,33.6L1678.1,1323.6z"/>
			</g>
			<g>
				<g>
					<path class="st33" d="M1542,1263.2l-146.9,1.7l-1.4-116c-0.5-40.5,32.1-73.8,72.6-74.3c40.5-0.5,73.8,32.1,74.3,72.6
						L1542,1263.2z M1432,1227.2l72.3-0.8l-0.9-78.8c-0.2-19.9-16.6-36-36.6-35.7c-19.9,0.2-36,16.6-35.7,36.6L1432,1227.2z"/>
				</g>
				<path class="st27" d="M1520,1097.1c-13.3-12.2-31.1-19.7-50.5-19.4c-40.5,0.5-73.1,33.8-72.6,74.3l1.3,112.9l143.8-1.7l-1.4-116
					C1540.4,1127.7,1532.6,1110.1,1520,1097.1z M1435.1,1230.3l0-3.1l-3.1,0l-0.9-78.8c-0.2-19.9,15.8-36.4,35.7-36.6
					c10.8-0.1,20.5,4.5,27.2,11.9c7.6,6.5,12.4,16.2,12.5,26.9l0.9,78.8L1435.1,1230.3z"/>
				<g>
					<path class="st27" d="M1540.2,1370.4l-140.7,1.6c-21.4,0.2-39-16.9-39.2-38.3l-1.5-131.1c-0.1-9.6,7.6-17.4,17.1-17.5
						l183.7-2.1c9.6-0.1,17.4,7.6,17.5,17.1l1.5,131.1C1578.8,1352.6,1561.6,1370.1,1540.2,1370.4z"/>
					<path class="st31" d="M1577.2,1214.2l-169.5,2c-9.6,0.1-17.2,8-17.1,17.5l1.5,131.1c0,2.3,0.3,4.5,0.7,6.7
						c2.2,0.4,4.4,0.5,6.7,0.5l140.7-1.6c21.4-0.2,38.6-17.8,38.3-39.2L1577.2,1214.2z"/>
					<g class="st4">
						<path class="st3" d="M1391.6,1213.2c0,4.2-3.3,7.6-7.5,7.6c-4.2,0-7.6-3.3-7.6-7.5c0-4.2,3.3-7.6,7.5-7.6
							C1388.2,1205.7,1391.6,1209.1,1391.6,1213.2z"/>
						<path class="st3" d="M1565.6,1211.2c0,4.2-3.3,7.6-7.5,7.6c-4.2,0-7.6-3.3-7.6-7.5c0-4.2,3.3-7.6,7.5-7.6
							C1562.1,1203.7,1565.5,1207,1565.6,1211.2z"/>
					</g>
					<path class="st2" d="M1393.2,1349.9c0,4.2-3.3,7.6-7.5,7.6c-4.2,0-7.6-3.3-7.6-7.5c0-4.2,3.3-7.6,7.5-7.6
						C1389.8,1342.4,1393.2,1345.8,1393.2,1349.9z"/>
					<path class="st33" d="M1364.5,1337.9l-1.5-131.1c-0.1-9.6,7.6-17.4,17.1-17.5l183.7-2.1c3.7,0,7.1,1.1,9.9,3
						c-3.2-4.4-8.4-7.3-14.3-7.2l-183.7,2.1c-9.6,0.1-17.2,8-17.1,17.5l1.5,131.1c0.1,11.8,5.5,22.3,13.9,29.3
						C1368.3,1356.3,1364.6,1347.5,1364.5,1337.9z"/>
					<g>
						<g>
							<path class="st1" d="M1388.5,1210.2c0,4.2-3.3,7.6-7.5,7.6c-4.2,0-7.6-3.3-7.6-7.5c0-4.2,3.3-7.6,7.5-7.6
								C1385,1202.7,1388.4,1206,1388.5,1210.2z"/>
							<circle class="st1" cx="1554.9" cy="1208.2" r="7.5"/>
						</g>
						<g>
							<path class="st1" d="M1390.1,1346.8c0,4.2-3.3,7.6-7.5,7.6c-4.2,0-7.6-3.3-7.6-7.5c0-4.2,3.3-7.6,7.5-7.6
								C1386.6,1339.3,1390,1342.7,1390.1,1346.8z"/>
							
								<ellipse transform="matrix(0.6988 -0.7153 0.7153 0.6988 -493.2189 1518.4147)" class="st1" cx="1556.5" cy="1344.9" rx="7.5" ry="7.5"/>
						</g>
					</g>
				</g>
				<g>
					<g>
						<path class="st8" d="M1480.2,1316.5l-22.1,0.3c-5.5,0.1-9.7-4.7-9-10.1l5.9-45.8l27.1-0.3l6.9,45.6
							C1489.8,1311.6,1485.7,1316.5,1480.2,1316.5z"/>
						
							<ellipse transform="matrix(0.7071 -0.7071 0.7071 0.7071 -456.9195 1405.7627)" class="st8" cx="1468.4" cy="1254.4" rx="29.5" ry="29.5"/>
					</g>
				</g>
			</g>
			<g>
				<path class="st0" d="M1483.4,1562.5l-166.8-96.5c-45-26-73-72.6-74.9-124.6l-12.1-335.5l231.6-57.2l235.1,40.4l12.1,335.5
					c1.9,52-22.7,100.4-65.7,129.7l-11.1-16.3l11.1,16.3L1483.4,1562.5z M1270.3,1036.5l10.9,303.5c1.4,38.3,22,72.7,55.2,91.9
					l145.3,84.1l138.9-94.3c31.7-21.5,49.8-57.3,48.5-95.6l-10.9-303.5L1462.8,989L1270.3,1036.5z"/>
			</g>
			<g>
				<path class="st3" d="M1322.3,1464.5c-45-26-73-72.6-74.9-124.6l-12.1-335.4l-5.6,1.4l12.1,335.5c1.9,52,29.9,98.6,74.9,124.6
					l166.8,96.5l3.8-2.6L1322.3,1464.5z"/>
			</g>
		</g>
	</g>
</g>
</svg>
