<?xml version="1.0" encoding="utf-8"?>
<!-- Generator: Adobe Illustrator 24.3.0, SVG Export Plug-In . SVG Version: 6.00 Build 0)  -->
<svg version="1.1" id="Layer_4" xmlns="http://www.w3.org/2000/svg" xmlns:xlink="http://www.w3.org/1999/xlink" x="0px" y="0px"
	 viewBox="0 0 2000 2000" style="enable-background:new 0 0 2000 2000;" xml:space="preserve">
<style type="text/css">
	.st0{fill:#C5E1F9;}
	.st1{fill:#FFFFFF;}
	.st2{fill:#B0BFDE;}
	.st3{fill:#484F59;}
	.st4{fill:#FF876C;}
	.st5{fill:#CAEAFC;}
	.st6{fill:#F7B68B;}
	.st7{fill:#F3F3F3;}
	.st8{fill:#7EB3FF;}
	.st9{fill:none;stroke:#B0D9EF;stroke-width:2.0431;stroke-miterlimit:10;}
	.st10{fill:#9AC7F7;}
	.st11{fill:#161711;}
	.st12{fill:#D1DBEA;}
	.st13{fill:#163F59;}
	.st14{fill:#EC9568;}
	.st15{fill:#194866;}
	.st16{fill:#AD5C49;}
	.st17{fill:#2F4A60;}
	.st18{fill:#E5E8EC;}
	.st19{fill:#CDD5D7;}
	.st20{fill:none;stroke:#D8E5ED;stroke-width:1.0216;}
	.st21{fill:none;stroke:#D8E5ED;stroke-width:3.0647;}
	.st22{fill:#B5D1DE;}
	.st23{fill:#D8E5ED;stroke:#B5D1DE;stroke-width:2.0431;}
	.st24{fill:none;stroke:#D8E5ED;stroke-width:2.0431;}
	.st25{fill:none;stroke:#FD2227;stroke-width:4.0863;}
	.st26{fill:none;stroke:#0561FC;stroke-width:4.0863;}
	.st27{fill:none;stroke:#7EB3FF;stroke-width:4.0863;}
	.st28{fill:none;stroke:#FFAB01;stroke-width:4.0863;}
	.st29{fill:#DBDAC6;}
	.st30{fill:#212957;}
	.st31{fill:#3B47BC;}
	.st32{fill:#1C4997;}
	.st33{fill:#281617;}
	.st34{fill:none;stroke:#9AC7F7;stroke-width:0.7369;stroke-miterlimit:10;}
	.st35{fill:#0561FC;}
	.st36{fill:none;stroke:#FFFFFF;stroke-width:1.8577;}
	.st37{opacity:0.1;fill:#163F59;}
	.st38{fill:none;stroke:#9AC7F7;stroke-width:2.0431;stroke-miterlimit:10;}
	.st39{fill:#FD2227;}
	.st40{fill:#B0D9EF;}
	.st41{fill:#FFAB01;}
	.st42{fill:#282723;}
	.st43{fill:#FEC12F;}
	.st44{fill:#975140;}
	.st45{fill:#1975BA;}
	.st46{fill:#0063CB;}
	.st47{fill:none;stroke:#8DCFFF;stroke-width:0.3894;stroke-miterlimit:10;}
	.st48{fill:#DD000B;}
	.st49{fill:#EAF4FE;}
	.st50{fill:#F0BF97;}
	.st51{fill:none;stroke:#7EB3FF;stroke-width:0.6813;stroke-miterlimit:10;}
	.st52{fill:#367082;}
	.st53{fill:#88BDDA;}
	.st54{fill:#ACD5F4;}
	.st55{fill:#001F46;}
	.st56{fill:#8DCFFF;}
	.st57{fill:#7DC2F5;}
	.st58{fill:#D0DEE6;}
	.st59{fill:#B6C2C9;}
	.st60{fill:#D7DFE2;}
	.st61{fill:#387BFF;}
	.st62{fill:none;stroke:#EAF4FE;stroke-width:0.9577;stroke-miterlimit:10;}
	.st63{fill:#212A54;}
	.st64{fill:none;stroke:#7EB3FF;stroke-width:3;stroke-miterlimit:10;}
	.st65{fill:none;stroke:#9AC7F7;stroke-width:0.9577;stroke-miterlimit:10;}
	.st66{fill:#89A000;}
	.st67{fill:#9FC400;}
	.st68{fill:none;stroke:#8DCFFF;stroke-width:0.4788;stroke-miterlimit:10;}
	.st69{fill:none;stroke:#7DC2F5;stroke-width:1.4767;stroke-miterlimit:10;}
	.st70{fill:#F8C44F;}
	.st71{fill:#FFD917;}
	.st72{fill:none;stroke:#161711;stroke-width:1.4533;stroke-miterlimit:10;}
	.st73{fill:#2C7EEA;}
	.st74{fill:none;stroke:#EAF4FE;stroke-width:0.8639;stroke-miterlimit:10;}
</style>
<g>
	<g>
		<path class="st0" d="M1952.8,339.9c0,90.5-73.4,163.9-163.9,163.9c-90.5,0-163.9-73.4-163.9-163.9c0-90.5,73.4-163.9,163.9-163.9
			C1879.5,176,1952.8,249.4,1952.8,339.9z"/>
		<path class="st1" d="M1934.6,339.9c0,80.5-65.2,145.7-145.7,145.7c-80.4,0-145.7-65.2-145.7-145.7c0-80.5,65.2-145.7,145.7-145.7
			C1869.4,194.2,1934.6,259.4,1934.6,339.9z"/>
		<g>
			<g>
				<rect x="1786.5" y="205" class="st2" width="5.1" height="5.1"/>
				<rect x="1786.5" y="205.4" class="st2" width="5.1" height="30.9"/>
				<polygon class="st2" points="1739.4,248.6 1735,251.1 1719.5,224.4 1723.9,221.9 				"/>
				<polygon class="st2" points="1700.3,285.7 1697.8,290.1 1671.1,274.7 1673.6,270.2 				"/>
				<polygon class="st2" points="1684.8,337.2 1684.9,342.3 1654,342.3 1654,337.2 				"/>
				<polygon class="st2" points="1697.7,389.6 1700.3,394 1673.5,409.4 1671,405 				"/>
				<polygon class="st2" points="1734.8,428.6 1739.2,431.2 1723.8,457.9 1719.4,455.3 				"/>
				<polygon class="st2" points="1786.3,444 1791.4,444 1791.4,474.8 1786.3,474.8 				"/>
				<polygon class="st2" points="1838.8,431.3 1843.2,428.7 1858.6,455.4 1854.2,457.9 				"/>
				<polygon class="st2" points="1877.6,394 1880.1,389.6 1906.9,405 1904.3,409.4 				"/>
				<polygon class="st2" points="1893,342.5 1893,337.4 1923.8,337.4 1923.7,342.5 				"/>
				<polygon class="st2" points="1880.4,290.2 1877.9,285.8 1904.6,270.4 1907.1,274.8 				"/>
				<polygon class="st2" points="1843.1,251.2 1838.7,248.6 1854.1,221.9 1858.6,224.5 				"/>
				<polygon class="st2" points="1778,210.5 1773,211 1772.4,206 1777.5,205.4 				"/>
				<polygon class="st2" points="1764.6,212.3 1759.6,213.4 1758.5,208.4 1763.5,207.4 				"/>
				<polygon class="st2" points="1751.4,215.6 1746.5,217.2 1745,212.3 1749.8,210.8 				"/>
				<polygon class="st2" points="1738.6,220.2 1733.9,222.3 1731.9,217.6 1736.5,215.6 				"/>
				<polygon class="st2" points="1726.4,226.1 1722,228.7 1719.4,224.3 1723.8,221.7 				"/>
				<polygon class="st2" points="1714.8,233.3 1710.7,236.3 1707.7,232.2 1711.9,229.2 				"/>
				
					<rect x="1698" y="238.9" transform="matrix(0.7436 -0.6686 0.6686 0.7436 274.5733 1198.9083)" class="st2" width="5.1" height="5.1"/>
				<polygon class="st2" points="1694.3,251.1 1690.9,254.8 1687.1,251.4 1690.5,247.7 				"/>
				<polygon class="st2" points="1685.5,261.5 1682.5,265.6 1678.4,262.6 1681.4,258.5 				"/>
				<polygon class="st2" points="1677.9,272.7 1675.4,277.1 1671,274.5 1673.5,270.1 				"/>
				<polygon class="st2" points="1671.5,284.7 1669.4,289.3 1664.8,287.2 1666.9,282.6 				"/>
				
					<rect x="1660.6" y="296.3" transform="matrix(0.3096 -0.9509 0.9509 0.3096 863.9902 1787.7574)" class="st2" width="5.1" height="5.1"/>
				<polygon class="st2" points="1662.6,310.3 1661.5,315.3 1656.5,314.2 1657.6,309.2 				"/>
				<polygon class="st2" points="1660.2,323.7 1659.7,328.7 1654.6,328.2 1655.1,323.1 				"/>
				<polygon class="st2" points="1659.2,337.2 1659.2,342.3 1654.1,342.3 1654.1,337.2 				"/>
				<polygon class="st2" points="1659.7,350.8 1660.2,355.9 1655.1,356.4 1654.6,351.3 				"/>
				<polygon class="st2" points="1661.5,364.3 1662.6,369.3 1657.6,370.3 1656.5,365.3 				"/>
				<polygon class="st2" points="1664.8,377.5 1666.3,382.3 1661.5,383.9 1659.9,379 				"/>
				<polygon class="st2" points="1669.4,390.2 1671.4,394.9 1666.8,396.9 1664.7,392.3 				"/>
				<polygon class="st2" points="1675.3,402.5 1677.8,406.9 1673.4,409.4 1670.9,405 				"/>
				<polygon class="st2" points="1682.5,414 1685.5,418.1 1681.3,421.1 1678.4,417 				"/>
				<polygon class="st2" points="1690.8,424.7 1694.2,428.5 1690.4,431.9 1687,428.1 				"/>
				<polygon class="st2" points="1700.3,434.5 1704,437.9 1700.6,441.7 1696.8,438.3 				"/>
				<polygon class="st2" points="1710.6,443.3 1714.7,446.3 1711.7,450.4 1707.6,447.4 				"/>
				<polygon class="st2" points="1721.9,450.9 1726.3,453.5 1723.7,457.9 1719.3,455.3 				"/>
				<polygon class="st2" points="1733.9,457.3 1738.5,459.4 1736.4,464 1731.7,462 				"/>
				<polygon class="st2" points="1746.4,462.4 1751.3,464 1749.7,468.9 1744.9,467.3 				"/>
				<polygon class="st2" points="1759.4,466.2 1764.4,467.3 1763.4,472.3 1758.4,471.2 				"/>
				<polygon class="st2" points="1772.8,468.6 1777.9,469.2 1777.3,474.2 1772.3,473.7 				"/>
				<polygon class="st2" points="1786.4,469.6 1791.5,469.6 1791.5,474.7 1786.4,474.7 				"/>
				
					<rect x="1800.2" y="468.9" transform="matrix(0.9948 -0.1017 0.1017 0.9948 -38.6102 185.8638)" class="st2" width="5.1" height="5.1"/>
				<polygon class="st2" points="1813.4,467.3 1818.4,466.3 1819.5,471.2 1814.5,472.3 				"/>
				<polygon class="st2" points="1826.6,464.1 1831.4,462.5 1833,467.3 1828.2,468.9 				"/>
				<polygon class="st2" points="1839.4,459.4 1844.1,457.4 1846.1,462 1841.5,464.1 				"/>
				<polygon class="st2" points="1851.6,453.5 1856,451 1858.6,455.4 1854.2,457.9 				"/>
				<polygon class="st2" points="1863.2,446.3 1867.3,443.4 1870.2,447.5 1866.2,450.5 				"/>
				<polygon class="st2" points="1873.9,438 1877.7,434.6 1881.1,438.4 1877.3,441.8 				"/>
				<polygon class="st2" points="1883.7,428.6 1887.1,424.8 1890.9,428.2 1887.5,432 				"/>
				<polygon class="st2" points="1892.4,418.2 1895.4,414.1 1899.5,417.1 1896.6,421.2 				"/>
				<polygon class="st2" points="1900.1,407 1902.6,402.6 1907,405.1 1904.5,409.5 				"/>
				<polygon class="st2" points="1906.5,395 1908.6,390.4 1913.2,392.4 1911.2,397.1 				"/>
				<polygon class="st2" points="1911.6,382.4 1913.2,377.6 1918,379.2 1916.5,384 				"/>
				<polygon class="st2" points="1915.4,369.4 1916.5,364.4 1921.4,365.5 1920.4,370.4 				"/>
				<polygon class="st2" points="1917.8,356 1918.3,350.9 1923.4,351.5 1922.9,356.5 				"/>
				<polygon class="st2" points="1918.8,342.4 1918.8,337.4 1923.9,337.4 1923.9,342.4 				"/>
				<polygon class="st2" points="1918.3,328.8 1917.8,323.8 1922.9,323.3 1923.4,328.3 				"/>
				<polygon class="st2" points="1916.5,315.4 1915.4,310.4 1920.4,309.4 1921.5,314.3 				"/>
				<polygon class="st2" points="1913.2,302.2 1911.7,297.4 1916.5,295.8 1918.1,300.6 				"/>
				<polygon class="st2" points="1908.6,289.4 1906.5,284.8 1911.2,282.7 1913.3,287.3 				"/>
				<polygon class="st2" points="1902.7,277.2 1900.1,272.8 1904.6,270.3 1907.1,274.6 				"/>
				<polygon class="st2" points="1895.5,265.7 1892.5,261.6 1896.7,258.6 1899.7,262.7 				"/>
				<polygon class="st2" points="1887.2,254.9 1883.8,251.2 1887.6,247.8 1891,251.5 				"/>
				<polygon class="st2" points="1877.8,245.1 1874,241.8 1877.4,238 1881.2,241.3 				"/>
				<polygon class="st2" points="1867.4,236.4 1863.3,233.4 1866.3,229.3 1870.4,232.2 				"/>
				<polygon class="st2" points="1856.1,228.8 1851.7,226.2 1854.3,221.8 1858.7,224.3 				"/>
				<polygon class="st2" points="1844.1,222.3 1839.5,220.3 1841.6,215.6 1846.2,217.7 				"/>
				<polygon class="st2" points="1831.6,217.2 1826.7,215.7 1828.3,210.8 1833.2,212.4 				"/>
				<polygon class="st2" points="1818.5,213.4 1813.6,212.4 1814.6,207.4 1819.6,208.4 				"/>
				<polygon class="st2" points="1805.1,211.1 1800.1,210.5 1800.6,205.5 1805.7,206 				"/>
			</g>
			<polygon class="st3" points="1775.6,329.4 1773,333.8 1726.8,307.2 1729.4,302.7 			"/>
			<g>
				<polygon class="st3" points="1784.8,338.1 1774.1,332 1774.8,330.8 1785.4,336.9 				"/>
			</g>
			<polygon class="st3" points="1814,324.4 1811.1,320.2 1885.5,267.1 1888.4,271.3 			"/>
			<g>
				<polygon class="st3" points="1792.7,336.8 1792,335.8 1813.6,320.4 1814.3,321.4 				"/>
			</g>
			<g>
				<path class="st3" d="M1788.8,343.4c-2.6,0-4.8-2.1-4.8-4.8c0-2.6,2.1-4.8,4.8-4.8c2.6,0,4.7,2.2,4.7,4.8
					C1793.6,341.2,1791.4,343.4,1788.8,343.4z M1788.8,335.2c-1.9,0-3.5,1.6-3.5,3.5c0,1.9,1.5,3.4,3.5,3.4c1.9,0,3.4-1.6,3.4-3.4
					C1792.3,336.7,1790.7,335.2,1788.8,335.2z"/>
			</g>
			<g>
				<g>
					<path class="st4" d="M1788.8,341.9c-1.8,0-3.2-1.5-3.2-3.2c0-1.8,1.5-3.2,3.2-3.2c1.8,0,3.2,1.4,3.2,3.2
						C1792,340.4,1790.6,341.9,1788.8,341.9z M1788.8,336.7c-1.1,0-1.9,0.9-1.9,1.9c0,1.1,0.9,1.9,1.9,1.9c1,0,1.9-0.8,1.9-1.9
						C1790.7,337.6,1789.9,336.7,1788.8,336.7z"/>
				</g>
				<rect x="1788.5" y="341.5" class="st4" width="0.9" height="110.5"/>
				<rect x="1788.5" y="320.9" class="st4" width="0.9" height="15.2"/>
			</g>
		</g>
	</g>
	<path class="st5" d="M1558.5,761.6c-137.1-1.3-562-7-819.8-23.9c-478.1-31.3-868.6,20.6-612.1,79.8
		c71.7,16.5-135.1,115.8,371,138.1c444.3,19.6,897.1-22.6,1116.3-40.7c219.2-18.1,320.3-50.2,367.3-64.7
		C2022.5,837.6,2037.8,766.2,1558.5,761.6z"/>
	<g>
		<path class="st6" d="M308.6,365.1l15.2-56.3c0,0-28.9,32.9-30,51.5C292.8,379,308.6,365.1,308.6,365.1z"/>
		<path class="st6" d="M150.3,374.6l-45-31c0,0,22.7,38.9,33.9,46.1C150.3,397,150.3,374.6,150.3,374.6z"/>
		<g>
			<path class="st1" d="M113.9,350.4c0,0,3.8-9.2,2.4-11.6c-1.4-2.5-7-11.2-7-11.2l-1.7-2.1c0,0-3.3,0.5,0.5,6.3
				c3.9,5.8,0.4,4,0.4,4l-5.5-3.9l-7.2-4.3l-2.9-2.3c0,0-1.6-1.4-2.2-1.5c-1.9-0.1-1.3,1.4-1.3,1.4l10.6,9.9l-12.3-6.5
				c0,0-1.7-0.6-2.3,0.1c-0.6,0.7-0.1,1-0.1,1l12.2,10.6l-6.7-2.7c0,0-1.7-0.5-2.3,0.2c-0.7,0.7-0.9,0.9-0.9,0.9l24.5,13.8
				L113.9,350.4z"/>
			<path class="st1" d="M98.1,336.9l-8.9-4.1c0,0-1.9-1.1-3.1-1.1c-1.4,0-1.4,1.2-1.4,1.2l12.9,7.5L98.1,336.9z"/>
		</g>
		<g>
			<path class="st1" d="M317.9,319.9c0,0-5.7-8.1-4.9-10.8c0.8-2.7,4.3-12.5,4.3-12.5l1.1-2.4c0,0,3.4-0.2,0.9,6.3
				c-2.5,6.5,0.5,4,0.5,4l4.5-5.1l6-5.8l2.3-2.9c0,0,1.2-1.8,1.8-1.9c1.9-0.5,1.6,1.1,1.6,1.1l-8.1,12.1l10.5-9.2c0,0,1.5-1,2.3-0.4
				c0.7,0.5,0.3,0.9,0.3,0.9l-9.5,13.1l6-4.1c0,0,1.5-0.9,2.3-0.4c0.8,0.6,1.1,0.7,1.1,0.7l-20.8,19L317.9,319.9z"/>
			<path class="st1" d="M330.3,303.2l7.8-6c0,0,1.6-1.5,2.8-1.8c1.4-0.3,1.7,0.9,1.7,0.9l-10.8,10.2L330.3,303.2z"/>
		</g>
	</g>
	<polygon class="st2" points="246,397.2 283,373.1 288.6,362.5 285.7,361.9 292.5,352.1 313.9,359.5 309.4,377.4 306.2,377 
		302.2,387 297.3,388.1 265.2,432.3 	"/>
	<g>
		<path class="st7" d="M496.5,293.6c0.7,4.9-2.7,9.4-7.6,10.1L41.2,367.4c-4.9,0.7-9.4-2.7-10.1-7.6l-11-77.2
			c-0.7-4.9,2.7-9.4,7.6-10.1l447.7-63.7c4.9-0.7,9.4,2.7,10.1,7.6L496.5,293.6z"/>
		<path class="st8" d="M118.5,259.6l-90.9,12.9c-4.9,0.7-8.3,5.2-7.6,10.1l11,77.2c0.7,4.9,5.2,8.3,10.1,7.6l90.9-12.9L118.5,259.6z
			"/>
		<g>
			<g>
				<line class="st9" x1="148.2" y1="283.8" x2="247.8" y2="269.7"/>
				<line class="st9" x1="258.5" y1="268.1" x2="321.7" y2="259.2"/>
				<line class="st9" x1="180.1" y1="319.5" x2="193.1" y2="317.6"/>
				<line class="st9" x1="208" y1="288.7" x2="247.7" y2="283.1"/>
				<line class="st9" x1="227.3" y1="299.4" x2="249.6" y2="296.2"/>
				<line class="st9" x1="202.9" y1="316.2" x2="251.5" y2="309.3"/>
				<line class="st9" x1="188.3" y1="291.5" x2="197.4" y2="290.2"/>
				<line class="st9" x1="150.4" y1="296.9" x2="179.3" y2="292.8"/>
				<line class="st9" x1="152.3" y1="310" x2="218.4" y2="300.6"/>
				<line class="st9" x1="154.1" y1="323.2" x2="169.8" y2="320.9"/>
				<line class="st9" x1="258" y1="281.6" x2="306.6" y2="274.7"/>
				<line class="st9" x1="275.3" y1="292.5" x2="338.6" y2="283.4"/>
				<line class="st9" x1="270.6" y1="306.6" x2="310.3" y2="300.9"/>
				<line class="st9" x1="317.4" y1="273.1" x2="336.8" y2="270.4"/>
				<line class="st9" x1="257.8" y1="295" x2="267" y2="293.7"/>
				<line class="st9" x1="261.7" y1="307.9" x2="275.2" y2="305.9"/>
			</g>
		</g>
		<g>
			<path class="st1" d="M68.9,333.4l-8.2,1.2L57.5,312l-0.4-3.7l-0.4-4.1c-1.2,1.6-2,2.6-2.5,3.1l-4,4.2l-4.7-4.4l11.1-11.8l6.8-1
				L68.9,333.4z"/>
			<path class="st1" d="M86.1,290.7c3.7-0.5,6.9-0.1,9.4,1.3c2.5,1.4,4,3.5,4.4,6.4c0.3,2,0,3.8-0.9,5.6c-0.9,1.7-2.5,3.4-4.7,4.9
				c3.1,1.2,5.5,2.5,7,4c1.5,1.5,2.4,3.3,2.7,5.3c0.5,3.2-0.4,5.9-2.7,8.3c-2.2,2.3-5.4,3.7-9.5,4.3c-4.3,0.6-7.7,0.2-10.4-1.3
				c-2.7-1.5-4.3-3.9-4.7-7.2c-0.3-2.2,0-4.3,0.9-6.2c0.9-1.9,2.6-3.7,5-5.4c-2.4-1.1-4.2-2.4-5.4-3.8c-1.2-1.5-1.9-3.1-2.2-5
				c-0.4-2.8,0.4-5.2,2.5-7.3C79.5,292.5,82.4,291.2,86.1,290.7z M87,296.7c-1.4,0.2-2.5,0.7-3.2,1.6c-0.8,0.8-1.1,1.9-0.9,3.1
				c0.2,1.1,0.6,2,1.4,2.7c0.8,0.7,2.2,1.4,4.1,2.1c1.6-1.1,2.7-2.1,3.3-3c0.6-1,0.8-2,0.6-3.1c-0.2-1.2-0.8-2.1-1.7-2.7
				C89.5,296.7,88.3,296.5,87,296.7z M84.2,320.6c0.2,1.5,0.9,2.6,2.1,3.3c1.2,0.7,2.7,0.9,4.6,0.7c2-0.3,3.5-0.9,4.4-2
				c0.9-1,1.2-2.3,1-3.7c-0.2-1.2-0.8-2.2-2-3.1c-1.2-0.9-2.9-1.8-5.4-2.6C85.4,315.5,83.8,318,84.2,320.6z"/>
		</g>
		<g>
			<path class="st10" d="M445.5,235.5c-9.7,1.4-16.5,10.4-15.1,20.1c1.3,9.1,18,24,19.9,25.6l2,1.7l1.4-2.2
				c1.4-2.1,13.3-21.1,12-30.2C464.2,241,455.2,234.2,445.5,235.5z M451.3,276.2c-5.7-5.2-15.7-15.6-16.5-21.1
				c-1-7.3,4.1-14.1,11.3-15.1c7.3-1,14.1,4.1,15.1,11.3C462,256.9,455.2,269.6,451.3,276.2z"/>
			<path class="st10" d="M446.7,244.3c-4.9,0.7-8.3,5.2-7.6,10.1c0.7,4.9,5.2,8.3,10.1,7.6c4.9-0.7,8.3-5.2,7.6-10.1
				C456.1,247,451.6,243.6,446.7,244.3z M448.6,257.5c-2.4,0.3-4.7-1.4-5-3.8c-0.3-2.4,1.4-4.7,3.8-5c2.4-0.3,4.7,1.4,5,3.8
				C452.7,254.9,451,257.2,448.6,257.5z"/>
		</g>
		<g>
			<path class="st10" d="M397.2,291.4c13.4-1.9,22.7-14.4,20.8-27.7c-1.9-13.4-14.3-22.7-27.7-20.8c-13.4,1.9-22.7,14.3-20.8,27.7
				C371.3,284,383.8,293.3,397.2,291.4z M390.9,247.3c11-1.6,21.1,6.1,22.7,17c1.6,11-6.1,21.1-17,22.7c-11,1.6-21.1-6.1-22.7-17
				C372.3,259,379.9,248.8,390.9,247.3z"/>
			<polygon class="st10" points="405.1,272.9 395.8,265.9 393.7,251.4 389.3,252 391.6,268.4 402.5,276.5 			"/>
		</g>
	</g>
	<g>
		<path class="st11" d="M183.1,753.6l0,11.6l-1.3,9.8l-3.7,2.9l-2.8,1.1l-0.7,1.7l-9.5,7.6c-2.6,1.4-6.4,2.4-11.2,1.7
			c-1.6-0.2,0.2-4.8,0.7-5.5c2.8-4,7.4-8.5,7.4-8.5l7-10.4l7.8-12.9L183.1,753.6z"/>
		<path class="st11" d="M265.8,766.3l-2.1,4.8l-0.9,5.3l0.9,8.3l4.5,0.3l3.3-1l2.4,1.4c0,0,12.9,1.4,17.7,1.2
			c7.9-0.4,12.2-1.6,13.6-3.3c0.8-0.9-3-2.3-4.3-2.4c-7.1-0.5-14.9-4.4-14.9-4.4l-6.4-6.1l-1.5-4.5L265.8,766.3z"/>
		<path class="st12" d="M194.6,399.5l58.1-7.2c0,0,47.2,26.2,35.5,124.7c-0.1,0.5-72.6,15.6-71.3-3.3
			C220.2,466.4,194.6,399.5,194.6,399.5z"/>
		<polygon class="st12" points="210.7,402.8 160.3,373.7 161.7,371.7 148.9,367.4 130.8,388.3 144.5,398.9 146.7,395.2 150.9,389.9 
			147.3,396.5 159.9,410.2 171.4,412.5 211.9,446.6 		"/>
		<g>
			<polygon class="st13" points="219.5,514.9 165.6,765.5 184.2,765 212.8,680.6 219.3,655.3 253.3,555.4 259.3,513 			"/>
			<polygon class="st13" points="262.4,767.4 267.3,660.9 258.5,613 247.2,547.2 254,513.2 288.2,512 290.6,537.6 294.7,643.3 
				295.5,669 284.4,771.3 			"/>
		</g>
		<g>
			<path class="st6" d="M236.1,377.3c2.1,13,2.5,19.7,2.2,20.6c-2.1,6.1-19.1,3.2-19-0.4c0.1-3.6-4.7-18.6-5.9-20.7
				C212.3,374.7,234.9,369.6,236.1,377.3z"/>
			<path class="st14" d="M225.4,373.2c-4.3,0.4-8.4,1.4-10.5,2.3c1.7,3.8,3.5,7.4,5,9.8c3.9,6.6,10.7,7.4,15.2,8.4
				c1,0.2,2.1,0.2,3.3,0.1c-0.1-2.3-0.8-7.1-2.3-16.5C235.5,373.8,230.6,372.9,225.4,373.2z"/>
			<path class="st6" d="M230.7,342.2l15,32.1c0,0,3.6,7.6,1.2,10.1c-2.4,2.4-10.5,5.5-14.9,4.5c-4.5-1-11.2-1.8-15.2-8.4
				c-3.9-6.6-10.9-23.4-10.9-23.4s-0.2-6.5,11.5-8C229.1,347.6,230.7,342.2,230.7,342.2z"/>
			<path class="st15" d="M226,334.9c1.6-0.3,4.5-0.3,6.1,1.9c1.7,2.2,1.2,7-0.8,8.5c-1.9,1.5-15.7,8-17.6,8.2c-2,0.2-5.5,1-8.2-1
				c-1.7-1.3,1.8-7.4,5.3-7.9C219.8,343.2,220.1,335.9,226,334.9z"/>
			<path class="st15" d="M209.2,351l6.5,13.9l2.3,7.9l-1.6,0.8l-3,1.4c0,0-13.8-16.8-10.2-21.1C206.8,349.5,208.4,350,209.2,351z"/>
			<path class="st6" d="M216.8,375c0.6,1.2,0,2.6-1.2,3.2l-1.3,0.6c-1.2,0.6-2.6,0-3.2-1.2l-2.4-5.1c-0.6-1.2,0-2.6,1.2-3.2l1.3-0.6
				c1.2-0.6,2.6,0,3.2,1.2L216.8,375z"/>
		</g>
		<path class="st16" d="M236.2,400.7c0,0,30.8,38,35.7,86.6c0.4,3.8-2.8,7.4-2.8,7.4l-6.4-4.2C262.7,490.6,250.9,436.9,236.2,400.7z
			"/>
		<polygon class="st2" points="235.8,400.4 236.5,408.7 218.7,399 219.3,396.9 		"/>
		<polygon class="st2" points="238.6,395.4 243.2,404.1 235.9,400.3 		"/>
	</g>
	<g>
		<g>
			<path class="st17" d="M1355.6,611.9V176.4c0-11.3-9.2-20.5-20.5-20.5H627.8c-11.3,0-20.5,9.2-20.5,20.5v435.5H1355.6z"/>
			<rect x="642.1" y="191" class="st1" width="678.7" height="382.2"/>
			<path class="st18" d="M605.9,612.7v63c0,12.1,9.8,22,22,22h707.3c12.1,0,22-9.8,22-22v-63H605.9z"/>
			<path class="st18" d="M1110.8,790.4c0,0-5.4-2.7-11.7-5c-6.7-2.5-14.7-5.7-19.4-7.9c-8.3-4-9-6.6-12.1-20.1
				c-3.4-14.8-6.5-46-7.8-59.7H903.1c-1.3,13.6-4.5,44.9-7.8,59.7c-3.1,13.5-3.8,16.2-12.1,20.1c-4.7,2.2-12.6,5.3-19.2,7.8l0,0
				c-6.4,2.4-11.5,4.2-11.5,4.2s-5,2.8,3.1,3.2h251.9C1115,792.9,1110.8,790.4,1110.8,790.4z"/>
			<path class="st19" d="M1061.5,714.1c-0.7-6.5-1.3-12.3-1.7-16.5H903.1c-0.4,4.2-1,10-1.7,16.5H1061.5z"/>
		</g>
		<g>
			<g>
				<line class="st20" x1="772.6" y1="312.9" x2="772.6" y2="553.8"/>
				<line class="st20" x1="810.1" y1="312.9" x2="810.1" y2="553.8"/>
				<line class="st20" x1="847.6" y1="312.9" x2="847.6" y2="553.8"/>
				<line class="st20" x1="885.1" y1="312.9" x2="885.1" y2="553.8"/>
				<line class="st20" x1="922.7" y1="312.9" x2="922.7" y2="553.8"/>
				<line class="st20" x1="960.2" y1="312.9" x2="960.2" y2="553.8"/>
				<line class="st20" x1="997.7" y1="312.9" x2="997.7" y2="553.8"/>
				<line class="st20" x1="1035.2" y1="312.9" x2="1035.2" y2="553.8"/>
				<line class="st20" x1="1072.7" y1="312.9" x2="1072.7" y2="553.8"/>
				<line class="st20" x1="1110.2" y1="312.9" x2="1110.2" y2="553.8"/>
				<line class="st20" x1="1147.8" y1="312.9" x2="1147.8" y2="553.8"/>
				<line class="st20" x1="1185.3" y1="312.9" x2="1185.3" y2="553.8"/>
				<line class="st20" x1="1222.8" y1="312.9" x2="1222.8" y2="553.8"/>
				<line class="st20" x1="1260.3" y1="312.9" x2="1260.3" y2="553.8"/>
			</g>
			<g>
				<line class="st21" x1="792.3" y1="310.7" x2="792.3" y2="322.9"/>
				<line class="st21" x1="829.8" y1="310.7" x2="829.8" y2="322.9"/>
				<line class="st21" x1="867.4" y1="310.7" x2="867.4" y2="322.9"/>
				<line class="st21" x1="904.9" y1="310.7" x2="904.9" y2="322.9"/>
				<line class="st21" x1="942.4" y1="310.7" x2="942.4" y2="322.9"/>
				<line class="st21" x1="979.9" y1="310.7" x2="979.9" y2="322.9"/>
				<line class="st21" x1="1017.4" y1="310.7" x2="1017.4" y2="322.9"/>
				<line class="st21" x1="1055" y1="310.7" x2="1055" y2="322.9"/>
				<line class="st21" x1="1092.5" y1="310.7" x2="1092.5" y2="322.9"/>
				<line class="st21" x1="1130" y1="310.7" x2="1130" y2="322.9"/>
				<line class="st21" x1="1167.5" y1="310.7" x2="1167.5" y2="322.9"/>
				<line class="st21" x1="1205" y1="310.7" x2="1205" y2="322.9"/>
				<line class="st21" x1="1242.6" y1="310.7" x2="1242.6" y2="322.9"/>
				<line class="st21" x1="1280.1" y1="310.7" x2="1280.1" y2="322.9"/>
			</g>
			<g>
				<g>
					<g>
						<path class="st22" d="M737.4,288.8v-7.1c0-7.9-6.4-14.2-14.2-14.2h-24.9c-7.9,0-14.2,6.4-14.2,14.2v7.1H737.4z"/>
						<path class="st22" d="M723.2,244.4c0-6.9-5.6-12.4-12.4-12.4c-6.9,0-12.4,5.6-12.4,12.4c0,6.9,5.6,12.4,12.4,12.4
							C717.6,256.8,723.2,251.2,723.2,244.4z"/>
					</g>
					<line class="st23" x1="762.1" y1="249.6" x2="929.2" y2="249.6"/>
					<line class="st24" x1="684.1" y1="312.8" x2="729.6" y2="312.8"/>
					<line class="st24" x1="684.1" y1="332.6" x2="743.7" y2="332.6"/>
					<line class="st24" x1="684.1" y1="352.3" x2="729.6" y2="352.3"/>
					<line class="st24" x1="684.1" y1="372.1" x2="735.8" y2="372.1"/>
					<line class="st24" x1="684.1" y1="391.8" x2="720" y2="391.8"/>
					<line class="st23" x1="762.1" y1="270.9" x2="873.9" y2="270.9"/>
				</g>
			</g>
			<g>
				<line class="st25" x1="999.7" y1="353" x2="1181.3" y2="353"/>
				<line class="st26" x1="812.7" y1="395.2" x2="994.4" y2="395.2"/>
				<line class="st27" x1="941.7" y1="395.2" x2="1028.6" y2="395.2"/>
				<line class="st27" x1="907.5" y1="437.3" x2="1181.3" y2="437.3"/>
				<line class="st28" x1="848.3" y1="413.8" x2="1147.8" y2="413.8"/>
				<line class="st28" x1="775.2" y1="536" x2="1031.3" y2="536"/>
				<line class="st25" x1="860.1" y1="479.4" x2="944.4" y2="479.4"/>
				<line class="st27" x1="941.7" y1="479.4" x2="1133.9" y2="479.4"/>
				<line class="st26" x1="999.7" y1="521.5" x2="1181.3" y2="521.5"/>
			</g>
		</g>
	</g>
	<g>
		<path class="st29" d="M1546.3,491.9c0,0,4.3,0.1,5.5,18.3c0.5,7.8,0.3,16.6-0.1,24.3c-0.6,10.2-5.3-1-5.3-1l-4-20.3
			C1542.4,513.2,1540.5,497.1,1546.3,491.9z"/>
		<path class="st1" d="M1549.4,571.9l2.6-2.4l2-3.8l0.6-6.9c0,0-0.2-7.4-1.3-10.2c-1.1-2.8-1.6-13.8-2-15.2
			c-0.4-1.4-4.2-0.5-4.2-0.5s0.8,8.4,1.4,13.5c0.5,4.6-0.5,11.6-0.3,13.4c0.2,1.6,0.6,2.9,0.9,3.9c0.3,1,0.7,0.7,0.7-0.4
			c0.1-1.5,0.1-3.4,0.1-4.2c-0.1-1.3,1.4-0.7,1.4-0.7s0.7,6.9,0.1,8.7c-0.7,1.8-1.8,2.3-2.3,3.1
			C1548.8,570.9,1549.4,571.9,1549.4,571.9z"/>
		<path class="st12" d="M1461.7,404.4c0,0-3.5,17.2-55.2,7.3c-51.8-9.9-47.5-21.2-47.5-21.2l-0.8-13.3l26.9-28.8l14.5,12l-0.7,2.9
			c0,0,2.1,3.3,5.5,3.3c3.5,0,18.6,4.6,48.3,6C1466.4,373.1,1462.4,401,1461.7,404.4z"/>
		<g>
			<path class="st2" d="M1452.7,372.5c-0.6,0-1.2-0.1-1.7-0.1c2.4,8,2.2,18,2.1,19.9c0,0-1.2,17.5-53.8,13.9
				c-9.5-0.7-17.1-1.6-23.3-2.6c6.9,2.6,16.6,5.4,30.5,8.1c51.8,9.9,55.2-7.3,55.2-7.3C1462.4,401,1466.4,373.1,1452.7,372.5z"/>
		</g>
		<path class="st6" d="M1385.1,352c0,0-22.6-30.5,7.6-55c9-7.3-2.1-3.3-12.4,1.3c-10.4,4.6-31.7,27.8-29.7,51
			c2.1,23.2,4.8,31.8,13.8,35.1C1373.4,387.8,1385.1,352,1385.1,352z"/>
		<polygon class="st6" points="1394.1,292.3 1417.6,283.7 1422.4,292.3 1416.9,300.3 1410.7,299 1405.1,301.6 		"/>
		<path class="st30" d="M1464.4,785.9c0,0,14.6-52.8,15.3-83.3c0.7-30.5-4.1-51.7-4.1-51.7l-30.4-10.6l0.2,139.4L1464.4,785.9z"/>
		<path class="st30" d="M1446.5,509.7l-1.4,130.6l27.6,15.2c0,0,16.6-31.2,18.6-70.9C1493.5,544.9,1446.5,509.7,1446.5,509.7z"/>
		<path class="st31" d="M1446.5,509.7l60.7,143.2l11.2,18.5l43.7,97.3l4.7,11l19.5,2.4c0,0-4.6-64.9-21.2-92.7
			c-16.6-27.8-24.8-43.1-24.8-43.1l-36.6-140.5L1446.5,509.7z"/>
		<path class="st12" d="M1444.5,511.7l61.4-1.3l25.5-85.5c0,0,16.6-51.7-15.2-52.4c-31.7-0.7-68.3-0.7-68.3-0.7
			S1426.5,390.4,1444.5,511.7z"/>
		<polygon class="st6" points="1545.9,549.5 1528.7,564.8 1521.1,550.8 1525.9,550.8 1529.4,544.9 1539.7,548.8 		"/>
		<path class="st6" d="M1488.3,319.5c0,0-13.4,15-10,25.6c3.5,10.6-2.1,17.5-2.1,20.8c0,3.3-3.5,17.9-0.7,17.2
			c2.8-0.7,20.7-6.6,22.8-11.3c2.1-4.6,5.5-18.6,5.5-18.6s-2.7-16.4-3.4-21.7C1499.7,325.8,1491.1,318.1,1488.3,319.5z"/>
		<path class="st32" d="M1478.6,383.9c0,0-27.8,48-19.9,101.1c0.6,4.2,5.6,7.2,5.6,7.2l6.8-6
			C1471.1,486.2,1470.6,426.1,1478.6,383.9z"/>
		<polygon class="st2" points="1479.6,382.6 1481.1,393.2 1499.3,376 1499.3,373.3 		"/>
		<polygon class="st2" points="1473.9,375.8 1470.7,389.6 1478.7,382.6 		"/>
		<path class="st2" d="M1397.5,379l4.2-8.9l1.5-3.7c-2.7-0.6-4.3-3.2-4.3-3.2l-1.8,7.2l-3.8,8.1l-8.4,8.9L1397.5,379z"/>
		<g>
			<path class="st6" d="M1470.3,354.9c-0.2,2.8,1.9,5.2,4.7,5.4l22.6,1.6c2.8,0.2,5.2-1.9,5.4-4.7l2.3-33.4c0.2-2.8-1.9-5.2-4.7-5.4
				l-22.6-1.6c-2.8-0.2-5.2,1.9-5.4,4.7L1470.3,354.9z"/>
			<path class="st13" d="M1472.1,328.4c0,0-2.8-3.4-3.2-5.5c-0.2-1,1-4.8,3.6-6c2.6-1.3,4.5,1.6,4.5,1.6s-4.2,1.9-4.4,2.8
				C1472.4,322,1472.1,328.4,1472.1,328.4z"/>
			<path class="st15" d="M1506.5,339c0,0,4.3-12.6,3.9-16.4c-0.4-3.8-0.6-6.4-5.2-7.2c-6.8-1.1-7,0.3-10.2-2
				c-3.2-2.3-8.9-7.8-10.9-8.4c-3.4-1.1-8.9-0.3-9.5,6.2c-0.5,4.8-3.6,5.7-3.5,5.9c0.2,0.6,1.4,1.2,3.6,2.5c6,3.6,9.8,4.5,14.7,3.5
				c4.9-0.9,14-3,14.8,0.6c0.8,3.6-0.4,14.5,0,15.3C1504.5,339.9,1505.6,339.5,1506.5,339z"/>
			<path class="st6" d="M1498.7,348.5c-0.1,0.9,0.6,1.7,1.6,1.8l4.9,0.3c0.9,0.1,1.7-0.6,1.8-1.6l0.6-8.9c0.1-0.9-0.6-1.7-1.6-1.8
				l-4.9-0.3c-0.9-0.1-1.7,0.6-1.8,1.6L1498.7,348.5z"/>
			<path class="st6" d="M1469.6,346.5c-0.1,0.9,0.6,1.7,1.6,1.8l4.9,0.3c0.9,0.1,1.7-0.6,1.8-1.6l0.6-8.9c0.1-0.9-0.6-1.7-1.6-1.8
				l-4.9-0.3c-0.9-0.1-1.7,0.6-1.8,1.6L1469.6,346.5z"/>
			<path class="st15" d="M1504.1,341.7c0,0-0.9,13.2-1.2,17.5c-0.3,4-2.5,12.6-24.9,11c-13.3-0.9-12.1-10.6-11.9-13.8
				c0.2-2.4,3.4-9.5,4.9-10.8c0,0-0.4,5.4-0.4,5.4s3.1-5.1,9.4-4.7c10.2,0.7,12.1,6.8,16.6,7
				C1500.2,353.5,1503.1,348.1,1504.1,341.7z"/>
			<path class="st6" d="M1483.7,355.3l-7-0.5c-0.9-0.1-1.6-0.9-1.6-1.8l0.1-1l10.3,0.7l-0.1,1
				C1485.5,354.6,1484.7,355.3,1483.7,355.3z"/>
		</g>
		<path class="st33" d="M1410.7,795.7h55.2l0.8-10.6l-17.4-5.3C1449.3,779.9,1420.6,784.4,1410.7,795.7z"/>
		<path class="st33" d="M1531.4,795.7h55.2l0.8-10.6l-17.4-5.3C1569.9,779.9,1541.2,784.4,1531.4,795.7z"/>
		<path class="st34" d="M1482.6,517.5c0,0,6.4,17.1,19.2,17.1"/>
		<path class="st34" d="M1576.7,775.5c0,0-10.7-76.2-43.5-121.1c-1.3-1.8-32.8-112.6-32.8-112.6"/>
		<g>
			<path class="st35" d="M1464,326.3c0,3.4-2.7,6.1-6.1,6.1h-26.4v24.3l-36.5-24.3h-131.8c-3.4,0-6.1-2.7-6.1-6.1V208.7
				c0-3.4,2.7-6.1,6.1-6.1h194.6c3.4,0,6.1,2.7,6.1,6.1V326.3z"/>
			<g>
				<path class="st1" d="M1313,255.4v-4.1c0-4.5-3.6-8.1-8.1-8.1h-14.2c-4.5,0-8.1,3.6-8.1,8.1v4.1H1313z"/>
				<path class="st1" d="M1304.9,230c0-3.9-3.2-7.1-7.1-7.1c-3.9,0-7.1,3.2-7.1,7.1c0,3.9,3.2,7.1,7.1,7.1
					C1301.7,237.1,1304.9,233.9,1304.9,230z"/>
			</g>
			<g>
				<g>
					<rect x="1337.1" y="225" class="st1" width="45.8" height="6.1"/>
				</g>
				<g>
					<rect x="1424.1" y="225" class="st1" width="15.4" height="6.1"/>
				</g>
				<g>
					<rect x="1337.1" y="241.8" class="st1" width="102.4" height="6.1"/>
				</g>
				<g>
					<rect x="1337.1" y="256.1" class="st1" width="102.4" height="6.1"/>
				</g>
				<g>
					<rect x="1337.1" y="270.3" class="st1" width="102.4" height="6.1"/>
				</g>
				<g>
					<rect x="1337.1" y="284.6" class="st1" width="102.4" height="6.1"/>
				</g>
				<g>
					<rect x="1337.1" y="298.9" class="st1" width="86.2" height="6.1"/>
				</g>
			</g>
		</g>
		<g>
			<path class="st10" d="M1621.6,455.8c-0.8-3-3.9-4.7-6.9-3.9l-23.4,6.4l-5.9-21.6l-26.4,30.5l-116.8,32.2c-3,0.8-4.7,3.9-3.9,6.9
				l17.3,62.9c0.8,3,3.9,4.7,6.9,3.9l172.5-47.6c3-0.8,4.7-3.9,3.9-6.9L1621.6,455.8z"/>
			<g>
				<line class="st36" x1="1512.8" y1="510.5" x2="1614.3" y2="482.5"/>
				<line class="st36" x1="1516.3" y1="523.2" x2="1594.3" y2="501.6"/>
			</g>
			<path class="st1" d="M1501.5,533.6l-0.6-2c-0.5-2-2.6-3.2-4.6-2.6l-12.6,3.5c-2,0.5-3.2,2.6-2.6,4.6l3,10.8
				c0.5,2,2.6,3.2,4.6,2.6l12.6-3.5c2-0.5,3.1-2.6,2.6-4.6l-0.6-2l6.4,2.1l-3.8-13.9L1501.5,533.6z"/>
			<g>
				<path class="st1" d="M1475.1,525.2c-4.5,1.2-9.1-1.4-10.3-5.9c-1.2-4.5,1.4-9.1,5.9-10.3c4.5-1.2,9.1,1.4,10.3,5.9
					C1482.1,519.3,1479.5,524,1475.1,525.2z M1471.6,512.6c-2.5,0.7-3.9,3.3-3.3,5.7c0.7,2.5,3.3,3.9,5.7,3.3
					c2.5-0.7,3.9-3.3,3.3-5.7C1476.6,513.4,1474.1,511.9,1471.6,512.6z"/>
			</g>
			<path class="st1" d="M1466.3,539.2c-0.8-3,0.9-6.1,3.9-6.9l12.6-3.5c1.6-0.4,3.2-0.1,4.5,0.7l4.2-1.2c-2.3-2.8-6-4.1-9.7-3.1
				l-12.6,3.5c-5,1.4-7.9,6.5-6.5,11.5l1.5,5.4l16.2-4.5l-1-3.6l-12.6,3.5L1466.3,539.2z"/>
		</g>
		<path class="st6" d="M1568,480.6l-24.8,72.2c0,0,30.4-25.2,38-41.8c7.6-16.6,11.7-34.5,11.7-34.5L1568,480.6z"/>
		<path class="st12" d="M1527.3,422.3l35.9,55l4.8,0.7l-1.4,4.6l26-2l5.7-22.5l-50.4-74.2c0,0-15.7-14.3-41.4-10.6
			C1487.9,375.9,1524.5,417.6,1527.3,422.3z"/>
		<path class="st2" d="M1590.5,466.2c0,0-16.1,7.7-24.6,11.4l2.1,0.3l-1.4,4.6l9-0.8l12.6-3l0.7-5.3h-3.9L1590.5,466.2z"/>
	</g>
	<path class="st37" d="M846.1,870.9c-10.5-23.3-20.8-46.7-30.8-70.2c-1.9-4.4-6.9-7.5-11.2-6.9c-105.3,15-216.2,14.8-332.8,26.9
		c0,0,0,0,0,0c-11.4,1.2-22.8,2.5-34.3,4c0,0-0.1,0-0.1,0c-8.6,1.1-17.3,2.3-26,3.5c-0.7,0.1-1.3,0.2-2,0.3c-3.4,0.5-6.8,1-10.2,1.5
		c-5.8,0.9-11.7,1.8-17.5,2.8c-4.9,0.8-9.7,5.8-10.6,11.2c-5.1,28-9.9,55.9-14.5,83.7c-0.9,5.3,2.9,8.7,8.4,7.7
		C532.1,904.9,691,907,840.9,880.5C845.8,879.6,848.1,875.3,846.1,870.9z"/>
	<g>
		<path class="st7" d="M1883.3,789.7c0,4.9-4,8.9-8.9,8.9h-452.2c-4.9,0-8.9-4-8.9-8.9v-78c0-4.9,4-8.9,8.9-8.9h452.2
			c4.9,0,8.9,4,8.9,8.9V789.7z"/>
		<path class="st35" d="M1514,702.9h-91.8c-4.9,0-8.9,4-8.9,8.9v78c0,4.9,4,8.9,8.9,8.9h91.8V702.9z"/>
		<g>
			<g>
				<line class="st38" x1="1539.9" y1="731" x2="1640.5" y2="731"/>
				<line class="st38" x1="1651.3" y1="731" x2="1715.1" y2="731"/>
				<line class="st38" x1="1566.5" y1="770.8" x2="1579.6" y2="770.8"/>
				<line class="st38" x1="1598.5" y1="744.3" x2="1638.6" y2="744.3"/>
				<line class="st38" x1="1616" y1="757.5" x2="1638.6" y2="757.5"/>
				<line class="st38" x1="1589.5" y1="770.8" x2="1638.6" y2="770.8"/>
				<line class="st38" x1="1578.6" y1="744.3" x2="1587.8" y2="744.3"/>
				<line class="st38" x1="1540.2" y1="744.3" x2="1569.4" y2="744.3"/>
				<line class="st38" x1="1540.2" y1="757.5" x2="1607.1" y2="757.5"/>
				<line class="st38" x1="1540.2" y1="770.8" x2="1556" y2="770.8"/>
				<line class="st38" x1="1649" y1="744.3" x2="1698" y2="744.3"/>
				<line class="st38" x1="1664.6" y1="757.5" x2="1728.5" y2="757.4"/>
				<line class="st38" x1="1657.9" y1="770.8" x2="1698" y2="770.8"/>
				<line class="st38" x1="1709" y1="744.3" x2="1728.5" y2="744.3"/>
				<line class="st38" x1="1646.9" y1="757.5" x2="1656.1" y2="757.5"/>
				<line class="st38" x1="1648.9" y1="770.8" x2="1662.5" y2="770.8"/>
			</g>
		</g>
		<g>
			<path class="st10" d="M1841,725.1c-9.8,0-17.8,8-17.8,17.8c0,9.2,14.5,26.3,16.1,28.2l1.7,2l1.7-2c1.6-1.9,16.1-19,16.1-28.2
				C1858.8,733.1,1850.9,725.1,1841,725.1z M1841,766.2c-4.9-6-13.4-17.6-13.4-23.3c0-7.4,6-13.4,13.4-13.4s13.4,6,13.4,13.4
				C1854.4,748.5,1845.9,760.2,1841,766.2z"/>
			<path class="st10" d="M1841,733.9c-4.9,0-8.9,4-8.9,8.9c0,4.9,4,8.9,8.9,8.9c4.9,0,8.9-4,8.9-8.9
				C1849.9,737.9,1845.9,733.9,1841,733.9z M1841,747.3c-2.5,0-4.5-2-4.5-4.5c0-2.5,2-4.5,4.5-4.5c2.5,0,4.5,2,4.5,4.5
				C1845.4,745.3,1843.4,747.3,1841,747.3z"/>
		</g>
		<g>
			<path class="st10" d="M1785.3,773.6c13.5,0,24.5-11,24.5-24.5c0-13.5-11-24.5-24.5-24.5c-13.5,0-24.5,11-24.5,24.5
				C1760.8,762.6,1771.8,773.6,1785.3,773.6z M1785.3,729c11.1,0,20.1,9,20.1,20.1c0,11.1-9,20.1-20.1,20.1
				c-11.1,0-20.1-9-20.1-20.1C1765.3,738,1774.3,729,1785.3,729z"/>
			<polygon class="st10" points="1795.8,756.4 1787.6,748.1 1787.6,733.5 1783.1,733.5 1783.1,750 1792.7,759.6 			"/>
		</g>
		<g>
			<circle class="st1" cx="1442.2" cy="734.1" r="4.5"/>
			<path class="st1" d="M1437.8,769.7h4.5v-13.4h2.2v13.4h4.5v-13.4v-4.5v-6.7h4.5v-4.5H1440c-2.5,0-4.5,2-4.5,4.5v11.1h2.2V769.7z"
				/>
			<path class="st1" d="M1486.8,734.1c0-2.5-2-4.5-4.5-4.5c-2.5,0-4.5,2-4.5,4.5c0,2.5,2,4.5,4.5,4.5
				C1484.8,738.5,1486.8,736.5,1486.8,734.1z"/>
			<path class="st1" d="M1484.5,740.7h-13.4v4.5h4.5v6.7v4.5v13.4h4.5v-13.4h2.2v13.4h4.5v-13.4h2.2v-11.1
				C1489,742.7,1487,740.7,1484.5,740.7z"/>
			<circle class="st1" cx="1462.3" cy="734.1" r="4.5"/>
			<path class="st1" d="M1455.6,745.2v8.9h2.2v15.6h8.9v-15.6h2.2v-8.9c0-2.5-2-4.5-4.5-4.5h-4.5
				C1457.6,740.7,1455.6,742.7,1455.6,745.2z"/>
		</g>
	</g>
	<g>
		<path class="st7" d="M887,719.8c0,4.9-4,8.9-8.9,8.9H425.8c-4.9,0-8.9-4-8.9-8.9v-78c0-4.9,4-8.9,8.9-8.9h452.2
			c4.9,0,8.9,4,8.9,8.9V719.8z"/>
		<path class="st39" d="M517.6,632.9h-91.8c-4.9,0-8.9,4-8.9,8.9v78c0,4.9,4,8.9,8.9,8.9h91.8V632.9z"/>
		<g>
			<g>
				<line class="st38" x1="543.6" y1="661" x2="644.2" y2="661"/>
				<line class="st38" x1="655" y1="661" x2="718.8" y2="661"/>
				<line class="st38" x1="570.2" y1="700.8" x2="583.3" y2="700.8"/>
				<line class="st38" x1="602.1" y1="674.3" x2="642.2" y2="674.3"/>
				<line class="st38" x1="619.7" y1="687.6" x2="642.2" y2="687.6"/>
				<line class="st38" x1="593.2" y1="700.8" x2="642.2" y2="700.8"/>
				<line class="st38" x1="582.2" y1="674.3" x2="591.4" y2="674.3"/>
				<line class="st38" x1="543.9" y1="674.3" x2="573.1" y2="674.3"/>
				<line class="st38" x1="543.9" y1="687.6" x2="610.7" y2="687.6"/>
				<line class="st38" x1="543.9" y1="700.8" x2="559.7" y2="700.8"/>
				<line class="st38" x1="652.6" y1="674.3" x2="701.6" y2="674.3"/>
				<line class="st38" x1="668.2" y1="687.6" x2="732.2" y2="687.5"/>
				<line class="st38" x1="661.5" y1="700.8" x2="701.6" y2="700.8"/>
				<line class="st38" x1="712.6" y1="674.3" x2="732.2" y2="674.3"/>
				<line class="st38" x1="650.6" y1="687.6" x2="659.8" y2="687.6"/>
				<line class="st38" x1="652.6" y1="700.8" x2="666.2" y2="700.8"/>
			</g>
		</g>
		<g>
			<path class="st1" d="M465,698.9h-27.5v-5.8l9.9-10c2.9-3,4.8-5.1,5.7-6.2c0.9-1.2,1.5-2.2,1.9-3.2c0.4-1,0.6-2,0.6-3.1
				c0-1.6-0.4-2.8-1.3-3.5c-0.9-0.8-2-1.2-3.5-1.2c-1.5,0-3,0.3-4.4,1c-1.4,0.7-2.9,1.7-4.5,3l-4.5-5.4c1.9-1.7,3.5-2.8,4.8-3.5
				c1.3-0.7,2.7-1.2,4.2-1.6c1.5-0.4,3.2-0.6,5.1-0.6c2.5,0,4.6,0.4,6.5,1.3c1.9,0.9,3.3,2.2,4.4,3.8c1,1.6,1.6,3.5,1.6,5.5
				c0,1.8-0.3,3.5-1,5.1c-0.6,1.6-1.6,3.2-3,4.9c-1.3,1.7-3.7,4-7.1,7.1l-5.1,4.8v0.4H465V698.9z"/>
			<path class="st1" d="M495.1,698.9h-27.5v-5.8l9.9-10c2.9-3,4.8-5.1,5.7-6.2c0.9-1.2,1.5-2.2,1.9-3.2c0.4-1,0.6-2,0.6-3.1
				c0-1.6-0.4-2.8-1.3-3.5c-0.9-0.8-2-1.2-3.5-1.2c-1.5,0-3,0.3-4.4,1c-1.4,0.7-2.9,1.7-4.5,3l-4.5-5.4c1.9-1.7,3.5-2.8,4.8-3.5
				c1.3-0.7,2.7-1.2,4.2-1.6c1.5-0.4,3.2-0.6,5.1-0.6c2.5,0,4.6,0.4,6.5,1.3c1.9,0.9,3.3,2.2,4.4,3.8c1,1.6,1.6,3.5,1.6,5.5
				c0,1.8-0.3,3.5-1,5.1c-0.6,1.6-1.6,3.2-3,4.9c-1.3,1.7-3.7,4-7.1,7.1l-5.1,4.8v0.4h17.1V698.9z"/>
		</g>
		<g>
			<path class="st10" d="M844.7,655.1c-9.8,0-17.8,8-17.8,17.8c0,9.2,14.5,26.3,16.1,28.2l1.7,2l1.7-2c1.6-1.9,16.1-19,16.1-28.2
				C862.5,663.1,854.5,655.1,844.7,655.1z M844.7,696.2c-4.9-6-13.4-17.6-13.4-23.3c0-7.4,6-13.4,13.4-13.4c7.4,0,13.4,6,13.4,13.4
				C858.1,678.6,849.6,690.2,844.7,696.2z"/>
			<path class="st10" d="M844.7,663.9c-4.9,0-8.9,4-8.9,8.9c0,4.9,4,8.9,8.9,8.9c4.9,0,8.9-4,8.9-8.9
				C853.6,667.9,849.6,663.9,844.7,663.9z M844.7,677.3c-2.5,0-4.5-2-4.5-4.5c0-2.5,2-4.5,4.5-4.5c2.5,0,4.5,2,4.5,4.5
				C849.1,675.3,847.1,677.3,844.7,677.3z"/>
		</g>
		<g>
			<path class="st10" d="M789,703.6c13.5,0,24.5-11,24.5-24.5c0-13.5-11-24.5-24.5-24.5c-13.5,0-24.5,11-24.5,24.5
				C764.5,692.6,775.5,703.6,789,703.6z M789,659c11.1,0,20.1,9,20.1,20.1c0,11.1-9,20.1-20.1,20.1c-11.1,0-20.1-9-20.1-20.1
				C768.9,668,777.9,659,789,659z"/>
			<polygon class="st10" points="799.5,686.4 791.2,678.2 791.2,663.5 786.8,663.5 786.8,680 796.3,689.6 			"/>
		</g>
	</g>
	<g>
		<g>
			<path class="st7" d="M839.4,864.5c2,4.4-0.3,8.7-5.2,9.6c-149.9,26.3-308.8,24.1-476.6,54.3c-5.5,1-9.2-2.4-8.4-7.7
				c4.6-27.8,9.4-55.7,14.6-83.7c1-5.3,5.8-10.3,10.6-11.1c149.9-25.2,290.9-19.9,423-38.5c4.3-0.6,9.3,2.5,11.2,7
				C818.6,817.8,828.9,841.2,839.4,864.5z"/>
		</g>
		<g>
			<path class="st8" d="M464.6,813.8c-29.7,3-59.8,6.9-90.2,12.1c-4.9,0.8-9.7,5.8-10.6,11.1c-5.1,28-10,55.9-14.6,83.7
				c-0.9,5.3,2.9,8.7,8.4,7.7c34.1-6.2,67.7-11,101.1-15C460.3,880.3,462.2,847.1,464.6,813.8z"/>
		</g>
		<g>
			<g>
				<path class="st40" d="M587.9,835.1c-32.7,2.2-65.8,4.6-99.4,7.8c0-1.5,0.1-3.1,0.2-4.6c33.4-3.1,66.3-5.5,98.8-7.6
					C587.7,832.1,587.8,833.6,587.9,835.1z"/>
			</g>
			<g>
				<path class="st40" d="M660,830.2c-20.3,1.4-40.8,2.8-61.5,4.2c-0.2-1.5-0.3-3-0.5-4.4c20.6-1.3,40.9-2.6,61.1-4.1
					C659.4,827.3,659.7,828.8,660,830.2z"/>
			</g>
			<g>
				<path class="st40" d="M528.9,880c-4.5,0.4-9.1,0.8-13.6,1.2c0-1.5,0-3,0-4.6c4.5-0.4,9-0.8,13.5-1.2
					C528.8,876.9,528.8,878.4,528.9,880z"/>
			</g>
			<g>
				<path class="st40" d="M587.2,848.5c-13.3,0.9-26.6,1.9-40,2.9c-0.1-1.5-0.1-3-0.2-4.5c13.3-1,26.6-2,39.8-2.9
					C587,845.5,587.1,847,587.2,848.5z"/>
			</g>
			<g>
				<path class="st40" d="M588.5,861.8c-7.6,0.6-15.2,1.1-22.8,1.7c-0.1-1.5-0.2-3-0.3-4.5c7.6-0.6,15.2-1.1,22.7-1.7
					C588.2,858.8,588.3,860.3,588.5,861.8z"/>
			</g>
			<g>
				<path class="st40" d="M589.7,875c-16.7,1.3-33.6,2.6-50.5,4.1c-0.1-1.5-0.1-3-0.2-4.5c16.9-1.4,33.6-2.7,50.3-4
					C589.4,872,589.6,873.5,589.7,875z"/>
			</g>
			<g>
				<path class="st40" d="M536.5,852.3c-3.1,0.2-6.2,0.5-9.3,0.8c0-1.5,0-3-0.1-4.5c3.1-0.3,6.1-0.5,9.2-0.7
					C536.4,849.2,536.5,850.8,536.5,852.3z"/>
			</g>
			<g>
				<path class="st40" d="M518,853.8c-9.8,0.8-19.7,1.7-29.6,2.7c0-1.5,0.1-3.1,0.1-4.6c9.8-1,19.7-1.8,29.4-2.7
					C518,850.8,518,852.3,518,853.8z"/>
			</g>
			<g>
				<path class="st40" d="M556.6,864.2c-22.6,1.8-45.5,3.7-68.5,6c0-1.5,0.1-3.1,0.1-4.6c22.9-2.3,45.6-4.2,68.2-5.9
					C556.4,861.2,556.5,862.7,556.6,864.2z"/>
			</g>
			<g>
				<path class="st40" d="M504.3,882.2c-5.5,0.5-11,1.1-16.6,1.6c0-1.5,0.1-3.1,0.1-4.6c5.5-0.6,11-1.1,16.5-1.6
					C504.3,879.2,504.3,880.7,504.3,882.2z"/>
			</g>
			<g>
				<path class="st40" d="M645.7,844.4c-16,1.1-32,2.3-48.2,3.4c-0.2-1.5-0.3-3-0.5-4.5c16.1-1.1,32-2.2,47.9-3.3
					C645.2,841.5,645.5,842.9,645.7,844.4z"/>
			</g>
			<g>
				<path class="st40" d="M614.6,859.8c-0.2-1.5-0.4-2.9-0.6-4.4c21.2-1.6,42.3-3.1,63.1-4.8c0.3,1.4,0.6,2.9,0.9,4.3
					C657.1,856.7,635.9,858.3,614.6,859.8z"/>
			</g>
			<g>
				<path class="st40" d="M650.1,870.4c-13.5,1.1-27,2.1-40.7,3.1c-0.2-1.5-0.4-3-0.5-4.4c13.6-1,27-2,40.5-3.1
					C649.6,867.5,649.9,868.9,650.1,870.4z"/>
			</g>
			<g>
				<path class="st40" d="M675.4,842.2c-6.3,0.5-12.6,1-19,1.4c-0.3-1.5-0.5-2.9-0.8-4.4c6.3-0.5,12.6-0.9,18.8-1.4
					C674.8,839.3,675.1,840.7,675.4,842.2z"/>
			</g>
			<g>
				<path class="st40" d="M606.1,860.5c-3.1,0.2-6.2,0.5-9.3,0.7c-0.2-1.5-0.3-3-0.5-4.4c3.1-0.2,6.1-0.4,9.2-0.7
					C605.7,857.5,605.9,859,606.1,860.5z"/>
			</g>
			<g>
				<path class="st40" d="M614.2,873.1c-4.6,0.4-9.2,0.7-13.9,1.1c-0.2-1.5-0.3-3-0.5-4.4c4.6-0.3,9.2-0.7,13.8-1
					C613.8,870.2,614,871.7,614.2,873.1z"/>
			</g>
		</g>
		<g>
			<path class="st1" d="M404.5,889.8c-9.8,1.4-19.6,3-29.4,4.6c0.3-2.1,0.6-4.1,0.9-6.2c4-4.1,8-8.2,12-12.3
				c3.5-3.7,5.8-6.2,6.9-7.6c1.1-1.4,1.9-2.6,2.5-3.7c0.6-1.1,0.9-2.2,1.1-3.4c0.2-1.7-0.1-2.9-0.8-3.5c-0.8-0.7-1.9-0.9-3.4-0.7
				c-1.6,0.2-3.1,0.9-4.7,1.8c-1.6,1-3.3,2.3-5.1,3.9c-1.3-1.6-2.5-3.3-3.8-5c2.3-2.1,4.1-3.6,5.5-4.5c1.4-0.9,2.9-1.7,4.5-2.4
				c1.6-0.6,3.3-1.1,5.3-1.4c2.5-0.4,4.7-0.2,6.4,0.4c1.8,0.7,3.1,1.8,4,3.3c0.8,1.6,1.1,3.4,0.9,5.6c-0.2,1.9-0.8,3.8-1.7,5.5
				c-0.9,1.8-2.1,3.7-3.7,5.6c-1.6,2-4.4,4.9-8.4,8.7c-2,2-4,3.9-6,5.9c0,0.1,0,0.3-0.1,0.4c6.1-1,12.1-1.9,18.2-2.8
				C405.1,884.8,404.8,887.3,404.5,889.8z"/>
			<path class="st1" d="M438.1,876.7c-1.7,0.2-3.3,0.4-5,0.6c-0.3,2.8-0.5,5.7-0.7,8.5c-2.9,0.4-5.7,0.8-8.6,1.1
				c0.3-2.9,0.5-5.7,0.8-8.6c-5.9,0.8-11.8,1.6-17.7,2.5c0.2-2,0.5-4.1,0.7-6.1c7.1-9.8,14-19.6,20.8-29.2c2.6-0.3,5.2-0.7,7.8-1
				c-0.8,8.7-1.6,17.3-2.4,26c1.6-0.2,3.3-0.4,4.9-0.6C438.5,872.2,438.3,874.5,438.1,876.7z M425.3,871.7c0.2-2.3,0.5-4.7,0.7-7
				c0.1-1.2,0.3-2.9,0.7-5.1c0.3-2.2,0.5-3.5,0.6-3.9c-0.1,0-0.1,0-0.2,0c-0.8,1.6-1.8,3.3-2.9,4.9c-2.9,4.2-5.8,8.3-8.7,12.5
				C418.7,872.6,422,872.1,425.3,871.7z"/>
		</g>
		<g>
			<g>
				<path class="st10" d="M775.4,811.6c-8.9,1.1-13.8,9.4-10.7,18.5c2.8,8.6,22.4,22.7,24.7,24.2c0.8,0.5,1.5,1.1,2.3,1.6
					c0.3-0.7,0.6-1.4,1-2c1-2,8.7-19.6,5.3-28C794.5,816.9,784.4,810.5,775.4,811.6z M789.4,849.5c-6.8-4.8-18.7-14.6-20.5-19.9
					c-2.4-6.8,1.2-13.1,8-13.9c6.7-0.8,14.3,3.9,17,10.7C796,831.6,792.1,843.4,789.4,849.5z"/>
			</g>
			<g>
				<path class="st10" d="M778.4,819.8c-4.5,0.6-6.9,4.7-5.3,9.3c1.6,4.6,6.7,7.8,11.4,7.2c4.7-0.6,7-4.8,5.3-9.3
					C788,822.4,782.9,819.2,778.4,819.8z M782.9,832.1c-2.3,0.3-4.9-1.3-5.7-3.6c-0.8-2.3,0.4-4.4,2.6-4.6c2.3-0.3,4.8,1.3,5.7,3.6
					C786.4,829.7,785.2,831.8,782.9,832.1z"/>
			</g>
		</g>
		<g>
			<g>
				<path class="st10" d="M737.5,863c13.4-1.4,20.8-13,16.6-25.7c-4.2-12.7-17.6-21.9-30-20.8c-12.5,1.1-20.1,12.5-16.9,25.5
					C710.4,855,724,864.5,737.5,863z M725.3,820.8c10.3-0.9,21.2,6.7,24.6,17c3.3,10.4-2.7,19.8-13.6,21
					c-10.9,1.2-22.1-6.6-24.8-17.2C708.7,831,715,821.7,725.3,820.8z"/>
			</g>
			<g>
				<path class="st10" d="M742.8,845.7c-3.4-2.3-6.9-4.6-10.2-7c-1.3-4.6-2.7-9.3-4-13.9c-1.4,0.1-2.8,0.3-4.2,0.4
					c1.5,5.2,2.9,10.5,4.4,15.7c3.9,2.7,7.9,5.4,11.9,8.1C741.4,847.9,742.1,846.8,742.8,845.7z"/>
			</g>
		</g>
	</g>
	<g>
		<g>
			<g>
				<path class="st14" d="M432.1,633.6c0,0,0.8,5.3,27.5,1.1c26.6-4.2,64.9-16.8,64.9-16.8l-62.2,4.1
					C462.4,622,438.6,624.7,432.1,633.6z"/>
				<path class="st14" d="M503.8,623.1c12.7-1.6,18.8,3.9,24,5.2c5.2,1.3,10.6,3.6,10.5,3.5c-3.3-4.9-7.5-4.6-9.7-6
					c-2.2-1.5-1.6-0.7,2.9-1.6c2.6-0.5,7.5,3.3,11,5.4c3,1.8,4.8,1.7,4.8,1.7s-3.7-4-8.3-7.1c-5.5-3.7-12.1-6.5-13.6-6.9
					c-2.8-0.7-11.3,0.1-17.3,1.7C501.4,620.7,494.7,624.3,503.8,623.1z"/>
				<path class="st14" d="M524.8,617.6c0,0,10,1.2,11.8,2.2c1.3,0.7,6.7,5.2,6.7,5.2s-3.7-0.1-6-1.8
					C535,621.5,524.8,617.6,524.8,617.6z"/>
			</g>
			<path class="st41" d="M436.4,624.8c-6.5,0.9-18.1,0.5-15.1,14.5c1.7,7.9,7.6,10,15,8.5c13.7-2.8,29.2-6.7,29.2-6.7l4.9-23
				C470.4,618.2,443.4,623.9,436.4,624.8z"/>
		</g>
		<path class="st41" d="M431.7,625.4l-57.1-16.3c0,0-15.9-0.2-17.8,5c-2.8,7.5,6.9,12.7,10.7,15.3c7.7,5.3,2.9,5.2,35,12.9
			c24.3,5.8,34.5,9.7,36.9-4.4C440.7,631.1,431.7,625.4,431.7,625.4z"/>
		<polygon class="st6" points="390.9,749.1 385.3,798.3 410.7,805.2 424.2,805.8 398.1,792.3 406.5,746.8 		"/>
		<path class="st11" d="M384.9,804.9l5.3,0.5l2.9-3.7l20.3,6l17.3,1c0,0,0-1.3-0.7-2c-2.5-2.3-15.2-6.2-15.2-6.2s0.5,3.9-1.2,4.3
			c-1.6,0.4-17.3-4.5-21-6c-6.3-2.6-7.8-4.5-8.2-4.2C383.5,795.5,384.9,804.9,384.9,804.9z"/>
		<path class="st13" d="M390.7,708l-4.8,44.3l24.6-1.8l6.2-66.2c0,0-4.1-16.3-15.2-11.8C394.4,675.4,390.7,708,390.7,708z"/>
		<path class="st13" d="M380.1,689.3L343.8,755c0,0-16.9,17.8-11.1,21.8c8.3,5.8,32.9-1.9,37.6-6c9.1-8.1,2.2-3.6,23.9-41
			c19.8-34.2,28.4-48.1,13.2-57.9C393.2,662.8,380.1,689.3,380.1,689.3z"/>
		<path class="st6" d="M244.7,792.1c0,0,60.2,0.5,58.8,0.6c-1.4,0.2-10-15.1-10-15.1l-40.7,7.1L244.7,792.1z"/>
		<polygon class="st6" points="261.1,790.7 256.2,780.6 230.6,786.7 218.4,792.6 247.8,792 		"/>
		<path class="st11" d="M253.5,774.6l-4.9,2.1l-0.8,4.6l-20.7,4.4l-15.7,7.3c0,0,0.7,1.2,1.5,1.4c3.3,0.8,16.3-1.8,16.3-1.8
			s-2.3-3.2-1-4.3c1.3-1.1,17.3-4.3,21.3-4.7c6.8-0.8,9,0.3,9.2-0.2C259.1,782.2,253.5,774.6,253.5,774.6z"/>
		<path class="st15" d="M378.3,766.3l-93.3,7l8.2,22.7l117.8-4.8c0,0,15.9-10.6,8.5-22C415.1,762.6,378.3,766.3,378.3,766.3z"/>
		<path class="st42" d="M384.2,652.5c-4.5,15.3-20.9,24-36.5,19.4c-15.7-4.6-24.7-20.8-20.2-36.1c4.5-15.3,20.9-24,36.5-19.4
			C379.7,621.1,388.7,637.2,384.2,652.5z"/>
		<path class="st42" d="M394.7,615.5c-4.3,14.7-20,23-34.9,18.6c-15-4.4-23.6-19.9-19.3-34.5c4.3-14.7,20-23,35-18.6
			C390.4,585.4,399.1,600.9,394.7,615.5z"/>
		<path class="st42" d="M421.7,602c-3.3,11.3-15.1,17.7-26.4,14.4l-2.3-11.2c-11.3-3.3-17.7-15.1-14.4-26.4l2.3-7.6
			c3.3-11.3,15.1-17.7,26.4-14.4l5.1,1.5c11.3,3.3,17.7,15.1,14.4,26.4L421.7,602z"/>
		<path class="st6" d="M422.4,569.5c-0.6,1.9-1.3,3.7-2.2,5.6c-5.9,12.5-16.8,20.1-25.9,18.8c-2,5.9-4.8,10.8-7.5,15
			c-3.1,4.7-10.8,8.4-10.8,8.4c-4.2,8.7,19.3,30.3,20.9,29.6c3.4-1.4,9.2-18.4,3.8-25.5c-2.5-3.3-5.2-6.4-4.3-8.3c2-4,2-4,5.8-7.2
			c6.6-4.3,13.6-2.1,13.6-2.1c0.7,0.2,1.4,0.1,1.9-0.2c0.8-1.2,1.5-2.6,1.9-4.1l5-16.8C426.1,578,425.1,573.2,422.4,569.5z"/>
		<path class="st35" d="M329,742.5c0,0,5.2,11.3,7.3,12.9c2.8,2.3,13.4,2.2,13.4,2.2s14.3-40.8,21.9-56.2
			c7.6-15.4,13.2-18.4,14.8-23.4c2.6-8.1,2.6-10.2,3.2-16.9c0.6-6.7,2-17.7,0.7-19.5c-2-3-4.2-6.4-4.8-10.2
			C385.2,629.2,329,742.5,329,742.5z"/>
		<path class="st43" d="M400.3,615.3c0,0,5.7,15.1,4,23.6c-1.2,6.3-2.4,21.2-10.4,37.9c-7.9,16.7-11.4,20.4-15.6,33.1
			c-4.2,12.7-2.1,16.4-7.9,31.8c-4.5,12.1-9.6,22.3-9.6,22.3s-6.1-0.1-8.9-5.9c-2.9-5.8,11.3-48.2,16-58.2
			c4.7-10.1,19.1-35.9,20.9-43.3c1.8-7.5,6.2-30.9,5.5-33.5C392.9,616.3,399.2,615.6,400.3,615.3z"/>
		<path class="st44" d="M398.7,612.9c0,0,0.7,1.2,0,2c-1.3,1.6-2.6,2.4-2.6,2.4s2.7-0.4,3,1.9c0.4,2.8-0.6,8.7-0.6,8.7
			s4.2-7.7,3.8-10.3C401.7,612.9,398.7,612.9,398.7,612.9z"/>
		<path class="st15" d="M399,756.7L311.6,737c0,0-25.4-12.5-28.8-5.6c-5,9.9,10.2,32.8,16.2,36.4c11.9,7.1,4.8,1.3,54.9,13.5
			c45.8,11.2,64.5,16.2,72.5-1.7C433.9,763,399,756.7,399,756.7z"/>
		<path class="st43" d="M330.9,752.2c0,0,18.5-39.6,27.8-58.2c9.2-18.6,24.5-55.6,26.7-60.1c2.2-4.5,3.7-11.5,3.7-11.5
			s-1.6-12.3-8.5-14.2c-6-1.6-12.7-1.3-22.7,0.7c-12,2.4-35.8,70.3-37.5,73.6c-6.1,11.8-22.9,23.6-30.4,32.1
			c-6,6.7-12.5,17.6-12.5,17.6S312.8,739.7,330.9,752.2z"/>
		<polygon class="st41" points="384,605.9 386.6,612.4 390.2,622.1 383.6,628.5 378.9,607.7 		"/>
		<path class="st41" d="M394.1,684.2l-22.3-65c0,0-4.6-9.2-8.2-9.2c-8.5,0-16.6,9.5-16.4,14.5c0.4,9.9,1.3,9.2,14.2,40.9
			c11.8,29,16.2,41.2,30.7,35C405.6,694.6,394.1,684.2,394.1,684.2z"/>
		<g>
			<path class="st6" d="M421.8,702.8c0,0,16.6,12.3,18.5,12.9c1.9,0.7,3.2-0.2,7.7-0.6c4.5-0.4,5.3-0.2,8.8-0.3c3.6-0.1,3.9,0,3.9,0
				s-0.3,2-1.7,2.4c-1.3,0.3-4.3,0.4-5.3,0.7c-1.1,0.3,2.5,0,7.6,1c5.1,1,10,2.7,12,3.6c1.3,0.6,1.5,0.7,1.4,0.7
				c-0.1,0.7-0.3,1.3-0.9,1.3c-0.6,0-2.5-0.3-2.4-0.2c0.4,0.4,3.3,1.9,3.8,2c0.5,0.2,1.3,0.5,1.7,0.7c0.9,0.5,0.3,1.6-1.5,1.9
				c0,0-0.5,0.8-1.1,0.9c-0.3,0.1-0.5,0.1-0.7,0.2c-0.3,0.1-0.7,0-1,0c-1.2,0.1-2.3,0.2-3.4,0.1c-0.4,0-4.3-0.8-4.3-0.5
				c0,0,2.9,1.1,2.8,1.3c-0.2,0.5-0.9,1.1-1.4,1c-1-0.2-2.4-0.5-6.4-1.5c-4.4-1.1-5.2-1.7-11.1-1.6c-5.1,0.1-6.6-1-9.4-3.6
				c-9.6-8.9-20.4-10.2-23.3-12.7C413.4,710.2,421.8,702.8,421.8,702.8z"/>
		</g>
		<g>
			<path class="st41" d="M391.2,681.2c0,0-5.2-10.4-11.4,2.5c-3.5,7.4-7.9,11.9,0.4,16.7c14.5,8.5,34.8,18.4,34.8,18.4l12.3-13.9
				L391.2,681.2z"/>
		</g>
	</g>
	<g>
		<path class="st45" d="M1718,838.5l0.1,9.7l-13.2,6.3c0,0-12.6,4.8-16.6,4c-4-0.7-10.6-1.4-12.8-5.2c-2.1-3.8,2.9-4.8,8.1-7.5
			c5.1-2.7,11.4-7.2,13.6-10.8c2.2-3.6,8.9,2.9,8.9,2.9S1703.8,843.4,1718,838.5z"/>
		<path class="st46" d="M1753.7,644.1c0,0,39.5,12.4,56.5,11.3c16.9-1.1-29.4,26-40.7,27.1C1758.2,683.6,1749.1,665.5,1753.7,644.1z
			"/>
		<path class="st30" d="M1832.7,656.5c0,0,16.6,39.9,5.3,47.8c-11.3,7.9-104.7,1.9-104.7,1.9l-16.9,132.2h-18.1l13.6-149.1
			c0,0,2.3-16.9,22.6-19.2C1754.8,667.8,1819.2,645.2,1832.7,656.5z"/>
		<path class="st47" d="M1824.8,661c0,0,5.3,17.3-12.8,19.6c-18.1,2.3-82.1,8.7-82.1,8.7l-22.6,144.6"/>
		<path class="st46" d="M1753.7,644.1c0,0-9-5.6-15.8,0c-6.8,5.6-54.6,150.6-54.6,150.6l11.7,6.4c0,0,59.9-114.1,62.1-123.1
			C1759.3,668.9,1753.7,646.3,1753.7,644.1z"/>
		<path class="st47" d="M1729.2,734.4c0,0,29.7-56.5,28.6-73.4"/>
		<path class="st45" d="M1698.2,795.6l3.5,8.8l-9.3,10.9c0,0-9.3,9.3-13,10.2c-3.7,0.9-9.7,2.8-12.9,0.2c-3.2-2.6,0.8-5.6,4.4-10.1
			c3.5-4.5,7.4-11,8-15.2c0.6-4.2,8.7-0.8,8.7-0.8S1687.6,805.7,1698.2,795.6z"/>
		<path class="st30" d="M1772.9,563.9c0,0,20-17.9,4.6-46.4c-8.5-15.8-4.1-58.9,23.6-45.5c27.7,13.4,20.2-3.3,35.8,4.1
			c15.6,7.4,22.5,18.6,20.4,30.9c-2.1,12.2-0.7,35.5,8.9,40c9.6,4.5,55.6,29.5,26,61.2C1862.5,639.7,1754.7,616.5,1772.9,563.9z"/>
		<path class="st6" d="M1828,519.8c0,0-4.4,22-1.5,29.8c2.9,7.8-20,2-20,2s1-18.1,1.5-22C1808.5,525.7,1828,519.8,1828,519.8z"/>
		<path class="st14" d="M1808,529.6c0.5-3.9,20-9.8,20-9.8s-14.2,20.6-19,21c-0.7,0.1-1.3,0-1.8,0
			C1807.4,536.1,1807.7,531.4,1808,529.6z"/>
		<path class="st6" d="M1795.8,497.8c0,0-1.5,20,1,25.9c2.4,5.9,3.4,10.3,9.3,9.8c5.9-0.5,15.1-9.3,20.5-12.7
			c5.4-3.4,9.3-7.3,7.3-12.2c-2-4.9-4.4-1-4.4,0.5c0,1.5-15.1,3.9-26.9-3.4C1799.7,503.8,1795.3,500.8,1795.8,497.8z"/>
		<path class="st14" d="M1806.4,639.5l-47-38.1c0,0-9,1-4.8,6.7c4.2,5.7,32.1,39.4,32.1,39.4S1815.1,660.4,1806.4,639.5z"/>
		<path class="st48" d="M1805,551.1c0,0-18.6,2.9-21,10.3c-2.4,7.3-1.5,11.7-1.5,15.1C1782.6,579.9,1806,564.2,1805,551.1z"/>
		<path class="st39" d="M1825.1,548.6l-20,2.4c0,0-22.5,23.4-27.3,24.4c-4.9,1,6.6,68.5,5.4,75.7c-0.7,3.9,17.6,5.7,27.3,7.2
			c9.8,1.5,23.4,0,23.4,0s-9.8-29.7-6.3-45.8c3.4-16.1,18.6-28.3,15.1-39.6C1839.2,561.8,1849,561.8,1825.1,548.6z"/>
		<path class="st48" d="M1839.2,561.8c0,0-5.4,15.1-4.4,24.9c1,9.8,3.9,33.7,3.9,33.7s5.9,27.8,17.1,24.4
			c11.2-3.4,10.3-35.2,2.4-55.2C1850.5,569.6,1842.6,556.9,1839.2,561.8z"/>
		<path class="st49" d="M1769.7,608.7l14.4-0.8c1.6-0.1,2.4-1.5,1.7-3l-13.6-31.7c-0.7-1.6-2.6-2.8-4.2-2.7l-14.4,0.8
			c-1.6,0.1-2.4,1.5-1.7,3l13.6,31.7C1766.2,607.6,1768,608.8,1769.7,608.7z"/>
		<path class="st6" d="M1861.5,635.1c0,0-0.5,5.6-0.5,6.8c0,1.2-5.4,2.7-11,2.7c-5.6,0-47.1-23.9-51-25.6
			c-3.9-1.7-12.9-4.2-15.1-4.4c-2.2-0.2-3.9-6.3-2.7-10.3c0.8-2.6,1.6-4.8,2.8-5.6c0.6-0.4,1.4-0.4,2.3,0.2c2.7,1.7,13.4,11,13.4,11
			s25.1,4.6,35.2,9S1856.6,628.8,1861.5,635.1z"/>
		<path class="st14" d="M1771.1,600.4l12.9-1.7l-2.8,5.6l1.7,8.5l-7.1,1.2c0,0-1-1.2,0.2-1.7c1.2-0.5,2.9-1.2,2.9-1.2
			s-3.4-0.5-4.9-0.7c-1.5-0.2-1.7-0.7-1.7-1.5c0-0.7,1.5-1.2,1.5-1.2s-2.7-1-2.9-1.7c-0.2-0.7-0.7-1.7-0.2-2.4
			C1771.1,602.9,1770.4,600.9,1771.1,600.4z"/>
		<g>
			<path class="st50" d="M1756.3,591.8l6.1-8.2l9.3-8.6c0,0,1.2,1.3-0.3,3.4c-1.4,2.1-6.8,8.4-6.8,8.4l-2.7,4.4l-0.5,0.9
				C1761.4,592.2,1757.7,596,1756.3,591.8z"/>
			<path class="st50" d="M1761.2,590.2c0,0-0.1,2.8,0.5,3c0.6,0.2,1.5-0.8,2.8-1.8c1.3-1,5.2-4.3,5.2-4.3l6.1-3.7
				c0,0-0.5,2.7-1.2,3.6c-1,1.3-3.7,3.7-3.7,3.7l-5.5,5.8c0,0-4.5,3.5-5,2.6c-0.5-1-0.1-2.4-1-2.9
				C1758.6,595.5,1756.4,593.6,1761.2,590.2z"/>
			<path class="st50" d="M1768.6,595.9l3.8-3.4c0,0,4.5-3.2,4.7-2.6c0.3,0.5,0.3,0.5,0.3,0.5s-1,1.3-2.3,2.8c-0.5,0.6-2.8,3-3.4,3.5
				c-2.2,2-4,5-4.4,5.2C1767,602.1,1762.1,602.2,1768.6,595.9z"/>
			<path class="st50" d="M1754,592.6l-0.1-8.1l5.1-9.2c0,0,1.3,1.4,0.2,4.6c-1.1,3.2-1.1,3.5-1.4,3.9c-0.3,0.3,1,5.6,1,5.6
				S1754.4,594.3,1754,592.6z"/>
			<path class="st50" d="M1760.2,595l-4.2-4.8c0,0-2.6,0.2-2.5,5.3c0.1,5.1-0.4,10-0.4,10s1.3,3.2,3.5,3.1c2.2-0.1,5.6,0,8.1-2.1
				c2.5-2.1,3.6-5.9,4-7.1c0.4-1.4-1.7-0.8-2.6-1.4c-1.1-0.7-1-2.4-1.9-2.7C1762.5,594.9,1760.2,595,1760.2,595z"/>
		</g>
	</g>
	<g>
		<g>
			<g>
				<g>
					<path class="st48" d="M1192.4,875.2l-22-356.3c-3.9,0.5-6.8,2.2-7.2,4.1l21.8,352.7L1192.4,875.2z"/>
					<path class="st39" d="M1167.4,876.8l17.6-1.1L1163.2,523l0,0l0,0l0,0c-0.7-2-4.5-3.4-9-3.1c-4.5,0.3-8.1,2.1-8.5,4.2
						c0,0,0,0,0,0l0,0l0,0L1167.4,876.8z"/>
					<path class="st48" d="M1145.6,524.1c-0.6-1.8-3.7-3.1-7.6-3.1l22,356.3l7.4-0.5L1145.6,524.1z"/>
					<path class="st0" d="M1138,521c3.9,0,7,1.3,7.6,3.1l0,0l0,0c0,0,0,0,0,0c0.4-2.1,4-3.9,8.5-4.2c4.5-0.3,8.3,1.1,9,3.1l0,0l0,0
						l0,0c0.4-1.9,3.3-3.5,7.2-4.1l-18.3-32.4L1138,521z"/>
					<path class="st48" d="M1147.9,496.9c1.5,0,3,0,4.6-0.1c1.7-0.1,3.5-0.3,5.1-0.5l-5.5-9.7L1147.9,496.9z"/>
				</g>
			</g>
		</g>
		<g>
			<path class="st14" d="M1245.8,503.3c0,0-6.8,10.7-14.2,11.2c-7.4,0.6-11.1-16.9-11.1-28.7c0-11.8,12.9-23.1,14.2-26.4
				c1.2-3.4,14.2,7.9,14.2,18C1248.9,487.5,1245.8,500.5,1245.8,503.3z"/>
			<g>
				<path class="st14" d="M1189.3,601l-29.8,50.5c0,0,1.9,8.7,6.7,3.8c4.8-4.8,32.7-36,32.7-36S1207.6,590,1189.3,601z"/>
				<path class="st14" d="M1168.7,649.6c0,0-2.4,9.6-3.4,14.4c-1,4.8-5.8,17.8-7.7,19.7c-1.9,1.9-1.9,1.9-1.9,1.9l3.4-12.3l-3.6,4.3
					c0,0-1.9,7.2-2.6,8.2c-0.7,1-1.9,1.4-1.9,1.4c-2.4,1.2-2.9-0.2-2.9-0.2l1.7-9.1l2.6-6.7l-4.3,4.1c0,0-1,7.7-1.7,8.4
					c-0.7,0.7-2.4,0.2-2.4,0.2l1.7-10.8l7-10.1c0,0-1.4-0.7-3.1,1.4c-1.7,2.2-3.4,3.1-4.6,3.1c-1.2,0,3.4-6.2,4.6-7.2
					c1.2-1,3.1-7,8.4-8.7C1163.1,650.1,1168.7,649.6,1168.7,649.6z"/>
			</g>
			<path class="st45" d="M1291.3,871.6c0,0,0.6,6.2,0.6,8.2c0,1.9-4.2,7.4-4.5,9c-0.3,1.6-0.3,1.6-0.3,1.6h31.4c0,0,0.6-3.2-4.5-7.4
				c-5.1-4.2-6.7-7-7.4-12.3C1306.1,865.3,1291.3,871.6,1291.3,871.6z"/>
			<path class="st45" d="M1236.4,872.4l3.2,17.3h-49c0,0-0.3-5.4,5.4-7c5.8-1.6,21.5-6.4,25.6-11.5
				C1225.8,866,1236.4,872.4,1236.4,872.4z"/>
			<path class="st30" d="M1292.6,871.1l-48.1-172.5l-7.2-75v-4.3l27.4,0.5c0,0,17.3,18.7,16.8,43.3c-0.5,24.5-1.4,79.8,2.4,90.3
				c3.8,10.6,13.9,28.4,14.9,39.4c1,11.1,5.8,77.4,5.8,77.4L1292.6,871.1z"/>
			<path class="st31" d="M1208.5,620.3c0,0-9.6,16.3-7.2,45.2c2.4,28.8,21.1,204.7,21.1,204.7l14.4,0.5c0,0,4.8-67.3,2.9-83.6
				c-1.9-16.3-7.2-33.2-6.7-36c0.5-2.9,26.4-91.8,24.5-99.5c-1.9-7.7-11.5-31.2-13-31.7C1243.1,619.3,1208.5,620.3,1208.5,620.3z"/>
			<path class="st51" d="M1210,629.9c0,0-1,94.7,4.8,120.1c5.8,25.5,11.5,98,11.5,108.6"/>
			<path class="st10" d="M1273.4,531.8c0,0,12,9.6,2.4,38c-9.6,28.4-13.5,43.7-15.4,44.2c-1.9,0.5-12,2.4-15.4-1.4
				c-3.4-3.8-6.2-7.2-5.8-9.6c0.5-2.4,11.3-63.5,12.5-69.2C1254.2,522.2,1270,530.4,1273.4,531.8z"/>
			<path class="st0" d="M1213.8,534.2l13.9-7.2l26-0.5c0,0,13.5,1.9,19.2,14.4c2,4.3-2.9,66.8-3.4,75.4c-0.5,8.7-0.5,8.7-0.5,8.7
				l-63.4-4.3C1205.7,620.7,1204.2,541.9,1213.8,534.2z"/>
			<path class="st10" d="M1216.2,535.2c0,0,12,9.6,2.4,38c-9.6,28.4-13.5,43.7-15.4,44.2c-1.9,0.5-12,2.4-15.4-1.4
				c-3.4-3.8-6.2-7.2-5.8-9.6c0.5-2.4,19.2-54.3,21.6-59.6C1206.1,541.4,1212.9,533.8,1216.2,535.2z"/>
			<path class="st6" d="M1257.1,501.1l-1.9,26c0,0,1,3.6-7.2,4.3c-11.1,1-15.9-3.4-15.9-3.4s6.2-12,5.3-28.4
				C1236.4,483.3,1257.1,501.1,1257.1,501.1z"/>
			<path class="st30" d="M1237.9,452.5c0,0,14-3.4,27.9,7.2c8.2,6.2,13,17.3,8.7,26.4c-4.3,9.1-13.9,21.1-18.7,21.1
				c-4.8,0-15.4-7.2-16.8-10.1c-1.4-2.9-1.4-4.8-2.4-11.1c-1-6.2-4.3-4.3-4.3-2.9c0,1.4-1.9,5.8-2.9,2.9
				C1228.2,483.3,1208.5,462.6,1237.9,452.5z"/>
			<ellipse class="st30" cx="1268.4" cy="454" rx="20.9" ry="20.2"/>
			<path class="st14" d="M1189.3,601l-29.8,50.5c0,0,1.9,8.7,6.7,3.8c4.8-4.8,32.7-36,32.7-36S1207.6,590,1189.3,601z"/>
		</g>
	</g>
</g>
<path class="st5" d="M1549.2,1681.8c-140-1.4-573.8-7.7-837.1-26c-488.2-33.9-870.8,8.1-634.7,92.6c72.2,25.8-128.2,119,388.6,143.2
	c453.6,21.3,916.1-24.3,1139.9-43.8c223.8-19.6,327.1-54.3,375.1-69.9C2023,1764,2038.6,1686.8,1549.2,1681.8z"/>
<g>
	<g>
		<path class="st0" d="M531.5,1278.7c0,31.6-25.6,57.2-57.2,57.2H270.9c-31.6,0-57.2-25.6-57.2-57.2v-42.7
			c0-31.6,25.6-57.2,57.2-57.2h203.4c31.6,0,57.2,25.6,57.2,57.2V1278.7z"/>
		<polygon class="st0" points="290.9,1366.9 290.9,1308.4 354.6,1308.4 		"/>
	</g>
	<g>
		<path class="st0" d="M586.5,1278.7c0,31.6,25.6,57.2,57.2,57.2h92c31.6,0,57.2-25.6,57.2-57.2v-42.7c0-31.6-25.6-57.2-57.2-57.2
			h-92c-31.6,0-57.2,25.6-57.2,57.2V1278.7z"/>
		<polygon class="st0" points="715.7,1366.9 715.7,1308.4 652,1308.4 		"/>
	</g>
	<path class="st10" d="M224.5,1414.8c0,0,63.8,54.5,100.8,53.7c37-0.7-85.4-104.8-97.7-106.2C215.3,1361,224.5,1414.8,224.5,1414.8z
		"/>
	<g>
		<g>
			<g>
				<path class="st52" d="M144.6,1664.3c-4.8,0-12.5-1.1-19.2-6.9c-9.6-8.4-13.8-23.3-12.4-44.2c0.9-14.2,6.5-28.5,12.4-43.7
					c9.9-25.5,21.2-54.5,15.3-92.8l10.9-1.7c6.3,41.2-6,73-15.9,98.5c-5.8,15-10.9,27.9-11.7,40.4c-1.1,17,1.8,29.1,8.5,35.1
					c6.3,5.6,14.3,4.2,14.6,4.1l2.2,10.8C149.2,1663.9,147.4,1664.3,144.6,1664.3z"/>
			</g>
			<g>
				<g>
					<path class="st53" d="M229.4,1752.1l10.8,16.4l-90.5,29c0,0-6-5.8,16.2-17.4C191.7,1766.6,229.4,1752.1,229.4,1752.1z"/>
					<path class="st53" d="M245.5,1752.1l-10.8,16.4l90.5,29c0,0,6-5.8-16.2-17.4C283.2,1766.6,245.5,1752.1,245.5,1752.1z"/>
				</g>
				<rect x="228" y="1703.2" class="st53" width="18.9" height="67.3"/>
				<g>
					<path class="st54" d="M228.2,1755.6l9.2,15.7l-77.5,27.7c0,0-5.2-5.5,13.8-16.6C195.9,1769.4,228.2,1755.6,228.2,1755.6z"/>
					<path class="st54" d="M246.7,1755.6l-9.2,15.7l77.5,27.7c0,0,5.2-5.5-13.8-16.6C279,1769.4,246.7,1755.6,246.7,1755.6z"/>
				</g>
				<path class="st55" d="M168.7,1805.2c0,3.6-2.9,6.6-6.6,6.6c-3.6,0-6.6-2.9-6.6-6.6c0-3.6,2.9-6.6,6.6-6.6
					C165.8,1798.6,168.7,1801.5,168.7,1805.2z"/>
				<path class="st55" d="M318.8,1805.2c0,3.6-3,6.6-6.6,6.6c-3.6,0-6.6-2.9-6.6-6.6c0-3.6,2.9-6.6,6.6-6.6
					C315.9,1798.6,318.8,1801.5,318.8,1805.2z"/>
				<path class="st52" d="M152.8,1805.2c0,3.6-2.9,6.6-6.6,6.6c-3.6,0-6.6-2.9-6.6-6.6c0-3.6,2.9-6.6,6.6-6.6
					C149.9,1798.6,152.8,1801.5,152.8,1805.2z"/>
				<path class="st52" d="M334.7,1805.2c0,3.6-2.9,6.6-6.6,6.6c-3.6,0-6.6-2.9-6.6-6.6c0-3.6,2.9-6.6,6.6-6.6
					C331.8,1798.6,334.7,1801.5,334.7,1805.2z"/>
			</g>
			<rect x="230.3" y="1678.5" class="st52" width="13.8" height="24.2"/>
			<path class="st52" d="M254.5,1665.8c0,7.4-6,13.5-13.5,13.5h-7.6c-7.4,0-13.5-6-13.5-13.5l0,0c0-7.5,6-13.5,13.5-13.5h7.6
				C248.4,1652.3,254.5,1658.3,254.5,1665.8L254.5,1665.8z"/>
			<path class="st56" d="M340,1653.4c0.3-1.6,0.5-11.5,0.5-13.3c0-10.9-7-19.7-15.7-19.7H149.6c-8.7,0-15.7,8.8-15.7,19.7
				c0,1.7,0.2,11.7,0.5,13.3H340z"/>
			<path class="st52" d="M132.2,1658.8c0,3.3,1.9,6,4.4,6h201.2c2.4,0,4.4-2.7,4.4-6l0,0c0-3.3-1.9-6-4.4-6H136.6
				C134.2,1652.7,132.2,1655.4,132.2,1658.8L132.2,1658.8z"/>
			<g>
				<path class="st56" d="M142,1552.2c4.3,0.3,31.8,0.8,36.5,0.9c30.1,0.4,56-5.3,57.4-12.7c5.9-30.8,6.2-62.3,0.8-93.1
					c-1.3-7.4-27.6-13-58.3-12.7c-4.8,0.1-32.9,0.5-37.3,0.9C150.6,1473.9,150.9,1513.8,142,1552.2z"/>
				<path class="st52" d="M137.9,1435.5c-3.4,0-5.7,1.6-5.2,3.6c8.4,36.1,8.7,73.5,0.9,109.6c-0.4,1.9,1.9,3.5,5.2,3.6l0,0
					c3.3,0,6.3-1.5,6.8-3.4c7.8-36.2,7.6-73.7-0.7-109.9C144.4,1437,141.3,1435.4,137.9,1435.5L137.9,1435.5z"/>
				<path class="st57" d="M136.6,1552.2c0.9,0.3,6.8,0.5,7.9,0.5c6.6,0.1,13.3-5.7,14.6-13c5.5-30.3,5.3-61.4-0.4-91.7
					c-1.4-7.3-8.3-13.1-15-13c-1.1,0-7.1,0.2-8,0.5C145.1,1473.9,145.4,1513.8,136.6,1552.2z"/>
			</g>
		</g>
		<path class="st0" d="M181.9,1601.8c0,0-42.1,7.3-51.3-75.1c-9.2-82.5-11.9-148.4-11.9-148.4l52.2-27.5h45.8
			c0,0,30.5,20.1,34.1,38.5c3.7,18.3-1.1,84.3,4.4,97.1c5.5,12.8,25.7,55,25.7,55L181.9,1601.8z"/>
		<path class="st6" d="M216.6,1477.8l33.2-25.2l6.1-4.6c0,0,11.6,16.1,7.4,27.2c-4.2,11.2-36.9,19.7-42.4,19
			c-1.8-0.2-75.3,35.1-77.6,35.3c-26.3,2.4-3-37.4-3.1-39.7C140.1,1487.1,216.6,1477.8,216.6,1477.8z"/>
		<polygon class="st14" points="276.2,1451.8 274.3,1475.7 259.8,1480.8 255.8,1447.9 		"/>
		<path class="st10" d="M144.9,1396c0,0-19.3-25.9-26.3-18.3c-7.1,7.6-33.4,89.2-30.7,114.8c2.8,25.6,5.3,45.2,23.7,45.9
			c64.3,2.2,70.2-34.1,70.2-34.1l-1.2-23.2c0,0-36.6,8.6-45.2,7.3C127.6,1487.4,144,1423.6,144.9,1396z"/>
		<g>
			<path class="st33" d="M316.5,1793.3l-4.9,18.3h62.3c0,0-17.1-23.2-31.8-26.9C327.5,1781.1,316.5,1793.3,316.5,1793.3z"/>
			<path class="st33" d="M278.6,1560c0,0,97.7-20.8,123.4-19.5c25.7,1.2,33,3.7,33,23.2c0,19.5-11,224.8-11,224.8l-42.8,3.7
				c0,0-4.9-149,0-166.1c4.9-17.1,4.9-17.1,4.9-17.1l-118.5,24.4L278.6,1560z"/>
			<path class="st31" d="M163.8,1592.9c0,0,14.7-41.5,66-51.3c51.3-9.8,58.6-4.9,58.6-4.9l64.7,250.4l-45.2,14.7l-66-177.1
				C241.9,1624.7,157.7,1658.9,163.8,1592.9z"/>
			<path class="st33" d="M394.6,1782.3l-2.4,28.1h86.7C478.9,1810.4,420.3,1778.6,394.6,1782.3z"/>
		</g>
	</g>
	<g>
		<g>
			<path class="st58" d="M302.2,1463.6c0-0.1-0.1-0.1-0.1-0.2l0.1-4.9h202.1v4.9c0,0,0,0.1,0,0.2l-0.5,0.9c-2.6,4.2-7.3,5-12.6,5
				H315.3c-5.3,0-10-0.8-12.6-5L302.2,1463.6z"/>
			<path class="st59" d="M350.9,1464.4c0,0,0,0.1,0,0.1l-0.5,0.7c-0.8,1.1-1.8,1.9-3,2.5h-30.7c-5.1,0-9.6-0.6-12.1-4l-0.5-0.7
				c0,0-0.1-0.1-0.1-0.1l0.1-2.4h46.8V1464.4z"/>
			<g>
				<rect x="378.1" y="1459.7" class="st59" width="101" height="3.5"/>
			</g>
			<g>
				<path class="st60" d="M352,1458.3l26.2-99.3c0.7-2.6,3.4-4.7,6-4.7h141.8c2.6,0,4.2,2.1,3.5,4.7l-26.2,99.3H352z"/>
				<path class="st59" d="M432.2,1406.3c-1.3,5.1,1.7,9.2,6.8,9.2c5.1,0,10.3-4.1,11.6-9.2c1.3-5.1-1.7-9.2-6.8-9.2
					C438.7,1397.1,433.5,1401.3,432.2,1406.3z"/>
			</g>
		</g>
		<g>
			<polygon class="st13" points="775.4,1810.6 796.1,1810.6 762,1480.1 732,1480.1 			"/>
			<polygon class="st30" points="734,1495.3 747.1,1595.4 762.7,1487.5 762,1480.1 735.8,1480.1 			"/>
			<polygon class="st13" points="498.3,1810.6 519,1810.6 484.9,1480.1 454.9,1480.1 			"/>
			<polygon class="st30" points="456.9,1495.3 470,1595.4 485.6,1487.5 484.9,1480.1 458.7,1480.1 			"/>
			<polygon class="st13" points="281.2,1810.6 260.5,1810.6 294.6,1480.1 324.6,1480.1 			"/>
			<polygon class="st30" points="322.6,1495.3 282.5,1597.3 293.8,1487.5 294.6,1480.1 320.8,1480.1 			"/>
			<rect x="265.7" y="1469.3" class="st61" width="249.4" height="19.3"/>
			<rect x="503.5" y="1469.3" class="st8" width="283.1" height="19.3"/>
		</g>
	</g>
	<g>
		<path class="st8" d="M729.3,1246.4h-7.1c-1.6,0-3.4-1.3-3.9-2.9l-1.3-3.2c-0.7-1.5-0.4-3.6,0.8-4.8l5-5c1.2-1.2,1.2-3.1,0-4.2
			l-7.8-7.8c-1.2-1.1-3.1-1.1-4.2,0l-5,5c-1.2,1.2-3.3,1.5-4.8,0.8l-3.2-1.3c-1.6-0.5-2.8-2.3-2.8-4v-7.1c0-1.6-1.3-3-3-3h-11
			c-1.7,0-3,1.4-3,3v7.1c0,1.6-1.3,3.4-2.8,4l-3.2,1.3c-1.5,0.7-3.6,0.4-4.8-0.8l-5-5c-1.2-1.1-3.1-1.1-4.2,0l-7.8,7.8
			c-1.2,1.2-1.2,3.1,0,4.2l5,5c1.2,1.2,1.5,3.3,0.8,4.8l-1.3,3.2c-0.5,1.6-2.3,2.9-3.9,2.9h-7.1c-1.6,0-3,1.3-3,3v11
			c0,1.6,1.4,3,3,3h7.1c1.6,0,3.4,1.3,3.9,2.8l1.3,3.2c0.7,1.5,0.4,3.6-0.8,4.8l-5,5c-1.2,1.1-1.2,3.1,0,4.2l7.8,7.8
			c1.2,1.1,3.1,1.1,4.2,0l5-5c1.2-1.2,3.3-1.5,4.8-0.8l3.2,1.3c1.6,0.5,2.8,2.3,2.8,3.9v7.1c0,1.6,1.3,3,3,3h11c1.7,0,3-1.3,3-3
			v-7.1c0-1.6,1.3-3.4,2.8-3.9l3.2-1.3c1.5-0.7,3.6-0.4,4.8,0.8l5,5c1.2,1.1,3.1,1.1,4.2,0l7.8-7.8c1.2-1.1,1.2-3.1,0-4.2l-5-5
			c-1.2-1.2-1.5-3.3-0.8-4.8l1.3-3.2c0.5-1.6,2.3-2.8,3.9-2.8h7.1c1.6,0,3-1.4,3-3v-11C732.3,1247.7,731,1246.4,729.3,1246.4z
			 M686.4,1269.3c-8,0-14.5-6.5-14.5-14.5c0-8,6.5-14.4,14.5-14.4c8,0,14.5,6.5,14.5,14.4C700.9,1262.8,694.4,1269.3,686.4,1269.3z"
			/>
	</g>
	<g>
		<path class="st58" d="M727.4,1463.6c0-0.1,0.1-0.1,0.1-0.2l-0.1-4.9H525.3v4.9c0,0,0,0.1,0,0.2l0.5,0.9c2.6,4.2,7.3,5,12.6,5
			h175.8c5.3,0,10-0.8,12.6-5L727.4,1463.6z"/>
		<path class="st59" d="M678.7,1464.4c0,0,0,0.1,0,0.1l0.5,0.7c0.8,1.1,1.8,1.9,3,2.5h30.7c5.1,0,9.6-0.6,12.1-4l0.5-0.7
			c0,0,0.1-0.1,0.1-0.1l-0.1-2.4h-46.8V1464.4z"/>
		<g>
			<rect x="550.5" y="1459.7" class="st59" width="101" height="3.5"/>
		</g>
		<g>
			<path class="st30" d="M677.6,1458.3l-26.2-99.3c-0.7-2.6-3.4-4.7-6-4.7H503.6c-2.6,0-4.2,2.1-3.5,4.7l26.2,99.3H677.6z"/>
			<polygon class="st10" points="533.6,1447.1 512,1365.6 642.9,1365.6 664.4,1447.1 			"/>
		</g>
	</g>
	<g>
		<g>
			<path class="st30" d="M830.6,1537c0,0,25.7,15.9,20.8,45.2c-4.9,29.3-17.1,52.5-74.5,45.2c-57.4-7.3-106.3-34.2-106.3-34.2
				s26.9,9.8,25.7,51.3c-1.2,41.5,7.3,123.4,14.7,136.8c7.3,13.4,13.4,31.8,13.4,31.8h-61.1l20.8-35.4l-64.7-235.8
				c0,0-12.2-41.5,31.8-30.5C695,1522.4,830.6,1537,830.6,1537z"/>
			<path class="st31" d="M754.8,1545.9L640,1525.1c0,0-36.6-9.8-44,24.4c-8.5,39.9-26.9,217.4-26.9,217.4l-1.2,8.6l-56.2,30.5h85.5
				l-6.1-26.9l51.3-180.8c0,0,88,25.7,117.3,25.7c29.3,0,51.3-11,51.3-15.9S775.6,1543.5,754.8,1545.9z"/>
			<g>
				<path class="st6" d="M651.7,1488.6c-7.3-3.2-24.3-7.8-28.4-8.2c-4.1-0.5-7.3-11.9-5-19.2c1.5-4.8,3-9.1,5.3-10.5
					c1.2-0.7,2.6-0.7,4.3,0.4c5,3.2,25.2,20.6,25.2,20.6S659,1491.8,651.7,1488.6z"/>
				<path class="st14" d="M599.4,1453.8l24.1-3.2l-5.3,10.5l3.2,16l-13.3,2.3c0,0-1.8-2.3,0.5-3.2c2.3-0.9,5.5-2.3,5.5-2.3
					s-6.4-0.9-9.2-1.4c-2.7-0.5-3.2-1.4-3.2-2.7c0-1.4,2.7-2.3,2.7-2.3s-5-1.8-5.5-3.2c-0.5-1.4-1.4-3.2-0.5-4.6
					C599.4,1458.4,598.1,1454.7,599.4,1453.8z"/>
			</g>
			<path class="st31" d="M812.2,1550.8c0,0,29.3,84.3-35.4,79.4c-64.7-4.9-123.4-34.2-128.3-39.1c-4.9-4.9,0,34.2-15.9,68.4
				c-15.9,34.2-39.1,119.7-39.1,119.7l-23.2-1.2l26.9-216.2c0,0,1.3-33.9,50.1-30.5c52.5,3.7,101.4,4.9,101.4,4.9L812.2,1550.8z"/>
			<path class="st14" d="M800,1318.7c0,0-10.6,16.6-22.1,17.5c-11.5,0.9-17.3-26.3-17.3-44.6s20.1-35.9,22.1-41.1s22.1,12.3,22.1,28
				C804.8,1294.2,800,1314.3,800,1318.7z"/>
			<path class="st10" d="M863.7,1366.7c0,0,19.2,22.2-8.7,72c-27.9,49.8-40.5,77.3-44.3,77.5c-3.8,0.2-23.4,0.3-28.3-8.1
				c-5-8.4-9.2-15.7-7.5-20c1.7-4.3,43.4-115.1,47.6-125.3C831,1342,857.9,1362.8,863.7,1366.7z"/>
			<path class="st0" d="M745,1362.4l26.6-13.7l49.5-0.9c0,0,25.7,3.7,36.6,27.5c3.8,8.2-20.6,103.1-23.5,119.4
				c-3.7,20.8,22.5,51.2,17.1,57.4c-19.9,23.2-120.9-17.1-120.9-17.1S726.7,1377,745,1362.4z"/>
			<path class="st10" d="M749.6,1364.2c0,0,22.9,18.3,4.6,72.4c-18.3,54.1-25.7,83.4-29.3,84.3c-3.7,0.9-22.9,4.6-29.3-2.7
				c-6.4-7.3-11.9-13.7-11-18.3c0.9-4.6,36.6-103.5,41.2-113.6C730.4,1376.1,743.2,1361.4,749.6,1364.2z"/>
			<path class="st6" d="M817.5,1315.3l-3,40.4c0,0,1.5,5.6-11.2,6.7c-17.2,1.5-24.7-5.2-24.7-5.2s9.7-18.7,8.2-44.1
				C785.3,1287.6,817.5,1315.3,817.5,1315.3z"/>
			<path class="st30" d="M787.5,1239.8c0,0,21.9-5.2,43.4,11.2c12.7,9.7,20.2,26.9,13.5,41.1c-6.7,14.2-21.7,32.9-29.2,32.9
				c-7.5,0-23.9-11.2-26.2-15.7c-2.2-4.5-2.2-7.5-3.7-17.2c-1.5-9.7-6.7-6.7-6.7-4.5c0,2.2-3,9-4.5,4.5
				C772.6,1287.6,741.9,1255.5,787.5,1239.8z"/>
			<ellipse class="st30" cx="835" cy="1242" rx="32.5" ry="31.4"/>
			<path class="st10" d="M709.6,1468c-4.5,2-52.5,1.2-55,4.9c-2.4,3.7-4.9,17.1-4.9,17.1s13.4,18.3,41.5,26.9
				c28.1,8.6,26.9,9.8,40.3-17.1C745,1472.9,720.6,1463.1,709.6,1468z"/>
			<g>
				<g>
					<path class="st52" d="M857,1664.3c4.8,0,12.5-1.1,19.2-6.9c9.6-8.4,13.8-23.3,12.4-44.2c-0.9-14.2-6.5-28.5-12.4-43.7
						c-9.9-25.5-21.2-54.5-15.3-92.8l-10.9-1.7c-6.3,41.2,6,73,15.9,98.5c5.8,15,10.9,27.9,11.7,40.4c1.1,17-1.8,29.1-8.5,35.1
						c-6.3,5.6-14.3,4.2-14.6,4.1l-2.2,10.8C852.4,1663.9,854.3,1664.3,857,1664.3z"/>
				</g>
				<g>
					<g>
						<path class="st53" d="M772.2,1752.1l-10.8,16.4l90.5,29c0,0,6-5.8-16.2-17.4C809.9,1766.6,772.2,1752.1,772.2,1752.1z"/>
						<path class="st53" d="M756.1,1752.1l10.8,16.4l-90.5,29c0,0-6-5.8,16.2-17.4C718.4,1766.6,756.1,1752.1,756.1,1752.1z"/>
					</g>
					<rect x="754.7" y="1703.2" class="st53" width="18.9" height="67.3"/>
					<g>
						<path class="st54" d="M773.4,1755.6l-9.2,15.7l77.5,27.7c0,0,5.2-5.5-13.8-16.6C805.7,1769.4,773.4,1755.6,773.4,1755.6z"/>
						<path class="st54" d="M754.9,1755.6l9.2,15.7l-77.5,27.7c0,0-5.2-5.5,13.8-16.6C722.6,1769.4,754.9,1755.6,754.9,1755.6z"/>
					</g>
					<path class="st55" d="M832.9,1805.2c0,3.6,2.9,6.6,6.6,6.6c3.6,0,6.6-2.9,6.6-6.6c0-3.6-2.9-6.6-6.6-6.6
						C835.8,1798.6,832.9,1801.5,832.9,1805.2z"/>
					<path class="st55" d="M682.8,1805.2c0,3.6,3,6.6,6.6,6.6c3.6,0,6.6-2.9,6.6-6.6c0-3.6-2.9-6.6-6.6-6.6
						C685.7,1798.6,682.8,1801.5,682.8,1805.2z"/>
					<path class="st52" d="M848.8,1805.2c0,3.6,2.9,6.6,6.6,6.6c3.6,0,6.6-2.9,6.6-6.6c0-3.6-2.9-6.6-6.6-6.6
						C851.8,1798.6,848.8,1801.5,848.8,1805.2z"/>
					<path class="st52" d="M666.9,1805.2c0,3.6,2.9,6.6,6.6,6.6c3.6,0,6.6-2.9,6.6-6.6c0-3.6-2.9-6.6-6.6-6.6
						C669.8,1798.6,666.9,1801.5,666.9,1805.2z"/>
				</g>
				<rect x="757.5" y="1678.5" class="st52" width="13.8" height="24.2"/>
				<path class="st52" d="M747.1,1665.8c0,7.4,6,13.5,13.5,13.5h7.6c7.4,0,13.5-6,13.5-13.5l0,0c0-7.5-6-13.5-13.5-13.5h-7.6
					C753.2,1652.3,747.1,1658.3,747.1,1665.8L747.1,1665.8z"/>
				<path class="st56" d="M661.6,1653.4c-0.3-1.6-0.5-11.5-0.5-13.3c0-10.9,7-19.7,15.7-19.7H852c8.7,0,15.7,8.8,15.7,19.7
					c0,1.7-0.2,11.7-0.5,13.3H661.6z"/>
				<path class="st52" d="M869.4,1658.8c0,3.3-1.9,6-4.4,6H663.8c-2.4,0-4.4-2.7-4.4-6l0,0c0-3.3,1.9-6,4.4-6H865
					C867.4,1652.7,869.4,1655.4,869.4,1658.8L869.4,1658.8z"/>
				<g>
					<path class="st52" d="M788.6,1664.3c4.8,0,12.5-1.1,19.2-6.9c9.6-8.4,13.8-23.3,12.4-44.2c-0.9-14.2-6.5-28.5-12.4-43.7
						c-9.9-25.5-21.2-54.5-15.3-92.8l-10.9-1.7c-6.3,41.2,6,73,15.9,98.5c5.8,15,10.9,27.9,11.7,40.4c1.1,17-1.8,29.1-8.5,35.1
						c-6.3,5.6-14.3,4.2-14.6,4.1l-2.2,10.8C784,1663.9,785.8,1664.3,788.6,1664.3z"/>
				</g>
				<path class="st56" d="M764.1,1538.2c34.8,6.8,70.6,6.8,105.4,0c3.1-0.6,5.6-3.6,5.6-6.7c0-28.6,0-57.1,0-85.7c0-3-2.5-5-5.6-4.4
					c-34.8,6.8-70.6,6.8-105.4,0c-3.1-0.6-5.6,1.3-5.6,4.4c0,28.6,0,57.1,0,85.7C758.5,1534.5,761,1537.6,764.1,1538.2z"/>
			</g>
		</g>
	</g>
	<g>
		<path class="st0" d="M794.7,1302.2c0,7.6-6.2,13.7-13.7,13.7s-13.7-6.2-13.7-13.7c0-7.6,6.2-13.7,13.7-13.7
			S794.7,1294.6,794.7,1302.2z"/>
		<path class="st62" d="M756.5,1329.3c12.2,2.9,25.9,0.3,24.4-27c-4.8-89.8,11.7-64.2,11.7-64.2"/>
		<path class="st49" d="M755.8,1333.6l-3.2-0.8c-2-0.5-3.2-2.5-2.7-4.5l0,0c0.5-2,2.5-3.2,4.5-2.7l3.2,0.8c2,0.5,3.2,2.5,2.7,4.5
			l0,0C759.8,1332.9,757.8,1334.1,755.8,1333.6z"/>
		<path class="st49" d="M790.8,1302.2c0,5.4-4.4,9.9-9.9,9.9c-5.4,0-9.9-4.4-9.9-9.9c0-5.4,4.4-9.9,9.9-9.9
			C786.4,1292.4,790.8,1296.8,790.8,1302.2z"/>
	</g>
	<g>
		<path class="st63" d="M200.5,1330.9c0,0-31.4-7.5-39.7-15.3c-8.3-7.8,10.2-10,5.1-23.5c-7.3-19.8,15-49.5,22.9-27.7
			c7.9,21.8-3.3,29.6-2.6,19.3c0.7-10.3-4.7-38.1,24.5-34.1c29.3,4,38.1,23.5,13,30.9c-25.1,7.4,30.8-23.6,28.3-4.3
			c-2.6,19.3-19.7,15.8-25.6,15.1c-5.9-0.7,24.7-12.9,20,7.3C241.7,1318.6,223.6,1326.2,200.5,1330.9z"/>
		<path class="st6" d="M176.2,1328.7c0,0-3.1,18.1-6.6,26.2c-6.4,14.7-14.3,38.9,33.7,27.5c8-1.9-14.7-26-3.3-37.9
			C211.3,1332.8,176.2,1328.7,176.2,1328.7z"/>
		<path class="st14" d="M172.2,1328.5c0,0,6.3,6.7-2,28.8c0,0,15.6,7.8,25.7-1.2c-0.4-3.6,0.3-7.6,4-11.5
			C211.3,1332.8,172.2,1328.5,172.2,1328.5z"/>
		<path class="st6" d="M224.6,1289c0,0,4.1,15.1-1.2,38.1c-5.3,23-17.5,28.3-36.5,22.5c-19-5.8-18.8-29.2-17.6-34.8
			c1.1-5.6-17.5-3.6-11.7-16c5.8-12.5,13-6.5,13.3-1.2c0.2,5.3,2.7,12.3,7.4,8.7c4.6-3.6-0.8-24.9,8.1-20.5
			C195.1,1290.1,210.7,1296.5,224.6,1289z"/>
	</g>
	<g>
		<path class="st62" d="M203.1,1340.2c0,0-43.1,2.3-37.3-35.8c14.3-95.5,62.1-51.2,62.1-51.2"/>
		<path class="st0" d="M154.4,1304.8c-1.5,7.2,2.4,14.2,8.8,15.5c6.4,1.3,12.8-3.5,14.3-10.7c1.5-7.2-2.4-14.2-8.8-15.5
			C162.3,1292.8,155.9,1297.6,154.4,1304.8z"/>
		<path class="st49" d="M197.5,1342.9l6.6,0.8c2,0.2,3.7-1.2,4-3.1l0,0c0.2-2-1.2-3.7-3.1-4l-6.6-0.8c-2-0.2-3.7,1.2-4,3.1l0,0
			C194.2,1340.8,195.6,1342.6,197.5,1342.9z"/>
		<path class="st49" d="M157.4,1305.8c-1.1,5.3,1.5,10.4,6,11.3c4.4,0.9,8.9-2.6,10-8c1.1-5.3-1.5-10.4-6-11.3
			C163,1296.9,158.6,1300.5,157.4,1305.8z"/>
	</g>
	<g>
		<line class="st64" x1="293.5" y1="1234.9" x2="454.2" y2="1234.9"/>
		<line class="st64" x1="293.5" y1="1257.9" x2="454.2" y2="1257.9"/>
		<line class="st64" x1="293.5" y1="1280.8" x2="454.2" y2="1280.8"/>
	</g>
</g>
<g>
	<g>
		<path class="st0" d="M1342.2,1222.5c0,31.6-25.6,57.2-57.2,57.2h-92c-31.6,0-57.2-25.6-57.2-57.2v-42.7
			c0-31.6,25.6-57.2,57.2-57.2h92c31.6,0,57.2,25.6,57.2,57.2V1222.5z"/>
		<polygon class="st0" points="1213,1310.6 1213,1252.1 1276.7,1252.1 		"/>
	</g>
	<g>
		<path class="st0" d="M1520.5,1222.5c0,31.6,25.6,57.2,57.2,57.2h92c31.6,0,57.2-25.6,57.2-57.2v-42.7c0-31.6-25.6-57.2-57.2-57.2
			h-92c-31.6,0-57.2,25.6-57.2,57.2V1222.5z"/>
		<polygon class="st0" points="1649.7,1310.6 1649.7,1252.1 1586,1252.1 		"/>
	</g>
	<g>
		<g>
			<path class="st52" d="M1077.8,1608.1c-4.8,0-12.5-1.1-19.2-6.9c-9.6-8.4-13.8-23.3-12.4-44.2c0.9-14.2,6.5-28.5,12.4-43.7
				c9.9-25.5,21.2-54.5,15.3-92.8l10.9-1.7c6.3,41.2-6,73-15.9,98.5c-5.8,15-10.9,27.9-11.7,40.4c-1.1,17,1.8,29.1,8.5,35.1
				c6.3,5.6,14.3,4.2,14.6,4.1l2.2,10.8C1082.4,1607.7,1080.6,1608.1,1077.8,1608.1z"/>
		</g>
		<g>
			<g>
				<path class="st53" d="M1162.6,1695.8l10.8,16.4l-90.5,29c0,0-6-5.8,16.2-17.4C1124.9,1710.3,1162.6,1695.8,1162.6,1695.8z"/>
				<path class="st53" d="M1178.7,1695.8l-10.8,16.4l90.5,29c0,0,6-5.8-16.2-17.4C1216.4,1710.3,1178.7,1695.8,1178.7,1695.8z"/>
			</g>
			<rect x="1161.2" y="1647" class="st53" width="18.9" height="67.3"/>
			<g>
				<path class="st54" d="M1161.4,1699.3l9.2,15.7l-77.5,27.7c0,0-5.2-5.5,13.8-16.6C1129.1,1713.1,1161.4,1699.3,1161.4,1699.3z"/>
				<path class="st54" d="M1179.9,1699.3l-9.2,15.7l77.5,27.7c0,0,5.2-5.5-13.8-16.6C1212.2,1713.1,1179.9,1699.3,1179.9,1699.3z"/>
			</g>
			<path class="st55" d="M1101.9,1748.9c0,3.6-2.9,6.6-6.6,6.6c-3.6,0-6.6-2.9-6.6-6.6c0-3.6,2.9-6.6,6.6-6.6
				C1099,1742.3,1101.9,1745.2,1101.9,1748.9z"/>
			<path class="st55" d="M1252,1748.9c0,3.6-3,6.6-6.6,6.6c-3.6,0-6.6-2.9-6.6-6.6c0-3.6,2.9-6.6,6.6-6.6
				C1249.1,1742.3,1252,1745.2,1252,1748.9z"/>
			<path class="st52" d="M1086,1748.9c0,3.6-2.9,6.6-6.6,6.6c-3.6,0-6.6-2.9-6.6-6.6c0-3.6,2.9-6.6,6.6-6.6
				C1083.1,1742.3,1086,1745.2,1086,1748.9z"/>
			<path class="st52" d="M1267.9,1748.9c0,3.6-2.9,6.6-6.6,6.6c-3.6,0-6.6-2.9-6.6-6.6c0-3.6,2.9-6.6,6.6-6.6
				C1265,1742.3,1267.9,1745.2,1267.9,1748.9z"/>
		</g>
		<rect x="1163.5" y="1622.3" class="st52" width="13.8" height="24.2"/>
		<path class="st52" d="M1187.7,1609.5c0,7.4-6,13.5-13.5,13.5h-7.6c-7.4,0-13.5-6-13.5-13.5l0,0c0-7.5,6-13.5,13.5-13.5h7.6
			C1181.7,1596,1187.7,1602,1187.7,1609.5L1187.7,1609.5z"/>
		<path class="st56" d="M1273.2,1597.1c0.3-1.6,0.5-11.5,0.5-13.3c0-10.9-7-19.7-15.7-19.7h-175.2c-8.7,0-15.7,8.8-15.7,19.7
			c0,1.7,0.2,11.7,0.5,13.3H1273.2z"/>
		<path class="st52" d="M1065.4,1602.5c0,3.3,1.9,6,4.4,6H1271c2.4,0,4.4-2.7,4.4-6l0,0c0-3.3-1.9-6-4.4-6h-201.2
			C1067.4,1596.5,1065.4,1599.2,1065.4,1602.5L1065.4,1602.5z"/>
		<g>
			<path class="st56" d="M1075.3,1496c4.3,0.3,31.8,0.8,36.5,0.9c30.1,0.4,56-5.3,57.4-12.7c5.9-30.8,6.2-62.3,0.8-93.1
				c-1.3-7.4-27.6-13-58.3-12.7c-4.8,0.1-32.9,0.5-37.3,0.9C1083.8,1417.6,1084.1,1457.6,1075.3,1496z"/>
			<path class="st52" d="M1071.1,1379.2c-3.4,0-5.7,1.6-5.2,3.6c8.4,36.1,8.7,73.5,0.9,109.6c-0.4,1.9,1.9,3.5,5.2,3.6l0,0
				c3.3,0,6.3-1.5,6.8-3.4c7.8-36.2,7.6-73.7-0.7-109.9C1077.6,1380.7,1074.5,1379.2,1071.1,1379.2L1071.1,1379.2z"/>
			<path class="st57" d="M1069.8,1495.9c0.9,0.3,6.8,0.5,7.9,0.5c6.6,0.1,13.3-5.7,14.6-13c5.5-30.3,5.3-61.4-0.4-91.7
				c-1.4-7.3-8.3-13.1-15-13c-1.1,0-7.1,0.2-8,0.5C1078.3,1417.6,1078.6,1457.6,1069.8,1495.9z"/>
		</g>
	</g>
	<g>
		<g>
			<g>
				<path class="st33" d="M1264.4,1742.5v12.8h63.2c0,0-10.1-17.4-31.1-21.1C1275.4,1730.6,1264.4,1742.5,1264.4,1742.5z"/>
				<path class="st33" d="M1210.4,1499.7c0,0,140.8-9.6,185.1,3.6c15.4,4.6,25.5,197,25.5,197l-17.4,3.7c0,0,42.1,14.7,64.1,14.7
					c22,0,25.7,16.5,25.7,16.5l-104.5,3.7l-3.7-14.7l-35.6-155.7l-130.1,2.8L1210.4,1499.7z"/>
				<path class="st41" d="M1115.1,1545.5c0,0-42.1,7.3-51.3-75.1c-9.2-82.5-11.9-148.4-11.9-148.4l52.2-27.5h45.8
					c0,0,38.5,12.8,42.1,31.1c3.7,18.3-9.2,91.6-3.7,104.4c5.5,12.8,25.7,55,25.7,55L1115.1,1545.5z"/>
				<path class="st43" d="M1192,1325.7c0,0,44,47.6,51.3,72.4c7.3,24.7,18.3,49.5,5.5,58.6c-12.8,9.2-21.1,13.7-24.7,8.2
					C1220.4,1459.4,1165.5,1396.2,1192,1325.7z"/>
				<path class="st6" d="M1145.3,1425.5l34-24l6.3-4.4c0,0,11,16.5,6.4,27.5c-4.6,11-37.6,18.3-43.1,17.4
					C1143.5,1441.1,1145.3,1425.5,1145.3,1425.5z"/>
				<polygon class="st14" points="1205.8,1401.7 1203,1425.5 1188.4,1430.1 1185.6,1397.1 				"/>
				<path class="st14" d="M1232.3,1398.9l-3.7,33l-19.2-8.2c0,0,0-24.7,3.7-27.5C1216.8,1393.5,1227.8,1380.6,1232.3,1398.9z"/>
				<path class="st31" d="M1100.4,1540c0,0,16.5-53.1,67.8-60.5c51.3-7.3,60.5-7.3,60.5-7.3s34.8,47.6,71.5,252.9
					c1.4,8.1-45.8,22-45.8,22l-55-183.2C1199.4,1563.9,1129.7,1585.8,1100.4,1540z"/>
				<line class="st65" x1="1192.9" y1="1522.6" x2="1254.3" y2="1747.1"/>
				<path class="st43" d="M1076.6,1341.2c0,0-18.3-26.6-25.7-19.2c-7.3,7.3-36.6,88-34.8,113.6c1.8,25.7,3.6,45.4,22,46.7
					c64.1,4.6,114.5-32.1,114.5-32.1l-4.6-37.6c0,0-73.3,4.6-78.8,10.1C1063.8,1428.3,1074.8,1368.7,1076.6,1341.2z"/>
			</g>
			<path class="st6" d="M1107.7,1264.5c-3.7,10.3-10.5,28.7-14.6,39.5c3.2,2.3,28.1,4.2,37.9,0c1-9.3,4.3-22.5,6.1-29.7
				L1107.7,1264.5z"/>
		</g>
		<g>
			<path class="st6" d="M1160,1271.7c1,4.6-1.9,9.1-6.5,10.1l-37.5,8.1c-4.6,1-9.1-1.9-10.1-6.5l-12.1-55.5c-1-4.6,1.9-9.1,6.5-10.1
				l37.4-8.1c4.6-1,9.1,1.9,10.1,6.5L1160,1271.7z"/>
			<path class="st13" d="M1150.5,1227.6c0,0,3.9-6.5,4.1-10c0.1-1.8-2.9-7.7-7.6-9.2c-4.7-1.5-7.2,3.7-7.2,3.7s7.4,2.3,8.1,3.6
				C1148.6,1217.1,1150.5,1227.6,1150.5,1227.6z"/>
			<path class="st15" d="M1095.5,1253.8c0,0-10.3-20.1-10.6-26.5c-0.3-6.5-0.6-11,6.9-13.3c11.2-3.5,11.9-1.1,16.6-5.8
				c4.8-4.7,13-15.2,16.2-16.8c5.4-2.6,14.8-2.7,17.5,8c2,7.9,7.4,8.7,7.3,9.1c-0.2,1.1-2.1,2.4-5.4,5c-9.3,7.5-15.3,9.9-23.7,9.5
				c-8.4-0.3-24.3-1.6-24.7,4.7c-0.5,6.3,4.2,24.1,3.8,25.7C1099,1254.8,1097.1,1254.5,1095.5,1253.8z"/>
			<path class="st6" d="M1110.9,1267.8c0.3,1.5-0.7,3-2.2,3.4l-8.1,1.8c-1.5,0.3-3-0.6-3.4-2.2l-3.2-14.8c-0.3-1.5,0.6-3.1,2.2-3.4
				l8.1-1.7c1.5-0.3,3,0.6,3.4,2.2L1110.9,1267.8z"/>
			<path class="st6" d="M1159.1,1257.3c0.3,1.5-0.6,3.1-2.2,3.4l-8.1,1.8c-1.5,0.3-3.1-0.6-3.4-2.2l-3.2-14.8
				c-0.3-1.5,0.6-3,2.2-3.4l8.1-1.8c1.5-0.3,3,0.7,3.4,2.2L1159.1,1257.3z"/>
			<path class="st15" d="M1100.1,1257.9c0,0,4.7,21.8,6.3,29.1c1.4,6.6,7.2,20.5,44.4,12.4c22-4.8,17.7-20.8,16.5-26.1
				c-0.9-4-8.1-15.2-10.9-17c-0.1-0.1,2,9,2,9s-6.5-7.8-16.9-5.5c-16.9,3.7-18.6,14.4-26,15.8
				C1109.7,1276.7,1103.3,1268.3,1100.1,1257.9z"/>
			<path class="st6" d="M1137.6,1275.6l11.5-2.5c1.5-0.3,2.5-1.8,2.2-3.4l-0.4-1.6l-17.1,3.7l0.4,1.6
				C1134.6,1274.9,1136.1,1275.9,1137.6,1275.6z"/>
		</g>
	</g>
	<path class="st33" d="M1698.2,1197.7c9.3,4.5,35.3,17.9,53.5,39c18.2,21.1,27.5,31.5,12.1,54.4c-15.4,22.9,30.1,24.6,6.3,36.4
		c-27.5,13.7-34.3,24.5-53.5,20.3c-33.7-7.3-45.5-34.1-34.7-60.7c10.8-26.6,12.2-28,3.6-43.9
		C1676.9,1227.3,1689.1,1193.3,1698.2,1197.7z"/>
	<path class="st6" d="M1759.5,1265.7c0,0,9.6,38.7,33.9,40.2c12.6,0.8,21.3-0.2,21.3-0.2s-73,65.8-87.6,45.9
		c-7-9.4,21.3-21.5,12.1-45.4C1721.7,1260.9,1723.3,1211.8,1759.5,1265.7z"/>
	<path class="st6" d="M1732.1,1243.1c6.6,4.4,13.9,6.8,21.2,7.3c-15.8,31.4-47.5,26.3-48.5,26.1c-1.1-0.3-2.3-0.5-3.3-2.4
		c-1-1.9-1.2-3.9-0.9-4.8c0.3-1,1.3-1.9,1-2.1c-0.3-0.2-2.4-1.4-2.9-1.7c-0.5-0.3-0.7-2-0.7-2s1.6-1.6,1.5-1.6
		c-2.7-1.6-3-3.1-3.1-3.8c-0.1-0.8,0.9-1.9,1.8-2.9c0.8-0.8,0.7-3.3,0.4-4.2c-0.3-0.9-3-2.2-3.5-3.1c-0.5-0.9-0.9-2.5-0.6-2.9
		c0.4-0.4,1.7-1.3,4.3-3.1c2.6-1.8,6-6.6,6-15.1c0-8.5,2-8,3.7-11.9C1712.6,1205.2,1717.1,1233.2,1732.1,1243.1z"/>
	<g>
		<path class="st30" d="M1706.1,1489.6l-114.8-20.8c0,0-36.6-9.8-44,24.4c-8.5,39.9,3.4,217.4,3.4,217.4l-1.2,8.6l-56.2,30.5h85.5
			l-6.1-26.9l21-180.8c0,0,88,25.7,117.3,25.7c29.3,0,51.3-11,51.3-15.9C1762.3,1547,1726.9,1487.2,1706.1,1489.6z"/>
		<g>
			<g>
				<path class="st52" d="M1826.2,1608.1c4.8,0,12.5-1.1,19.2-6.9c9.6-8.4,13.8-23.3,12.4-44.2c-0.9-14.2-6.5-28.5-12.4-43.7
					c-9.9-25.5-21.2-54.5-15.3-92.8l-10.9-1.7c-6.3,41.2,6,73,15.9,98.5c5.8,15,10.9,27.9,11.7,40.4c1.1,17-1.8,29.1-8.5,35.1
					c-6.3,5.6-14.3,4.2-14.6,4.1l-2.2,10.8C1821.5,1607.7,1823.4,1608.1,1826.2,1608.1z"/>
			</g>
			<g>
				<g>
					<path class="st53" d="M1741.3,1695.8l-10.8,16.4l90.5,29c0,0,6-5.8-16.2-17.4C1779.1,1710.3,1741.3,1695.8,1741.3,1695.8z"/>
					<path class="st53" d="M1725.3,1695.8l10.8,16.4l-90.5,29c0,0-6-5.8,16.2-17.4C1687.6,1710.3,1725.3,1695.8,1725.3,1695.8z"/>
				</g>
				<rect x="1723.8" y="1647" class="st53" width="18.9" height="67.3"/>
				<g>
					<path class="st54" d="M1742.5,1699.3l-9.2,15.7l77.5,27.7c0,0,5.2-5.5-13.8-16.6C1774.8,1713.1,1742.5,1699.3,1742.5,1699.3z"
						/>
					<path class="st54" d="M1724.1,1699.3l9.2,15.7l-77.5,27.7c0,0-5.2-5.5,13.8-16.6C1691.8,1713.1,1724.1,1699.3,1724.1,1699.3z"
						/>
				</g>
				<path class="st55" d="M1802,1748.9c0,3.6,2.9,6.6,6.6,6.6c3.6,0,6.6-2.9,6.6-6.6c0-3.6-2.9-6.6-6.6-6.6
					C1805,1742.3,1802,1745.2,1802,1748.9z"/>
				<path class="st55" d="M1651.9,1748.9c0,3.6,3,6.6,6.6,6.6c3.6,0,6.6-2.9,6.6-6.6c0-3.6-2.9-6.6-6.6-6.6
					C1654.9,1742.3,1651.9,1745.2,1651.9,1748.9z"/>
				<path class="st52" d="M1817.9,1748.9c0,3.6,2.9,6.6,6.6,6.6c3.6,0,6.6-2.9,6.6-6.6c0-3.6-2.9-6.6-6.6-6.6
					C1820.9,1742.3,1817.9,1745.2,1817.9,1748.9z"/>
				<path class="st52" d="M1636,1748.9c0,3.6,2.9,6.6,6.6,6.6c3.6,0,6.6-2.9,6.6-6.6c0-3.6-2.9-6.6-6.6-6.6
					C1638.9,1742.3,1636,1745.2,1636,1748.9z"/>
			</g>
			<rect x="1726.6" y="1622.3" class="st52" width="13.8" height="24.2"/>
			<path class="st52" d="M1716.2,1609.5c0,7.4,6,13.5,13.5,13.5h7.6c7.4,0,13.5-6,13.5-13.5l0,0c0-7.5-6-13.5-13.5-13.5h-7.6
				C1722.3,1596,1716.2,1602,1716.2,1609.5L1716.2,1609.5z"/>
			<path class="st56" d="M1630.7,1597.1c-0.3-1.6-0.5-11.5-0.5-13.3c0-10.9,7-19.7,15.7-19.7h175.2c8.7,0,15.7,8.8,15.7,19.7
				c0,1.7-0.2,11.7-0.5,13.3H1630.7z"/>
			<path class="st52" d="M1838.5,1602.5c0,3.3-1.9,6-4.4,6h-201.2c-2.4,0-4.4-2.7-4.4-6l0,0c0-3.3,1.9-6,4.4-6h201.2
				C1836.6,1596.5,1838.5,1599.2,1838.5,1602.5L1838.5,1602.5z"/>
			<g>
				<path class="st56" d="M1828.7,1496c-4.3,0.3-31.8,0.8-36.5,0.9c-30.1,0.4-56-5.3-57.4-12.7c-5.9-30.8-6.2-62.3-0.8-93.1
					c1.3-7.4,27.6-13,58.3-12.7c4.8,0.1,32.9,0.5,37.3,0.9C1820.1,1417.6,1819.8,1457.6,1828.7,1496z"/>
				<path class="st52" d="M1832.8,1379.2c3.4,0,5.7,1.6,5.2,3.6c-8.4,36.1-8.7,73.5-0.9,109.6c0.4,1.9-1.9,3.5-5.2,3.6l0,0
					c-3.3,0-6.3-1.5-6.8-3.4c-7.8-36.2-7.6-73.7,0.7-109.9C1826.3,1380.7,1829.4,1379.2,1832.8,1379.2L1832.8,1379.2z"/>
				<path class="st57" d="M1834.2,1495.9c-0.9,0.3-6.8,0.5-7.9,0.5c-6.6,0.1-13.3-5.7-14.6-13c-5.5-30.3-5.3-61.4,0.4-91.7
					c1.4-7.3,8.3-13.1,15-13c1.1,0,7.1,0.2,8,0.5C1825.7,1417.6,1825.3,1457.6,1834.2,1495.9z"/>
			</g>
		</g>
		<path class="st14" d="M1741,1469.6l-88.1-71.5c0,0-16.8,1.8-8.9,12.6c7.9,10.8,60.1,73.9,60.1,73.9S1757.4,1508.8,1741,1469.6z"/>
		<path class="st30" d="M1631.9,1719.6c0,0,1.2,11.9,1.2,15.6c0,3.7-7.9,14-8.6,17.1c-0.6,3.1-0.6,3.1-0.6,3.1h59.9
			c0,0,1.2-6.1-8.6-14c-9.8-7.9-12.8-13.4-14-23.5C1660,1707.7,1631.9,1719.6,1631.9,1719.6z"/>
		<path class="st66" d="M1738.5,1303.6c0,0-34.8,5.5-39.4,19.2c-4.6,13.7-2.7,22-2.7,28.4S1740.3,1328.4,1738.5,1303.6z"/>
		<path class="st67" d="M1776,1299.1l-37.6,4.6c0,0-42.1,44-51.3,45.8c-9.2,1.8,3.2,102.2,0.9,115.7c-1.2,7.3,33,10.7,51.3,13.4
			c18.3,2.7,44,0,44,0s-9.2-29.3-2.7-59.5c6.4-30.2,34.8-53.1,28.4-74.2C1802.6,1323.8,1820.9,1323.8,1776,1299.1z"/>
		<path class="st66" d="M1802.6,1323.8c0,0-24.4,11.3-22.6,29.6c1.8,18.3,21.6,80.3,21.6,80.3s11,52.2,32.1,45.8
			c21.1-6.4,19.2-66,4.6-103.5C1823.7,1338.5,1809,1314.6,1802.6,1323.8z"/>
		<path class="st6" d="M1844.3,1461.4c0,0-0.9,10.5-0.9,12.8s-10.1,5-20.6,5c-10.5,0-88.4-44.9-95.7-48.1
			c-7.3-3.2-24.3-7.8-28.4-8.2c-4.1-0.5-7.3-11.9-5-19.2c1.5-4.8,3-9.1,5.3-10.5c1.2-0.7,2.6-0.7,4.3,0.4c5,3.2,25.2,20.6,25.2,20.6
			s47.2,8.7,66,16.9C1813.2,1439.4,1835.2,1449.5,1844.3,1461.4z"/>
		<path class="st14" d="M1674.8,1396.3l24.1-3.2l-5.3,10.5l3.2,16l-13.3,2.3c0,0-1.8-2.3,0.5-3.2c2.3-0.9,5.5-2.3,5.5-2.3
			s-6.4-0.9-9.2-1.4c-2.7-0.5-3.2-1.4-3.2-2.7c0-1.4,2.7-2.3,2.7-2.3s-5-1.8-5.5-3.2c-0.5-1.4-1.4-3.2-0.5-4.6
			C1674.8,1400.9,1673.5,1397.2,1674.8,1396.3z"/>
		<path class="st31" d="M1783.4,1478.6h-44l-127.8-28.1c0,0-51.3-13.4-37.9,23.2c13.4,36.6,59.4,237,59.4,237l28.1-2.4
			c0,0-4.9-133.1-18.3-156.4c-13.4-23.2-14.7-30.5-14.7-30.5s89.2,47.6,125.8,45.2C1790.7,1564.1,1821.2,1536,1783.4,1478.6z"/>
		<path class="st68" d="M1771.6,1482.3c0,0,24.4,42.8,1.2,47.6c-23.2,4.9-171-50.1-171-50.1s38.2,61.1,59.4,228.4"/>
	</g>
	<g>
		<g>
			<path class="st58" d="M1682.1,1407.3c0-0.1,0.1-0.1,0.1-0.2l-0.1-4.9h-202.1v4.9c0,0,0,0.1,0,0.2l0.5,0.9c2.6,4.2,7.3,5,12.6,5
				H1669c5.3,0,10-0.8,12.6-5L1682.1,1407.3z"/>
			<path class="st59" d="M1633.4,1408.1c0,0,0,0.1,0,0.1l0.5,0.7c0.8,1.1,1.8,1.9,3,2.5h30.7c5.1,0,9.6-0.6,12.1-4l0.5-0.7
				c0,0,0.1-0.1,0.1-0.1l-0.1-2.4h-46.8V1408.1z"/>
			<g>
				<rect x="1505.2" y="1403.4" class="st59" width="101" height="3.5"/>
			</g>
			<g>
				<path class="st60" d="M1632.3,1402.1l-26.2-99.3c-0.7-2.6-3.4-4.7-6-4.7h-141.8c-2.6,0-4.2,2.1-3.5,4.7l26.2,99.3H1632.3z"/>
				<path class="st59" d="M1552.1,1350.1c1.3,5.1-1.7,9.2-6.8,9.2c-5.1,0-10.3-4.1-11.6-9.2c-1.3-5.1,1.7-9.2,6.8-9.2
					C1545.6,1340.9,1550.8,1345,1552.1,1350.1z"/>
			</g>
		</g>
		<g>
			<polygon class="st13" points="1208.9,1754.3 1188.2,1754.3 1222.3,1423.8 1252.3,1423.8 			"/>
			<polygon class="st30" points="1250.3,1439 1237.2,1539.1 1221.6,1431.3 1222.3,1423.8 1248.5,1423.8 			"/>
			<polygon class="st13" points="1486,1754.3 1465.3,1754.3 1499.4,1423.8 1529.4,1423.8 			"/>
			<polygon class="st30" points="1527.4,1439 1514.3,1539.1 1498.6,1431.3 1499.4,1423.8 1525.6,1423.8 			"/>
			<polygon class="st13" points="1703.1,1754.3 1723.8,1754.3 1689.7,1423.8 1659.7,1423.8 			"/>
			<polygon class="st30" points="1661.7,1439 1701.8,1541 1690.4,1431.3 1689.7,1423.8 1663.5,1423.8 			"/>
			<rect x="1469.3" y="1413.1" class="st61" width="249.4" height="19.3"/>
			<rect x="1197.7" y="1413.1" class="st8" width="283.1" height="19.3"/>
		</g>
	</g>
	<path class="st30" d="M1695,1199c1-4.3,51.7-17.9,77.4-4.3c43.1,22.7,36.3,52.8,33.3,57.5c-28.8,44.9,12.9,49.6,26.1,58.9
		c15,10.4,0.7,40.1-18.3,44c-33.5,6.8-67.4-38.5-66-66.5c1.5-31.1-6.1-41.8-26.9-54.2C1704.1,1224.5,1692.9,1207.9,1695,1199z"/>
	<g>
		<path class="st58" d="M1212.9,1407.3c0-0.1-0.1-0.1-0.1-0.2l0.1-4.9H1415v4.9c0,0,0,0.1,0,0.2l-0.5,0.9c-2.6,4.2-7.3,5-12.6,5
			H1226c-5.3,0-10-0.8-12.6-5L1212.9,1407.3z"/>
		<path class="st59" d="M1261.6,1408.1c0,0,0,0.1,0,0.1l-0.5,0.7c-0.8,1.1-1.8,1.9-3,2.5h-30.7c-5.1,0-9.6-0.6-12.1-4l-0.5-0.7
			c0,0-0.1-0.1-0.1-0.1l0.1-2.4h46.8V1408.1z"/>
		<g>
			<rect x="1288.9" y="1403.4" class="st59" width="101" height="3.5"/>
		</g>
		<g>
			<path class="st60" d="M1262.7,1402.1l26.2-99.3c0.7-2.6,3.4-4.7,6-4.7h141.8c2.6,0,4.2,2.1,3.5,4.7l-26.2,99.3H1262.7z"/>
			<path class="st59" d="M1342.9,1350.1c-1.3,5.1,1.7,9.2,6.8,9.2c5.1,0,10.3-4.1,11.6-9.2c1.3-5.1-1.7-9.2-6.8-9.2
				C1349.4,1340.9,1344.2,1345,1342.9,1350.1z"/>
		</g>
	</g>
	<g>
		<g>
			<path class="st56" d="M1438,1724.6c0,0,10-35.7,25.7-47.8c15.7-12.1,27.1-29.3,47.8-37.1c20.7-7.9,25.7-22.1,17.9-27.1
				c-7.9-5-33.6-19.3-65,13.6c-31.4,32.8-39.3,58.6-38.6,89.3C1426.6,1746,1436.6,1742.4,1438,1724.6z"/>
			<path class="st69" d="M1518,1617.9c0,0-31.4,9.3-45.7,20c-14.3,10.7-40.7,40.7-42.1,70"/>
		</g>
		<g>
			<path class="st70" d="M1429.4,1736c0,0-16.2-45.7-22.9-60c-6.7-14.3-5.7-48.6,4.8-61.9c10.5-13.3,27.6-33.3,20-62.8
				c-7.6-29.5-3.8-47.6,10.5-36.2c14.3,11.4,39.4,36.6,40,77.1c0.5,30.9-8.7,49.1-25.7,71.4C1442.3,1681.7,1428.5,1715,1429.4,1736z
				"/>
			<g>
				<path class="st71" d="M1423,1725.3c-0.4-1.9-8.6-46.4,0.1-65.1c2-4.3,4.6-9.5,7.4-15c9.2-18.1,21.8-42.9,23.1-60.2
					c2.1-27.8-15.3-54.5-15.5-54.8l2.4-1.6c0.7,1.1,18.1,27.9,15.9,56.6c-1.3,17.8-13.6,41.9-23.4,61.3c-2.8,5.5-5.4,10.7-7.4,14.9
					c-8.3,17.9,0,63,0.1,63.4L1423,1725.3z"/>
			</g>
		</g>
		<g>
			<path class="st15" d="M1365.9,1668.1c-18.6-3.6-20-25-5.7-29.3c14.3-4.3,37.8-3.6,49.3,11.4c13.2,17.4,18.6,48.6,14.3,70.7
				c-4.3,22.1,0-8.6-9.3-23.6C1405.1,1682.4,1381.2,1671.1,1365.9,1668.1z"/>
			<path class="st72" d="M1357.3,1650.8c0,0,25.7-5,43.6,12.1c15.5,14.8,22.1,33.3,25,52.4"/>
		</g>
		<polygon class="st73" points="1460.1,1779.3 1408.7,1779.3 1400.1,1696.5 1468.7,1696.5 		"/>
	</g>
	<g>
		<path class="st0" d="M1077.4,1258.5c0,7.6,6.2,13.7,13.7,13.7c7.6,0,13.7-6.2,13.7-13.7c0-7.6-6.2-13.7-13.7-13.7
			C1083.5,1244.7,1077.4,1250.9,1077.4,1258.5z"/>
		<path class="st62" d="M1153.3,1284.5c-18.5,4.8-56.4,10-62.2-26.1c-15.1-94,23.4-57.8,23.4-57.8"/>
		<path class="st49" d="M1147.5,1288.4l5.5-1.4c1.6-0.4,2.6-2.1,2.2-3.7l0,0c-0.4-1.6-2.1-2.6-3.7-2.2l-5.5,1.4
			c-1.6,0.4-2.6,2.1-2.2,3.7l0,0C1144.2,1287.8,1145.9,1288.8,1147.5,1288.4z"/>
		<path class="st49" d="M1081.3,1258.5c0,5.4,4.4,9.9,9.9,9.9c5.4,0,9.9-4.4,9.9-9.9s-4.4-9.9-9.9-9.9
			C1085.7,1248.6,1081.3,1253,1081.3,1258.5z"/>
	</g>
	<g>
		<path class="st0" d="M1756.1,1243.9c1,6.8-3.7,13.1-10.4,14.1c-6.8,1-13.1-3.7-14.1-10.4c-1-6.8,3.7-13.1,10.4-14.1
			C1748.8,1232.5,1755.1,1237.2,1756.1,1243.9z"/>
		<path class="st74" d="M1690.6,1281.4c0,0,52.8,8.3,53.2-35.6c0.9-85.9-28.6-53.9-28.6-53.9"/>
		<path class="st49" d="M1697.6,1283.7l-4.8-0.5c-1.4-0.1-2.5-1.4-2.3-2.9v0c0.1-1.4,1.4-2.5,2.9-2.3l4.8,0.5
			c1.4,0.1,2.5,1.4,2.3,2.9l0,0C1700.3,1282.8,1699,1283.9,1697.6,1283.7z"/>
		<path class="st49" d="M1752.6,1244.4c0.7,4.9-2.6,9.4-7.5,10.1c-4.9,0.7-9.4-2.6-10.1-7.5c-0.7-4.9,2.6-9.4,7.5-10.1
			C1747.4,1236.2,1751.9,1239.6,1752.6,1244.4z"/>
	</g>
	<g>
		<g>
			<g>
				<g>
					<path class="st8" d="M1205.9,1233.6c-1.8,0-3.7-0.7-5.1-2.1l-5.2-5.3c-1.4-1.4-2.1-3.2-2.1-5.1c0-1.9,0.8-3.7,2.1-5.1
						l21.6-21.4l4.9,5l-21.6,21.4l5.3,5.5c0.1,0.1,0.2,0.1,0.3,0l21.6-21.4l4.9,5l-21.6,21.4
						C1209.6,1232.9,1207.8,1233.6,1205.9,1233.6z"/>
				</g>
			</g>
			<g>
				<g>
					
						<rect x="1219.6" y="1189.4" transform="matrix(0.7071 -0.7071 0.7071 0.7071 -493.2675 1217.532)" class="st8" width="7" height="29.7"/>
				</g>
			</g>
			<g>
				<g>
					
						<rect x="1217.8" y="1181.8" transform="matrix(0.7071 -0.7071 0.7071 0.7071 -474.3811 1225.3556)" class="st8" width="48.3" height="7"/>
				</g>
			</g>
			<g>
				<g>
					
						<rect x="1239.7" y="1192.9" transform="matrix(0.7072 -0.7071 0.7071 0.7072 -488.5187 1232.1521)" class="st8" width="7" height="25.9"/>
				</g>
			</g>
			<g>
				<g>
					
						<rect x="1215.8" y="1171.6" transform="matrix(0.707 -0.7072 0.7072 0.707 -478.6109 1208.7191)" class="st8" width="7" height="20.7"/>
				</g>
			</g>
			<g>
				<g>
					<polygon class="st8" points="1262,1160.1 1252.1,1165 1252.1,1170 1257.1,1174.9 1262,1174.9 1267,1165 					"/>
				</g>
			</g>
			<g>
				<g>
					<path class="st8" d="M1209.2,1160.1c-1.4,0-2.8,0.3-4.1,0.7l9.3,9.3l-7.4,7.4l-9.3-9.3c-0.5,1.3-0.8,2.6-0.8,4.1
						c0,6.8,5.5,12.3,12.3,12.3c6.8,0,12.3-5.5,12.3-12.3C1221.5,1165.5,1216,1160.1,1209.2,1160.1z"/>
				</g>
			</g>
			<g>
				<g>
					<path class="st8" d="M1258.2,1233.6c1.4,0,2.8-0.3,4.1-0.7l-9.3-9.3l7.4-7.4l9.3,9.3c0.5-1.3,0.7-2.6,0.7-4.1
						c0-6.8-5.5-12.3-12.3-12.3c-6.8,0-12.3,5.5-12.3,12.3C1246,1228.1,1251.5,1233.6,1258.2,1233.6z"/>
				</g>
			</g>
		</g>
	</g>
	<g>
		<g>
			<path class="st8" d="M1629.3,1218.9h-28.8v-6.8c-8.9-5.1-14.4-14.5-14.4-24.9c0-15.9,12.9-28.8,28.8-28.8
				c15.9,0,28.8,12.9,28.8,28.8c0,10.4-5.5,19.7-14.4,24.9V1218.9z M1606.2,1213.1h17.3v-4.5l1.6-0.8c7.9-3.9,12.8-11.8,12.8-20.6
				c0-12.7-10.3-23-23-23c-12.7,0-23,10.3-23,23c0,8.8,4.9,16.7,12.8,20.6l1.6,0.8V1213.1z"/>
		</g>
		<g>
			<rect x="1600.5" y="1221.7" class="st8" width="28.8" height="5.8"/>
		</g>
		<g>
			<rect x="1612" y="1190.1" class="st8" width="5.8" height="23"/>
		</g>
		<g>
			<rect x="1609.1" y="1187.2" class="st8" width="11.5" height="5.8"/>
		</g>
		<g>
			<path class="st8" d="M1603.4,1187.2h-5.8c0-9.5,7.7-17.3,17.3-17.3v5.8C1608.5,1175.7,1603.4,1180.9,1603.4,1187.2z"/>
		</g>
	</g>
</g>
</svg>
