<?xml version="1.0" encoding="utf-8"?>
<!-- Generator: Adobe Illustrator 24.3.0, SVG Export Plug-In . SVG Version: 6.00 Build 0)  -->
<svg version="1.1" id="Layer_1" xmlns="http://www.w3.org/2000/svg" xmlns:xlink="http://www.w3.org/1999/xlink" x="0px" y="0px"
	 viewBox="0 0 900 900" style="enable-background:new 0 0 900 900;" xml:space="preserve">
<style type="text/css">
	.st0{fill:#F7D6BF;}
	.st1{fill:#318FB5;}
	.st2{fill:#005086;}
	.st3{fill:#EABFA2;}
	.st4{fill:#FFE638;}
	.st5{fill:#BA0000;}
</style>
<g>
	<g>
		<path class="st0" d="M601.5,229.9c0,25.1-6.3,49.8-18.3,71.8c-40.1,73.6-132.3,100.7-205.9,60.6c-25.6-14-46.6-35-60.6-60.6
			c-12-22-18.3-46.7-18.2-71.8c0-4,0.2-7.9,0.5-11.8c6.9-83.4,80-145.4,163.4-138.6c73.9,6.1,132.5,64.7,138.6,138.6
			C601.3,222,601.5,225.9,601.5,229.9z"/>
		<path class="st1" d="M680.7,595.3v84H219.3v-84c0-118.5,96-214.5,214.5-214.5c0,0,0,0,0,0h32.3
			C584.6,380.8,680.7,476.8,680.7,595.3C680.7,595.3,680.7,595.3,680.7,595.3z"/>
		<path class="st2" d="M289.5,436.6c-44.8,40.6-70.3,98.3-70.2,158.7v63H0v-56.5c0-106,86-191.9,192-191.9
			C226.3,409.9,260,419.1,289.5,436.6z"/>
		<path class="st3" d="M316.8,301.7c-9.5,68.7-73,116.7-141.7,107.2s-116.7-73-107.2-141.7s73-116.7,141.7-107.2
			c37,5.1,69.8,26.4,89.5,58.1c-0.3,3.9-0.5,7.8-0.5,11.8C298.5,255,304.8,279.7,316.8,301.7z"/>
		<path class="st2" d="M900,601.8v56.5H680.7v-63c0.1-60.4-25.4-118.1-70.2-158.7c91.2-53.9,208.9-23.7,262.8,67.6
			C890.8,533.7,900,567.4,900,601.8z"/>
		<path class="st3" d="M834.2,284.3c0.1,69.6-56.3,126.1-125.9,126.2c-63.1,0.1-116.5-46.4-125.1-108.9c12-22,18.3-46.7,18.2-71.8
			c0-4-0.2-7.9-0.5-11.8c36.9-59.1,114.8-77.1,173.9-40.1C811.5,200.9,833.9,241,834.2,284.3L834.2,284.3z"/>
	</g>
	<circle class="st4" cx="440.5" cy="678.3" r="142.7"/>
	<polygon class="st5" points="439.5,563 472.9,630.7 547.6,641.6 493.6,694.2 506.3,768.6 439.5,733.5 372.7,768.6 385.5,694.2 
		331.4,641.6 406.1,630.7 	"/>
</g>
</svg>
