<?xml version="1.0" encoding="utf-8"?>
<!-- Generator: Adobe Illustrator 24.3.0, SVG Export Plug-In . SVG Version: 6.00 Build 0)  -->
<svg version="1.1" id="Layer_1" xmlns="http://www.w3.org/2000/svg" xmlns:xlink="http://www.w3.org/1999/xlink" x="0px" y="0px"
	 viewBox="0 0 2551.2 2551.2" style="enable-background:new 0 0 2551.2 2551.2;" xml:space="preserve">
<style type="text/css">
	.st0{fill:#0A9CA0;}
	.st1{fill:#E6E7E8;}
	.st2{fill:#D8D7DA;}
	.st3{fill:#0C6B6B;}
	.st4{fill:#FFA733;}
	.st5{fill:#D1D3D4;}
	.st6{fill:#787680;}
	.st7{fill:#898890;}
	.st8{fill:#00CCB3;}
	.st9{fill:#00B39D;}
	.st10{fill:#FF5023;}
	.st11{fill:#FF9811;}
	.st12{fill:#8B5E3C;}
	.st13{fill:#FFD422;}
	.st14{fill:#CC7400;}
	.st15{fill:#EE8700;}
	.st16{fill:#D80027;}
	.st17{fill:#C6C5CA;}
</style>
<g id="Clipboard-Management-Project-Setting-List">
	<path class="st0" d="M2314,534.9v1830c0,96.3-78,174.3-174.3,174.3H658.2c-37.7,0-74.4-12.2-104.6-34.9
		c-12-8.8-22.7-19.2-31.8-30.9c-24.5-30.9-37.8-69.1-37.9-108.5v-1830c0-96.3,78-174.3,174.3-174.3h1481.5
		C2235.9,360.6,2314,438.6,2314,534.9z"/>
	<path class="st1" d="M2139.7,578.4v1437.9h-261.4c-48.1,0.1-87,39.1-87.1,87.1v261.4H701.8c-24.1,0-43.6-19.5-43.6-43.6V578.4
		c0-24.1,19.5-43.6,43.6-43.6h1394.3C2120.2,534.9,2139.7,554.4,2139.7,578.4z"/>
	<path class="st2" d="M1565.8,1777.1l-30.9,154.2l-92.4,92.4c-33.7,34.2-33.7,89.1,0,123.3c34,34.1,89.2,34.1,123.2,0.1
		c0,0,0,0,0.1-0.1l92.4-92.4l154.2-30.9l30.5-30.9l296.7-296.7v-492.4L1565.8,1777.1z"/>
	<path class="st3" d="M2314,1029.4l-174.3,174.2v492.5l174.3-174.3V1029.4z"/>
	<path class="st2" d="M1080,2167.5c-10.2,40.2-26.2,78.6-47.5,114.2l62.3,83.2h-393c-24.1,0-43.6-19.5-43.6-43.6v-827.9h87.1
		l20.5,144.7c40.2,10.2,78.6,26.2,114.2,47.5l117.2-88l123.3,123.3l-88,117.2c21.3,35.5,37.3,74,47.5,114.2l144.7,20.5V2147
		L1080,2167.5z"/>
	<path class="st1" d="M2495.2,920c-32.5-32.8-76.7-51.3-122.9-51.4c-19.9,0-39.7,3.5-58.4,10.5c-24.5,8.6-46.7,22.6-64.9,41
		l-61.9,61.4l126.8,126.8l119.8,119.8l61.4-61.9c68-67.4,68.5-177.1,1.1-245.1C2495.9,920.7,2495.6,920.4,2495.2,920z"/>
	<path class="st4" d="M2314,1108.3l-126.8-126.8l-47.5,47.5v0.4l-44.9,44.4l44.9,44.9l78.4,78.4l95.9,95.9l27.5,27.5l92.4-92.4
		L2314,1108.3z"/>
	<path class="st5" d="M2139.7,2016.3l-348.6,348.6v-261.4c0.1-48.1,39.1-87,87.1-87.1H2139.7z"/>
	<path class="st1" d="M2139.7,2016.3v305c0,24.1-19.5,43.6-43.6,43.6h-305L2139.7,2016.3z"/>
	<path class="st6" d="M1571.1,1967.5l-92.4,92.4c-34.1,33.9-89.3,33.8-123.2-0.4c-16.2-16.3-25.4-38.5-25.3-61.5
		c-0.1-23,9-45.1,25.3-61.4l92.4-92.4L1571.1,1967.5z"/>
	<path class="st7" d="M1755.8,1905.6l-30.5,30.9l-154.2,30.9l-123.3-123.3l30.9-154.2l30.9-30.5l122.9,123.3h0.4L1755.8,1905.6z"/>
	<path class="st8" d="M2139.7,1118.7l-44.9-44.9l-585.2,585.6l122.9,123.3h0.4l506.7-507.2l78.4-78.4L2139.7,1118.7z"/>
	<path class="st9" d="M2314,1293l-95.9-95.9l-78.4,78.4l-506.7,507.2l122.9,122.9l383.9-383.9l174.3-174.3l27.5-27L2314,1293z"/>
	<path class="st10" d="M1236.9,1045.5c54.9,79.1,35.2,187.7-43.9,242.5c-79.1,54.9-187.7,35.2-242.5-43.9
		c-54.9-79.1-35.2-187.7,43.9-242.5c29.3-20.3,64-31.1,99.6-31.1C1151,970.7,1204.3,998.7,1236.9,1045.5z"/>
	<path class="st4" d="M919.7,578.4h958.6v130.7H919.7V578.4z"/>
	<path class="st11" d="M1819,360.6c-31.8-28-72.7-43.5-115-43.6h-130.7V186.3c0-96.3-78-174.3-174.3-174.3
		c-96.3,0-174.3,78-174.3,174.3V317H1094c-96.2,0.2-174.1,78.1-174.3,174.3v87.1h958.6v-87.1C1878.3,441.2,1856.7,393.6,1819,360.6z
		"/>
	<path class="st12" d="M1120.5,2398.9l-53.2,53.2l-70.2,70.2L904,2452l-24-17.9c-10.9,6.6-22.1,12.5-33.6,17.9
		c-25.8,12.6-52.8,22.6-80.6,29.6l-8.3,57.5h-99.3c-37.7,0-74.4-12.2-104.6-34.9l-3.1-22.7c-9.6-2.6-19.6-5.2-28.8-8.3
		c-24.5-30.9-37.8-69.1-37.9-108.5v-703.3c21.5-9.8,43.8-17.7,66.7-23.5l20.5-144.7h87.1v827.9c0,24.1,19.5,43.6,43.6,43.6h393
		L1120.5,2398.9z"/>
	<path class="st11" d="M992.9,2080.4c-10.2,40.2-26.2,78.6-47.5,114.2l88,117.2l-53.2,53.2l-70.2,70.2l-93.2-70.2l-24-17.9
		c-10.9,6.6-22.1,12.5-33.6,17.9c-25.8,12.6-52.8,22.6-80.6,29.6l-20.5,144.7H483.9l-20.5-144.7c-40.2-10.2-78.6-26.2-114.2-47.5
		l-117.2,88l-123.3-123.3l88-117.2c-21.3-35.5-37.3-74-47.5-114.2L4.7,2059.9v-174.3l144.7-20.5c10.2-40.2,26.2-78.6,47.5-114.2
		l-88-117.2l123.3-123.3l117.2,88c35.5-21.3,74-37.3,114.2-47.5l20.5-144.7h174.3l20.5,144.7c40.2,10.2,78.6,26.2,114.2,47.5
		l117.2-88l123.3,123.3l-88,117.2c21.3,35.5,37.3,74,47.5,114.2l144.7,20.5v174.3L992.9,2080.4z"/>
	<path class="st13" d="M658.2,1772.7c-55.7-23.8-118.6-23.8-174.3,0c-110.5,48.4-160.8,177.1-112.4,287.6
		c22,50.3,62.1,90.4,112.4,112.4c55.7,23.8,118.6,23.8,174.3,0c110.5-48.4,160.8-177.1,112.4-287.6
		C748.6,1834.9,708.5,1794.8,658.2,1772.7z"/>
	<path class="st14" d="M1355.4,142.7h87.1v87.1h-87.1V142.7z"/>
	<g>
		<path class="st15" d="M527.5,1537h87.1v87.1h-87.1V1537z"/>
		<path class="st15" d="M231.9,1695.3l61.6-61.6l61.6,61.6l-61.6,61.6L231.9,1695.3z"/>
		<path class="st15" d="M135.4,1929.2h87.1v87.1h-87.1V1929.2z"/>
		<path class="st15" d="M231.9,2249.8l61.6-61.6l61.6,61.6l-61.6,61.6L231.9,2249.8z"/>
		<path class="st15" d="M527.5,2321.3h87.1v87.1h-87.1V2321.3z"/>
		<path class="st15" d="M786.4,2249.9l61.6-61.6l61.6,61.6l-61.6,61.6L786.4,2249.9z"/>
		<path class="st15" d="M919.7,1929.2h87.1v87.1h-87.1V1929.2z"/>
		<path class="st15" d="M786.5,1695.4l61.6-61.6l61.6,61.6l-61.6,61.6L786.5,1695.4z"/>
	</g>
	<path class="st16" d="M1062.9,1157.6l217.8-217.8l61.6,61.6l-217.8,217.8L1062.9,1157.6z"/>
	<path class="st17" d="M1399,1014.2h87.1v87.1H1399V1014.2z"/>
	<path class="st17" d="M1573.2,1014.2h174.3v87.1h-174.3V1014.2z"/>
	<path class="st17" d="M1399,1188.4h261.4v87.1H1399V1188.4z"/>
</g>
</svg>
