<?xml version="1.0" encoding="utf-8"?>
<!-- Generator: Adobe Illustrator 24.3.0, SVG Export Plug-In . SVG Version: 6.00 Build 0)  -->
<svg version="1.1" id="Capa_1" xmlns="http://www.w3.org/2000/svg" xmlns:xlink="http://www.w3.org/1999/xlink" x="0px" y="0px"
	 viewBox="0 0 900 900" style="enable-background:new 0 0 900 900;" xml:space="preserve">
<style type="text/css">
	.st0{fill-rule:evenodd;clip-rule:evenodd;fill:#E5E5E5;}
	.st1{fill-rule:evenodd;clip-rule:evenodd;fill:#7BACDF;}
	.st2{fill-rule:evenodd;clip-rule:evenodd;fill:#3987D0;}
	.st3{fill-rule:evenodd;clip-rule:evenodd;fill:#CECECE;}
	.st4{fill-rule:evenodd;clip-rule:evenodd;fill:#F9D3A5;}
	.st5{fill-rule:evenodd;clip-rule:evenodd;fill:#838383;}
	.st6{fill-rule:evenodd;clip-rule:evenodd;fill:#595959;}
	.st7{fill-rule:evenodd;clip-rule:evenodd;fill:#F9BF8C;}
	.st8{fill-rule:evenodd;clip-rule:evenodd;fill:#B5ADB6;}
	.st9{fill-rule:evenodd;clip-rule:evenodd;fill:#0067B4;}
	.st10{fill-rule:evenodd;clip-rule:evenodd;fill:#FE9737;}
	.st11{fill-rule:evenodd;clip-rule:evenodd;fill:#FE7600;}
	.st12{fill-rule:evenodd;clip-rule:evenodd;fill:#E6581F;}
	.st13{fill-rule:evenodd;clip-rule:evenodd;fill:#F36B37;}
	.st14{fill-rule:evenodd;clip-rule:evenodd;fill:#44BC0C;}
	.st15{fill-rule:evenodd;clip-rule:evenodd;fill:#30870B;}
	.st16{fill:#E5E5E5;}
	.st17{fill-rule:evenodd;clip-rule:evenodd;fill:#0078C8;}
</style>
<g>
	<g>
		<path class="st0" d="M900,833.3v-79.7c0-42.4-27.5-51.1-62.6-72.1H615c-35.1,21-62.6,29.7-62.6,72.1v79.7c0,9.8,4.5,8.6,12,8.6
			h23.2h110.8h27.8h27.7h111H888C895.5,841.9,900,843.1,900,833.3L900,833.3z"/>
	</g>
	<g>
		<path class="st1" d="M775.4,804.1l-28.5-61.7l-20.7-11.7l-20.8,11.7l-28.5,61.7c-0.3,0.6-0.5,0.6-0.1,1.1l21.6,36.7h27.8h27.7
			l21.6-36.7C775.8,804.7,775.6,804.7,775.4,804.1L775.4,804.1z"/>
	</g>
	<g>
		<path class="st2" d="M746.9,742.4l8.8-34.7l4.5-17.2l-34.1-14.1l-16,7.5l-17.8,8.3l4.2,15.6l8.8,34.6h20.7H746.9z"/>
	</g>
	<g>
		<path class="st3" d="M696.6,707.8l29.6-31.4l-20.4-19.7l-39.9-5.7L615,681.4l53,34.3c9.9,5.7,12.1,11.1,19.5,1.6L696.6,707.8z"/>
	</g>
	<g>
		<path class="st3" d="M784.4,715.7l53-34.3L786.6,651l-30.8,2.1l-29.6,23.4l29.6,31.3l9.1,9.7C772.3,726.8,774.5,721.5,784.4,715.7
			L784.4,715.7z"/>
	</g>
	<g>
		<path class="st4" d="M786.6,651c21.5-17.8,37.6-42.5,42.9-65.7c1.2-5.3,1.9-10.6,1.9-15.7v-61.9V500H812
			c-40.9,0-49.4-50.3-99.5-50.3h-24.3c-38.3,0-9.1,58-53.2,58h-13.9v61.9c0,5.1,0.7,10.4,1.9,15.7c5.3,23.2,21.4,47.8,42.9,65.7
			c10.3,8.6,21.9,15.6,34,20.1c9.5,3.6,17.9,5.3,26.3,5.3c8.4,0,16.8-1.7,26.3-5.3C764.7,666.6,776.2,659.6,786.6,651L786.6,651z"/>
	</g>
	<g>
		<path class="st5" d="M831.3,479.7c0-49.1-50.4-82.4-97.1-87.2h-22.1c-18,2-33.8,9.1-43.9,22.2c-50.8,4.5-47.1,72-47.1,80.9v17.2
			v24.5H635c44,0,14.9-58,53.2-58h24.3c50,0,58.6,50.3,99.5,50.3h19.4v-15.2L831.3,479.7z"/>
	</g>
	<g>
		<path class="st6" d="M831.3,500v-20.2c0-49.1-50.4-82.4-97.1-87.2h-22.1c45.5,6.2,93.1,39.1,93.1,86.7v20.1v7.7v6.7v15.3
			c2.2,0.3,4.4,0.5,6.7,0.5h19.4v-15.2v-6.7L831.3,500L831.3,500z"/>
	</g>
	<g>
		<path class="st7" d="M831.3,569.6v-32.3v-7.7H812c-2.4,0-4.6-0.2-6.7-0.5c-35.3-5.1-45.6-49.9-92.8-49.9h-24.3
			c-14.1,0-19.1,7.9-21.9,17.9h27.9c47.1,0,57.4,49.8,92.7,54.9l15.4,0.3c3.1,0,3,1.1,3,4V569c0,5.1-0.7,10.4-1.9,15.7
			c-5.3,23.2-21.4,47.8-42.9,65.7c-1,0.8-2.1,1.7-3.1,2.5c-3.9,3-8,5.8-12.1,8.4c-6.1,3.7-12.4,6.8-18.8,9.2
			c-1.6,0.6-3.1,1.2-4.7,1.6c-3.4,1.1-6.7,2-9.9,2.6c4.9,1.1,9.6,1.7,14.3,1.7c8.4,0,16.8-1.7,26.3-5.3c12.2-4.5,23.7-11.5,34-20.1
			c21.5-17.8,37.6-42.5,42.9-65.7C830.7,580,831.3,574.7,831.3,569.6L831.3,569.6z"/>
	</g>
	<g>
		<path class="st8" d="M702.2,701.9l24-25.5c-4.7,0-9.4-0.6-14.3-1.7c-3.8-0.9-7.8-2.1-12-3.6c-12.2-4.5-23.7-11.5-34-20.1
			l-24.4,14.6c2.9,2.8,5.9,5.4,8.9,7.9c12.9,10.8,27.5,19.6,42.8,25.3c0.4,0.2,0.8,0.3,1.2,0.4C697,700.3,699.6,701.1,702.2,701.9
			L702.2,701.9z"/>
	</g>
	<g>
		<path class="st8" d="M759.3,698.9c15.3-5.7,29.8-14.5,42.8-25.3c3.1-2.5,6.1-5.2,8.9-7.9L786.6,651c-10.3,8.6-21.9,15.6-34,20.1
			c-9.5,3.6-17.9,5.3-26.3,5.3l24.1,25.5c2.5-0.8,5.1-1.6,7.7-2.6C758.4,699.2,758.8,699,759.3,698.9L759.3,698.9z"/>
	</g>
	<g>
		<path class="st9" d="M750.3,701.9l-24.1-25.5L713.5,690l13.7,18l4.2,5.3c1.3,1.6,0.9,1.8,0.4,3.8l-4.1,15.9l-1.5,9.4h20.7
			l8.8-34.7L750.3,701.9z"/>
	</g>
	<g>
		<path class="st2" d="M775.4,804.1l-28.5-61.7h-20.7l21.6,61.7c0.3,0.6,0.5,0.6,0.1,1.1l-21.6,36.7h27.7l21.6-36.7
			C775.8,804.7,775.6,804.7,775.4,804.1z"/>
	</g>
	<g>
		<path class="st3" d="M900,753.6c0-42.4-27.5-51.1-62.6-72.1l-32.7,21.1c30.3,17.3,52.9,28.1,52.9,66.4v72.9h7.2H888
			c7.5,0,12,1.2,12-8.6L900,753.6L900,753.6z"/>
	</g>
	<g>
		<path class="st0" d="M347.5,833.3v-79.7c0-42.4-27.5-51.1-62.5-72.1l-111.2-5l-111.2,5C27.5,702.5,0,711.2,0,753.6v79.7
			c0,9.8,4.5,8.6,12,8.6h23.2H146h27.8h27.7h110.9h23.2C343,841.9,347.5,843.1,347.5,833.3z"/>
	</g>
	<g>
		<path class="st10" d="M222.9,804.1l-28.5-61.7l-20.7-11.7L153,742.4l-28.5,61.7c-0.3,0.6-0.5,0.6-0.1,1.1l21.6,36.7h27.8h27.7
			l21.6-36.7C223.4,804.7,223.2,804.7,222.9,804.1z"/>
	</g>
	<g>
		<path class="st11" d="M194.4,742.4l8.9-34.7l4.5-17.2l-34.1-14.1l-16,7.5l-17.8,8.3l4.2,15.6l8.8,34.6h20.7H194.4z"/>
	</g>
	<g>
		<path class="st3" d="M144.1,707.8l29.6-31.4l-20.4-19.7l-40-5.7l-50.9,30.5l53.1,34.3c9.9,5.7,12.1,11.1,19.5,1.6L144.1,707.8z"/>
	</g>
	<g>
		<path class="st3" d="M231.9,715.7l53.1-34.3L234.1,651l-30.8,2.1l-29.6,23.4l29.6,31.3l9.1,9.7
			C219.9,726.8,222.1,721.5,231.9,715.7L231.9,715.7z"/>
	</g>
	<g>
		<path class="st4" d="M234.1,651c21.5-17.8,37.6-42.5,42.9-65.7c1.2-5.3,1.8-10.6,1.8-15.7v-61.9V500h-19.3
			c-40.9,0-49.5-50.3-99.5-50.3h-24.3c-38.3,0-9.1,58-53.2,58H68.7v61.9c0,5.1,0.6,10.4,1.8,15.7c5.3,23.2,21.4,47.8,42.9,65.7
			c10.3,8.6,21.9,15.6,34,20.1c9.6,3.6,18,5.3,26.3,5.3s16.7-1.7,26.3-5.3C212.3,666.6,223.8,659.6,234.1,651z"/>
	</g>
	<g>
		<path class="st5" d="M278.8,479.7c0-49.1-50.4-82.4-97.1-87.2h-22.1c-18,2-33.8,9.1-43.9,22.2c-50.8,4.5-47,72-47,80.9v17.2v24.5
			h13.8c44.1,0,14.9-58,53.2-58h24.3c50,0,58.6,50.3,99.5,50.3h19.3v-15.2V479.7z"/>
	</g>
	<g>
		<path class="st6" d="M278.8,500v-20.2c0-49.1-50.4-82.4-97.1-87.2h-22c45.5,6.2,84.4,34.3,84.4,82v20.2v7.7v11.4l8.6,15.3
			c2.2,0.3,4.4,0.5,6.8,0.5h19.3v-15.2v-6.7L278.8,500z"/>
	</g>
	<g>
		<path class="st8" d="M149.7,701.9l24-25.5c-4.7,0-9.4-0.6-14.4-1.7c-3.8-0.9-7.8-2.1-12-3.6c-12.2-4.5-23.7-11.5-34-20.1L89,665.6
			c2.9,2.8,5.9,5.4,8.9,7.9c13,10.8,27.5,19.6,42.8,25.3c0.4,0.2,0.8,0.3,1.2,0.4C144.6,700.3,147.2,701.1,149.7,701.9L149.7,701.9z
			"/>
	</g>
	<g>
		<path class="st8" d="M206.8,698.9c15.3-5.7,29.8-14.5,42.8-25.3c3.1-2.5,6.1-5.2,8.9-7.9L234.1,651c-10.3,8.6-21.9,15.6-34,20.1
			c-9.6,3.6-18,5.3-26.3,5.3l24.1,25.5c2.5-0.8,5-1.6,7.7-2.6C205.9,699.2,206.4,699,206.8,698.9z"/>
	</g>
	<g>
		<path class="st12" d="M197.8,701.9l-24.1-25.5L161,690l13.7,18l4.2,5.3c1.3,1.6,1,1.8,0.5,3.8l-4.1,15.9l-1.5,9.4h20.7l8.9-34.7
			L197.8,701.9z"/>
	</g>
	<g>
		<path class="st13" d="M222.9,804.1l-28.5-61.7h-20.7l21.5,61.7c0.3,0.6,0.5,0.6,0.1,1.1l-21.6,36.7h27.7l21.6-36.7
			C223.4,804.7,223.2,804.7,222.9,804.1z"/>
	</g>
	<g>
		<path class="st3" d="M347.5,753.6c0-42.4-27.5-51.1-62.5-72.1l-32.7,21.1c30.3,17.3,52.9,28.1,52.9,66.4v72.9h7.2h23.2
			c7.5,0,12,1.2,12-8.6L347.5,753.6L347.5,753.6z"/>
	</g>
	<g>
		<path class="st14" d="M322.7,67.4c65.4-65.3,171.4-65.3,236.8,0c65.3,65.3,65.3,171.2,0,236.5c-65.4,65.3-171.4,65.3-236.8,0
			C257.3,238.6,257.3,132.8,322.7,67.4L322.7,67.4z"/>
	</g>
	<g>
		<path class="st15" d="M503.4,67.4c65.4,65.3,65.4,171.2,0,236.5c-21.4,21.3-47,35.7-74.2,43.1c-5.3,1.4-10.7,2.6-16.2,3.5
			c24,4,48.7,2.9,72.2-3.5c27.2-7.4,52.9-21.8,74.2-43.1c30.1-30.1,46.4-68.8,48.7-108.2c0.4-6.7,0.4-13.3,0-20
			c-2.4-39.4-18.6-78.1-48.7-108.2c-23.8-23.7-52.9-38.8-83.5-45.3c-20.7-4.4-42.1-4.8-62.9-1.3C446.1,26.4,477.9,41.9,503.4,67.4z"
			/>
	</g>
	<g>
		<path class="st16" d="M415.5,245.6c-3.2,0-6.3-1.1-8.8-3.2l-46-39c-5.7-4.8-6.4-13.4-1.6-19.1c4.8-5.7,13.4-6.4,19.1-1.6
			l35.6,30.1l77.9-92.9c4.8-5.7,13.4-6.5,19.1-1.7c5.7,4.8,6.5,13.4,1.7,19.1l-86.6,103.3c-2.3,2.8-5.7,4.5-9.3,4.8
			C416.2,245.6,415.9,245.6,415.5,245.6L415.5,245.6z"/>
	</g>
	<g>
		<path class="st7" d="M252.8,529.1c-35.3-5.1-45.6-49.9-92.7-49.9h-24.3c-14.2,0-19.1,7.9-21.9,17.9h27.9c47.1,0,57.4,49,92.7,54.1
			h8.6c1.4,0,1.2,0.7,1.2,2.1c0,10.8,0.6,20.8-1.9,31.4c-0.1,0.6-0.3,1.1-0.4,1.7c-8,34.2-18.7,56.3-49.1,74.9
			c-6,3.7-12.3,6.8-18.8,9.2c-1.6,0.6-3.1,1.2-4.7,1.6c-3.4,1.1-6.7,2-10,2.6c4.9,1.1,9.7,1.7,14.4,1.7c8.4,0,16.7-1.7,26.3-5.3
			c12.2-4.5,23.7-11.5,34-20.1c21.5-17.8,37.6-42.5,42.9-65.7c1.2-5.3,1.8-10.6,1.8-15.7v-32.3v-7.7h-19.3
			C257.2,529.6,254.9,529.4,252.8,529.1L252.8,529.1z"/>
	</g>
	<g>
		<path class="st6" d="M244.2,527c2.7,1,5.5,1.7,8.6,2.2c2.2,0.3,4.4,0.5,6.8,0.5h19.3c0-16.6,0-33.2,0-49.8
			c0-49.1-50.4-82.4-97.1-87.2h-22c45.5,6.2,84.4,34.3,84.4,82L244.2,527z"/>
	</g>
	<g>
		<path class="st1" d="M623.8,872.9v-79.7c0-42.3-27.5-51.1-62.6-72.1l-53,34.3c-9.9,5.7-12.1,11.1-19.5,1.6l-9.1-9.6L450,716
			l-29.6,31.3l-9.1,9.6c-7.4,9.5-9.6,4.1-19.5-1.6l-53-34.3c-35.1,21-62.6,29.7-62.6,72.1v79.7c0,9.8,4.5,8.6,12,8.6h23.2h110.8H450
			h27.7h110.9h23.2C619.3,881.5,623.8,882.7,623.8,872.9L623.8,872.9z M429.2,782l-28.5,61.7L429.2,782z"/>
	</g>
	<g>
		<path class="st10" d="M499.2,843.7L470.7,782L450,770.3L429.2,782l-28.5,61.7c-0.3,0.6-0.5,0.7-0.1,1.2l21.6,36.7H450h27.7
			l21.6-36.7C499.6,844.3,499.4,844.3,499.2,843.7L499.2,843.7z"/>
	</g>
	<g>
		<path class="st11" d="M470.7,782l8.8-34.7l4.5-17.2L450,716l-16,7.4l-17.8,8.3l4.2,15.6l8.8,34.6h20.7L470.7,782z"/>
	</g>
	<g>
		<path class="st17" d="M420.4,747.4L450,716l-20.4-19.7l-40-5.8l-50.8,30.5l53,34.3c9.9,5.7,12.1,11.1,19.5,1.6L420.4,747.4z"/>
	</g>
	<g>
		<path class="st17" d="M508.2,755.4l53-34.3l-50.9-30.5l-30.8,2.1L450,716.1l29.6,31.3l9.1,9.6
			C496.1,766.4,498.3,761.1,508.2,755.4L508.2,755.4z"/>
	</g>
	<g>
		<path class="st4" d="M510.3,690.6c21.5-17.8,37.6-42.5,42.9-65.6c1.2-5.4,1.8-10.7,1.8-15.8v-61.9v-7.7h-19.3
			c-40.9,0-49.4-50.3-99.5-50.3h-24.3c-38.3,0-9.1,58-53.2,58h-13.9v61.9c0,5.1,0.7,10.4,1.8,15.8c5.3,23.2,21.5,47.8,42.9,65.6
			c10.3,8.6,21.9,15.6,34,20.1c9.6,3.5,18,5.3,26.3,5.3s16.8-1.8,26.3-5.3C488.5,706.2,500,699.1,510.3,690.6z"/>
	</g>
	<g>
		<path class="st5" d="M555.1,519.3c0-49.1-50.4-82.4-97-87.2h-22.1c-18,2-33.9,9.1-43.9,22.2c-50.8,4.5-47.1,72-47.1,80.9v17.2
			v24.5h13.9c44,0,14.9-58,53.2-58h24.3c50,0,58.6,50.3,99.5,50.3h19.3v-15.3L555.1,519.3L555.1,519.3z"/>
	</g>
	<g>
		<path class="st6" d="M555.1,519.3c0-49.1-50.4-82.4-97-87.2H436c45.5,6.2,93.1,39.1,93.1,86.7c-0.1,16.6-0.1,33.2,0,49.8
			c2.1,0.4,4.4,0.5,6.7,0.5h19.3C555.1,552.6,555.1,536,555.1,519.3z"/>
	</g>
	<g>
		<path class="st7" d="M529,568.7c-35.3-5.1-45.6-49.8-92.8-49.8h-24.3c-14.2,0-19.1,7.9-21.9,17.9h27.9c47.1,0,57.4,49,92.7,54.1
			h8.6c1.4,0,1.2,0.7,1.2,2.1c0,10.8,0.6,20.8-1.8,31.4c-0.2,0.6-0.3,1.1-0.4,1.6c-8,34.2-18.7,56.3-49.1,74.9
			c-6,3.7-12.3,6.8-18.8,9.2c-1.6,0.6-3.1,1.1-4.7,1.6c-3.4,1.1-6.7,1.9-10,2.6c4.9,1.1,9.7,1.7,14.4,1.7c8.4,0,16.8-1.8,26.3-5.3
			c12.2-4.6,23.7-11.6,34-20.1c21.5-17.8,37.6-42.5,42.9-65.6c1.2-5.4,1.8-10.7,1.8-15.8v-32.2v-7.7h-19.3
			C533.4,569.2,531.1,569.1,529,568.7L529,568.7z"/>
	</g>
	<g>
		<path class="st9" d="M426,741.5l24-25.4c-4.7,0-9.4-0.6-14.4-1.7c-3.8-0.9-7.8-2.1-12-3.6c-12.2-4.6-23.7-11.6-34-20.1l-24.4,14.7
			c2.9,2.7,5.9,5.4,8.9,7.9c13,10.8,27.5,19.6,42.8,25.3c0.4,0.2,0.8,0.3,1.2,0.5C420.8,739.9,423.4,740.7,426,741.5L426,741.5z"/>
	</g>
	<g>
		<path class="st9" d="M483.1,738.5c15.3-5.7,29.8-14.5,42.8-25.3c3.1-2.6,6.1-5.2,8.9-7.9l-24.4-14.7c-10.3,8.6-21.9,15.6-34,20.1
			c-9.5,3.5-18,5.3-26.3,5.3l24.1,25.4c2.5-0.7,5.1-1.6,7.7-2.5C482.2,738.8,482.6,738.6,483.1,738.5L483.1,738.5z"/>
	</g>
	<g>
		<path class="st12" d="M474,741.5L450,716l-12.7,13.5l13.6,18l4.2,5.3c1.3,1.6,1,1.8,0.5,3.8l-4.1,15.9L450,782h20.7l8.8-34.7
			L474,741.5z"/>
	</g>
	<g>
		<path class="st13" d="M499.2,843.7L470.7,782H450l21.5,61.7c0.3,0.6,0.5,0.7,0.1,1.2L450,881.5h27.7l21.6-36.7
			C499.6,844.3,499.4,844.3,499.2,843.7L499.2,843.7z"/>
	</g>
	<g>
		<path class="st2" d="M623.8,793.2c0-42.3-27.5-51.1-62.6-72.1l-32.7,21.1c30.3,17.3,52.9,28,52.9,66.4v72.9h7.2h23.2
			c7.5,0,12.1,1.2,12.1-8.6L623.8,793.2L623.8,793.2z"/>
	</g>
</g>
</svg>
