<?xml version="1.0" encoding="utf-8"?>
<!-- Generator: Adobe Illustrator 24.3.0, SVG Export Plug-In . SVG Version: 6.00 Build 0)  -->
<svg version="1.1" id="flag-icon-css-am" xmlns="http://www.w3.org/2000/svg" xmlns:xlink="http://www.w3.org/1999/xlink" x="0px"
	 y="0px" viewBox="0 0 640 480" style="enable-background:new 0 0 640 480;" xml:space="preserve">
<style type="text/css">
	.st0{fill:#CE1126;}
	.st1{fill:#FFFFFF;}
	.st2{fill:#007A3D;}
</style>
<rect class="st0" width="640" height="160"/>
<rect y="160" class="st1" width="640" height="160"/>
<rect y="320" width="640" height="160"/>
<polygon class="st2" points="206.8,253.4 222.6,297.9 184.8,270 184.8,269.8 184.7,270 146.9,297.9 162.7,253.4 163.1,253.1 
	163,253.1 124.1,226.8 170.9,226.9 183.7,182.1 198.2,226.8 198.1,227 198.2,226.9 245.5,226.8 206.5,253.1 206.3,253.1 "/>
<polygon class="st2" points="477.3,253.4 493.1,297.9 455.4,270 455.3,269.8 455.2,270 417.5,297.9 433.2,253.4 433.7,253.1 
	433.5,253.1 394.6,226.8 441.4,226.9 454.2,182.1 468.7,226.8 468.6,227 468.7,226.9 515.9,226.8 477,253.1 476.9,253.1 "/>
</svg>
